<?xml version="1.0" standalone="no"?>
<!DOCTYPE svg PUBLIC "-//W3C//DTD SVG 1.1//EN" "http://www.w3.org/Graphics/SVG/1.1/DTD/svg11.dtd" >
<svg xmlns="http://www.w3.org/2000/svg" xmlns:xlink="http://www.w3.org/1999/xlink" version="1.1">
<metadata>
Created by FontForge 20230101 at Sat Jul 10 22:03:30 1999
 By Glenn Lewis
http://fonts.tom7.com/ - Technetium Copyright (c) 1999 Tom Murphy 7 - Use and distribute freely, but never sell (on CD, for instance!) - ImightbeTM@aol.com - 399 Still Hill Rd - Hamden CT 06518.1830 - Enjoy! - May I abuse you please, in my subspace biogr
</metadata>
<defs>
<font id="Technetium" horiz-adv-x="458" >
  <font-face 
    font-family="Technetium"
    font-weight="400"
    font-stretch="normal"
    units-per-em="1000"
    panose-1="0 0 4 0 0 0 0 0 0 0"
    ascent="800"
    descent="-200"
    x-height="717"
    cap-height="736"
    bbox="-4 -148 2641 812"
    underline-thickness="20"
    underline-position="-143"
    unicode-range="U+0020-2026"
  />
<missing-glyph horiz-adv-x="500" 
d="M63 0v800h375v-800h-375zM125 63h250v675h-250v-675z" />
    <glyph glyph-name=".notdef" horiz-adv-x="500" 
d="M63 0v800h375v-800h-375zM125 63h250v675h-250v-675z" />
    <glyph glyph-name=".null" horiz-adv-x="0" 
 />
    <glyph glyph-name="nonmarkingreturn" horiz-adv-x="732" 
 />
    <glyph glyph-name="space" unicode=" " horiz-adv-x="732" 
 />
    <glyph glyph-name="exclam" unicode="!" horiz-adv-x="218" 
d="M189 235q-3 -5 -7.5 -11t-12.5 -6q-10 0 -35 8q-30 9 -47 19q7 136 -3 260q-1 6 -18.5 25t-22.5 32q-8 17 -9.5 40.5t-2.5 46.5q-6 72 -3 78q7 15 62 15q33 0 38.5 -6t5.5 -20q0 -13 -7 -42q0 -36 6 -52t31 -44.5t25 -34.5v-308zM163 99q0 -52 -25 -52h-44q-16 0 -26 28
q-8 22 -8 42q0 19 15 37t37 18q51 0 51 -73zM148 271q4 185 0 261q-2 21 -26.5 44.5t-29.5 43.5q-3 15 5 78l-26 2v-54q-2 -41 22 -80q16 -20 32 -50q4 -92 3 -245h20zM127 102q6 14 -6 22q-9 7 -19 0q-7 -5 -7 -15t7 -15q18 -11 25 8z" />
    <glyph glyph-name="quotedbl" unicode="&#x22;" horiz-adv-x="377" 
d="M172 620q0 -23 -7 -75q-8 -62 -16 -78q-6 4 -31.5 9t-31.5 14q-1 13 3 40q5 31 5 44q0 54 -56 77q2 41 10 57q10 21 39 21q13 0 42.5 -28.5t32.5 -38.5q10 -43 10 -42zM150 613q0 7 -10 32t-21 37q-17 18 -37 11l-14 -12q9 -3 17 -9q18 -17 29 -51q4 -11 4 -36
q0 -32 -6 -76l17 -3q21 98 21 107zM348 620q0 -23 -7 -75q-8 -62 -16 -78q-6 4 -31.5 9t-31.5 14q-1 13 3 40q5 31 5 44q0 54 -56 77q2 41 10 57q10 21 39 21q13 0 42.5 -28.5t32.5 -38.5q10 -43 10 -42zM326 613q0 7 -10 32t-21 37q-17 18 -37 11l-14 -12q9 -3 17 -9
q18 -17 29 -51q4 -11 4 -36q0 -32 -6 -76l17 -3q21 98 21 107z" />
    <glyph glyph-name="numbersign" unicode="#" horiz-adv-x="818" 
d="M783 364l-4 -95q-63 0 -195 -1q2 -14 28 -56q29 -46 37 -68q20 -55 12 -126l-95 3q0 9 3.5 36.5t3.5 41.5q0 35 -39.5 84t-41.5 80l-140 -7l7 -229l-95 3q0 73 -3 225q-164 6 -219 14l-6 75h94.5h84.5q2 0 41 5l-5 100q-160 5 -213 13l-6 75h95h84q2 0 39 5q6 169 14 226
l75 5v-94.5v-84.5q0 2 6 -47q32 1 50 1q9 -1 87 1q5 164 13 219l75 5v-94q1 -81 1 -85l5 -43l203 6l-4 -95q-63 0 -195 -1q2 -33 1 -50v-53zM754 341q-4 -5 -203 -12l-3 159q183 5 199 5l3 41q-6 -8 -201 -14q0 22 -3 66q-2 40 -2 42q0 75 3 111l-21 5q-5 -59 -8 -153
q-1 -30 -3 -74h-200q-2 60 -2 111q0 75 3 111l-21 5q-6 -59 -8 -153q-1 -46 -2 -82q-22 0 -65 1q-51 1 -43 1q-74 0 -110 3l-6 -21q60 -5 153 -8q18 0 35 -1h36q3 -65 7 -165q-17 -1 -111 -1q-74 0 -110 3l-6 -21q59 -5 153 -8q30 -2 73 -4q5 -181 4 -230l41 -3
q-9 7 -16 233q11 0 66 4q48 3 72 3l65 -1q0 -29 29 -78q38 -65 44.5 -82.5t4.5 -44.5l-4 -40l31 -2l3 17q5 21 5 36q0 33 -42 94t-43 103q148 4 200 3zM521 324q-115 -3 -201 -3l-2 162q47 2 136 5h26l37 -2zM487 356l-5 100l-133 -7q1 -24 0 -38q0 -8 1 -57q31 1 49 1
q9 -1 88 1z" />
    <glyph glyph-name="dollar" unicode="$" horiz-adv-x="443" 
d="M420 648q0 -7 -5.5 -13.5t-5.5 -7.5q-5 0 -31 7q-9 2 -42 -2q2 -20 40.5 -28t37.5 -28q-2 -12 -9 -38v-16q0 -8 -7 -8q-10 0 -47 16q-40 18 -61 34q-2 3 -11 20q-6 13 -18 13q-29 0 -27 -36q2 -32 2 -89v-20q0 -45 2 -52q5 -14 45 -28q48 -17 66 -31q14 -10 38 -38
q10 -19 10 -50v-66q-4 -44 -28 -76q-17 -21 -77 -31q-72 -11 -86 -19q0 -9 -3.5 -35t-3.5 -38q-25 4 -80 0q-8 5 -6 39q2 36 0 39q-3 4 -30 4h-33q-23 1 -36 9q-1 30 7 62q69 9 96 41q20 23 20 80q0 34 -6 43q-14 20 -49 43q-41 25 -53 38q-24 25 -24 62q0 15 9 71
q10 69 22 105q7 23 48 58q7 6 25.5 11.5t25.5 9.5q1 30 8 89h30q6 0 10 -5t10 -5h19.5h21.5q0 -8 -2.5 -26.5t-2.5 -24.5q0 -19 9 -22h18q6 0 24.5 5t24.5 5q17 0 60.5 -9t47.5 -14q0 -6 3.5 -24.5t3.5 -23.5zM382 682q-56 3 -67 3q-6 0 -24.5 -10t-24.5 -10t-10 5t-9 5h-47
q-4 67 0 77h-28v-77q-42 -1 -81 -34q-47 -41 -47 -183q0 -42 51 -82q32 -22 64 -45q6 -8 8 -20q1 -9 0 -22l-2 -16q0 -14 -13 -95q-9 -53 -101 -53l3 -18q20 2 39 2q58 0 58 -22q0 -5 -2 -27t-2 -33h23q0 4 3 14t3 17q0 20 -4 23q6 6 4.5 13.5t2.5 8.5q48 4 97 9.5t72 32.5
q20 24 20 70t-11 64q-29 48 -85 72q-12 5 -41 7q-24 1 -30 9t-6 20q0 8 4 24.5t4 21.5q2 38 0 77q-3 45 -3 48q0 28 13 48q9 15 14 17t42 2q1 0 34 -28q40 -34 74 -54q-2 17 0 29q-2 7 -39.5 24.5t-37.5 33.5q0 5 2 9q13 27 79 20zM173 579q0 -138 -5 -184q-2 -17 -22 -17
q-7 0 -35 24.5t-31 31.5q-9 27 -9 60q0 22 6 41q29 110 72 110q7 0 15.5 -4.5t8.5 -61.5zM342 226q0 -93 -120 -93q-41 0 -41 49q0 2 6 27t6 44q0 67 2.5 71.5t8.5 5.5q4 1 11 0q10 -1 12 -1q6 0 55.5 -31t52.5 -39q7 -18 7 -33zM134 441q0 134 -2 145q-13 -13 -23 -51
q-9 -33 -9 -51q0 -46 22 -46q5 0 12 3zM308 224q0 7 -17 29q-20 28 -40 31q-8 2 -21 0q-7 -62 0 -116q9 2 26.5 9.5t34.5 16t17 30.5z" />
    <glyph glyph-name="percent" unicode="%" horiz-adv-x="688" 
d="M372 552q0 -35 -32.5 -68.5t-61.5 -33.5q-49 0 -74 40q-20 30 -20 67q0 29 24 68q30 51 73 51q30 0 62 -51q29 -45 29 -73zM670 615q6 -18 -57 -71q-84 -71 -102 -93q-14 -17 -40 -41q-40 -37 -120 -133q-59 -70 -76 -70q-4 0 -18.5 8t-28.5 8q-38 0 -74.5 -39t-48.5 -86
q-8 -13 -23 -13q-7 0 -23 17q-22 25 -34 34.5t-12 37.5q0 12 32 43q27 31 85 81q23 15 58 31t46 16q7 0 11 -3t11 -3t161.5 174t161.5 174q8 0 40 -28q48 -42 51 -44zM604 162q0 -36 -27.5 -67.5t-55.5 -31.5q-46 0 -77 40q-28 35 -28 76q0 49 50 80q42 26 87 25
q10 -17 29 -60q22 -49 22 -62zM333 552q0 80 -48 85q-28 4 -47 -31q-15 -29 -15 -54q0 -64 47 -64q19 0 41 19.5t22 44.5zM621 604q0 21 -37 39q-76 -84 -151 -168q-90 -99 -143 -175q-7 -10 -20 -10q-7 0 -22.5 8t-21.5 8q-34 0 -99 -62q-58 -54 -69 -80q12 0 24 -13
q32 53 75 86q40 30 69 30q7 0 24 -5.5t23 -5.5q9 0 59 56q26 31 52 61q27 23 68 63q16 18 98 94q71 64 71 74zM565 165q-14 80 -44 80q-17 0 -43 -17q-29 -21 -29 -43q0 -8 21 -44q-2 5 -2 14q0 24 9 44q11 24 30 24q9 0 42 -31q3 -4 3 -11q0 -20 -10 -40q-12 -23 -29 -23
q-21 0 -41 10q26 -26 44 -26q49 0 49 63zM535 165q0 26 -20 26t-20 -26t20 -26t20 26zM318 559q0 -19 -18 -33.5t-41 -14.5q-10 0 -20.5 10t-10.5 20q0 18 11.5 40.5t27.5 22.5q18 0 34.5 -13.5t16.5 -31.5zM290 566q-6 15 -20 11t-10 -21q3 -13 14 -14q8 -1 13.5 7.5
t2.5 16.5z" />
    <glyph glyph-name="ampersand" unicode="&#x26;" horiz-adv-x="573" 
d="M539 289q0 -11 -37 -36q-43 -29 -53 -46q44 -52 84 -94q-5 -9 -18 -27q-27 -30 -45 -30q-7 0 -25.5 16.5t-35.5 32.5q-7 5 -23 30q-13 18 -24 18q-4 0 -8 -1l-72 -30q-66 -26 -113 -29q-38 -2 -50 0q-33 7 -67 41q-23 24 -35 45q-6 14 -6 44q0 68 38 130q2 4 71 94
q39 50 39 88q0 5 -16 60t-16 64q0 95 100 95q50 0 89 -61q33 -51 33 -90q0 -28 -24 -68q0 -1 -14.5 -14t-14.5 -21q0 -7 50 -99q52 -96 65 -96q5 0 46 21t48 21t20.5 -17t13.5 -41zM501 286l-11 32q-81 -50 -90 -50q-24 0 -30 14q-14 33 -39 85q-77 124 -77 131q0 8 29 50
t29 61q0 31 -19 65q-25 43 -66 43q-29 0 -59 -39q-10 -14 -10 -21q0 -6 5 -16t7 -15q5 -19 22 -62q14 -34 14 -40q0 -9 -13 -33q-9 -11 -29 -38q-40 -52 -79 -105q-37 -57 -37 -107t30.5 -77.5t85.5 -27.5q34 0 135 33q11 3 43 18q26 13 32 13q-2 0 27 -41q31 -45 57 -63
l33 9q-76 92 -76 112q0 16 86 69zM264 627q0 -1 2 -12t2 -19q0 -27 -26 -27t-42.5 37t-11.5 68q3 22 31 22q45 0 45 -69zM338 244q-2 -2 -34.5 -19t-66 -34.5t-68.5 -17.5q-79 0 -79 63q0 56 28 95q48 55 95 111h29q8 -35 37 -95t59 -103zM247 620q0 18 -15 28q-8 5 -20 5
q-6 0 -6 -6q0 -11 12.5 -28t20.5 -17t8 18zM285 259q-21 60 -71 125q-29 -16 -51 -42q-33 -36 -33 -73q0 -18 8 -35q11 -24 39 -24q31 0 51 12q29 19 57 37z" />
    <glyph glyph-name="quotesingle" unicode="'" horiz-adv-x="200" 
d="M172 620q0 -23 -7 -75q-8 -62 -16 -78q-6 4 -31.5 9t-31.5 14q-1 13 3 40q5 31 5 44q0 54 -56 77q2 41 10 57q10 21 39 21q13 0 42.5 -28.5t32.5 -38.5q10 -43 10 -42zM150 613q0 7 -10 32t-21 37q-17 18 -37 11l-14 -12q9 -3 17 -9q18 -17 29 -51q4 -11 4 -36
q0 -32 -6 -76l17 -3q21 98 21 107z" />
    <glyph glyph-name="parenleft" unicode="(" horiz-adv-x="227" 
d="M190 113q0 -22 -33 -90q-72 23 -98 73q-19 37 -19 105v37q1 25 1 38q0 46 -7 78q-6 28 -6 121q0 85 20 181q2 13 18.5 36t50.5 35q12 5 58 14q15 -21 15 -50q0 -19 -6 -27q-20 -15 -53 -51q-11 -17 -17 -46q-2 -16 -2 -27q0 -108 10 -176q4 -25 4 -53q0 -10 -1 -29v-28
q0 -52 20 -103q4 -8 26 -16q19 -8 19 -22zM160 690q0 11 -8 14q-46 -11 -57 -28q-16 -24 -24 -85q-10 -81 -10 -123q0 -4 6 -107q6 -117 9 -169q2 -46 11 -69q14 -34 55 -63q11 29 11 46q-59 35 -59 201v46q1 30 1 45q0 45 -4 73q-2 23 -2 75q0 54 8 80q5 16 34 38t29 26z
" />
    <glyph glyph-name="parenright" unicode=")" horiz-adv-x="227" 
d="M190 290q0 -85 -19 -182q-3 -12 -19 -35.5t-50 -35.5q-12 -4 -58 -14q-16 22 -16 51q0 19 7 27q19 15 53 51q11 16 16 45q3 17 3 28q0 108 -10 176q-4 25 -4 53v29q1 18 1 27q0 53 -20 103q-4 9 -25 16.5t-21 21.5q0 23 34 90q71 -23 98 -73q19 -36 19 -105q0 -12 -1 -37
v-37q0 -46 7 -78q5 -28 5 -121zM158 297q0 4 -6 107q-7 117 -9 169q-2 46 -11 68q-14 34 -56 63q-10 -28 -10 -45q59 -35 59 -201q0 -16 -1 -46v-45q0 -45 3 -73q3 -23 3 -75q0 -54 -9 -81q-5 -15 -33.5 -37t-28.5 -26q0 -11 8 -15q45 12 57 29q16 23 24 84q10 82 10 124z
" />
    <glyph glyph-name="asterisk" unicode="*" horiz-adv-x="305" 
d="M278 554q-18 0 -53 -3q10 -20 31 -60q-14 -10 -44 -32q-13 19 -45 57q-3 -3 -31 -35q-18 -22 -26 -22q-15 0 -50 36q10 12 49 71q-8 0 -27.5 -4.5t-23.5 -4.5q-21 0 -21 38t15 38q5 0 4 -2t4 -2q1 0 66 22q2 21 -2.5 39.5l-4.5 18.5q0 6 10 11q26 -8 72 -24l3 -57
q9 -11 28 -11h38q0 -7 3 -12q-2 -17 1.5 -30.5t3.5 -14.5v-17zM248 581v25q-1 0 -23 -1q-16 -1 -25 0q-12 2 -16 7q-8 10 -8 30q0 17 5 36l-28 12v-23q3 -13 3 -35q-8 -11 -40 -15q-44 -6 -50 -8q2 -2 2 -21q10 3 28 7h51q0 -3 1.5 -4.5t1.5 -6.5t-28.5 -42t-28.5 -41
q0 -6 2.5 -8t2.5 -3h13q16 19 32.5 39.5t21.5 20.5q9 0 51 -61l16 11q-19 28 -44 70q8 12 27 12q39 0 33 -1z" />
    <glyph glyph-name="plus" unicode="+" horiz-adv-x="447" 
d="M420 356q-64 -2 -156 -8q-11 -111 -4 -152q-15 -6 -42 -6q7 0 -33 -3q-20 -1 -26.5 4.5t-6.5 38.5q0 16 2 53.5t2 49.5q0 17 -2 21q-11 7 -34 7q-11 0 -36 -2t-38 -2q-11 0 -20 1l-2 47q-1 31 1 46q3 21 12 21h58h59q6 8 6 68q-1 72 0 78l93 2q12 0 21.5 -12t9.5 -23
q0 -7 -5 -66q-4 -46 -1 -51q5 -10 33 -10q6 0 22 1h24q41 0 61 -13q5 -11 4 -24q-2 -22 -2 -23v-43zM391 410q-67 2 -151 14q-5 2 -2 33q5 45 5 61q0 47 -12 47q-1 0 -5.5 -1.5t-9.5 -1.5t-10 2q0 -16 -6 -68q-8 -57 -11 -60.5t-8 -3.5q-4 0 -27 3.5t-40 3.5q-24 0 -45 -6
l-2 -38q55 0 80.5 -1.5l25.5 -1.5q13 0 17 -6.5t8 -13.5q-5 -47 -7 -130l38 -3q-2 108 -2 144q17 0 77 2q44 2 68 0q10 -1 18 -3z" />
    <glyph glyph-name="comma" unicode="," horiz-adv-x="200" 
d="M175 9q0 -23 -7 -75q-8 -62 -16 -78q-6 4 -31.5 9t-31.5 14q-1 13 3 40q5 31 5 44q0 54 -56 77q2 41 10 57q10 21 39 21q13 0 42.5 -28.5t32.5 -38.5q10 -43 10 -42zM153 2q0 7 -10 32t-21 37q-17 18 -37 11l-14 -12q9 -3 17 -9q18 -17 29 -51q4 -11 4 -36q0 -32 -6 -76
l17 -3q21 98 21 107z" />
    <glyph glyph-name="hyphen" unicode="-" horiz-adv-x="667" 
d="M632 468q-1 -27 -1 -54q-3 -41 -22 -41h-22h-22q-111 0 -251 -13q-16 -1 -74 -55q-15 -14 -60 -25q-39 -9 -68 -9q-75 0 -75 40q0 6 3.5 25t3.5 31h41h36q9 0 35.5 9t43.5 19q4 3 21 31q15 24 29 25l312 23q64 0 70 -6zM600 435q-37 13 -59 13q-7 0 -49 -8
q-50 -8 -68 -10q-58 -2 -143 -11q-11 -3 -31.5 -27.5t-28.5 -28.5q-45 -20 -139 -28l-1 -28q82 -2 123 15q23 10 54 44q28 30 40 32q69 9 294 9q3 0 3 8q1 12 5 20z" />
    <glyph glyph-name="hyphen" unicode="&#x2010;" horiz-adv-x="667" 
d="M632 468q-1 -27 -1 -54q-3 -41 -22 -41h-22h-22q-111 0 -251 -13q-16 -1 -74 -55q-15 -14 -60 -25q-39 -9 -68 -9q-75 0 -75 40q0 6 3.5 25t3.5 31h41h36q9 0 35.5 9t43.5 19q4 3 21 31q15 24 29 25l312 23q64 0 70 -6zM600 435q-37 13 -59 13q-7 0 -49 -8
q-50 -8 -68 -10q-58 -2 -143 -11q-11 -3 -31.5 -27.5t-28.5 -28.5q-45 -20 -139 -28l-1 -28q82 -2 123 15q23 10 54 44q28 30 40 32q69 9 294 9q3 0 3 8q1 12 5 20z" />
    <glyph glyph-name="hyphen" unicode="&#x2010;" horiz-adv-x="667" 
d="M632 468q-1 -27 -1 -54q-3 -41 -22 -41h-22h-22q-111 0 -251 -13q-16 -1 -74 -55q-15 -14 -60 -25q-39 -9 -68 -9q-75 0 -75 40q0 6 3.5 25t3.5 31h41h36q9 0 35.5 9t43.5 19q4 3 21 31q15 24 29 25l312 23q64 0 70 -6zM600 435q-37 13 -59 13q-7 0 -49 -8
q-50 -8 -68 -10q-58 -2 -143 -11q-11 -3 -31.5 -27.5t-28.5 -28.5q-45 -20 -139 -28l-1 -28q82 -2 123 15q23 10 54 44q28 30 40 32q69 9 294 9q3 0 3 8q1 12 5 20z" />
    <glyph glyph-name="period" unicode="." horiz-adv-x="215" 
d="M190 44q0 -26 -21.5 -44t-43.5 -18q-26 0 -47 29q-17 24 -17 44q0 23 11 61q18 56 45 56q73 0 73 -128zM152 32q9 6 9 22q0 17 -9 40q0 11 -6 22.5t-15 11.5q-15 0 -25 -23q-8 -19 -8 -36q0 -28 13 -37q19 -15 41 0z" />
    <glyph glyph-name="slash" unicode="/" horiz-adv-x="319" 
d="M305 747q-23 -81 -49 -172q-1 -3 -5 -31.5t-7 -38.5q-9 -39 -29 -109q-7 -22 -96 -372l-91 29q22 73 62 228l51 221q47 164 90 260zM273 720l-18 12q-20 -53 -50 -146q-7 -23 -63 -231q-24 -98 -77 -283l39 -14q-5 8 35 169q34 137 60 227q21 90 74 266z" />
    <glyph glyph-name="zero" unicode="0" 
d="M452 484q0 -67 -5 -219q1 -39 1 -78q-3 -72 -17 -115q-19 -58 -60 -58h-79q-31 0 -62 5q-66 12 -68 12l-46 4q-28 3 -42 14q-46 39 -46 99v199q0 6 -5 82t-5 82q0 4 4 25.5t4 30.5q-2 91 47 142q14 15 41 21q19 3 38 7q9 3 18 7q14 6 21 6q54 0 128 -25q94 -33 112 -84
q10 -30 15 -54q6 -37 6 -103zM418 501q0 37 -10 86q-15 69 -40 78q-12 4 -61 25q-37 16 -42 16q-7 0 -24 -2.5t-23 -2.5t-14.5 5t-14.5 5q-22 0 -61 -18q-48 -22 -59 -50.5t-12 -80.5q-2 -142 1 -241q4 -159 4 -168q0 -20 14 -43t27 -27q34 -11 95 -22q51 -8 64 -8
q80 0 114.5 6t36.5 74q5 155 5 368zM230 670q0 -96 -44 -140q-21 -10 -57 -30q-20 -13 -25 -13q-18 0 -18 38q0 5 -1.5 21.5t-1.5 22.5q4 113 103 113q11 0 27.5 -4t16.5 -8zM395 370q0 -139 1 -103q-3 -108 -19 -164q-9 -31 -88 -31q-49 0 -89 6.5t-44 7.5q-25 6 -41 23
q-29 28 -29 85q0 5 3.5 19.5t3.5 21.5q0 19 -4 83q-3 53 -1 83q3 36 0 45q39 19 77 39q52 25 66 59q20 44 22 73q3 45 5 55h16q6 0 34 -14q36 -19 39 -21q9 -3 24 -23q19 -25 20 -50q4 -102 4 -194zM184 610v32q-12 0 -21 -2q-24 -4 -35 -14.5t-11 -28.5q0 -8 2.5 -24.5
t2.5 -24.5q0 -6 -1 -12q20 3 41.5 29.5t21.5 44.5zM369 377q0 -6 -8 161q-3 52 -22 70q-6 6 -25 9q-28 5 -29 6q1 -8 1 -16q0 -53 -53 -113q-24 -27 -55 -47q-34 -22 -55 -22q0 -41 -1 -127q-1 -91 -1 -84q0 -53 16 -76q21 -29 66 -29q9 0 31.5 1t34.5 1q22 -1 44 -3
q23 0 28 8q14 21 17 149q0 25 5.5 67.5t5.5 44.5zM306 323q0 -26 -21 -108q-2 -5 -24 -13t-31 -8q-17 0 -26 31q-5 19 -5 35q0 119 51 119q56 0 56 -56zM272 316q-1 18 -17 29q-4 3 -8 3q-12 0 -14 -73q-2 -13 -3 -25q-1 -16 9 -16q17 -2 21 10q13 40 12 72z" />
    <glyph glyph-name="one" unicode="1" horiz-adv-x="547" 
d="M524 162q0 -20 -11 -55.5t-21 -35.5q-7 0 -49 5t-49 5q-85 0 -116 -16q-17 -16 -33 -32q-19 -17 -77 -17q-97 0 -104 3.5t-8 35.5q-1 30 3 42q1 2 9 2q5 0 27 -2.5t35 -2.5q42 0 58 22q-36 9 -103 9q-4 0 -14.5 -2t-16.5 -2q-10 0 -13 6.5t-6 39.5q-2 36 4 42t96 6
q50 0 66 -2q2 -1 21 -5q15 -3 21 -3q10 14 10 44q0 96 -11 177q-1 11 2 44q4 40 4 60q0 75 -39 104q-5 4 -21 6.5t-26 8.5q-7 33 0 67l4 20q6 9 34 9q22 0 67 -32t52 -48q14 -34 14 -148q0 -47 2 -149.5t2 -149.5q0 -22 13 -34q13 -1 36 0q29 2 39 2q55 0 99 -24zM480 140
q-77 4 -120 8q-31 4 -33 4q-9 -1 -13 57q-2 34 -1 63q-1 -21 -3 199q-1 90 -1 97q-3 59 -15 73q-24 30 -94 65v-26q23 4 50 -28q24 -30 28 -57q8 -54 8 -165q0 -60 -2.5 -134t-2.5 -66l2.5 -11.5t2.5 -20.5q0 -31 -29 -31q-6 0 -51 7.5t-52 7.5q-13 0 -87 -7l1 -21
q29 3 58 3q93 0 96 -34q2 -15 -18 -34t-35 -19q-27 0 -44 1q-2 0 -21 3q-12 3 -18 -1l1 -31q77 -6 120 5q14 3 38 32.5t33 31.5q23 4 50 4q26 0 76 -5.5t73 -5.5z" />
    <glyph glyph-name="two" unicode="2" horiz-adv-x="535" 
d="M484 217q0 -3 7 -34q5 -27 5 -45q0 -32 -15 -51q-12 -14 -60 -34q-26 -11 -71 -17q-32 -4 -186 -4q-9 0 -14.5 6.5t-10.5 11.5q1 37 2 73q3 45 16 64q5 6 28.5 18t30.5 18q101 97 126 130q35 48 37 110q2 38 -5 84q-10 71 -35 71q-10 0 -33 -18t-31 -35q-3 -8 -3 -29
q1 -28 0 -36q-4 -33 -49.5 -80t-67.5 -47q-21 0 -49 38q-4 4 -8 8.5t-1 7.5q2 3 49 48q29 28 36 52q-9 9 -17 9q-17 0 -57 -42q-48 -51 -55 -55q-2 4 -20 22q-15 15 -15 22q0 29 7 40q62 86 103 96q28 1 77 9q10 3 23 23q15 24 21 29q65 61 96 61q24 0 53.5 -16.5
t44.5 -44.5q27 -54 27 -201q0 -92 -11 -128q-12 -42 -57 -88q-8 -8 -140 -130q7 -3 57 -3q65 0 83 22q7 8 8 41.5t7 43.5q13 2 32 -3q24 -5 35 -17zM466 188q-1 7 -13.5 10.5t-12.5 9.5q-4 -34 -16 -75q-20 -18 -51 -30q-26 -11 -37 -11q-6 0 -22.5 -1.5t-25.5 -1.5
q-8 0 -27.5 2t-24.5 2q-9 0 -18.5 12.5t-9.5 21.5q0 13 66 73q40 36 81 72q42 42 58 70q5 9 7 24q3 21 4 25q8 26 8 72q0 141 -24 190q-8 15 -31 29.5t-35 14.5q-25 0 -68 -41q-34 -34 -42 -49q-13 -4 -42 -11q-16 0 -51 -6q-42 -13 -87 -86l14 -10q88 80 94 80q27 0 36 -6
q11 -9 11 -37t-22 -57q-7 -8 -41 -44q5 -5 14 -26q20 0 52 43q31 40 31 57q0 -7 9 65q3 25 42 57q34 29 44 29t27.5 -10.5t24.5 -21.5q16 -22 16 -60q-1 -34 -1 -68q0 -3 2.5 -17t1.5 -21q-12 -79 -55 -136q-30 -39 -128 -128q-16 -9 -31 -18q-19 -13 -19 -41q-4 -65 -1 -70
q4 -11 40 -11q15 0 119 17q110 18 126 26q1 1 5.5 41.5t2.5 50.5z" />
    <glyph glyph-name="three" unicode="3" horiz-adv-x="463" 
d="M439 520q0 -35 -12 -90q-2 -11 -32 -34.5t-30 -32.5l1 -2q5 -7 25 -22t27 -32q11 -27 11 -77q0 -15 -2.5 -46.5t-2.5 -47.5q0 -51 -32 -90q-34 -42 -84 -42q-11 0 -32.5 -7t-32.5 -7q-7 0 -33 11q-17 8 -34 15q-49 19 -97 25q-18 2 -49 2q-1 1 -1 29q0 6 -5 16.5t-5 16.5
q0 36 72 36q65 0 80 -8l32 -24q5 -3 16 -11.5t14 -8.5q12 0 33 7q26 10 39 25q20 21 20 59q0 45 -22 89q-9 19 -43 30l-42 14q-12 7 -15 33q-3 21 0 38q3 18 16 18q3 0 9 -1t8 -1q23 0 50 40q25 37 25 62q0 52 -11 117q-3 3 -17 3q-13 0 -31 -21q-23 -28 -41 -39
q-35 -20 -91 -20q-9 0 -27 2.5t-25 3.5q-14 31 -14 76q0 8 3 17q5 4 46 4q45 0 66 25q-2 0 -2 4q0 3 2.5 9.5t2.5 9.5q0 5 -11 5q-23 0 -43 15q-9 7 -9 25q0 16 7 36q5 16 66 16q34 0 54 -14q11 -8 25 -28.5t25 -25.5q27 -2 74 -13q43 -17 63 -81q16 -48 16 -108zM391 202
q0 45 -6 83q-3 15 -36.5 41.5t-33.5 30.5q0 6 4 15q72 33 72 132q0 1 1 17.5t1 29.5q0 106 -42 116q-27 4 -79 17q-10 4 -21 25q-14 26 -24 36q-20 17 -85 17q-4 0 -4 -3l3 -12q2 -9 -2 -11q25 -8 51.5 -18t26.5 -33q0 -39 -43 -58q-32 -14 -77 -14q-5 0 -7 -2q0 -20 6 -27
q27 1 43 0q42 -2 68 17q17 18 35 37t45 19q58 0 58 -143q0 -68 -23 -95q-14 -17 -81 -55q6 -11 5 -29l38 -13q61 -20 66 -131q7 -130 -105 -130q-7 0 -50.5 21t-104.5 21q-23 0 -33 -6q0 -15 5 -27q11 3 48 0q38 -2 48 -6q23 -13 46 -25q35 -19 62 -17q33 3 62 22
q51 32 57 70q1 4 4 48q2 27 2 40z" />
    <glyph glyph-name="four" unicode="4" horiz-adv-x="512" 
d="M472 446q0 -91 -11 -98q-3 -3 -7 -3q-6 0 -17 6.5t-16 6.5q-23 0 -24 -8q-6 -71 -6 -114q0 -67 -1 -48q2 -32 21 -50t33 -18q8 0 15 -8.5t7 -16.5q0 -6 -2.5 -28t-2.5 -33q-24 0 -73 -3t-52 -3q-24 0 -38 17q4 40 4 83q0 36 -5 111t-5 120q-21 0 -61 2q-43 2 -45 2
q-18 0 -80 14q-65 15 -66.5 23.5t-10 33t-8.5 29.5q0 8 152 283q36 17 38 17q15 0 55 -31q-36 -86 -111 -252q37 -11 124 -12h28q5 87 25 265q15 1 67 -6q4 -1 11.5 -10t8.5 -16q-11 -29 -11 -73q0 -12 2 -69q2 -53 2 -98q28 0 60 -15zM441 422q-45 -3 -65 15q0 84 15 250
l-34 6q2 -192 -15 -270q14 0 -138 10q-72 5 -80 5q-18 0 -18 23q0 9 121 249l-21 11q-141 -211 -140 -253l11 -48q25 -9 131 -23q101 -13 109 -17q12 -6 13 -43q-2 55 -2 -62q0 -4 11 -209l8 -6l79 10v23q-19 2 -33 12q-33 25 -37 86q-4 63 5 185q1 15 28 15q37 0 50 -4
q0 32 2 35z" />
    <glyph glyph-name="five" unicode="5" horiz-adv-x="466" 
d="M373 125q-52 -40 -134 -84.5t-91 -39.5q-20 10 -20 47q0 10 3 16.5t33 15.5q35 11 38 12v14q-39 36 -89 36h-12.5h-10.5q-11 0 -16 3.5t-8 39.5q-4 36 1 43t15 6q28 -3 39 -3q66 0 99 -11q11 -4 32.5 -26t27.5 -22q9 0 21.5 7t15.5 16q10 24 17 72q5 38 5 53
q-3 117 -142 117q-6 0 -29 -2.5t-30 -2.5q-24 0 -43 2q-13 21 -13 61q0 13 1.5 40.5t1.5 41.5q0 51 -20 79q-16 5 -32 9q-23 7 -23 20q0 5 3 12.5t4 11.5q0 33 10 39q2 1 22 1q6 0 36 -1.5t36 -1.5q52 0 120 -4q97 -7 153 -9q8 -7 8 -53v-21q-11 -6 -77 -6l-52.5 -1
t-84.5 -1q0 -13 -4.5 -41.5t-4.5 -33.5q0 -41 32 -41q6 0 5 2.5t5 2.5q33 0 73 -12q37 -12 75 -24q17 -4 33 -28q13 -18 16 -31q8 -15 17 -44q4 -36 -1 -155q-4 -78 -61 -121zM398 317q0 65 -6 87q-7 30 -33 49q-69 49 -182 45q-12 0 -25 39q-3 9 -3 19q0 8 3 25t3 28
q-2 29 -8 63q21 20 228 13l1 30q-93 0 -156 1.5t-173 6.5v-33q51 1 60 -16q16 -34 12 -82v-45q0 -9 2.5 -38t2.5 -42q24 2 64.5 -0.5t39.5 -2.5q52 1 119 -56q22 -19 22 -101q0 -83 -37 -127q-15 -18 -36.5 -36t-29.5 -18q-2 0 -3 2q-17 41 -38 52q-32 17 -61 17h-55v-24
q20 0 32.5 -7t16.5 -7q27 0 55 -16q33 -18 33 -44q0 -31 -92 -52l11 -20q52 25 91 48q96 54 119 85q28 38 28 84q0 9 -1 20q-4 42 -4 53z" />
    <glyph glyph-name="six" unicode="6" horiz-adv-x="469" 
d="M454 693q0 -34 -23 -34q-6 0 -45.5 4.5t-45.5 4.5q-27 0 -27 -20t14 -22q-8 1 29 1q-6 0 51 -8q15 -9 15 -23q0 -6 -2.5 -24t-2.5 -25q-14 -6 -47 -6q-28 0 -73 11q-53 12 -64 28q-2 5 -5 10.5t-10 5.5q-6 0 -21.5 -7.5t-20.5 -12.5q-26 -25 -34 -62q-4 -21 -4 -67
t-1 -39q1 -8 5 -13.5t22 -5.5q12 -1 33.5 1t23.5 2q20 0 77 -19q45 -15 64 -24q12 -5 44 -44q6 -7 11 -57q5 -42 5 -55q0 -89 -23 -125q-28 -47 -106 -47q-165 0 -231 64q-7 7 -17 44t-11 57q-2 38 0 192q-1 29 2 94q4 26 12 72q3 30 29 69t62 68q14 11 40 14q37 4 41 6
q11 9 36 28q34 25 62 25q2 0 23 1h30q11 -1 34 -5q19 -4 34 -3q15 -24 15 -54zM417 690q-4 3 -2 18.5t-4 15.5q-30 5 -68 0q-16 -2 -51 -13q-15 -7 -34.5 -25.5t-24.5 -21.5q-14 0 -37 -2q-17 -2 -34 -14q-31 -21 -59 -81q-24 -51 -25 -78q-5 -151 -6 -230q-1 -56 0 -73
q2 -21 2 -11q0 -68 81 -100q56 -22 131 -22q70 0 84 24q20 33 20 134q0 32 -14 67q-16 40 -42 49q-12 5 -40 17q-60 24 -83.5 24t-47.5 1q-2 0 -13 -5t-17 -5q-12 0 -19 17q-7 14 -7 31q0 84 10 132t49 74q36 25 73 19q15 -5 20 -17q8 -17 20 -27q29 -26 111 -25
q-1 10 -4 29q-2 6 -48 6q-21 0 -51 33q-4 3 -7.5 6t-3.5 10q0 47 82 47zM354 182q0 -49 -3 -65q-8 -41 -38 -41q-1 0 -37 3q-20 0 -72 8q-6 7 -6 18q0 8 6 30t6 34q0 13 -6 23q-13 23 -20 31q-13 14 -31 15q-5 0 -13.5 -2t-13.5 -2q-7 0 -14 12t-7 22q0 53 20 65q14 9 75 9
q43 0 87 -24q53 -30 65 -77q2 -7 2 -59zM187 143q0 -14 -6 -27.5t-15 -13.5t-26 10q-20 12 -29 28.5t-9 39.5q0 27 13 31q10 4 19 4q26 0 41 -29q12 -22 12 -43zM322 170q0 -4 4 24q3 20 -2 32q-17 41 -34 49l-42 22q-27 11 -60 11q-15 0 -32 -2q-5 -1 -7 -12q-3 -12 2 -13
q31 -6 58 -35q21 -24 25 -59q0 -33 1 -65q29 -12 72 -12q6 0 11 27q4 21 4 33zM160 149q0 22 -15 22q-16 1 -16 -11q0 -9 6.5 -18t13.5 -9q11 0 11 16z" />
    <glyph glyph-name="seven" unicode="7" horiz-adv-x="547" 
d="M524 700q0 1 -82 -189t-82 -200q0 -2 18.5 -23t18.5 -40q0 -25 -21 -88q-25 -76 -50 -76l-13 6l-28 6q-2 2 -11 1.5t-9 7.5q0 6 13.5 42t13.5 40v30q-2 0 -4 2t-10 2q-16 0 -50 -75q-7 -15 -45 -109q-3 -6 -26 -6q-45 0 -77 23q9 15 79 167q42 90 96 133q47 37 77 125
q24 74 48 147q-18 8 -94 8q-19 0 -56.5 -45t-64.5 -45h-40q-42 0 -108 27q0 26 1 52q4 43 33 43q6 0 33 -8t33 -8q38 0 54 26q15 31 29 62q7 0 142 -8q55 -2 111 -4q71 -5 71 -26zM471 667v19q-23 1 -125 10q-81 7 -107 7q-17 0 -20 -2q-15 -23 -31 -46q-27 -36 -71 -36
q-35 0 -60 5v-32q54 -14 75 -14q11 0 37.5 7.5t33.5 14.5q13 17 26 33q18 23 38 30.5t54 7.5q11 0 45.5 -9t44.5 -16q-22 -87 -62 -198q-48 -136 -68 -136q-5 0 -5 2v3q0 1 -5 0q-43 -5 -95 -115q-26 -63 -51 -126q7 -8 33 -8q38 98 44 111q45 100 71 100q49 0 49 -64
q0 -59 -20 -87l23 -12q8 19 19 61t11 52q0 31 -6 40q-9 9 -18 17q-2 2 -12 7q-6 3 -6 10q0 3 77 184q11 30 40 96q3 7 25 41q14 22 16 43z" />
    <glyph glyph-name="eight" unicode="8" 
d="M442 236q0 -65 -14 -128q-25 -108 -81 -108q-6 0 -68 2.5t-68 2.5q-94 0 -136 37q-47 41 -47 138q0 80 25 133q16 34 45 61q25 23 25 29q0 5 -22.5 25t-25.5 31q-16 58 -16 89q0 18 13 54q10 27 20 55q30 100 88 126q29 13 122 13q35 0 80 -57q25 -32 30 -94q1 -9 1 -65
q0 -39 -20 -96q-17 -49 -34 -73q18 -12 47 -35q23 -29 25 -49q1 -14 7 -52q4 -33 4 -39zM408 199q0 34 -6 79q-8 56 -21 70q-6 7 -39 31q-27 20 -27 27q0 9 15.5 29.5t16.5 23.5q26 66 27 72q5 16 5 54q0 12 -14 86q-3 19 -17 50q-9 11 -29 22.5t-28 11.5h-11q-5 -1 -10 -1
q-6 0 -19.5 1.5t-19.5 1.5q-45 0 -91 -75q-42 -69 -42 -119q0 -40 12 -75q5 -17 43.5 -46.5t38.5 -33.5q0 -11 -34 -34q-42 -29 -62 -59q-33 -49 -33 -123q0 -86 32.5 -119.5t108.5 -33.5q-1 0 38 -2.5t65 -2.5q46 0 55 9q14 13 30 70t16 86zM340 557q0 -43 -20 -83
q-25 -51 -67 -51q-20 0 -65 30.5t-49 44.5q-6 25 -6 50q0 50 34 108q38 67 86 67q11 0 35.5 -8.5t33.5 -18t9 -26.5q0 -20 4.5 -65t4.5 -48zM374 199q0 -45 -13 -85q-18 -55 -51 -55q-2 0 -79 20q-1 2 -7 36l-6 48q-7 25 -30 42q-7 5 -42 6t-44 4q-5 2 -5 21q0 6 11 31.5
t12.5 34t56.5 47.5t71 39q64 0 98 -67q28 -54 28 -122zM197 92q0 -12 -18 -12q-7 0 -17 2l-10 2q-40 0 -47 20q0 3 -3 39q-1 28 0 43q1 7 9 7q5 0 18.5 -4.5t18.5 -5.5q49 -8 49 -91zM305 567q0 1 3 19.5t3 32.5q0 40 -20 54.5t-38 14.5q-34 0 -65 -61q-26 -51 -26 -76
q0 -19 36.5 -56.5t59.5 -37.5q21 0 36 48q11 38 11 62zM334 189q0 46 -9 84q-19 71 -64 71q-4 0 -27 -7q-40 -12 -59 -40q-14 -26 -29 -51q70 0 92 -32t23 -105q8 0 17.5 -3t14.5 -3q41 0 41 86zM171 130q0 9 -13.5 20t-23.5 11q-9 0 -7 -12q4 -24 4 -20q0 -22 24 -22
q16 0 16 23z" />
    <glyph glyph-name="nine" unicode="9" horiz-adv-x="391" 
d="M374 557l-9 -254q-2 -42 -51 -62q-23 -9 -27 -29q-4 -27 -4 -68q0 -62 9 -139q-2 0 -10.5 -2.5t-15.5 -2.5q-72 0 -79 13q-2 5 -2 55q0 82 15 182q5 37 33 76q5 8 20 15t28 13q1 35 8 103q2 17 -17 17q1 0 -32 -5.5t-58 -5.5q-35 0 -58 10q-108 47 -108 140q0 97 103 139
q31 12 75 13q178 1 178 -75l-4.5 -31.5t-2.5 -48.5q-9 -16 -21 -16q-6 0 -23.5 2.5t-23.5 2.5q-24 0 -24 25v4.5v4.5q0 26 -25 26h-66q-45 -6 -46 -36q-1 -23 22 -44q20 -18 37 -18q64 0 69 1q10 2 38 9q22 6 29 6q12 0 43 -20zM351 534q-6 16 -47 10q-5 1 -26 -8.5
t-26 -9.5h-63q-28 0 -66 45q-37 41 -37 63q0 27 49 46q44 17 95 17q46 0 57 -16q6 -6 11 -13q2 -4 9 -38h22q0 8 4 28t4 28q0 9 -3 13q-8 13 -55 24q-39 9 -55 9q-43 0 -97 -21q-74 -29 -78 -79q-4 -51 33 -92.5t84 -41.5q6 0 68.5 4t68.5 4q23 0 23 -21q0 -3 -4.5 -27.5
t-3.5 -41.5q2 -23 -7 -76q-2 -8 -31 -21q-58 -26 -58 -195q0 -21 -4 -83l26 -5q6 53 6 62q0 74 3 99t28 69q6 10 33 30q21 16 25 41q13 90 13 177q0 16 -1 20z" />
    <glyph glyph-name="colon" unicode=":" horiz-adv-x="215" 
d="M190 44q0 -26 -21.5 -44t-43.5 -18q-26 0 -47 29q-17 24 -17 44q0 23 11 61q18 56 45 56q73 0 73 -128zM152 32q9 6 9 22q0 17 -9 40q0 11 -6 22.5t-15 11.5q-15 0 -25 -23q-8 -19 -8 -36q0 -28 13 -37q19 -15 41 0zM181 401q0 -26 -21.5 -44t-43.5 -18q-26 0 -47 29
q-17 24 -17 44q0 23 11 61q18 56 45 56q73 0 73 -128zM143 389q9 6 9 22q0 17 -9 40q0 11 -6 22.5t-15 11.5q-15 0 -25 -23q-8 -19 -8 -36q0 -28 13 -37q19 -15 41 0z" />
    <glyph glyph-name="semicolon" unicode=";" horiz-adv-x="200" 
d="M175 9q0 -23 -7 -75q-8 -62 -16 -78q-6 4 -31.5 9t-31.5 14q-1 13 3 40q5 31 5 44q0 54 -56 77q2 41 10 57q10 21 39 21q13 0 42.5 -28.5t32.5 -38.5q10 -43 10 -42zM153 2q0 7 -10 32t-21 37q-17 18 -37 11l-14 -12q9 -3 17 -9q18 -17 29 -51q4 -11 4 -36q0 -32 -6 -76
l17 -3q21 98 21 107zM163 364q0 -26 -21.5 -44t-43.5 -18q-26 0 -47 29q-17 24 -17 44q0 23 11 61q18 56 45 56q73 0 73 -128zM125 352q9 6 9 22q0 17 -9 40q0 11 -6 22.5t-15 11.5q-15 0 -25 -23q-8 -19 -8 -36q0 -28 13 -37q19 -15 41 0z" />
    <glyph glyph-name="less" unicode="&#x3c;" horiz-adv-x="380" 
d="M346 596l-128 -126q-79 -79 -79 -86q0 -11 65 -72q137 -129 137 -154q0 -7 -24.5 -32t-32.5 -25q-85 90 -241 245q-10 8 -10 29q0 29 63 89l90 80q34 31 100 94q3 2 26 2q3 0 15 -19.5t19 -24.5zM309 596l-11 12q-43 -35 -118 -107q-110 -106 -110 -133q0 -7 85 -91
q112 -112 133 -135l17 16q-20 32 -115 131q-88 93 -88 95q0 18 207 212z" />
    <glyph glyph-name="equal" unicode="=" horiz-adv-x="667" 
d="M632 569q-1 -27 -1 -54q-3 -41 -22 -41h-22h-22q-111 0 -251 -13q-16 -1 -74 -55q-15 -14 -60 -25q-39 -9 -68 -9q-75 0 -75 40q0 6 3.5 25t3.5 31h41h36q9 0 35.5 9t43.5 19q4 3 21 31q15 24 29 25l312 23q64 0 70 -6zM600 536q-37 13 -59 13q-7 0 -49 -8
q-50 -8 -68 -10q-58 -2 -143 -11q-11 -3 -31.5 -27.5t-28.5 -28.5q-45 -20 -139 -28l-1 -28q82 -2 123 15q23 10 54 44q28 30 40 32q69 9 294 9q3 0 3 8q1 12 5 20zM632 390q-1 -27 -1 -54q-3 -41 -22 -41h-22h-22q-111 0 -251 -13q-16 -1 -74 -55q-15 -14 -60 -25
q-39 -9 -68 -9q-75 0 -75 40q0 6 3.5 25t3.5 31h41h36q9 0 35.5 9t43.5 19q4 3 21 31q15 24 29 25l312 23q64 0 70 -6zM600 357q-37 13 -59 13q-7 0 -49 -8q-50 -8 -68 -10q-58 -2 -143 -11q-11 -3 -31.5 -27.5t-28.5 -28.5q-45 -20 -139 -28l-1 -28q82 -2 123 15
q23 10 54 44q28 30 40 32q69 9 294 9q3 0 3 8q1 12 5 20z" />
    <glyph glyph-name="greater" unicode="&#x3e;" horiz-adv-x="380" 
d="M346 366q0 -29 -64 -90q-44 -39 -89 -79q-34 -31 -100 -94q-3 -2 -26 -2q-3 0 -15 19.5t-19 23.5l128 126q79 79 79 86q0 12 -65 72q-138 130 -138 154q0 8 25 33t33 25q85 -91 241 -245q10 -9 10 -29zM309 373q0 6 -85 91q-112 111 -134 134l-16 -16q20 -31 115 -130
q88 -93 88 -96q0 -18 -207 -211l11 -12q43 35 118 106q110 106 110 134z" />
    <glyph glyph-name="question" unicode="?" horiz-adv-x="455" 
d="M435 603q0 -119 -16 -194q-6 -26 -46 -44q-65 -29 -71 -33q-36 -25 -36 -69q0 -13 2 -38t2 -35q0 -37 -21 -37q-4 0 -24.5 -5t-27.5 -5q-9 0 -18 7.5t-9 14.5q0 11 -1.5 38t-1.5 32q0 62 5 90q11 49 46 74q8 6 31 9q30 2 39 5q58 17 58 138q0 22 -7 67q-2 12 -17 21
q-62 36 -123 36h-42q-30 -5 -30 -29q0 -33 58 -60t58 -64q0 -7 -2 -15q-6 -5 -32 -30q-21 -21 -27 -21q-16 0 -21 17q-8 25 -17 33q-9 -10 -9 -27q0 -10 5.5 -34.5t4.5 -35.5q-43 -27 -60 -27q-19 0 -41 16q-3 26 -13 97q-9 60 -9 66q0 12 22 117l6 40q6 26 24 35
q23 12 74 20q38 7 56 7q19 0 93 -18q82 -20 105 -34q17 -10 22 -30q11 -50 11 -95zM301 49q0 -17 -2 -24q-6 -16 -27.5 -26t-40.5 -10t-30 22q-9 18 -9 40q0 15 21.5 36t35.5 21q52 0 52 -59zM401 586q0 111 -37 122q-33 10 -91 22q-53 10 -64 10q-62 0 -100 -9
q-22 -5 -26 -14q-8 -22 -17 -64.5t-9 -51.5q0 -28 18 -64q0 -1 -7 -14q-5 -9 -4 -15q4 -39 14 -86h23q0 9 -2 33t-2 37q0 54 37 54q8 0 27 -19q27 -26 28 -28q12 12 12 36q-60 28 -80 44q-11 9 -27 33q-5 8 -5 22q0 42 25 67q14 14 38 16q-28 -2 42 -2q36 0 84 -11
q45 -11 58 -22q36 -29 38 -59q7 -103 7 -89q0 -87 -21 -108q-15 -15 -36 -28t-27 -13q-42 0 -71 -26q-22 -19 -25 -52q1 6 1 -62q0 -38 12 -62q5 6 22 6q1 55 -3 111q-2 25 28 46q1 1 51 28q20 9 40 17q30 14 32 28q17 107 17 167zM266 56q0 13 -5 17q-6 4 -18 0
q-17 -6 -17 -27q1 -20 15 -20q8 0 16.5 10t8.5 20z" />
    <glyph glyph-name="at" unicode="@" horiz-adv-x="584" 
d="M551 130q-13 -23 -89 -23q-6 0 -8.5 2.5t-7.5 2.5q-75 0 -128 -35.5t-114 -35.5q-44 0 -86 16q-48 17 -68 46q-9 14 -9 43q0 10 2 37q2 23 1 33l-19 191q0 92 9 139q13 73 54 128q53 71 273 71q80 0 136 -35q16 -9 20 -46q2 -28 4 -57q11 -72 11 -146q0 -19 -12 -39
t-24 -41q-10 -25 -19 -50q-14 -35 -36 -50q-3 -2 -15 0q-28 5 -33 30.5t-17 74.5q-8 26 -30 68q-32 61 -53 61q-34 0 -52 -138q0 -30 5 -40q9 -19 40 -19q6 0 31.5 7.5t30.5 7.5q8 0 19 -17t11 -29q0 -5 -2 -8q-9 -12 -66 -27q-50 -14 -62 -14q-68 0 -93 51q-17 33 -17 104
q0 64 33.5 131.5t66.5 78.5q21 6 76 6q36 0 71 -48l50 -76q-1 -5 -1 77q0 49 -22 74t-79 25q-17 0 -38 -2.5l-21 -2.5q-109 0 -142 -135q-13 -53 -13 -182q0 -142 15 -167q4 -7 33.5 -17t36.5 -10q23 0 41.5 10.5t36.5 21.5q12 10 44 29q21 8 65 8q55 0 139 -15
q6 -24 21 -69zM504 145v22q-60 15 -110 15q-60 0 -105 -37.5t-76 -37.5q-53 0 -85 20q-25 14 -31 44q-11 49 -11 83v227q0 20 13 64.5t21 55.5q29 39 80 63q43 20 71 20q81 0 138.5 -8.5t57.5 -131.5q0 -39 -7 -106q-1 -15 -15 -26q-16 4 -39 46q-35 64 -43 74
q-29 40 -58 40q-6 0 -11 1.5t-11 1.5t-12 1h-11q-44 0 -68 -81q-16 -56 -16 -102q0 -56 8 -79q17 -44 71 -44q11 0 93 13l-14 23q-61 -14 -66 -14q-60 0 -60 80q0 172 85 172q57 0 96 -91q7 -19 37 -125l12 5l38 80q23 51 23 77q0 136 -23 191q-12 28 -78 28h-29
q-18 -1 -24 -1q-72 0 -116.5 -8.5t-51.5 -10.5q-29 -7 -43 -16q-71 -51 -79 -222q-1 -21 -1 -32q0 -35 7.5 -93.5t7.5 -150.5q0 -37 19 -61q13 -16 58 -29q39 -11 65 -11q36 0 62 18q38 26 70 37q53 18 161 16z" />
    <glyph glyph-name="A" unicode="A" horiz-adv-x="518" 
d="M498 66q-43 -21 -55 -21q-4 0 -15 7t-12 11q-4 38 -18 119q-4 17 -21 81q-14 50 -14 55q0 11 29 67q-65 -2 -141 -4q3 -33 -27 -134q-35 -116 -41 -165q-1 0 -7.5 -2.5t-11.5 -2.5q-16 0 -44 17.5t-28 32.5q0 4 10.5 19.5t12.5 21.5q21 64 42 115v10q-24 -20 -51 -99
q-26 -73 -31 -73h-12q-15 0 -28.5 16t-13.5 30q0 -3 26 68q14 39 27 77q17 46 36 79q13 23 32 33q4 2 35 12q12 41 38 126q2 22 10 63q6 26 27 67q29 54 54 54q16 0 52 -5q15 -2 20 -16q27 -77 67 -215q38 -129 38 -138q0 -2 -14 -25.5t-14 -50.5q0 -29 21.5 -131t21.5 -99z
M467 86v14q0 12 -24 86.5t-24 117.5q0 5 16 38t16 38q0 8 -10 31q-13 30 -13.5 31.5t-78.5 265.5q-16 10 -41 10q-7 -26 -41 -107q-25 -61 -33 -121q-3 -28 -17 -49q-1 0 -16 -22q-6 -11 -20 -26q-18 -7 -43 -22q-13 -15 -47 -97t-34 -101q0 -6 8 -12q4 9 38 98q22 58 36 76
q23 1 19 1q17 0 16 0q9 -2 18 -14q-2 -23 -29 -105t-27 -86q0 -6 2.5 -9t2.5 -5q30 11 48 109q7 30 15 60q9 40 9 68q0 19 -4 36q-4 14 21 16q87 8 88 8q-14 0 99 -4q11 -3 12.5 -7.5t1.5 -20.5q0 2 -16 -31.5t-16 -46.5q0 -8 18 -94q19 -89 31 -132q10 0 19 8zM399 456
q0 -20 -20 -20l-26.5 1t-47.5 1q-29 0 -49 -2v25q0 6 25 83q30 97 39 126h15q20 -32 23 -45q5 -34 20 -99q1 -6 13 -40q8 -25 8 -30zM371 468q-20 86 -42 151q-14 -61 -45 -155q52 5 87 4z" />
    <glyph glyph-name="B" unicode="B" horiz-adv-x="452" 
d="M429 248q0 -90 -15 -161q-2 -10 -47.5 -27.5t-58.5 -17.5q-5 0 -91 -4t-91 -4t-17 2t-17 2q-11 0 -57 16q1 0 2 29q1 36 1 72q0 88 -8.5 204t-8.5 158q0 3 2.5 37t3.5 50q17 9 33 9q24 0 88 -15t118 -15q34 0 38 15q4 12 0 17q-20 28 -131 28q-61 0 -134 -8q0 8 -2 14
q2 9 2 17q0 10 -4.5 17.5t-4.5 9.5q0 10 14 21q19 1 58 6t43 5q87 0 159 -20q116 -32 116 -103q0 -34 -31 -57.5t-63 -45.5l45 -45q27 -30 34 -57q9 -30 17 -87q7 -50 7 -62zM394 212q0 40 -9 107q-10 78 -23 96q-17 24 -44 46q-22 18 -44 35q2 14 52.5 43t50.5 66
q0 45 -82 68q-59 17 -130 17q-3 0 -38 -2.5t-50 -2.5l5 -11q10 -2 22 -2q13 0 45 3.5t51 3.5q51 0 92 -22q51 -26 51 -59q0 -16 -10.5 -28.5t-26.5 -12.5q-94 0 -171 10q-6 1 -22 6.5t-21 5.5q-24 0 -27 -15q-10 -42 -10 -142q0 -124 19 -340l38 -14h106q41 0 95 8
q66 10 71 24q10 30 10 112zM375 256q-3 -150 -98 -159q-47 -4 -108 0q-35 2 -52 11q-3 80 -16 249q-11 158 -11 157q0 7 9 16.5t16 9.5q71 0 150.5 -66.5t105.5 -145.5q5 -13 4 -72zM334 255q0 54 -14 103q-11 37 -67 89q-61 59 -108 59q-6 0 -8.5 -2.5t-3.5 -2.5v-22
q0 -6 4 -25.5t4 -27.5q2 -27 -1 -72q-2 -55 -2 -69q0 -74 9 -147q48 -10 69 -10q46 0 78 6q13 2 28 53q12 45 12 68z" />
    <glyph glyph-name="C" unicode="C" horiz-adv-x="435" 
d="M410 685q-11 -7 -41 -2q-25 5 -34 -9q17 -30 53 -30q7 0 13 2q5 -9 5 -35q0 -3 -3 -4.5t-3 -6.5t3 -14q-2 -24 -16 -24q-43 0 -91.5 27.5t-63.5 27.5q-57 0 -94 -41q-11 -12 -13 -41q-6 -55 -15 -164q0 -19 -3.5 -65.5t-3.5 -50.5q0 -77 19 -102q21 -28 93 -28
q4 0 41.5 4t42.5 4q17 0 52.5 -12.5t47.5 -22.5l-2 -81q-12 -6 -43 -6q-22 0 -108 8q-109 11 -158 23q-73 18 -73 152q0 57 4 274q3 128 39 181q42 60 144 60q4 0 26.5 -2t28.5 -2q5 0 17 17q15 21 24 28q20 14 47 14q38 0 51.5 -11t13.5 -49v-19zM372 714v15q-9 10 -27 10
q-22 0 -47.5 -33.5t-34.5 -33.5q-5 0 -7 2t-8 2q-81 0 -126 -14q-32 -10 -45 -64q-6 -46 -13 -92q-20 -118 -20 -152q0 -185 1 -186l6 -36q6 -28 31 -47t49 -20h55q26 -1 58 -5q11 -1 43 -8q29 -7 33 -7q40 -6 44 0v37q-3 4 -6.5 9t-10.5 5q-5 0 -40 -4.5t-40 -4.5t-37 5.5
t-45 5.5q-111 6 -111 122q0 95 7 206q11 156 30 177q11 13 46 27q41 16 73 16q38 0 71.5 -25t52.5 -25q6 0 11.5 2.5t6.5 2.5v19q-21 10 -27 10q-40 0 -40 50q0 26 15 31q26 1 52 3z" />
    <glyph glyph-name="D" unicode="D" 
d="M424 234q0 -30 -8 -68q-1 -18 -11 -51q-11 -21 -42.5 -43t-58.5 -29q-37 -10 -106 -17q-53 -5 -70 -5q-4 0 -36.5 4.5t-46.5 4.5q-18 19 -18 101q0 -3 11 159.5t11 205.5q0 14 -1.5 15.5t-7.5 97.5q-5 88 -5 102q0 13 14 25q5 4 13 7.5t53 3.5q55 0 51 1q46 -3 75 -19
q58 -32 78 -46q55 -38 78 -78q6 -10 16 -169q11 -151 11 -202zM390 452q0 33 -6 78q-8 58 -21.5 77.5t-37.5 34.5q-19 11 -37 22t-47 27q-16 4 -59 6.5t-60 7.5q-39 11 -49 -10q6 -218 0 -342q-2 -41 -7 -114q-5 -65 -5 -68q0 -5 2 -44q3 -42 3 -59q20 -14 43 -14
q60 0 147 20q97 23 115 50q14 21 13 59q-1 55 3 164q3 116 3 105zM356 346q0 -18 -6 -142q-2 -41 -17 -64q-4 -6 -50.5 -22.5t-57.5 -16.5q-15 0 -28 14q4 30 1 89q-4 20 -38 45q-37 27 -39 32q-11 24 -12 74v79q-1 10 0.5 40.5t1.5 39.5v57q-1 42 -1 62q0 3 -3.5 12.5
t-3.5 15.5q0 5 21 12t35 6q58 -4 117 -38q47 -28 57 -47q16 -29 19 -91q0 -50 1 -100q0 -6 1.5 -28.5t1.5 -28.5zM179 128q0 -44 -40 -44q-35 0 -43 27q-2 7 -2 55q0 8 1 27q1 24 1 27q0 1 -1 1q0 -7 -1 -10q0 13 2 20q10 14 15 14q12 0 33.5 -20.5t28 -39t6.5 -57.5z
M326 259q5 62 0 158q-2 35 -4 71.5t-10 62.5q-9 35 -20 46q-45 50 -122 50q-21 0 -24 -6q-7 -15 -7 -117q0 -57 -2 -150q0 -11 6 -36q7 -31 15 -44.5t40 -43.5q25 -23 26 -37q-1 -29 2 -65q2 -4 11 -4q35 0 64 27q17 16 20 32q3 28 5 56zM153 163q-3 9 -13 18q-7 6 -15 13
q3 -16 1 -40l-2 -36h25q10 29 4 45z" />
    <glyph glyph-name="E" unicode="E" horiz-adv-x="501" 
d="M481 48q-40 -23 -101 -23q-77 0 -122 44q-25 0 -75.5 -4t-76.5 -4q-70 0 -70 48q0 12 2.5 36.5t2.5 36.5q0 92 -11.5 275.5t-11.5 275.5q0 10 26 17q20 7 34 7q4 0 7.5 -4.5t7.5 -4.5q19 0 55 2t57 3q210 2 227 -11q9 -7 11 -44t-5 -46q2 -1 -34 -1t-107 6.5t-107 6.5
q-37 0 -44 -10.5t-7 -51.5q0 -30 4 -74q7 -66 14 -66q12 0 36 2t36 2q47 0 67 -24q0 -11 -2.5 -32t-2.5 -31q-59 -4 -119 -8q-38 -11 -38 -98q0 -74 15 -96q44 -2 37 -2q32 0 79.5 42t96.5 42q35 0 35 -20q0 -40 -22 -57q-10 -8 -42 -18q-23 -7 -23 -21q0 -17 63 -18
q-83 2 77 2q12 0 20 -15q4 -21 11 -64zM452 79l-7 12q-21 6 -62 2q-44 -3 -63 1q-42 9 -42 50q0 27 47 45q44 16 38 35q-1 5 -6 10q-11 4 -79 -46q-24 -19 -50 -37.5t-38 -19.5q-70 -4 -84 27q-7 15 -7 108q0 33 4.5 77t8.5 51q9 13 148 2v30q-24 0 -66 2q-45 2 -67 2
q-5 0 -11 33q-4 29 -4 42q0 29 -3.5 85.5t-3.5 84.5q0 9 24 9q18 1 96 5q58 2 95 2q49 0 90 -4q-2 11 -5 34h-23q-12 0 -37 -2.5t-38 -2.5q-30 0 -91 3t-92 3q-37 0 -60 -8q1 -47 8 -308q6 -199 6 -307q3 -1 11 -4.5t13 -3.5q24 0 70.5 9t70.5 9q19 0 56 -22t57 -22
q18 -9 45 -9q51 0 51 23z" />
    <glyph glyph-name="F" unicode="F" horiz-adv-x="521" 
d="M504 553q0 -21 -22 -21q-6 0 -26 -2.5t-26 -2.5q-22 0 -25 28q-1 18 -2 35q-19 26 -40 30q-29 7 -73 7q-97 0 -100 -33q-8 -102 -4 -147q1 -11 17 -12q-8 1 24 1h43h43q10 0 17 -9.5t7 -16.5q0 -4 -2.5 -29.5t-2.5 -38.5q-7 -1 -17 -1q-9 0 -28.5 1.5t-29.5 1.5
q-59 0 -67 -38q-1 -4 -1 -24q1 -15 -5.5 -22.5t-19 -12t-16.5 -7.5q-7 -6 -14.5 -35.5t-7.5 -80.5q0 -64 16 -85q-9 -12 -22 -21.5t-16 -9.5q-72 0 -91 20v196q0 41 23 84q20 39 47 60q1 55 3 161q3 87 -9 173q47 25 55 25h44.5h44.5t78.5 -2t78.5 -2q54 0 67 -8
q36 -19 43 -42q16 -52 16 -120zM465 571v45q0 12 -17 43q-20 35 -37 35h-60q-53 1 -58 1h-92q-59 -3 -83 -17q3 -153 0 -205q-2 -37 0 -82q1 -17 3 -56q-17 -11 -36.5 -31.5t-22.5 -30.5q-15 -62 -15 -163q0 -5 2.5 -29t2.5 -35q29 8 37 6q-3 8 0 55q1 18 -1.5 47.5
t-2.5 39.5q0 32 15 55q3 4 23 16q17 10 21 26q2 20 13 56q14 24 67 26q39 1 78 1q9 14 3 27q-3 6 -21 7q-12 0 -43 -1q-37 -2 -55 -2q-22 0 -27 15q-2 6 -2 41q0 1 -2.5 29.5t-2.5 50.5q0 12 2 35.5t2 33.5q1 21 16 30q27 16 144 16q101 0 63 2q16 -1 35 -17
q16 -14 26.5 -39.5t6.5 -30.5h18z" />
    <glyph glyph-name="G" unicode="G" horiz-adv-x="622" 
d="M613 651q-3 -15 -15 -41q-14 -30 -24 -31q-43 39 -53 46q-40 30 -75 36q-8 1 -17 14l-19 -21q15 -15 69 -35.5t78 -40.5q-11 -59 -35 -59q-6 0 -30 8q-29 10 -33 12q-29 0 -86 15q-20 10 -60 58q-34 40 -60 40q-44 0 -84 -98q-34 -83 -34 -135q0 -83 127 -107
q45 -9 42 -9q13 0 22 9q15 13 15 30q0 18 -20 18q-12 0 -36 -7t-36 -7q-20 0 -25 31q-4 23 -7 45q25 15 30 15t20 1h20q24 0 67 1q30 1 57 0q22 0 61 -3q-5 -19 -5 -46q0 -33 4 -93.5t4 -92.5q-27 -31 -41 -48q-42 -50 -49 -67q-19 -53 -14 -155q-3 -5 -14 -5
q-8 0 -22.5 2.5t-22.5 2.5q-31 48 -31 113q0 98 93 173l-1 15q-37 -21 -48.5 -23.5t-57.5 -2.5q-44 0 -101 23q-70 29 -104 78q-17 25 -28.5 67t-11.5 73t18 96q26 96 71 137t69 54q36 19 88 18q11 0 33.5 -6.5t33.5 -6.5q5 0 18.5 11t20.5 11q139 0 239 -113zM575 642
q-21 24 -76 53.5t-84 29.5q-23 0 -38 -15t-23 -15q-16 0 -50 13t-51 13q-60 0 -121 -75q-16 -20 -32 -54q-20 -44 -20 -45q-6 -20 -6 -74q0 -112 23 -147q28 -42 97 -67q61 -22 117 -19q34 2 89 26q3 -54 6 -54q-86 -45 -86 -167q0 -24 11 -73q12 73 15 88q12 54 33 90
q6 11 31.5 29.5t29.5 25.5q0 105 -13 200q-60 -1 -172 -14q17 0 46 1h46q21 0 33 -2v-28q0 -40 -24 -66.5t-64 -26.5q-77 0 -130 35q-62 41 -62 113q0 63 12 102q12 43 46 87q16 28 33.5 54t63.5 26q51 0 69 -24l36 -56q23 -24 69 -36q39 -8 78 -17q8 2 8 6q0 6 -74 37.5
t-74 51.5q0 47 65 47q49 0 136 -73z" />
    <glyph glyph-name="H" unicode="H" horiz-adv-x="582" 
d="M552 493q0 -56 -8 -158q-9 -112 -10 -157q-1 -27 4.5 -80t4.5 -82q-14 -1 -49 -9t-50 -8q-30 0 -30 101q0 78 7 168q3 30 8 82q-3 -2 -18 1l-19 3q-21 0 -54 3t-55 3q-8 0 -53 -5q102 -51 102 -235q0 -75 -13 -99q-20 -39 -87 -39q-6 0 -23 13q1 15 4 63q2 39 2 63
q0 65 -18 109h-16q-29 -44 -37 -114q-4 -61 -8 -121q-27 -4 -79 -12q-6 11 -11 58q-5 41 -5 63q0 190 57 228q-1 54 -7 206q-6 129 -6 206q0 7 8 15.5t15 8.5q10 0 28.5 -5.5t28.5 -5.5q8 0 24 5.5t24 5.5q7 0 10.5 -12t6.5 -24q6 -16 6 -33q0 -12 -3.5 -34.5t-3.5 -34.5
q0 -55 5 -126h6q21 0 61 -3.5t61 -3.5q31 0 57 7q-44 76 -44 146v139q27 6 26 6q4 0 28.5 -11.5t51.5 -11.5q1 -15 0 -42q-1 -31 -1 -43q0 -63 7 -88q13 -45 54 -65q11 -19 11 -41zM514 497q-45 30 -53 115l-4 134l-45 19q-5 -33 -5 -129q0 -20 24 -72t40 -64l1 -2
q-1 -24 -2 -29q-4 -15 -20 -15q-12 0 -35.5 2.5t-35.5 2.5q-9 0 -26.5 -4.5t-26.5 -4.5q-95 0 -131 22q3 19 0 50q-3 41 -3 51q0 105 -7 145l-52 6v-214q0 -21 4.5 -63.5t4.5 -64.5q0 -45 -31 -119t-31 -134q0 -45 6 -86q10 -6 19 -7l9 8q8 66 15 133q19 94 69 94
q28 0 45 -50q13 -39 13 -74q0 -13 -4.5 -38.5t-4.5 -38.5q0 -28 13 -39q-2 0 22 0q19 0 19 45q0 155 -59 215q-19 13 -51 44q1 21 9 59q13 6 46 6q32 0 97 -3t98 -3q7 0 16.5 -8.5t9.5 -15.5q0 -48 -8.5 -145t-8.5 -146q0 -20 14 -31l41 2q-9 115 -9 117q0 58 8 165
q9 114 10 165z" />
    <glyph glyph-name="I" unicode="I" horiz-adv-x="264" 
d="M241 20q-10 0 -33 -3t-29 -3q-4 0 -17 9q-16 10 -15 19q5 47 5 74q0 67 -27 124q-6 15 -34 28q-40 19 -47 23q-4 74 -13 247q-9 150 -9 155q0 12 6 27.5t16 15.5q66 0 91 -9q-12 -147 -6 -332q7 -5 43 -23q26 -13 39.5 -31.5t18.5 -42t10 -47.5q10 -46 10 -98
q0 -3 -9 -133zM216 60q5 45 5 89q0 55 -9 88q-6 21 -12.5 42t-19.5 36.5t-36 27.5l-34 17q-14 10 -14 39q0 -4 2 114.5t2 176.5q-9 0 -32 5q3 -44 1 -197q-2 -139 2 -177q29 -6 69.5 -45t42.5 -65q12 -120 10 -152q3 3 11 1q9 -3 12 0z" />
    <glyph glyph-name="J" unicode="J" horiz-adv-x="469" 
d="M456 110q0 -70 -30 -113q-34 -49 -101 -49q-6 0 -17.5 2t-17.5 2q-22 0 -38 -18q-19 -21 -30 -24q-19 -6 -66 -14.5t-66 -8.5q-5 0 -15 4t-16 4q-28 0 -39 10.5t-11 38.5q0 7 14 28q50 6 162 6l4 20q-8 7 -33.5 13.5t-39.5 6.5q-13 0 -41 -8.5t-42 -8.5q-8 0 -14 8t-6 16
q0 10 3 28.5t3 25.5q92 27 97 27q42 0 145 -53q95 0 95 136q0 72 -12 195q-14 147 -16 197q-20 10 -53 14q-26 3 -34 14q-13 16 -13 66q0 36 16 36t49 -6.5t49 -6.5q10 0 29 4.5t28 4.5q14 0 23 -31q6 -23 6 -42q1 -85 15 -262q13 -172 13 -262zM420 103q0 60 -11 180.5
t-11 180.5q0 182 -26 203h-104v-34q12 1 33 0q28 -2 33 -2q11 0 12 -1q10 -15 21 -44q1 -83 9 -250q1 -9 9 -72q6 -45 6 -72q0 -38 -17 -93q-21 -68 -48 -68q-9 0 -27.5 -2.5t-27.5 -2.5q-31 0 -50 9q-23 13 -45.5 24t-60.5 11q-46 0 -61 -9q2 -20 -1 -24q40 8 74 8t60 -11
q37 -14 37 -42q0 -32 -51 -41q-16 -2 -75 -2q-21 0 -35 -3l-3 -21q5 -7 46 -7q74 0 89 10q20 21 41 41q31 26 87 26q97 0 97 108z" />
    <glyph glyph-name="K" unicode="K" horiz-adv-x="466" 
d="M439 80q0 -13 -29.5 -31.5t-35 -18.5t-13 -3.5t-10.5 -3.5t-6 3q-53 79 -108 166q-15 40 -50 100q0 -252 1 -271l-37 4q-6 0 -16.5 -5t-17.5 -5q-8 0 -17 5q-12 6 -12 13q-1 131 -14 388q-1 13 -17 45q-20 38 -25 57q-12 40 -13 120q1 -84 1 81q0 17 2 47q16 8 52 8
q20 0 27 -108q4 -61 8 -123q11 7 12 107q2 96 -4 113q13 4 36 3q24 0 31 -6q9 -9 10 -109v-130l8 -9q19 11 82 33q69 24 92 24q12 0 22 -17q17 -27 27 -37q-24 -17 -108 -67q-66 -39 -66 -46q0 -21 56 -101q12 -24 34 -67q10 -8 27 -31q3 -6 45 -76q26 -45 26 -52zM391 87
q-39 78 -144 245l-49 79q0 3 21 19q26 20 60 38q53 26 107 55l-18 25q-23 -8 -81 -31q-101 -41 -104 -39q-15 8 -16 100q0 76 -1 152l-20 3q0 -216 -23 -216q-9 0 -22.5 10t-16.5 22q-11 40 -7 190l-28 -1q-7 -84 -7 -96t3 -39q-1 -69 27 -110q12 -15 23 -29q13 -18 15 -31
q7 -55 7 -138q-1 -123 0 -138q-2 -34 3 -104l32 4q0 44 -3 139q-5 121 -5 142q-7 10 -7 20q7 7 13 14t13 7q9 0 88 -134q53 -91 106 -181q2 3 17 12t17 11z" />
    <glyph glyph-name="L" unicode="L" horiz-adv-x="547" 
d="M530 144q0 -6 -58 -9q-35 -2 -69 -5l-2 -25q2 -1 63 -15q47 -10 63 -29q4 -4 1 -31l-2 -30q-4 -2 -15.5 -9.5t-17.5 -7.5t-12.5 2.5t-12.5 2.5q-19 0 -59.5 12.5t-58.5 24.5q-10 15 -35 37q-29 14 -98 14q-12 0 -62 -1q-37 -1 -56 0q7 0 -28 -1q-19 0 -26 5.5t-11 163.5
q-2 115 -5 230q0 14 19 30q24 20 27 24q12 21 13 45v40q4 73 -3 111q1 6 8 15q36 13 67 13q6 0 15 -3t17 -3q0 -21 3 -72.5t3 -73.5q0 -55 -12 -89q-5 -13 -27 -44.5t-22 -37.5q0 15 13 -99q2 -11 1 -79q-1 -50 10 -75q43 5 130 5q6 0 15.5 10.5t15.5 12.5q44 18 111 18
q12 0 50.5 -9.5t40.5 -12.5q6 -8 6 -55zM486 155q0 3 -2.5 9.5t-2.5 9.5l-35 8q11 0 -38 4q-39 3 -63 -21q-15 -15 -33.5 -18t-101.5 -3q-74 0 -68 0q-14 2 -22 12q-10 109 -10 254q0 42 6 60q2 7 19 24.5t18 21.5q7 20 8 49q1 21 -1 47q-2 30 -2 27q0 5 -2.5 32t-2.5 38
h-24q0 -126 1 -86q-1 -50 -12 -84q-8 -26 -31 -47q-18 -17 -18 -48q0 2 7 -100t7 -151q0 1 -3 -46q-2 -28 3 -31.5t91 -3.5q105 0 101 0q32 -1 47 -5q8 -2 41 -38t58 -36q6 0 54 -14l7 33q-33 6 -90 24q-21 11 -21 49q0 34 75 34q4 0 13 -2t27 -2z" />
    <glyph glyph-name="M" unicode="M" horiz-adv-x="576" 
d="M551 357q0 -72 -5 -91q-3 -12 -18 -24q-20 -14 -39 -48q-8 -14 -15 -102q-7 -76 -23 -76q-40 0 -59 6v141q0 30 26.5 81.5t26.5 64.5q0 24 -3.5 73t-3.5 73q0 15 3.5 45.5t3.5 44.5q0 8 -9 25l-11 -10q-22 -174 -22 -202q0 -26 2 -50q-4 -8 -16 -23q-26 10 -81 10
q-18 0 -53 131q-19 80 -39 160l-26 -1q0 -18 -1.5 -53.5t-1.5 -53.5q0 -74 14 -109q8 -19 28 -38t26 -43q10 -43 11 -110v-79q0 -25 1 -45q-27 -14 -61 -14q-23 0 -32 84q-11 104 -28 134h-20q-12 -23 -16 -103l-4 -112q-25 -4 -75 -9l-9 4q-6 11 -6 189q0 46 17 79
q10 20 30 41q17 16 17 21q0 36 -7.5 110.5t-7.5 112.5q0 10 -1 29t-1 28q0 38 12 55q15 23 55 23q28 0 73 -10q36 -7 73 -15q13 -50 48 -148q4 11 23 116q17 92 24 99q4 3 20 3q21 0 65 -6q52 -6 62 -13.5t11 -25.5q-2 38 -2 -30q0 -56 12 -169t12 -170zM523 320
q0 190 -25 399q-14 0 -43 5.5t-44 5.5q-7 0 -14 -3q-18 -23 -34 -145l-22 -164h-15q-27 86 -92 253q-3 -2 -13 -2q-12 0 -39 4t-38 4q-10 0 -15 -3q-17 -10 -18 -44q0 -32 1 -64q0 3 0 -125q0 -73 -2 -93q-2 -16 -22 -33t-25 -37q-8 -39 -8 -102v-96l22 2q3 62 5 123
q10 88 50 88q25 0 52 -43q0 -2 18 -87q10 -54 8 -88h21v40q0 27 -8 95q-9 78 -17 84q-45 39 -52 56q-5 14 -5 80q0 26 4 78t4 78q0 31 11 38q8 5 42 5q9 0 19 -6q17 -24 52 -154q34 -125 42.5 -132t23.5 -7q7 0 18 10.5t40 315.5q10 0 23 6.5t20 6.5q11 0 22 -19q0 -4 8 -72
q6 -42 6 -72q0 -29 -4 -110q-2 -70 -1 -111q-38 -29 -51 -112q-2 -18 -8 -129l19 -1q2 1 4 4v30q-2 92 18 136q8 15 40 47q22 22 22 60z" />
    <glyph glyph-name="N" unicode="N" 
d="M440 91q0 -32 -3 -41q-5 -20 -26 -20h-38q-35 3 -43 19q-17 53 -51 149q-23 60 -72 206q-34 100 -61 159q-2 -2 -7.5 1.5t-6.5 3.5q-2 0 -2 -4q0 -198 12 -234q3 -7 17 -35q10 -19 10 -36q5 -137 2 -178v-34q0 -18 -7 -28.5t-82 -4.5q-2 74 -13 202q-3 16 -22.5 30
t-22 23.5t-0.5 40.5q2 40 1 52q-9 155 -8 228q1 22 4 68q3 38 2 71q0 16 22 16q4 0 26 -4t33 -4q1 0 23 1q19 1 30 0q2 -2 40 -73q41 -74 88 -186q28 -68 55 -135l-2 182l3 39q0 41 -18 59q-11 11 -36 16q-28 6 -31 8q-7 5 -6 33q1 27 6 43q2 5 20 5q42 0 87 -12
q61 -15 61 -42q1 -123 7 -403q2 -38 5 -113q4 -63 4 -68zM402 91q-8 181 -8 433q0 124 -14 143q-7 8 -45.5 20t-47.5 11v-26q19 0 40 -13q29 -17 38 -47q17 -58 6 -291q-2 -36 -6 -109q-11 2 -23 8q-17 78 -36 118q-38 89 -91 208q-73 152 -101 152q-23 0 -52 -8
q3 -43 1 -146q-3 -141 -3 -186q0 -52 1 -53q2 -10 18.5 -29t17.5 -22q9 -36 12 -100q3 -82 3 -90l21 2q-4 93 -17 217q-3 8 -12 19.5t-10 15.5q-8 26 -8 229q0 4 5 47.5t6 64.5q3 3 8 3q-5 0 24 -7q15 -4 119 -271q97 -248 113 -302q17 -4 26 0q7 2 15 9z" />
    <glyph glyph-name="O" unicode="O" horiz-adv-x="533" 
d="M507 323q0 -150 -11 -203q-5 -17 -12 -47q-10 -52 -64 -64q-16 -4 -86 -4q-68 0 -99 4q-57 8 -155 39q-22 7 -40.5 35.5t-21.5 61.5q-6 69 -6 164q0 361 89 432q55 44 136 44q21 0 55 -3l58 -4q52 -5 70 -17q55 -34 70 -109q6 -61 12 -123q5 -32 5 -206zM469 270
q0 123 -13 265q-11 120 -21 154q-10 38 -68 47l-78 4q-38 4 -93 -10q-65 -16 -86 -44q-40 -54 -40 -151q0 -62 -5 -194.5t-5 -127.5q0 -29 7 -63q10 -41 25 -54q24 -19 112 -36q73 -13 103 -13q7 0 46 3t47 3t26 15q34 28 38.5 82t4.5 120zM423 526q0 -96 -15 -234
q-54 -11 -77 -27q-25 -19 -31 -53.5t-10 -91.5q-16 -20 -43 -20q-12 0 -54 14q-48 15 -71 30q-32 20 -32 135q0 139 19 298q6 47 49 89q18 17 90 30q54 9 80 9q7 0 31 -16q40 -25 54 -69q10 -32 10 -94zM441 187q0 -43 -12 -56q-16 -10 -32 -19q-17 -13 -26 -13
q-8 0 -11.5 3.5t-10.5 3.5q-33 0 -33 39q0 31 27.5 61.5t61.5 30.5q36 0 36 -50zM376 467l1 17v31q0 134 -79 148q-10 2 -58 -13q-53 -16 -65 -30q-17 -21 -18 -37q-26 -254 -26 -280q0 -88 20 -118q11 -17 42 -23q25 -4 50 -7q26 133 131 177q2 26 2 135zM398 161
q7 10 3 23q-5 13 -15 13q-9 0 -17.5 -11t-8.5 -21q0 -7 4 -10q21 -14 34 6z" />
    <glyph glyph-name="P" unicode="P" horiz-adv-x="437" 
d="M421 606q0 -44 -12 -63q-24 -38 -71 -55q-7 -3 -76 -18q-38 -10 -121 -25q-5 -63 -8 -161q-3 -130 0 -181q1 -8 7.5 -31.5t6.5 -29.5q0 -10 -14.5 -17.5t-24.5 -7.5q-25 0 -52 7q-5 1 -25 24q-1 27 -3 118q-3 74 -3 119q0 21 1 73.5t1 77.5v36.5v27.5q0 53 53 57
q23 2 42 8t22 6q19 0 123 21q8 2 17.5 14t9.5 19q0 28 -17 33l-50 16q-36 12 -62 12t-44 -11t-22 -36q-5 -36 -10 -47q-7 0 -29 -8t-28 -8q-8 0 -13 5.5t-9 10.5l4 102q13 87 81 87q6 0 66 -5t66 -5q112 0 153 -36t41 -129zM385 591q0 97 2 42q-1 38 -14 59q-19 33 -86 46
q-50 10 -110 7h-72q-58 0 -58 -88q0 -11 -1 -37l28 1q0 34 4 46q6 17 28 37q8 6 39.5 10t59.5 1q26 -3 55 -14q21 -6 42.5 -14t26.5 -21q2 -4 2 -34q0 -61 -28 -70q-43 -13 -125 -30q-74 -15 -85 -15h-15.5h-10.5q0 3 -4 -45t-4 -108q0 -50 3 -109q2 -74 10 -197h34
q-11 193 -11 220q0 65 6 114q1 12 -1 30q-2 22 -2 28q0 24 17 35q28 7 130 23q78 12 104 25q15 8 27 29q9 18 9 29z" />
    <glyph glyph-name="Q" unicode="Q" horiz-adv-x="633" 
d="M616 86q0 -17 -30.5 -42.5t-38.5 -25.5q-11 0 -75 88q-69 97 -79 105l-7 -9l22 -38q11 -22 17 -48q1 -21 7 -58q-4 -6 -18 -17.5t-37 -11.5h-32q-71 -8 -103 -8q-104 0 -155 50q-55 54 -55 168q0 31 5 77q0 1 -1 76q-2 56 -4 113q-2 60 2 97q1 21 3 42q4 30 17 49
q33 47 75 51q8 1 21 -1t18.5 -2t43.5 -5.5t44 -5.5q45 0 103 -31q39 -22 57 -90q13 -51 9 -88q-2 -12 0 -45q1 -45 1 -61q0 -63 -15 -87q7 -4 22 -8t21 -9q51 -43 162 -225zM569 82q-116 220 -220 220q-42 0 -42 -49q0 -8 11 -40q14 -40 17 -51q1 -5 7.5 -13t6.5 -15
q0 -31 -51 -31q-7 0 -40 3.5t-40 3.5q-34 0 -65 16q-38 20 -44 53q-20 119 -20 193q0 24 3 63q4 45 4 63q1 41 2 83q6 45 37 71q15 13 54 13q41 0 79 -13q42 -15 56 -40q18 -32 25 -145q6 -97 20 -97q12 0 18 7q5 7 0 25q0 34 -7 114q-10 109 -24 127q-29 39 -119 42
q-13 1 -48 8.5t-40 7.5q-34 0 -58.5 -23t-24.5 -94q0 -2 -1 -24q-1 -11 -1 -170q0 -79 15 -246q2 -13 12.5 -29t23.5 -22q50 -23 139 -30q105 -9 125 2q9 6 9 22t-8 38q0 9 -23.5 42t-23.5 59q0 8 16 25t30 17q24 0 94.5 -96.5t80.5 -96.5q7 0 10 3.5t5 3.5zM354 343
q-4 4 -21 4q-23 0 -23 53q0 11 1 40.5t1 45.5q0 70 -22 103q-24 37 -92 37q-70 0 -75 -159q-4 -159 17 -271q2 -15 11 -21.5t17 -13.5q16 -15 19 -17q9 -8 22 -11q7 -3 14 -3t22 4t24 4q13 1 35 0q-10 26 -21 52q-11 31 -11 52q0 40 19 68q23 33 63 33z" />
    <glyph glyph-name="R" unicode="R" horiz-adv-x="437" 
d="M421 606q0 -44 -12 -63q-32 -50 -122 -68q1 -18 3 -77q7 -6 43 -24q26 -13 39.5 -31t18.5 -42l10 -48q10 -46 10 -97q0 -4 -9 -134q-10 0 -33 -2.5t-28 -2.5t-18 8q-16 10 -15 19q5 48 5 74q0 67 -27 125q-6 15 -34 27q-40 19 -47 24q-4 76 -13 159q-28 -6 -51 -8
q-5 -63 -8 -161q-3 -130 0 -181q1 -8 7.5 -31.5t6.5 -29.5q0 -10 -14.5 -17.5t-24.5 -7.5q-25 0 -52 7q-5 1 -25 24q-1 27 -3 118q-3 74 -3 119q0 21 1 73.5t1 77.5v36.5v27.5q0 53 53 57q23 2 42 8t22 6q19 0 123 21q8 2 17.5 14t9.5 19q0 28 -17 33l-50 16q-36 12 -62 12
t-44 -11t-22 -36q-5 -36 -10 -47q-7 0 -29 -8t-28 -8q-8 0 -13 5.5t-9 10.5l4 102q13 87 81 87q6 0 66 -5t66 -5q112 0 153 -36t41 -129zM385 591q0 97 2 42q-1 38 -14 59q-19 33 -86 46q-50 10 -110 7h-72q-58 0 -58 -88q0 -11 -1 -37l28 1q0 34 4 46q6 17 28 37
q8 6 39.5 10t59.5 1q26 -3 55 -14q21 -6 42.5 -14t26.5 -21q2 -4 2 -34q0 -34 -4 -46q-8 -21 -35 -27l-199 -42h-15.5h-10.5q0 3 -4 -45t-4 -108q0 -50 3 -109q2 -77 10 -202h34q-11 192 -11 223q0 67 6 116q1 12 -1 30q-2 22 -2 28q0 24 17 35q15 4 105 19q3 1 3 -16
q1 -25 1 -29q1 -45 8 -136q29 -6 69.5 -45t42.5 -64q12 -121 10 -152q3 2 11.5 0t11.5 0q5 45 5 90q0 54 -9 87q-6 21 -12.5 42t-20.5 38q-12 14 -35 26q-32 17 -34 17q-14 10 -14 40q0 2 1 26.5t1 39.5q-1 21 0 43l30 5q40 7 60 17q15 8 27 29q9 18 9 29z" />
    <glyph glyph-name="S" unicode="S" horiz-adv-x="517" 
d="M465 705q3 -60 -3 -70q-4 -6 -13 -4l-18 3q-8 0 -27 4q-15 2 -25 0q-12 -2 -12 -16q0 -19 47.5 -27t47.5 -26q0 -86 -34 -86q-13 0 -42 14q-32 16 -43 18q-36 6 -50 39q-16 40 -24.5 45.5t-32.5 5.5q-29 0 -46 -12q-24 -17 -24 -58q0 -30 10 -54q7 -17 24 -29t29 -12
q5 0 7 2.5t7 2.5q6 0 21 -6.5t21 -7.5q86 -16 112 -57q22 -34 22 -124q0 -95 -3 -120q-13 -80 -61 -80q-3 0 -20.5 -7.5t-17.5 -5.5t-30 -3t-52 -12t-37 -30q-19 -30 -28 -36q-22 -18 -65 -17q-1 0 -42 -4q-28 -2 -42 3q2 14 -1 43q-5 34 -5 39q0 10 4 10q9 0 33.5 5t33.5 5
q33 0 50 15q13 13 31 51q13 28 60 28q5 0 19.5 5.5t16.5 6.5q33 8 43 33q3 7 10 56q2 10 2 19q0 50 -52 73q-13 5 -105 27q-64 16 -81 43q-5 9 -11.5 59t-4.5 63q-1 28 3 85q9 54 35.5 82.5t70.5 35.5q12 1 77 1q11 0 35.5 -1.5t36.5 -1.5q5 0 11.5 5t12.5 5t14 -8t15 -8
q5 0 16.5 3t17.5 3q32 0 38 -1.5t18 -13.5zM436 669q0 5 -5 10q-39 9 -138 9q-118 0 -154 -11q-25 -8 -32 -95q-2 -26 -2 -114q0 -55 56 -77l108 -28q62 -19 72 -61.5t10 -79.5q0 -54 -23 -85q-19 -27 -65 -38q-32 -7 -64 -15q-18 -23 -57 -56q-42 -22 -93 -22l3 -37
q72 12 83 12q31 0 55 35t42 37q73 9 94 16q18 6 40 27q18 19 18 134q0 101 -12 121q-23 36 -68 49q-40 7 -79 14q-46 9 -67 33q-25 29 -25 73q0 31 12 64q9 25 16.5 35t15.5 21q15 8 85 8q13 0 16 -4q28 -38 57 -75q40 -51 82 -51q4 0 5 41q-88 38 -88 72q0 30 40 30
q6 0 19 -1h16q27 0 27 9z" />
    <glyph glyph-name="T" unicode="T" horiz-adv-x="677" 
d="M654 690q0 -5 -3 -29t-3 -40q-75 -6 -150 -13q-90 -12 -106 -31q-2 -3 -2 -30q0 -32 3 -100.5t3 -67.5q0 -148 -13 -358q-35 -13 -73 -13q-14 0 -31 18q10 88 11 246q0 -115 0 279q-8 -2 -35 -10q-21 -7 -28 -7q-45 0 -196 12q0 8 -3 26t-3 24q0 26 8.5 33.5t29.5 7.5
q6 0 32.5 -2.5t33.5 -2.5h25q19 -1 25 -1q24 0 61 15v15q-7 8 -56 8q-2 0 -66.5 -2.5t-96.5 -2.5q-12 26 -12 48q0 6 3.5 22.5t3.5 22.5q7 5 23 12q32 7 112 7q73 0 102 -6q67 -14 92 -63q92 10 288 10q8 0 14.5 -8.5t6.5 -18.5zM610 687l-124 -2q-78 -2 -144 -10
q-9 12 -32 24t-28 17q-13 13 -33 16q-15 2 -31 4q-9 3 -61 3q-79 0 -89 -3q-2 -9 -5 -29q24 -1 75 2q57 3 54 3q47 0 78 -19q7 -5 6 -37q-1 -31 -7 -34q-43 -20 -103 -20q-6 0 -48.5 3.5t-49.5 3.5q-5 0 -5 -5q0 -2 4 -12.5t1 -12.5q122 -13 168 -10q18 1 47.5 18t34.5 17
q2 0 4 -1q5 -4 5 -102q0 -59 -2 -212q-3 -164 -3 -233l35 -4q-1 12 -1 116q0 6 1 25.5t1 23.5q0 7 -1 40t-1 38v70q0 -3 4 121q3 94 0 114q2 26 111 40l136 12z" />
    <glyph glyph-name="U" unicode="U" horiz-adv-x="509" 
d="M479 506q4 -74 2 -164q-2 -123 -2 -168q1 -69 -32 -114q-37 -51 -105 -51h-20q-62 0 -131 23t-79 47q-15 37 -13 115q2 101 -1 122q-1 12 -43 67q-28 37 -34 82q-3 29 -3 42q0 1 2.5 36t2.5 95q0 40 -1 91q6 0 27 5.5t27 5.5q18 0 24 -116q7 -131 8 -134l15 2q0 19 -1 66
q-3 52 -3 74q0 92 28 92q9 0 46 -27q-8 -84 -8 -167q0 -77 8 -208q1 -20 -2 -48q-3 -32 -3 -42q0 -36 19 -67q6 -10 37 -18q27 -7 48 -7q42 0 54 15q17 21 23 72q0 5 3 74v105v74q0 -1 -1.5 35t-1.5 65q0 134 26 134q5 0 30.5 -3t36.5 -3q7 -61 17 -202zM447 269
q0 20 -6 188q-7 184 -10 214h-20q-2 -46 1 -158q2 -100 -3 -154q-1 -11 -1 -26q0 -12 1 -41.5t1 -44.5q0 -66 -20 -99q-27 -45 -95 -45q-46 0 -79 15q-40 18 -46 52q-13 73 -13 238q0 125 7 264l-18 9q0 -59 -1 -103q-3 -105 -10 -116q-10 -15 -27 -15q-7 0 -11 6
q-13 18 -26 240l-20 -6q-1 -217 9 -239q6 -15 34 -50q30 -38 35 -46q9 -15 9 -35q0 -9 -3 -30.5t-3 -34.5v-35q0 -26 0 -21q0 -86 45 -122q41 -33 133 -33h49q10 0 29 9q24 13 32 33q27 75 27 186z" />
    <glyph glyph-name="V" unicode="V" horiz-adv-x="567" 
d="M540 630q-31 -86 -169 -494q-9 -30 -29 -91q-7 -21 -25 -21h-66q-43 0 -51 16q-14 38 -43 111q-6 12 -66 118q-53 94 -53 104q0 3 24 36.5t29 59.5q2 9 2 17q0 36 -28 96q-21 44 -42 89q5 3 35 28q22 18 28 18q18 0 48 -50q22 -35 32 -61.5t20 -69.5q8 -38 8 -50
q0 -6 -18 -46.5t-18 -46.5q0 -1 49 -92q53 -101 70 -137q19 24 30.5 68.5t75.5 226.5q50 140 58 217q1 0 6.5 3t12.5 3q8 0 39 -20t41 -32zM500 616q0 8 -14 16q-5 3 -15 4q-26 -91 -83 -258q-60 -174 -85 -258q-2 -7 -22 -17q-29 29 -56 85l-44 94q-8 15 -38 59
q-25 36 -25 42q35 75 35 123q0 80 -72 166q-18 -18 -18 -24q24 -10 46 -71q19 -56 19 -94q0 -44 -31 -89q-14 -19 -14 -31q0 -14 38 -74q23 -37 46 -73q22 -50 58 -126q16 -26 54 -26q28 0 68 107l40 126q18 51 70 197q43 120 43 122z" />
    <glyph glyph-name="W" unicode="W" horiz-adv-x="607" 
d="M572 636q0 -3 -5.5 -36.5t-4.5 -51.5q3 -51 3 -93q0 -106 -20 -192q-14 -63 -60 -192l-12 -36q-11 -20 -33 -20q-7 0 -26 2.5t-26 2.5q-24 0 -30 20q-15 44 -20 51q-11 -7 -11 -25v-9q1 -7 1 -10q0 -22 -16 -31q-37 -3 -124 -7h-19q-19 4 -25 22q-7 26 -14 51q-1 2 -2 44
q0 13 -2 22q-16 73 -51 257q-2 13 -23.5 40.5t-25.5 41.5q-7 21 -7 78q0 71 12 132q2 10 41 34l44 -22q-4 -120 1 -176l28 1q1 55 7 167q17 14 25 14q17 0 48 -19q35 -21 35 -38q0 -6 -7.5 -21t-8.5 -23q-4 -58 -6 -70q-5 -38 -16 -69q-3 -7 -28 -31.5t-25 -32.5
q0 -57 23 -146l38 -146q23 40 34 113l14 126q20 23 28 23q5 0 35.5 -9t42.5 -10q10 -19 19.5 -98.5t21.5 -104.5q16 39 40 207q14 103 8 231q-1 16 -3 50q-3 29 -3 37q0 26 22 26q6 0 35 -8.5t41 -8.5q7 -18 7 -57zM540 652q-14 3 -32 8l-9 -332l-32 -138q-26 -104 -43 -104
q-10 0 -20 8t-12 17q-1 18 -3 49q-10 73 -12 87q-10 55 -26 79l-31 1q-8 -39 -31 -119q-22 -74 -28 -114q-12 -15 -23 -15q-27 0 -45 51l-28 96q-14 42 -24 108q-7 50 -7 66q0 30 1 32q7 11 28 25.5t29 30.5t11 43q4 36 6 41q3 13 8 95l-34 17q6 -191 -26 -193l-24 -4t-20 4
q-27 21 -28 193l-21 9q-7 -94 -7 -115q0 -44 18 -86q5 -11 21 -30.5t17 -28.5q1 -37 6 -99q5 -32 28 -131l-5 23q-2 10 -2 12v0q2 0 22.5 -92t19.5 -98q13 -4 54 -4q18 0 56 17q8 33 13 76q10 102 28 102q21 0 26 -31q4 -38 7 -76q6 -47 26 -73h42q11 13 50 110
q42 105 42 136q0 4 4 26q7 34 7 76q0 25 -2.5 63t-2.5 50q0 19 4 74t4 58z" />
    <glyph glyph-name="X" unicode="X" horiz-adv-x="636" 
d="M621 682q-13 -23 -39 -63q-18 -26 -106 -124q-76 -85 -76 -92q0 -6 69 -82l120 -131q23 -26 23 -51q0 -5 -19 -29q-10 -1 -30 -14.5t-26 -13.5t-14.5 3.5t-11.5 3.5q-4 34 -52 100q-45 61 -97 111q-14 -47 -16 -53q-10 -29 -26.5 -55t-59.5 -74q-54 -62 -73 -62
q-15 0 -38.5 17.5t-23.5 24.5q0 6 65 92t65 92v19q4 4 -8 4q-20 0 -81 -96t-74 -96q-21 0 -37 28q-13 23 -13 37q0 19 44 103q48 94 83 115q31 19 76 27q-16 24 -83 114t-90 116q51 65 60 65q11 0 95 -111q87 -117 92 -121q36 30 137 142q89 98 95 98q10 0 34.5 -15.5
t35.5 -28.5zM573 672q-5 0 -17 13q-118 -131 -237 -261q-7 0 -95 120q-45 61 -89 123l-10 -20q5 -8 85 -111q71 -91 71 -104q0 -10 -12 -23.5t-23 -19.5q-18 -6 -35 -12q-27 -10 -43 -32q-27 -46 -96 -153q-1 -2 -1 -4q0 -4 10 -13t8 -16q14 10 77 105q59 88 73 88
q21 0 37 -11q20 -14 20 -39q0 -29 -39 -83q-42 -57 -85 -115q3 0 9.5 -3t9.5 -3q39 45 78 91q48 63 48 113q0 22 -9 42q-2 14 17 18q13 3 25 5q93 -92 147 -165q14 -27 45 -73q6 6 18 6q0 1 3 8t3 14q0 17 -223 239q61 69 123 138q82 93 107 138z" />
    <glyph glyph-name="Y" unicode="Y" horiz-adv-x="527" 
d="M502 739q2 -45 2 -94q0 -227 -34 -257t-50 -39q-25 -13 -60 -13q-15 0 -35 2q-7 -47 -6 -117q1 -77 -3 -99q-8 -55 -46 -87q-18 -15 -54 -26.5t-62 -11.5q-16 0 -63 14q-54 16 -54 29q0 78 -1 38q1 27 12.5 33t33.5 6q7 0 26.5 -5.5t27.5 -5.5q37 0 31 -1q24 2 34 15
t10 69q0 23 -2 54.5l-2 31.5q0 5 -2 28t-2 35q-27 -6 -79 23q-59 31 -81 75q-15 31 -3 60q52 21 96 21q11 0 13 -3l10 -32q10 -25 31 -31q49 -13 86 -13q58 0 95 30q31 24 31 105q0 24 -3.5 70t-3.5 64q0 56 25 56q13 0 48 -12q32 -11 34 -12zM468 528q0 8 -3 181l-24 -1
q3 -263 -45 -284q-8 -4 -60 -10q-59 -6 -102 -6q-49 0 -62 9.5t-66 64.5l-22 -16q2 -52 45 -73q25 -12 66 -15q34 -2 39.5 -9t5.5 -86q0 -15 2 -49t2 -52q0 -73 -31 -98q-14 -11 -42 -11q-11 0 -39 3t-43 3q-6 0 -6 -4q0 -2 4 -10.5t2 -11.5l34 -12q23 -8 41 -8q10 0 20 3
q81 19 89 89q8 61 8 90q0 18 3.5 51.5t3.5 46.5q0 14 -3.5 29t-3.5 18q0 7 7 11q11 6 53 6q32 0 49 5q22 6 36 16q42 27 42 130z" />
    <glyph glyph-name="Z" unicode="Z" horiz-adv-x="648" 
d="M624 240q0 -15 -13 -55q-13 -43 -21 -43t-10.5 3t-9.5 3q-101 0 -142 -30q-16 -12 -28 -49q-15 -45 -24 -58q4 0 -142 2q-89 1 -147 -2q-5 8 -15 59.5t-10 66.5q0 50 27 82q24 31 101 79q30 19 78 73q64 71 89 94q7 6 53 41q29 22 30 34q3 32 -134 32q-6 0 -59.5 -36.5
t-103.5 -36.5q-92 0 -114 8q-12 4 -12 52q0 20 6 28q8 12 25 12q7 0 18 -2t13.5 -2t39.5 -3t56 -3t22.5 2.5t1.5 5.5q-2 5 -2 8q0 4 3 10q-12 12 -43 14q-1 1 -49 1l-26 -1.5t-41 -1.5q-22 1 -27 5q-9 7 -10 48t7 53q10 17 146 17q61 0 98 -19q24 -18 49.5 -37t64.5 -19
q68 0 74 2q14 3 40 1q35 -4 34 -4q32 0 32 -16q0 14 -8 -239q-144 -96 -318 -242q-6 -5 -6 -24q30 -11 52 -11q32 0 46 28q23 45 42 61q13 12 95 31q76 18 95 18q25 0 47 -8q30 -11 30 -32zM577 228q-24 9 -39 9q-75 0 -82 -1q-41 -5 -72 -29q-16 -14 -32 -47.5t-24 -37.5
q-46 -24 -126 -24q-8 0 -13 3l-8 4q-13 16 -13 66q0 13 15 27q59 48 156 128q19 16 100 70q54 36 62 57q10 29 8 89q-3 70 0 91q-2 3 -49 8q-23 3 -54 3q-21 -1 -49 -2.5t-30 -1.5q-32 0 -80.5 37.5t-78.5 37.5q-4 0 -47.5 -3t-63.5 -3l1 -39q20 5 67 5q28 0 65 -12
q49 -17 50 -45q1 -27 -50 -47q-42 -16 -77 -16q-7 0 -27.5 2.5t-31.5 2.5q0 -45 -1 -20q1 -15 9.5 -15t37.5 -1t35 -1q17 0 60 15q40 15 48 22q21 22 33 37q8 10 38 10q8 0 36 -2t36 -2h27h24q32 0 32 -37q0 -42 -9 -59q-6 -11 -31 -31q-35 -27 -62 -56q-114 -122 -169 -161
q-28 -18 -76 -60q-8 -9 -8 -51q0 -70 11 -96q21 0 119 5q76 3 106 0q6 42 61 91q41 35 115 35q25 0 47 -4z" />
    <glyph glyph-name="bracketleft" unicode="[" horiz-adv-x="279" 
d="M262 76q0 -20 -10 -70q-85 18 -144 18q-5 0 -25.5 -2.5t-26.5 -2.5q-11 0 -19 11q0 76 -3 236l-12 226q0 121 12 204v44q2 32 12 44q53 -5 106 -9q61 -6 96 -25q-13 -10 -13 -32q0 -5 2 -24q1 -14 0 -22q-6 -10 -18 -10q-5 0 -37 5q-38 6 -66 9q0 -14 -2 -46t-2 -36
q0 -3 4 -31.5t4 -39.5t2 -56q1 -38 0 -56q-1 -23 10 -275q17 -13 35 -13q23 0 87 -15q8 -9 8 -32zM229 82q-49 10 -74 10q-40 0 -50 7q-14 11 -14 366q0 38 -3 106q-2 72 -2 69q0 1 -2.5 12t-2.5 20q0 22 12 30q9 6 51 4q74 -3 62 -3v35q-13 5 -138 9q-6 -59 -8 -153
q-1 -26 3 -240l5 -293q46 -3 157 -14q0 1 2 12.5t2 22.5z" />
    <glyph glyph-name="backslash" unicode="\" horiz-adv-x="360" 
d="M349 62l-91 -28q-24 72 -79 222l-85 210q-56 162 -76 265l69 30q5 -13 31.5 -89.5t27.5 -79.5t13.5 -28.5t16.5 -35.5q15 -37 39 -106q7 -22 134 -360zM318 81q-9 3 -69 159q-50 131 -80 220q-35 86 -92 261l-22 -2q16 -65 43 -147q9 -29 80 -226q37 -94 100 -276z" />
    <glyph glyph-name="bracketright" unicode="]" horiz-adv-x="279" 
d="M262 298q0 -121 -12 -204q-1 -22 -1 -44q-1 -32 -12 -44q-52 5 -105 9q-61 6 -97 25q14 10 14 32q0 5 -2 24q-2 14 -1 22q7 10 19 10q4 0 37 -5q37 -6 65 -9q0 14 2 46t2 36q0 3 -3.5 31.5t-3.5 39.5t-2 56q-2 38 -1 56q1 23 -9 275q-18 13 -35 13q-24 0 -88 15
q-7 9 -7 32q0 19 10 70q84 -18 144 -18q5 0 25.5 2.5t26.5 2.5q11 0 19 -11q-1 -76 3 -236zM223 196q1 26 -2 240l-5 293q-47 3 -157 14q0 -1 -2.5 -12.5t-2.5 -22.5q49 -10 74 -10q41 0 50 -7q15 -11 15 -366q0 -38 2 -106q3 -72 3 -71t2 -10t2 -20q0 -23 -10 -29.5
t-52 -4.5q-75 3 -63 3v-35q14 -5 139 -9q5 59 7 153z" />
    <glyph glyph-name="asciicircum" unicode="^" horiz-adv-x="337" 
d="M299 644q-4 -2 -55 -53q-18 17 -35 34q-26 23 -38 23q-6 0 -42 -33t-41 -33q-11 0 -26 25.5t-16 40.5q123 107 131 107q12 0 64 -44l58 -50v-17zM264 656q-77 64 -85 64q-15 0 -92 -77v-17q8 6 50 38q27 20 34 20q5 0 35 -24.5t36 -24.5q13 0 22 21z" />
    <glyph glyph-name="underscore" unicode="_" horiz-adv-x="667" 
d="M629 203q-1 -27 -1 -54q-3 -41 -22 -41h-22h-22q-111 0 -251 -13q-16 -1 -74 -55q-15 -14 -60 -25q-39 -9 -68 -9q-75 0 -75 40q0 6 3.5 25t3.5 31h41h36q9 0 35.5 9t43.5 19q4 3 21 31q15 24 29 25l312 23q64 0 70 -6zM597 170q-37 13 -59 13q-7 0 -49 -8
q-50 -8 -68 -10q-58 -2 -143 -11q-11 -3 -31.5 -27.5t-28.5 -28.5q-45 -20 -139 -28l-1 -28q82 -2 123 15q23 10 54 44q28 30 40 32q69 9 294 9q3 0 3 8q1 12 5 20z" />
    <glyph glyph-name="grave" unicode="`" horiz-adv-x="200" 
d="M160 531q-3 -11 -26 -23t-27 -17q-13 13 -39 69q-22 48 -28 70q-1 15 -3 43q0 11 20 46.5t31 38.5t19 3q29 0 52 -62q-35 -29 -35 -64q0 -21 16 -55q18 -37 20 -49zM129 542q-34 78 -34 106q0 53 26 71l-17 7q-21 1 -31 -21q-7 -14 -10 -43q-2 -25 0 -32q2 -9 52 -96z
" />
    <glyph glyph-name="a" unicode="a" horiz-adv-x="518" 
d="M498 66q-43 -21 -55 -21q-4 0 -15 7t-12 11q-4 38 -18 119q-4 17 -21 81q-14 50 -14 55q0 11 29 67q-65 -2 -141 -4q3 -33 -27 -134q-35 -116 -41 -165q-1 0 -7.5 -2.5t-11.5 -2.5q-16 0 -44 17.5t-28 32.5q0 4 10.5 19.5t12.5 21.5q21 64 42 115v10q-24 -20 -51 -99
q-26 -73 -31 -73h-12q-15 0 -28.5 16t-13.5 30q0 -3 26 68q14 39 27 77q17 46 36 79q13 23 32 33q4 2 35 12q12 41 38 126q2 22 10 63q6 26 27 67q29 54 54 54q16 0 52 -5q15 -2 20 -16q27 -77 67 -215q38 -129 38 -138q0 -2 -14 -25.5t-14 -50.5q0 -29 21.5 -131t21.5 -99z
M467 86v14q0 12 -24 86.5t-24 117.5q0 5 16 38t16 38q0 8 -10 31q-13 30 -13.5 31.5t-78.5 265.5q-16 10 -41 10q-7 -26 -41 -107q-25 -61 -33 -121q-3 -28 -17 -49q-1 0 -16 -22q-6 -11 -20 -26q-18 -7 -43 -22q-13 -15 -47 -97t-34 -101q0 -6 8 -12q4 9 38 98q22 58 36 76
q23 1 19 1q17 0 16 0q9 -2 18 -14q-2 -23 -29 -105t-27 -86q0 -6 2.5 -9t2.5 -5q30 11 48 109q7 30 15 60q9 40 9 68q0 19 -4 36q-4 14 21 16q87 8 88 8q-14 0 99 -4q11 -3 12.5 -7.5t1.5 -20.5q0 2 -16 -31.5t-16 -46.5q0 -8 18 -94q19 -89 31 -132q10 0 19 8zM399 456
q0 -20 -20 -20l-26.5 1t-47.5 1q-29 0 -49 -2v25q0 6 25 83q30 97 39 126h15q20 -32 23 -45q5 -34 20 -99q1 -6 13 -40q8 -25 8 -30zM371 468q-20 86 -42 151q-14 -61 -45 -155q52 5 87 4z" />
    <glyph glyph-name="b" unicode="b" horiz-adv-x="452" 
d="M429 248q0 -90 -15 -161q-2 -10 -47.5 -27.5t-58.5 -17.5q-5 0 -91 -4t-91 -4t-17 2t-17 2q-11 0 -57 16q1 0 2 29q1 36 1 72q0 88 -8.5 204t-8.5 158q0 3 2.5 37t3.5 50q17 9 33 9q24 0 88 -15t118 -15q34 0 38 15q4 12 0 17q-20 28 -131 28q-61 0 -134 -8q0 8 -2 14
q2 9 2 17q0 10 -4.5 17.5t-4.5 9.5q0 10 14 21q19 1 58 6t43 5q87 0 159 -20q116 -32 116 -103q0 -34 -31 -57.5t-63 -45.5l45 -45q27 -30 34 -57q9 -30 17 -87q7 -50 7 -62zM394 212q0 40 -9 107q-10 78 -23 96q-17 24 -44 46q-22 18 -44 35q2 14 52.5 43t50.5 66
q0 45 -82 68q-59 17 -130 17q-3 0 -38 -2.5t-50 -2.5l5 -11q10 -2 22 -2q13 0 45 3.5t51 3.5q51 0 92 -22q51 -26 51 -59q0 -16 -10.5 -28.5t-26.5 -12.5q-94 0 -171 10q-6 1 -22 6.5t-21 5.5q-24 0 -27 -15q-10 -42 -10 -142q0 -124 19 -340l38 -14h106q41 0 95 8
q66 10 71 24q10 30 10 112zM375 256q-3 -150 -98 -159q-47 -4 -108 0q-35 2 -52 11q-3 80 -16 249q-11 158 -11 157q0 7 9 16.5t16 9.5q71 0 150.5 -66.5t105.5 -145.5q5 -13 4 -72zM334 255q0 54 -14 103q-11 37 -67 89q-61 59 -108 59q-6 0 -8.5 -2.5t-3.5 -2.5v-22
q0 -6 4 -25.5t4 -27.5q2 -27 -1 -72q-2 -55 -2 -69q0 -74 9 -147q48 -10 69 -10q46 0 78 6q13 2 28 53q12 45 12 68z" />
    <glyph glyph-name="c" unicode="c" horiz-adv-x="435" 
d="M410 685q-11 -7 -41 -2q-25 5 -34 -9q17 -30 53 -30q7 0 13 2q5 -9 5 -35q0 -3 -3 -4.5t-3 -6.5t3 -14q-2 -24 -16 -24q-43 0 -91.5 27.5t-63.5 27.5q-57 0 -94 -41q-11 -12 -13 -41q-6 -55 -15 -164q0 -19 -3.5 -65.5t-3.5 -50.5q0 -77 19 -102q21 -28 93 -28
q4 0 41.5 4t42.5 4q17 0 52.5 -12.5t47.5 -22.5l-2 -81q-12 -6 -43 -6q-22 0 -108 8q-109 11 -158 23q-73 18 -73 152q0 57 4 274q3 128 39 181q42 60 144 60q4 0 26.5 -2t28.5 -2q5 0 17 17q15 21 24 28q20 14 47 14q38 0 51.5 -11t13.5 -49v-19zM372 714v15q-9 10 -27 10
q-22 0 -47.5 -33.5t-34.5 -33.5q-5 0 -7 2t-8 2q-81 0 -126 -14q-32 -10 -45 -64q-6 -46 -13 -92q-20 -118 -20 -152q0 -185 1 -186l6 -36q6 -28 31 -47t49 -20h55q26 -1 58 -5q11 -1 43 -8q29 -7 33 -7q40 -6 44 0v37q-3 4 -6.5 9t-10.5 5q-5 0 -40 -4.5t-40 -4.5t-37 5.5
t-45 5.5q-111 6 -111 122q0 95 7 206q11 156 30 177q11 13 46 27q41 16 73 16q38 0 71.5 -25t52.5 -25q6 0 11.5 2.5t6.5 2.5v19q-21 10 -27 10q-40 0 -40 50q0 26 15 31q26 1 52 3z" />
    <glyph glyph-name="d" unicode="d" 
d="M424 234q0 -30 -8 -68q-1 -18 -11 -51q-11 -21 -42.5 -43t-58.5 -29q-37 -10 -106 -17q-53 -5 -70 -5q-4 0 -36.5 4.5t-46.5 4.5q-18 19 -18 101q0 -3 11 159.5t11 205.5q0 14 -1.5 15.5t-7.5 97.5q-5 88 -5 102q0 13 14 25q5 4 13 7.5t53 3.5q55 0 51 1q46 -3 75 -19
q58 -32 78 -46q55 -38 78 -78q6 -10 16 -169q11 -151 11 -202zM390 452q0 33 -6 78q-8 58 -21.5 77.5t-37.5 34.5q-19 11 -37 22t-47 27q-16 4 -59 6.5t-60 7.5q-39 11 -49 -10q6 -218 0 -342q-2 -41 -7 -114q-5 -65 -5 -68q0 -5 2 -44q3 -42 3 -59q20 -14 43 -14
q60 0 147 20q97 23 115 50q14 21 13 59q-1 55 3 164q3 116 3 105zM356 346q0 -18 -6 -142q-2 -41 -17 -64q-4 -6 -50.5 -22.5t-57.5 -16.5q-15 0 -28 14q4 30 1 89q-4 20 -38 45q-37 27 -39 32q-11 24 -12 74v79q-1 10 0.5 40.5t1.5 39.5v57q-1 42 -1 62q0 3 -3.5 12.5
t-3.5 15.5q0 5 21 12t35 6q58 -4 117 -38q47 -28 57 -47q16 -29 19 -91q0 -50 1 -100q0 -6 1.5 -28.5t1.5 -28.5zM179 128q0 -44 -40 -44q-35 0 -43 27q-2 7 -2 55q0 8 1 27q1 24 1 27q0 1 -1 1q0 -7 -1 -10q0 13 2 20q10 14 15 14q12 0 33.5 -20.5t28 -39t6.5 -57.5z
M326 259q5 62 0 158q-2 35 -4 71.5t-10 62.5q-9 35 -20 46q-45 50 -122 50q-21 0 -24 -6q-7 -15 -7 -117q0 -57 -2 -150q0 -11 6 -36q7 -31 15 -44.5t40 -43.5q25 -23 26 -37q-1 -29 2 -65q2 -4 11 -4q35 0 64 27q17 16 20 32q3 28 5 56zM153 163q-3 9 -13 18q-7 6 -15 13
q3 -16 1 -40l-2 -36h25q10 29 4 45z" />
    <glyph glyph-name="e" unicode="e" horiz-adv-x="501" 
d="M481 48q-40 -23 -101 -23q-77 0 -122 44q-25 0 -75.5 -4t-76.5 -4q-70 0 -70 48q0 12 2.5 36.5t2.5 36.5q0 92 -11.5 275.5t-11.5 275.5q0 10 26 17q20 7 34 7q4 0 7.5 -4.5t7.5 -4.5q19 0 55 2t57 3q210 2 227 -11q9 -7 11 -44t-5 -46q2 -1 -34 -1t-107 6.5t-107 6.5
q-37 0 -44 -10.5t-7 -51.5q0 -30 4 -74q7 -66 14 -66q12 0 36 2t36 2q47 0 67 -24q0 -11 -2.5 -32t-2.5 -31q-59 -4 -119 -8q-38 -11 -38 -98q0 -74 15 -96q44 -2 37 -2q32 0 79.5 42t96.5 42q35 0 35 -20q0 -40 -22 -57q-10 -8 -42 -18q-23 -7 -23 -21q0 -17 63 -18
q-83 2 77 2q12 0 20 -15q4 -21 11 -64zM452 79l-7 12q-21 6 -62 2q-44 -3 -63 1q-42 9 -42 50q0 27 47 45q44 16 38 35q-1 5 -6 10q-11 4 -79 -46q-24 -19 -50 -37.5t-38 -19.5q-70 -4 -84 27q-7 15 -7 108q0 33 4.5 77t8.5 51q9 13 148 2v30q-24 0 -66 2q-45 2 -67 2
q-5 0 -11 33q-4 29 -4 42q0 29 -3.5 85.5t-3.5 84.5q0 9 24 9q18 1 96 5q58 2 95 2q49 0 90 -4q-2 11 -5 34h-23q-12 0 -37 -2.5t-38 -2.5q-30 0 -91 3t-92 3q-37 0 -60 -8q1 -47 8 -308q6 -199 6 -307q3 -1 11 -4.5t13 -3.5q24 0 70.5 9t70.5 9q19 0 56 -22t57 -22
q18 -9 45 -9q51 0 51 23z" />
    <glyph glyph-name="f" unicode="f" horiz-adv-x="521" 
d="M504 553q0 -21 -22 -21q-6 0 -26 -2.5t-26 -2.5q-22 0 -25 28q-1 18 -2 35q-19 26 -40 30q-29 7 -73 7q-97 0 -100 -33q-8 -102 -4 -147q1 -11 17 -12q-8 1 24 1h43h43q10 0 17 -9.5t7 -16.5q0 -4 -2.5 -29.5t-2.5 -38.5q-7 -1 -17 -1q-9 0 -28.5 1.5t-29.5 1.5
q-59 0 -67 -38q-1 -4 -1 -24q1 -15 -5.5 -22.5t-19 -12t-16.5 -7.5q-7 -6 -14.5 -35.5t-7.5 -80.5q0 -64 16 -85q-9 -12 -22 -21.5t-16 -9.5q-72 0 -91 20v196q0 41 23 84q20 39 47 60q1 55 3 161q3 87 -9 173q47 25 55 25h44.5h44.5t78.5 -2t78.5 -2q54 0 67 -8
q36 -19 43 -42q16 -52 16 -120zM465 571v45q0 12 -17 43q-20 35 -37 35h-60q-53 1 -58 1h-92q-59 -3 -83 -17q3 -153 0 -205q-2 -37 0 -82q1 -17 3 -56q-17 -11 -36.5 -31.5t-22.5 -30.5q-15 -62 -15 -163q0 -5 2.5 -29t2.5 -35q29 8 37 6q-3 8 0 55q1 18 -1.5 47.5
t-2.5 39.5q0 32 15 55q3 4 23 16q17 10 21 26q2 20 13 56q14 24 67 26q39 1 78 1q9 14 3 27q-3 6 -21 7q-12 0 -43 -1q-37 -2 -55 -2q-22 0 -27 15q-2 6 -2 41q0 1 -2.5 29.5t-2.5 50.5q0 12 2 35.5t2 33.5q1 21 16 30q27 16 144 16q101 0 63 2q16 -1 35 -17
q16 -14 26.5 -39.5t6.5 -30.5h18z" />
    <glyph glyph-name="g" unicode="g" horiz-adv-x="622" 
d="M613 651q-3 -15 -15 -41q-14 -30 -24 -31q-43 39 -53 46q-40 30 -75 36q-8 1 -17 14l-19 -21q15 -15 69 -35.5t78 -40.5q-11 -59 -35 -59q-6 0 -30 8q-29 10 -33 12q-29 0 -86 15q-20 10 -60 58q-34 40 -60 40q-44 0 -84 -98q-34 -83 -34 -135q0 -83 127 -107
q45 -9 42 -9q13 0 22 9q15 13 15 30q0 18 -20 18q-12 0 -36 -7t-36 -7q-20 0 -25 31q-4 23 -7 45q25 15 30 15t20 1h20q24 0 67 1q30 1 57 0q22 0 61 -3q-5 -19 -5 -46q0 -33 4 -93.5t4 -92.5q-27 -31 -41 -48q-42 -50 -49 -67q-19 -53 -14 -155q-3 -5 -14 -5
q-8 0 -22.5 2.5t-22.5 2.5q-31 48 -31 113q0 98 93 173l-1 15q-37 -21 -48.5 -23.5t-57.5 -2.5q-44 0 -101 23q-70 29 -104 78q-17 25 -28.5 67t-11.5 73t18 96q26 96 71 137t69 54q36 19 88 18q11 0 33.5 -6.5t33.5 -6.5q5 0 18.5 11t20.5 11q139 0 239 -113zM575 642
q-21 24 -76 53.5t-84 29.5q-23 0 -38 -15t-23 -15q-16 0 -50 13t-51 13q-60 0 -121 -75q-16 -20 -32 -54q-20 -44 -20 -45q-6 -20 -6 -74q0 -112 23 -147q28 -42 97 -67q61 -22 117 -19q34 2 89 26q3 -54 6 -54q-86 -45 -86 -167q0 -24 11 -73q12 73 15 88q12 54 33 90
q6 11 31.5 29.5t29.5 25.5q0 105 -13 200q-60 -1 -172 -14q17 0 46 1h46q21 0 33 -2v-28q0 -40 -24 -66.5t-64 -26.5q-77 0 -130 35q-62 41 -62 113q0 63 12 102q12 43 46 87q16 28 33.5 54t63.5 26q51 0 69 -24l36 -56q23 -24 69 -36q39 -8 78 -17q8 2 8 6q0 6 -74 37.5
t-74 51.5q0 47 65 47q49 0 136 -73z" />
    <glyph glyph-name="h" unicode="h" horiz-adv-x="582" 
d="M552 493q0 -56 -8 -158q-9 -112 -10 -157q-1 -27 4.5 -80t4.5 -82q-14 -1 -49 -9t-50 -8q-30 0 -30 101q0 78 7 168q3 30 8 82q-3 -2 -18 1l-19 3q-21 0 -54 3t-55 3q-8 0 -53 -5q102 -51 102 -235q0 -75 -13 -99q-20 -39 -87 -39q-6 0 -23 13q1 15 4 63q2 39 2 63
q0 65 -18 109h-16q-29 -44 -37 -114q-4 -61 -8 -121q-27 -4 -79 -12q-6 11 -11 58q-5 41 -5 63q0 190 57 228q-1 54 -7 206q-6 129 -6 206q0 7 8 15.5t15 8.5q10 0 28.5 -5.5t28.5 -5.5q8 0 24 5.5t24 5.5q7 0 10.5 -12t6.5 -24q6 -16 6 -33q0 -12 -3.5 -34.5t-3.5 -34.5
q0 -55 5 -126h6q21 0 61 -3.5t61 -3.5q31 0 57 7q-44 76 -44 146v139q27 6 26 6q4 0 28.5 -11.5t51.5 -11.5q1 -15 0 -42q-1 -31 -1 -43q0 -63 7 -88q13 -45 54 -65q11 -19 11 -41zM514 497q-45 30 -53 115l-4 134l-45 19q-5 -33 -5 -129q0 -20 24 -72t40 -64l1 -2
q-1 -24 -2 -29q-4 -15 -20 -15q-12 0 -35.5 2.5t-35.5 2.5q-9 0 -26.5 -4.5t-26.5 -4.5q-95 0 -131 22q3 19 0 50q-3 41 -3 51q0 105 -7 145l-52 6v-214q0 -21 4.5 -63.5t4.5 -64.5q0 -45 -31 -119t-31 -134q0 -45 6 -86q10 -6 19 -7l9 8q8 66 15 133q19 94 69 94
q28 0 45 -50q13 -39 13 -74q0 -13 -4.5 -38.5t-4.5 -38.5q0 -28 13 -39q-2 0 22 0q19 0 19 45q0 155 -59 215q-19 13 -51 44q1 21 9 59q13 6 46 6q32 0 97 -3t98 -3q7 0 16.5 -8.5t9.5 -15.5q0 -48 -8.5 -145t-8.5 -146q0 -20 14 -31l41 2q-9 115 -9 117q0 58 8 165
q9 114 10 165z" />
    <glyph glyph-name="i" unicode="i" horiz-adv-x="264" 
d="M241 20q-10 0 -33 -3t-29 -3q-4 0 -17 9q-16 10 -15 19q5 47 5 74q0 67 -27 124q-6 15 -34 28q-40 19 -47 23q-4 74 -13 247q-9 150 -9 155q0 12 6 27.5t16 15.5q66 0 91 -9q-12 -147 -6 -332q7 -5 43 -23q26 -13 39.5 -31.5t18.5 -42t10 -47.5q10 -46 10 -98
q0 -3 -9 -133zM216 60q5 45 5 89q0 55 -9 88q-6 21 -12.5 42t-19.5 36.5t-36 27.5l-34 17q-14 10 -14 39q0 -4 2 114.5t2 176.5q-9 0 -32 5q3 -44 1 -197q-2 -139 2 -177q29 -6 69.5 -45t42.5 -65q12 -120 10 -152q3 3 11 1q9 -3 12 0z" />
    <glyph glyph-name="j" unicode="j" horiz-adv-x="469" 
d="M456 110q0 -70 -30 -113q-34 -49 -101 -49q-6 0 -17.5 2t-17.5 2q-22 0 -38 -18q-19 -21 -30 -24q-19 -6 -66 -14.5t-66 -8.5q-5 0 -15 4t-16 4q-28 0 -39 10.5t-11 38.5q0 7 14 28q50 6 162 6l4 20q-8 7 -33.5 13.5t-39.5 6.5q-13 0 -41 -8.5t-42 -8.5q-8 0 -14 8t-6 16
q0 10 3 28.5t3 25.5q92 27 97 27q42 0 145 -53q95 0 95 136q0 72 -12 195q-14 147 -16 197q-20 10 -53 14q-26 3 -34 14q-13 16 -13 66q0 36 16 36t49 -6.5t49 -6.5q10 0 29 4.5t28 4.5q14 0 23 -31q6 -23 6 -42q1 -85 15 -262q13 -172 13 -262zM420 103q0 60 -11 180.5
t-11 180.5q0 182 -26 203h-104v-34q12 1 33 0q28 -2 33 -2q11 0 12 -1q10 -15 21 -44q1 -83 9 -250q1 -9 9 -72q6 -45 6 -72q0 -38 -17 -93q-21 -68 -48 -68q-9 0 -27.5 -2.5t-27.5 -2.5q-31 0 -50 9q-23 13 -45.5 24t-60.5 11q-46 0 -61 -9q2 -20 -1 -24q40 8 74 8t60 -11
q37 -14 37 -42q0 -32 -51 -41q-16 -2 -75 -2q-21 0 -35 -3l-3 -21q5 -7 46 -7q74 0 89 10q20 21 41 41q31 26 87 26q97 0 97 108z" />
    <glyph glyph-name="k" unicode="k" horiz-adv-x="466" 
d="M439 80q0 -13 -29.5 -31.5t-35 -18.5t-13 -3.5t-10.5 -3.5t-6 3q-53 79 -108 166q-15 40 -50 100q0 -252 1 -271l-37 4q-6 0 -16.5 -5t-17.5 -5q-8 0 -17 5q-12 6 -12 13q-1 131 -14 388q-1 13 -17 45q-20 38 -25 57q-12 40 -13 120q1 -84 1 81q0 17 2 47q16 8 52 8
q20 0 27 -108q4 -61 8 -123q11 7 12 107q2 96 -4 113q13 4 36 3q24 0 31 -6q9 -9 10 -109v-130l8 -9q19 11 82 33q69 24 92 24q12 0 22 -17q17 -27 27 -37q-24 -17 -108 -67q-66 -39 -66 -46q0 -21 56 -101q12 -24 34 -67q10 -8 27 -31q3 -6 45 -76q26 -45 26 -52zM391 87
q-39 78 -144 245l-49 79q0 3 21 19q26 20 60 38q53 26 107 55l-18 25q-23 -8 -81 -31q-101 -41 -104 -39q-15 8 -16 100q0 76 -1 152l-20 3q0 -216 -23 -216q-9 0 -22.5 10t-16.5 22q-11 40 -7 190l-28 -1q-7 -84 -7 -96t3 -39q-1 -69 27 -110q12 -15 23 -29q13 -18 15 -31
q7 -55 7 -138q-1 -123 0 -138q-2 -34 3 -104l32 4q0 44 -3 139q-5 121 -5 142q-7 10 -7 20q7 7 13 14t13 7q9 0 88 -134q53 -91 106 -181q2 3 17 12t17 11z" />
    <glyph glyph-name="l" unicode="l" horiz-adv-x="547" 
d="M530 144q0 -6 -58 -9q-35 -2 -69 -5l-2 -25q2 -1 63 -15q47 -10 63 -29q4 -4 1 -31l-2 -30q-4 -2 -15.5 -9.5t-17.5 -7.5t-12.5 2.5t-12.5 2.5q-19 0 -59.5 12.5t-58.5 24.5q-10 15 -35 37q-29 14 -98 14q-12 0 -62 -1q-37 -1 -56 0q7 0 -28 -1q-19 0 -26 5.5t-11 163.5
q-2 115 -5 230q0 14 19 30q24 20 27 24q12 21 13 45v40q4 73 -3 111q1 6 8 15q36 13 67 13q6 0 15 -3t17 -3q0 -21 3 -72.5t3 -73.5q0 -55 -12 -89q-5 -13 -27 -44.5t-22 -37.5q0 15 13 -99q2 -11 1 -79q-1 -50 10 -75q43 5 130 5q6 0 15.5 10.5t15.5 12.5q44 18 111 18
q12 0 50.5 -9.5t40.5 -12.5q6 -8 6 -55zM486 155q0 3 -2.5 9.5t-2.5 9.5l-35 8q11 0 -38 4q-39 3 -63 -21q-15 -15 -33.5 -18t-101.5 -3q-74 0 -68 0q-14 2 -22 12q-10 109 -10 254q0 42 6 60q2 7 19 24.5t18 21.5q7 20 8 49q1 21 -1 47q-2 30 -2 27q0 5 -2.5 32t-2.5 38
h-24q0 -126 1 -86q-1 -50 -12 -84q-8 -26 -31 -47q-18 -17 -18 -48q0 2 7 -100t7 -151q0 1 -3 -46q-2 -28 3 -31.5t91 -3.5q105 0 101 0q32 -1 47 -5q8 -2 41 -38t58 -36q6 0 54 -14l7 33q-33 6 -90 24q-21 11 -21 49q0 34 75 34q4 0 13 -2t27 -2z" />
    <glyph glyph-name="m" unicode="m" horiz-adv-x="576" 
d="M551 357q0 -72 -5 -91q-3 -12 -18 -24q-20 -14 -39 -48q-8 -14 -15 -102q-7 -76 -23 -76q-40 0 -59 6v141q0 30 26.5 81.5t26.5 64.5q0 24 -3.5 73t-3.5 73q0 15 3.5 45.5t3.5 44.5q0 8 -9 25l-11 -10q-22 -174 -22 -202q0 -26 2 -50q-4 -8 -16 -23q-26 10 -81 10
q-18 0 -53 131q-19 80 -39 160l-26 -1q0 -18 -1.5 -53.5t-1.5 -53.5q0 -74 14 -109q8 -19 28 -38t26 -43q10 -43 11 -110v-79q0 -25 1 -45q-27 -14 -61 -14q-23 0 -32 84q-11 104 -28 134h-20q-12 -23 -16 -103l-4 -112q-25 -4 -75 -9l-9 4q-6 11 -6 189q0 46 17 79
q10 20 30 41q17 16 17 21q0 36 -7.5 110.5t-7.5 112.5q0 10 -1 29t-1 28q0 38 12 55q15 23 55 23q28 0 73 -10q36 -7 73 -15q13 -50 48 -148q4 11 23 116q17 92 24 99q4 3 20 3q21 0 65 -6q52 -6 62 -13.5t11 -25.5q-2 38 -2 -30q0 -56 12 -169t12 -170zM523 320
q0 190 -25 399q-14 0 -43 5.5t-44 5.5q-7 0 -14 -3q-18 -23 -34 -145l-22 -164h-15q-27 86 -92 253q-3 -2 -13 -2q-12 0 -39 4t-38 4q-10 0 -15 -3q-17 -10 -18 -44q0 -32 1 -64q0 3 0 -125q0 -73 -2 -93q-2 -16 -22 -33t-25 -37q-8 -39 -8 -102v-96l22 2q3 62 5 123
q10 88 50 88q25 0 52 -43q0 -2 18 -87q10 -54 8 -88h21v40q0 27 -8 95q-9 78 -17 84q-45 39 -52 56q-5 14 -5 80q0 26 4 78t4 78q0 31 11 38q8 5 42 5q9 0 19 -6q17 -24 52 -154q34 -125 42.5 -132t23.5 -7q7 0 18 10.5t40 315.5q10 0 23 6.5t20 6.5q11 0 22 -19q0 -4 8 -72
q6 -42 6 -72q0 -29 -4 -110q-2 -70 -1 -111q-38 -29 -51 -112q-2 -18 -8 -129l19 -1q2 1 4 4v30q-2 92 18 136q8 15 40 47q22 22 22 60z" />
    <glyph glyph-name="n" unicode="n" 
d="M440 91q0 -32 -3 -41q-5 -20 -26 -20h-38q-35 3 -43 19q-17 53 -51 149q-23 60 -72 206q-34 100 -61 159q-2 -2 -7.5 1.5t-6.5 3.5q-2 0 -2 -4q0 -198 12 -234q3 -7 17 -35q10 -19 10 -36q5 -137 2 -178v-34q0 -18 -7 -28.5t-82 -4.5q-2 74 -13 202q-3 16 -22.5 30
t-22 23.5t-0.5 40.5q2 40 1 52q-9 155 -8 228q1 22 4 68q3 38 2 71q0 16 22 16q4 0 26 -4t33 -4q1 0 23 1q19 1 30 0q2 -2 40 -73q41 -74 88 -186q28 -68 55 -135l-2 182l3 39q0 41 -18 59q-11 11 -36 16q-28 6 -31 8q-7 5 -6 33q1 27 6 43q2 5 20 5q42 0 87 -12
q61 -15 61 -42q1 -123 7 -403q2 -38 5 -113q4 -63 4 -68zM402 91q-8 181 -8 433q0 124 -14 143q-7 8 -45.5 20t-47.5 11v-26q19 0 40 -13q29 -17 38 -47q17 -58 6 -291q-2 -36 -6 -109q-11 2 -23 8q-17 78 -36 118q-38 89 -91 208q-73 152 -101 152q-23 0 -52 -8
q3 -43 1 -146q-3 -141 -3 -186q0 -52 1 -53q2 -10 18.5 -29t17.5 -22q9 -36 12 -100q3 -82 3 -90l21 2q-4 93 -17 217q-3 8 -12 19.5t-10 15.5q-8 26 -8 229q0 4 5 47.5t6 64.5q3 3 8 3q-5 0 24 -7q15 -4 119 -271q97 -248 113 -302q17 -4 26 0q7 2 15 9z" />
    <glyph glyph-name="o" unicode="o" horiz-adv-x="533" 
d="M507 323q0 -150 -11 -203q-5 -17 -12 -47q-10 -52 -64 -64q-16 -4 -86 -4q-68 0 -99 4q-57 8 -155 39q-22 7 -40.5 35.5t-21.5 61.5q-6 69 -6 164q0 361 89 432q55 44 136 44q21 0 55 -3l58 -4q52 -5 70 -17q55 -34 70 -109q6 -61 12 -123q5 -32 5 -206zM469 270
q0 123 -13 265q-11 120 -21 154q-10 38 -68 47l-78 4q-38 4 -93 -10q-65 -16 -86 -44q-40 -54 -40 -151q0 -62 -5 -194.5t-5 -127.5q0 -29 7 -63q10 -41 25 -54q24 -19 112 -36q73 -13 103 -13q7 0 46 3t47 3t26 15q34 28 38.5 82t4.5 120zM423 526q0 -96 -15 -234
q-54 -11 -77 -27q-25 -19 -31 -53.5t-10 -91.5q-16 -20 -43 -20q-12 0 -54 14q-48 15 -71 30q-32 20 -32 135q0 139 19 298q6 47 49 89q18 17 90 30q54 9 80 9q7 0 31 -16q40 -25 54 -69q10 -32 10 -94zM441 187q0 -43 -12 -56q-16 -10 -32 -19q-17 -13 -26 -13
q-8 0 -11.5 3.5t-10.5 3.5q-33 0 -33 39q0 31 27.5 61.5t61.5 30.5q36 0 36 -50zM376 467l1 17v31q0 134 -79 148q-10 2 -58 -13q-53 -16 -65 -30q-17 -21 -18 -37q-26 -254 -26 -280q0 -88 20 -118q11 -17 42 -23q25 -4 50 -7q26 133 131 177q2 26 2 135zM398 161
q7 10 3 23q-5 13 -15 13q-9 0 -17.5 -11t-8.5 -21q0 -7 4 -10q21 -14 34 6z" />
    <glyph glyph-name="p" unicode="p" horiz-adv-x="437" 
d="M421 606q0 -44 -12 -63q-24 -38 -71 -55q-7 -3 -76 -18q-38 -10 -121 -25q-5 -63 -8 -161q-3 -130 0 -181q1 -8 7.5 -31.5t6.5 -29.5q0 -10 -14.5 -17.5t-24.5 -7.5q-25 0 -52 7q-5 1 -25 24q-1 27 -3 118q-3 74 -3 119q0 21 1 73.5t1 77.5v36.5v27.5q0 53 53 57
q23 2 42 8t22 6q19 0 123 21q8 2 17.5 14t9.5 19q0 28 -17 33l-50 16q-36 12 -62 12t-44 -11t-22 -36q-5 -36 -10 -47q-7 0 -29 -8t-28 -8q-8 0 -13 5.5t-9 10.5l4 102q13 87 81 87q6 0 66 -5t66 -5q112 0 153 -36t41 -129zM385 591q0 97 2 42q-1 38 -14 59q-19 33 -86 46
q-50 10 -110 7h-72q-58 0 -58 -88q0 -11 -1 -37l28 1q0 34 4 46q6 17 28 37q8 6 39.5 10t59.5 1q26 -3 55 -14q21 -6 42.5 -14t26.5 -21q2 -4 2 -34q0 -61 -28 -70q-43 -13 -125 -30q-74 -15 -85 -15h-15.5h-10.5q0 3 -4 -45t-4 -108q0 -50 3 -109q2 -74 10 -197h34
q-11 193 -11 220q0 65 6 114q1 12 -1 30q-2 22 -2 28q0 24 17 35q28 7 130 23q78 12 104 25q15 8 27 29q9 18 9 29z" />
    <glyph glyph-name="q" unicode="q" horiz-adv-x="633" 
d="M616 86q0 -17 -30.5 -42.5t-38.5 -25.5q-11 0 -75 88q-69 97 -79 105l-7 -9l22 -38q11 -22 17 -48q1 -21 7 -58q-4 -6 -18 -17.5t-37 -11.5h-32q-71 -8 -103 -8q-104 0 -155 50q-55 54 -55 168q0 31 5 77q0 1 -1 76q-2 56 -4 113q-2 60 2 97q1 21 3 42q4 30 17 49
q33 47 75 51q8 1 21 -1t18.5 -2t43.5 -5.5t44 -5.5q45 0 103 -31q39 -22 57 -90q13 -51 9 -88q-2 -12 0 -45q1 -45 1 -61q0 -63 -15 -87q7 -4 22 -8t21 -9q51 -43 162 -225zM569 82q-116 220 -220 220q-42 0 -42 -49q0 -8 11 -40q14 -40 17 -51q1 -5 7.5 -13t6.5 -15
q0 -31 -51 -31q-7 0 -40 3.5t-40 3.5q-34 0 -65 16q-38 20 -44 53q-20 119 -20 193q0 24 3 63q4 45 4 63q1 41 2 83q6 45 37 71q15 13 54 13q41 0 79 -13q42 -15 56 -40q18 -32 25 -145q6 -97 20 -97q12 0 18 7q5 7 0 25q0 34 -7 114q-10 109 -24 127q-29 39 -119 42
q-13 1 -48 8.5t-40 7.5q-34 0 -58.5 -23t-24.5 -94q0 -2 -1 -24q-1 -11 -1 -170q0 -79 15 -246q2 -13 12.5 -29t23.5 -22q50 -23 139 -30q105 -9 125 2q9 6 9 22t-8 38q0 9 -23.5 42t-23.5 59q0 8 16 25t30 17q24 0 94.5 -96.5t80.5 -96.5q7 0 10 3.5t5 3.5zM354 343
q-4 4 -21 4q-23 0 -23 53q0 11 1 40.5t1 45.5q0 70 -22 103q-24 37 -92 37q-70 0 -75 -159q-4 -159 17 -271q2 -15 11 -21.5t17 -13.5q16 -15 19 -17q9 -8 22 -11q7 -3 14 -3t22 4t24 4q13 1 35 0q-10 26 -21 52q-11 31 -11 52q0 40 19 68q23 33 63 33z" />
    <glyph glyph-name="r" unicode="r" horiz-adv-x="437" 
d="M421 606q0 -44 -12 -63q-32 -50 -122 -68q1 -18 3 -77q7 -6 43 -24q26 -13 39.5 -31t18.5 -42l10 -48q10 -46 10 -97q0 -4 -9 -134q-10 0 -33 -2.5t-28 -2.5t-18 8q-16 10 -15 19q5 48 5 74q0 67 -27 125q-6 15 -34 27q-40 19 -47 24q-4 76 -13 159q-28 -6 -51 -8
q-5 -63 -8 -161q-3 -130 0 -181q1 -8 7.5 -31.5t6.5 -29.5q0 -10 -14.5 -17.5t-24.5 -7.5q-25 0 -52 7q-5 1 -25 24q-1 27 -3 118q-3 74 -3 119q0 21 1 73.5t1 77.5v36.5v27.5q0 53 53 57q23 2 42 8t22 6q19 0 123 21q8 2 17.5 14t9.5 19q0 28 -17 33l-50 16q-36 12 -62 12
t-44 -11t-22 -36q-5 -36 -10 -47q-7 0 -29 -8t-28 -8q-8 0 -13 5.5t-9 10.5l4 102q13 87 81 87q6 0 66 -5t66 -5q112 0 153 -36t41 -129zM385 591q0 97 2 42q-1 38 -14 59q-19 33 -86 46q-50 10 -110 7h-72q-58 0 -58 -88q0 -11 -1 -37l28 1q0 34 4 46q6 17 28 37
q8 6 39.5 10t59.5 1q26 -3 55 -14q21 -6 42.5 -14t26.5 -21q2 -4 2 -34q0 -34 -4 -46q-8 -21 -35 -27l-199 -42h-15.5h-10.5q0 3 -4 -45t-4 -108q0 -50 3 -109q2 -77 10 -202h34q-11 192 -11 223q0 67 6 116q1 12 -1 30q-2 22 -2 28q0 24 17 35q15 4 105 19q3 1 3 -16
q1 -25 1 -29q1 -45 8 -136q29 -6 69.5 -45t42.5 -64q12 -121 10 -152q3 2 11.5 0t11.5 0q5 45 5 90q0 54 -9 87q-6 21 -12.5 42t-20.5 38q-12 14 -35 26q-32 17 -34 17q-14 10 -14 40q0 2 1 26.5t1 39.5q-1 21 0 43l30 5q40 7 60 17q15 8 27 29q9 18 9 29z" />
    <glyph glyph-name="s" unicode="s" horiz-adv-x="489" 
d="M465 705q3 -60 -3 -70q-4 -6 -13 -4l-18 3q-8 0 -27 4q-15 2 -25 0q-12 -2 -12 -16q0 -19 47.5 -27t47.5 -26q0 -86 -34 -86q-13 0 -42 14q-32 16 -43 18q-36 6 -50 39q-16 40 -24.5 45.5t-32.5 5.5q-29 0 -46 -12q-24 -17 -24 -58q0 -30 10 -54q7 -17 24 -29t29 -12
q5 0 7 2.5t7 2.5q6 0 21 -6.5t21 -7.5q86 -16 112 -57q22 -34 22 -124q0 -95 -3 -120q-13 -80 -61 -80q-3 0 -20.5 -7.5t-17.5 -5.5t-30 -3t-52 -12t-37 -30q-19 -30 -28 -36q-22 -18 -65 -17q-1 0 -42 -4q-28 -2 -42 3q2 14 -1 43q-5 34 -5 39q0 10 4 10q9 0 33.5 5t33.5 5
q33 0 50 15q13 13 31 51q13 28 60 28q5 0 19.5 5.5t16.5 6.5q33 8 43 33q3 7 10 56q2 10 2 19q0 50 -52 73q-13 5 -105 27q-64 16 -81 43q-5 9 -11.5 59t-4.5 63q-1 28 3 85q9 54 35.5 82.5t70.5 35.5q12 1 77 1q11 0 35.5 -1.5t36.5 -1.5q5 0 11.5 5t12.5 5t14 -8t15 -8
q5 0 16.5 3t17.5 3q32 0 38 -1.5t18 -13.5zM436 669q0 5 -5 10q-39 9 -138 9q-118 0 -154 -11q-25 -8 -32 -95q-2 -26 -2 -114q0 -55 56 -77l108 -28q62 -19 72 -61.5t10 -79.5q0 -54 -23 -85q-19 -27 -65 -38q-32 -7 -64 -15q-18 -23 -57 -56q-42 -22 -93 -22l3 -37
q72 12 83 12q31 0 55 35t42 37q73 9 94 16q18 6 40 27q18 19 18 134q0 101 -12 121q-23 36 -68 49q-40 7 -79 14q-46 9 -67 33q-25 29 -25 73q0 31 12 64q9 25 16.5 35t15.5 21q15 8 85 8q13 0 16 -4q28 -38 57 -75q40 -51 82 -51q4 0 5 41q-88 38 -88 72q0 30 40 30
q6 0 19 -1h16q27 0 27 9z" />
    <glyph glyph-name="t" unicode="t" horiz-adv-x="677" 
d="M654 690q0 -5 -3 -29t-3 -40q-75 -6 -150 -13q-90 -12 -106 -31q-2 -3 -2 -30q0 -32 3 -100.5t3 -67.5q0 -148 -13 -358q-35 -13 -73 -13q-14 0 -31 18q10 88 11 246q0 -115 0 279q-8 -2 -35 -10q-21 -7 -28 -7q-45 0 -196 12q0 8 -3 26t-3 24q0 26 8.5 33.5t29.5 7.5
q6 0 32.5 -2.5t33.5 -2.5h25q19 -1 25 -1q24 0 61 15v15q-7 8 -56 8q-2 0 -66.5 -2.5t-96.5 -2.5q-12 26 -12 48q0 6 3.5 22.5t3.5 22.5q7 5 23 12q32 7 112 7q73 0 102 -6q67 -14 92 -63q92 10 288 10q8 0 14.5 -8.5t6.5 -18.5zM610 687l-124 -2q-78 -2 -144 -10
q-9 12 -32 24t-28 17q-13 13 -33 16q-15 2 -31 4q-9 3 -61 3q-79 0 -89 -3q-2 -9 -5 -29q24 -1 75 2q57 3 54 3q47 0 78 -19q7 -5 6 -37q-1 -31 -7 -34q-43 -20 -103 -20q-6 0 -48.5 3.5t-49.5 3.5q-5 0 -5 -5q0 -2 4 -12.5t1 -12.5q122 -13 168 -10q18 1 47.5 18t34.5 17
q2 0 4 -1q5 -4 5 -102q0 -59 -2 -212q-3 -164 -3 -233l35 -4q-1 12 -1 116q0 6 1 25.5t1 23.5q0 7 -1 40t-1 38v70q0 -3 4 121q3 94 0 114q2 26 111 40l136 12z" />
    <glyph glyph-name="u" unicode="u" horiz-adv-x="509" 
d="M479 506q4 -74 2 -164q-2 -123 -2 -168q1 -69 -32 -114q-37 -51 -105 -51h-20q-62 0 -131 23t-79 47q-15 37 -13 115q2 101 -1 122q-1 12 -43 67q-28 37 -34 82q-3 29 -3 42q0 1 2.5 36t2.5 95q0 40 -1 91q6 0 27 5.5t27 5.5q18 0 24 -116q7 -131 8 -134l15 2q0 19 -1 66
q-3 52 -3 74q0 92 28 92q9 0 46 -27q-8 -84 -8 -167q0 -77 8 -208q1 -20 -2 -48q-3 -32 -3 -42q0 -36 19 -67q6 -10 37 -18q27 -7 48 -7q42 0 54 15q17 21 23 72q0 5 3 74v105v74q0 -1 -1.5 35t-1.5 65q0 134 26 134q5 0 30.5 -3t36.5 -3q7 -61 17 -202zM447 269
q0 20 -6 188q-7 184 -10 214h-20q-2 -46 1 -158q2 -100 -3 -154q-1 -11 -1 -26q0 -12 1 -41.5t1 -44.5q0 -66 -20 -99q-27 -45 -95 -45q-46 0 -79 15q-40 18 -46 52q-13 73 -13 238q0 125 7 264l-18 9q0 -59 -1 -103q-3 -105 -10 -116q-10 -15 -27 -15q-7 0 -11 6
q-13 18 -26 240l-20 -6q-1 -217 9 -239q6 -15 34 -50q30 -38 35 -46q9 -15 9 -35q0 -9 -3 -30.5t-3 -34.5v-35q0 -26 0 -21q0 -86 45 -122q41 -33 133 -33h49q10 0 29 9q24 13 32 33q27 75 27 186z" />
    <glyph glyph-name="v" unicode="v" horiz-adv-x="567" 
d="M540 630q-31 -86 -169 -494q-9 -30 -29 -91q-7 -21 -25 -21h-66q-43 0 -51 16q-14 38 -43 111q-6 12 -66 118q-53 94 -53 104q0 3 24 36.5t29 59.5q2 9 2 17q0 36 -28 96q-21 44 -42 89q5 3 35 28q22 18 28 18q18 0 48 -50q22 -35 32 -61.5t20 -69.5q8 -38 8 -50
q0 -6 -18 -46.5t-18 -46.5q0 -1 49 -92q53 -101 70 -137q19 24 30.5 68.5t75.5 226.5q50 140 58 217q1 0 6.5 3t12.5 3q8 0 39 -20t41 -32zM500 616q0 8 -14 16q-5 3 -15 4q-26 -91 -83 -258q-60 -174 -85 -258q-2 -7 -22 -17q-29 29 -56 85l-44 94q-8 15 -38 59
q-25 36 -25 42q35 75 35 123q0 80 -72 166q-18 -18 -18 -24q24 -10 46 -71q19 -56 19 -94q0 -44 -31 -89q-14 -19 -14 -31q0 -14 38 -74q23 -37 46 -73q22 -50 58 -126q16 -26 54 -26q28 0 68 107l40 126q18 51 70 197q43 120 43 122z" />
    <glyph glyph-name="w" unicode="w" horiz-adv-x="607" 
d="M572 636q0 -3 -5.5 -36.5t-4.5 -51.5q3 -51 3 -93q0 -106 -20 -192q-14 -63 -60 -192l-12 -36q-11 -20 -33 -20q-7 0 -26 2.5t-26 2.5q-24 0 -30 20q-15 44 -20 51q-11 -7 -11 -25v-9q1 -7 1 -10q0 -22 -16 -31q-37 -3 -124 -7h-19q-19 4 -25 22q-7 26 -14 51q-1 2 -2 44
q0 13 -2 22q-16 73 -51 257q-2 13 -23.5 40.5t-25.5 41.5q-7 21 -7 78q0 71 12 132q2 10 41 34l44 -22q-4 -120 1 -176l28 1q1 55 7 167q17 14 25 14q17 0 48 -19q35 -21 35 -38q0 -6 -7.5 -21t-8.5 -23q-4 -58 -6 -70q-5 -38 -16 -69q-3 -7 -28 -31.5t-25 -32.5
q0 -57 23 -146l38 -146q23 40 34 113l14 126q20 23 28 23q5 0 35.5 -9t42.5 -10q10 -19 19.5 -98.5t21.5 -104.5q16 39 40 207q14 103 8 231q-1 16 -3 50q-3 29 -3 37q0 26 22 26q6 0 35 -8.5t41 -8.5q7 -18 7 -57zM540 652q-14 3 -32 8l-9 -332l-32 -138q-26 -104 -43 -104
q-10 0 -20 8t-12 17q-1 18 -3 49q-10 73 -12 87q-10 55 -26 79l-31 1q-8 -39 -31 -119q-22 -74 -28 -114q-12 -15 -23 -15q-27 0 -45 51l-28 96q-14 42 -24 108q-7 50 -7 66q0 30 1 32q7 11 28 25.5t29 30.5t11 43q4 36 6 41q3 13 8 95l-34 17q6 -191 -26 -193l-24 -4t-20 4
q-27 21 -28 193l-21 9q-7 -94 -7 -115q0 -44 18 -86q5 -11 21 -30.5t17 -28.5q1 -37 6 -99q5 -32 28 -131l-5 23q-2 10 -2 12v0q2 0 22.5 -92t19.5 -98q13 -4 54 -4q18 0 56 17q8 33 13 76q10 102 28 102q21 0 26 -31q4 -38 7 -76q6 -47 26 -73h42q11 13 50 110
q42 105 42 136q0 4 4 26q7 34 7 76q0 25 -2.5 63t-2.5 50q0 19 4 74t4 58z" />
    <glyph glyph-name="x" unicode="x" horiz-adv-x="636" 
d="M621 682q-13 -23 -39 -63q-18 -26 -106 -124q-76 -85 -76 -92q0 -6 69 -82l120 -131q23 -26 23 -51q0 -5 -19 -29q-10 -1 -30 -14.5t-26 -13.5t-14.5 3.5t-11.5 3.5q-4 34 -52 100q-45 61 -97 111q-14 -47 -16 -53q-10 -29 -26.5 -55t-59.5 -74q-54 -62 -73 -62
q-15 0 -38.5 17.5t-23.5 24.5q0 6 65 92t65 92v19q4 4 -8 4q-20 0 -81 -96t-74 -96q-21 0 -37 28q-13 23 -13 37q0 19 44 103q48 94 83 115q31 19 76 27q-16 24 -83 114t-90 116q51 65 60 65q11 0 95 -111q87 -117 92 -121q36 30 137 142q89 98 95 98q10 0 34.5 -15.5
t35.5 -28.5zM573 672q-5 0 -17 13q-118 -131 -237 -261q-7 0 -95 120q-45 61 -89 123l-10 -20q5 -8 85 -111q71 -91 71 -104q0 -10 -12 -23.5t-23 -19.5q-18 -6 -35 -12q-27 -10 -43 -32q-27 -46 -96 -153q-1 -2 -1 -4q0 -4 10 -13t8 -16q14 10 77 105q59 88 73 88
q21 0 37 -11q20 -14 20 -39q0 -29 -39 -83q-42 -57 -85 -115q3 0 9.5 -3t9.5 -3q39 45 78 91q48 63 48 113q0 22 -9 42q-2 14 17 18q13 3 25 5q93 -92 147 -165q14 -27 45 -73q6 6 18 6q0 1 3 8t3 14q0 17 -223 239q61 69 123 138q82 93 107 138z" />
    <glyph glyph-name="y" unicode="y" horiz-adv-x="527" 
d="M502 739q2 -45 2 -94q0 -227 -34 -257t-50 -39q-25 -13 -60 -13q-15 0 -35 2q-7 -47 -6 -117q1 -77 -3 -99q-8 -55 -46 -87q-18 -15 -54 -26.5t-62 -11.5q-16 0 -63 14q-54 16 -54 29q0 78 -1 38q1 27 12.5 33t33.5 6q7 0 26.5 -5.5t27.5 -5.5q37 0 31 -1q24 2 34 15
t10 69q0 23 -2 54.5l-2 31.5q0 5 -2 28t-2 35q-27 -6 -79 23q-59 31 -81 75q-15 31 -3 60q52 21 96 21q11 0 13 -3l10 -32q10 -25 31 -31q49 -13 86 -13q58 0 95 30q31 24 31 105q0 24 -3.5 70t-3.5 64q0 56 25 56q13 0 48 -12q32 -11 34 -12zM468 528q0 8 -3 181l-24 -1
q3 -263 -45 -284q-8 -4 -60 -10q-59 -6 -102 -6q-49 0 -62 9.5t-66 64.5l-22 -16q2 -52 45 -73q25 -12 66 -15q34 -2 39.5 -9t5.5 -86q0 -15 2 -49t2 -52q0 -73 -31 -98q-14 -11 -42 -11q-11 0 -39 3t-43 3q-6 0 -6 -4q0 -2 4 -10.5t2 -11.5l34 -12q23 -8 41 -8q10 0 20 3
q81 19 89 89q8 61 8 90q0 18 3.5 51.5t3.5 46.5q0 14 -3.5 29t-3.5 18q0 7 7 11q11 6 53 6q32 0 49 5q22 6 36 16q42 27 42 130z" />
    <glyph glyph-name="z" unicode="z" horiz-adv-x="648" 
d="M624 240q0 -15 -13 -55q-13 -43 -21 -43t-10.5 3t-9.5 3q-101 0 -142 -30q-16 -12 -28 -49q-15 -45 -24 -58q4 0 -142 2q-89 1 -147 -2q-5 8 -15 59.5t-10 66.5q0 50 27 82q24 31 101 79q30 19 78 73q64 71 89 94q7 6 53 41q29 22 30 34q3 32 -134 32q-6 0 -59.5 -36.5
t-103.5 -36.5q-92 0 -114 8q-12 4 -12 52q0 20 6 28q8 12 25 12q7 0 18 -2t13.5 -2t39.5 -3t56 -3t22.5 2.5t1.5 5.5q-2 5 -2 8q0 4 3 10q-12 12 -43 14q-1 1 -49 1l-26 -1.5t-41 -1.5q-22 1 -27 5q-9 7 -10 48t7 53q10 17 146 17q61 0 98 -19q24 -18 49.5 -37t64.5 -19
q68 0 74 2q14 3 40 1q35 -4 34 -4q32 0 32 -16q0 14 -8 -239q-144 -96 -318 -242q-6 -5 -6 -24q30 -11 52 -11q32 0 46 28q23 45 42 61q13 12 95 31q76 18 95 18q25 0 47 -8q30 -11 30 -32zM577 228q-24 9 -39 9q-75 0 -82 -1q-41 -5 -72 -29q-16 -14 -32 -47.5t-24 -37.5
q-46 -24 -126 -24q-8 0 -13 3l-8 4q-13 16 -13 66q0 13 15 27q59 48 156 128q19 16 100 70q54 36 62 57q10 29 8 89q-3 70 0 91q-2 3 -49 8q-23 3 -54 3q-21 -1 -49 -2.5t-30 -1.5q-32 0 -80.5 37.5t-78.5 37.5q-4 0 -47.5 -3t-63.5 -3l1 -39q20 5 67 5q28 0 65 -12
q49 -17 50 -45q1 -27 -50 -47q-42 -16 -77 -16q-7 0 -27.5 2.5t-31.5 2.5q0 -45 -1 -20q1 -15 9.5 -15t37.5 -1t35 -1q17 0 60 15q40 15 48 22q21 22 33 37q8 10 38 10q8 0 36 -2t36 -2h27h24q32 0 32 -37q0 -42 -9 -59q-6 -11 -31 -31q-35 -27 -62 -56q-114 -122 -169 -161
q-28 -18 -76 -60q-8 -9 -8 -51q0 -70 11 -96q21 0 119 5q76 3 106 0q6 42 61 91q41 35 115 35q25 0 47 -4z" />
    <glyph glyph-name="braceleft" unicode="{" horiz-adv-x="259" 
d="M236 745q0 -5 -27 -36q-34 -40 -46 -57q-8 -12 -9.5 -30t-1.5 -35q-6 -72 -8 -256q-2 -141 0 -176q3 -47 28 -74q15 -17 55 -38q-15 -69 -37 -69q-5 0 -9.5 7t-9.5 10q-104 53 -108 103q-2 19 -2 135q0 1 -4.5 7.5t-4.5 12.5t9 51.5t9 51.5q0 18 -4 28q-29 2 -32.5 4.5
t-7 6t-4.5 30.5q0 23 2 32q14 7 45 22q-5 94 -5 106q0 88 21 125q8 16 42 52q39 42 62 54h15q3 -8 19 -37q13 -25 13 -30zM196 751q0 6 -2.5 13.5t-2.5 8.5q-62 -67 -63 -68q-32 -39 -32 -69l-4 -168q0 -19 1 -16q-2 -8 -18 -8q-6 0 -11 -4t-7 -4v-29q31 0 37.5 -10.5
t4.5 -49.5q0 -8 -4 -41q-4 -28 -4 -54q0 -23 2 -49q1 -11 0 -50q-2 -29 5 -51q1 -13 9 -31q65 -65 75 -64l8 26q-77 34 -77 175q0 5 4.5 61t4.5 61v170q0 4 -1 18v17q1 42 2 83q6 52 45 87q28 26 28 46z" />
    <glyph glyph-name="bar" unicode="|" horiz-adv-x="152" 
d="M132 27l-95 3q0 76 -3 236l-12 226q0 171 15 276l75 5v-94.5v-84.5q0 -3 4 -31.5t4 -39.5t2 -56q1 -38 0 -56q-1 -23 10 -384zM109 55q-8 6 -14 173q-4 130 -4 234q0 38 -3 101q-2 67 -2 65q0 75 3 111l-21 5q-6 -59 -8 -153q-1 -26 3 -240l5 -293z" />
    <glyph glyph-name="braceright" unicode="}" horiz-adv-x="259" 
d="M236 333q-15 -7 -46 -22q5 -94 5 -106q0 -88 -20 -125q-9 -16 -43 -52q-39 -42 -62 -54h-15q-3 8 -18 37q-13 25 -13 30t27 36q33 40 46 57q8 12 9 30t2 35q5 72 8 256q1 141 -1 176q-2 47 -28 74q-15 17 -54 38q15 69 37 69q5 0 9.5 -7t8.5 -10q104 -53 109 -103
q1 -19 1 -135q0 -1 4.5 -7.5t4.5 -12.5q0 -5 -8.5 -51t-8.5 -52q0 -18 3 -28q30 -2 33 -3q3 -4 7 -7.5t4 -30.5q0 -23 -1 -32zM202 350v29q-30 0 -37 10.5t-5 49.5q1 8 5 41q4 28 4 54q0 23 -3 49q-1 11 1 50q1 29 -5 51q-2 13 -10 31q-64 65 -75 64l-8 -26q77 -34 77 -175
q0 -5 -4.5 -61t-4.5 -61v-170q0 -4 1 -18q1 -12 0 -17q0 -42 -1 -83q-7 -52 -46 -87q-28 -26 -28 -46q0 -6 3 -13.5t3 -8.5q62 67 63 68q31 40 31 69l4 168q0 19 0 16q2 8 18 8q6 0 11 4t6 4z" />
    <glyph glyph-name="asciitilde" unicode="~" horiz-adv-x="677" 
d="M661 415q-3 -14 -62 -32q-55 -18 -81 -18q-40 0 -113.5 34.5t-105.5 34.5q-9 0 -63 -15q-3 -5 -13 -42q-8 -31 -21 -44q-8 -8 -41.5 -22.5t-41.5 -14.5q-14 0 -32 29q-16 26 -16 35q0 13 6 17q19 6 38.5 12.5t19.5 30.5q0 23 -16 23q-6 0 -31 -16t-31 -16q-10 0 -21.5 23
t-11.5 39q0 5 3.5 6t12.5 10.5t14 11.5q21 8 53 26q15 8 38 8q31 0 38 -11.5t10 -11.5q6 0 17 4.5t17 6.5q17 3 58 3q10 0 56 -9q51 -11 77 -20q0 -1 46 -27q32 -18 65 -18q6 0 48.5 16.5t48.5 16.5q13 0 24 -34q5 -18 11 -36zM628 427l-10 16q-64 -27 -80 -27h-27
q-12 0 -57 24t-49 24q-119 30 -143 30q-25 0 -48.5 -16t-27.5 -16q-10 0 -19 23t-32 23q-2 0 -78 -34l5 -21q50 22 59 22q47 0 47 -59q0 -28 -14 -41q-20 -13 -39 -25l11 -18l46 26q18 0 18 15q0 3 -1 11t-1 13q0 16 8 27q22 34 56 41q6 1 49 1q33 0 118 -36.5t96 -36.5
q16 0 50 8q42 11 63 26z" />
    <glyph glyph-name="exclamdown" unicode="&#xa1;" horiz-adv-x="218" 
d="M28 554q4 5 8 11t13 6t36.5 -8.5t44.5 -19.5q-7 -135 3 -260q1 -5 19 -24t23 -32q7 -18 8.5 -41.5t2.5 -46.5q6 -71 3 -77q-7 -15 -62 -15q-33 0 -38.5 5.5t-5.5 19.5t7 43q0 36 -6 53q-5 14 -32 45q-24 27 -24 33v308zM54 690q0 52 26 52h44q15 0 26 -29q7 -22 7 -41
t-15 -37t-36 -18q-52 0 -52 73zM70 518q-4 -186 0 -262q1 -20 26 -44t29 -43q3 -15 -5 -79l26 -1v54q3 41 -21 79q-16 21 -33 51q-4 92 -3 245h-19zM90 687q-7 -14 6 -22q10 -7 19 0q7 5 7 15q0 9 -7 14q-15 11 -25 -7z" />
    <glyph glyph-name="currency" unicode="&#xa4;" horiz-adv-x="653" 
d="M615 685q-8 -5 -18 -5q-6 0 -18.5 2.5t-18.5 2.5q-14 0 -21 -11q17 -29 54 -29q7 0 12 1q6 -10 6 -35q0 -3 -3 -10q-3 -6 0 -15q-2 -24 -16 -24q-41 0 -91 27.5t-65 27.5q-57 0 -82 -29q-21 -24 -26 -82q19 1 47 0q36 -2 45 -2q10 0 29.5 3t29.5 3l12 -3q-3 -22 -3 -43
v-15v-12q0 -16 -12 -19t-70 -3q-24 0 -89 -6q-1 -25 -4 -76q53 8 106 15q65 9 107 9q41 0 48 -6q-2 -15 -2 -30v-19q1 -11 1 -14q0 -19 -12 -25.5t-54 -6.5q-85 0 -199 -9q1 -71 20 -95q22 -27 92 -27q13 0 41.5 4t42.5 4q17 0 51.5 -12t48.5 -23l-2 -81q-13 -6 -44 -6
q-150 0 -265 31q-75 20 -73 184q-53 -31 -76 -52l-11 92q10 7 35 36q14 17 53 21l1 31q-17 -16 -62 -27q-37 -9 -68 -9q-75 0 -75 40q0 10 3 28.5t3 27.5q62 0 81 2q43 6 75 26q7 5 20.5 28t25.5 28q5 106 40 153q42 58 142 58q9 0 27 -2t28 -2l26 29.5t62 29.5q45 0 57 -17
q8 -13 8 -62zM528 326l-246 -26q5 44 13 132l31 7q33 3 60 3q22 0 72 3l1 30q-22 3 -32 3q-16 0 -47 -2.5t-46 -2.5q-19 0 -34 -8q5 66 16 138q14 17 54 30t64 13q37 0 72 -25t52 -25q11 0 19 5v19q-23 8 -47 16q-20 11 -20 44q0 28 21 32l46 2v15q-16 10 -27 10
q-22 0 -47.5 -33.5t-34.5 -33.5q-3 0 -7.5 2t-7.5 2q-84 0 -127 -14q-27 -9 -50 -94q-16 -57 -22 -112q-31 -14 -53 -45q-49 -22 -140 -29v-27l19 -1q59 -1 96 13q18 7 86 45q-8 -71 -11 -115q-32 1 -49 -5.5t-41 -28.5l3 -40q13 15 49 37q12 4 36 4v-39q0 -85 15 -114
q23 -45 99 -45q34 0 97.5 -12t94.5 -12l13 3v37q-5 14 -16 14q-13 0 -40 -4.5t-40 -4.5q-15 0 -41 5q-29 5 -41 6q-111 8 -111 122q0 -10 2 50l247 19v37z" />
    <glyph glyph-name="copyright" unicode="&#xa9;" horiz-adv-x="567" 
d="M427 648q-9 -6 -30.5 -2t-28.5 -7q13 -23 42 -23q5 0 10 1q4 -7 4 -28l-4 -4q-2 -3 1 -15q-1 -19 -12 -19q-34 0 -72.5 21.5t-49.5 21.5q-45 0 -75 -32q-8 -9 -9 -32q-5 -43 -12 -130q-1 -14 -3 -51t-2 -40q0 -58 12 -77q17 -25 75 -25q4 0 33 3t34 3q13 0 41 -10t37 -18
l-1 -64q-10 -4 -34 -4q-18 0 -85 7q-86 8 -124 17q-58 15 -58 120q0 45 3 216q2 101 31 143q33 47 113 47q4 0 21.5 -1.5t21.5 -1.5t14 13q12 17 19 22q15 11 37 11q30 0 40.5 -8.5t10.5 -38.5v-15zM397 671v12q-7 7 -21 7q-18 0 -38 -26.5t-27 -26.5q-4 0 -5.5 2t-5.5 2
q-64 0 -100 -12q-25 -8 -35 -50l-10 -72q-16 -93 -16 -120v-146q3 -14 5 -29q5 -22 25 -37t38 -16q22 0 43 1q21 -1 46 -4q9 -1 33 -6.5t28 -5.5q31 -5 34 0v29q-11 11 -13 11q-5 0 -32.5 -3.5t-30.5 -3.5q-4 0 -29.5 4t-35.5 5q-88 4 -88 95q0 76 6 163q9 123 24 140
q8 9 36 21q32 12 57 12q30 0 56.5 -19.5t41.5 -19.5q4 0 8.5 1.5t5.5 1.5v16q-16 7 -21 7q-32 0 -32 40q0 21 12 24q21 1 41 3zM554 388q0 -175 -47 -261q-62 -112 -215 -112q-156 0 -231 125q-61 103 -61 273q0 165 71 264q80 112 237 112q151 0 207 -127q39 -88 39 -274z
M530 388q0 182 -36 264q-51 113 -186 113q-144 0 -218 -102q-67 -92 -67 -250q0 -164 59 -261q68 -113 210 -113q139 0 194 100q44 79 44 249zM75 413q0 -159 47 -238q55 -88 177 -88q117 0 156 90q27 65 27 241q0 174 -23 227q-33 77 -151 77q-126 0 -182 -82
q-51 -74 -51 -227zM51 413q0 160 55 240q63 92 202 92q134 0 173 -91q25 -58 25 -236q0 -180 -30 -250q-44 -105 -177 -105q-136 0 -197 100q-51 85 -51 250z" />
    <glyph glyph-name="registered" unicode="&#xae;" horiz-adv-x="567" 
d="M554 388q0 -175 -47 -261q-62 -112 -215 -112q-156 0 -231 125q-61 103 -61 273q0 165 71 264q80 112 237 112q151 0 207 -127q39 -88 39 -274zM530 388q0 182 -36 264q-51 113 -186 113q-144 0 -218 -102q-67 -92 -67 -250q0 -164 59 -261q68 -113 210 -113
q139 0 194 100q44 79 44 249zM75 413q0 -159 47 -238q55 -88 177 -88q117 0 156 90q27 65 27 241q0 174 -23 227q-33 77 -151 77q-126 0 -182 -82q-51 -74 -51 -227zM51 413q0 160 55 240q63 92 202 92q134 0 173 -91q25 -58 25 -236q0 -180 -30 -250q-44 -105 -177 -105
q-136 0 -197 100q-51 85 -51 250zM441 565q0 -31 -8 -44q-23 -36 -87 -49q1 -13 2 -55q5 -4 30 -16q19 -10 28.5 -23t13.5 -30t7 -34q7 -32 7 -69q0 -3 -6 -95q-7 0 -23.5 -2t-20.5 -2q-24 9 -23 20q3 33 3 52q0 48 -19 89q-4 10 -24 19q-29 14 -34 17q-2 55 -9 113
q-19 -4 -36 -5q-4 -45 -6 -114q-2 -94 0 -129q1 -6 5.5 -23t4.5 -21q0 -7 -10 -12t-18 -5q-17 0 -37 4q-3 1 -18 18q0 19 -2 84q-1 52 -1 84v52q1 38 1 56v26q-1 16 -1 19q0 37 38 41q17 1 30.5 5.5t15.5 4.5q13 0 88 15q5 1 12 9.5t7 13.5q0 20 -12 23l-36 12q-26 8 -44 8
q-19 0 -31.5 -7.5t-15.5 -25.5q-4 -26 -7 -34q-5 0 -21 -5.5t-20 -5.5q-3 0 -16 11q2 37 3 73q10 62 58 62q4 0 47 -3.5t47 -3.5q80 0 109 -26t29 -92zM416 555q0 57 -9 72q-25 44 -139 37h-52q-41 0 -41 -62q0 -8 -1 -27l20 1q0 24 3.5 34.5t19.5 24.5t70 8q19 -2 39 -10
q15 -5 30.5 -10t19.5 -15q1 -3 1 -24q0 -25 -3 -33q-5 -15 -25 -19l-141 -30h-11.5h-7.5q0 -1 -2.5 -26.5t-2.5 -56.5q-1 -46 1 -103q0 -44 3 -130h25q-9 150 0 227q1 9 0 21q-2 16 -2 20q0 17 13 26q10 2 74 13l2 -32t6 -97q21 -4 50 -31.5t31 -46.5q8 -86 7 -108
q6 -2 16 0l-3 126q-4 15 -8.5 30t-14 26t-26.5 20q-22 11 -23 12q-10 7 -10 28v19q1 18 1 28q-1 15 0 31l21 3q29 6 43 13q11 5 18.5 19t7.5 22z" />
    <glyph glyph-name="degree" unicode="&#xb0;" horiz-adv-x="227" 
d="M123 516q-46 0 -81.5 41t-35.5 88q0 51 33 98.5t70 47.5q51 0 86 -62q30 -54 30 -108q0 -34 -37.5 -69.5t-64.5 -35.5zM123 546q15 0 43.5 27t28.5 48q0 40 -23 86q-26 54 -63 54q-21 0 -47 -36q-27 -39 -27 -79q0 -34 27.5 -67t60.5 -33zM133 654l-1 6q1 13 -6 19
q-7 -1 -12 -18t-5 -26q0 -21 6 -25q11 -9 24 0q3 2 3 8q0 16 -9 36zM171 611q-5 -36 -44 -36q-45 0 -48 51v9q0 25 11 47q13 27 36 27q16 0 26 -14.5t10 -31.5q12 -31 9 -52z" />
    <glyph glyph-name="questiondown" unicode="&#xbf;" horiz-adv-x="455" 
d="M22 165q0 119 17 195q6 25 46 44q65 29 71 33q36 25 36 69q0 12 -2 37.5t-2 35.5q0 37 21 37q4 0 24.5 5t27.5 5q9 0 18 -7.5t9 -15.5q0 -11 1.5 -37.5t1.5 -31.5q0 -63 -6 -90q-10 -50 -45 -75q-8 -6 -32 -8q-29 -3 -38 -5q-58 -17 -58 -138q0 -23 7 -67q2 -13 17 -21
q62 -37 123 -37q39 0 42 1q30 5 30 29q0 32 -58 59.5t-58 63.5q0 8 2 16q6 4 32 30q21 20 27 20q16 0 21 -17q8 -24 16 -33q10 11 10 28q0 10 -5.5 34t-4.5 36q43 27 60 27q19 0 41 -16q3 -27 13 -98q8 -59 8 -65q0 -13 -21 -118l-6 -40q-6 -25 -24 -34q-23 -12 -74 -21
q-38 -6 -56 -6q-19 0 -93 18q-82 19 -106 34q-16 10 -21 29q-12 50 -12 95zM157 720q0 18 2 24q6 16 29 26q20 10 38 10q20 0 31 -22q9 -18 9 -40q0 -15 -21.5 -36.5t-35.5 -21.5q-52 0 -52 60zM57 183q0 -111 37 -123q32 -10 91 -21q53 -10 64 -10q61 0 100 8q22 5 26 15
q7 22 16.5 64t9.5 52q0 27 -18 64q0 1 7 14q5 9 4 14q-4 40 -14 86h-23q0 -8 2 -32t2 -37q0 -54 -38 -54q-7 0 -26 19q-27 26 -29 27q-11 -11 -11 -35q60 -28 80 -45q11 -8 27 -32q5 -8 5 -22q0 -42 -25 -67q-14 -15 -38 -16q28 2 -42 2q-36 0 -82.5 11t-59.5 22
q-36 29 -38 59q-7 102 -7 89q0 87 21 108q15 14 36 27t27 13q43 0 71 27q22 19 25 52q-1 -4 -1 62q0 38 -12 62q-5 -6 -22 -6q-1 -55 3 -111q2 -25 -28 -46q-1 -1 -51 -29q-20 -8 -40 -17q-30 -13 -32 -27q-17 -108 -17 -167zM192 713q-1 -13 5 -17q6 -5 18 0q2 3 4 7
q13 13 12 20q0 20 -14 20q-8 0 -16.5 -10t-8.5 -20z" />
    <glyph glyph-name="Ccedilla" unicode="&#xc7;" horiz-adv-x="435" 
d="M320 45q40 -6 44 0v37q-3 4 -6.5 9t-9.5 5t-82 1t-81 1q-111 6 -111 122q0 95 7 206q11 156 30 177q11 13 46 27q41 16 73 16q38 0 71.5 -25t52.5 -25q6 0 11.5 2.5t6.5 2.5v19q-21 10 -27 10q-40 0 -40 50q0 26 15 31q26 1 52 3v15q-9 10 -27 10q-22 0 -47.5 -33.5
t-34.5 -33.5q-5 0 -7 2t-8 2q-81 0 -126 -14q-32 -10 -45 -64q-6 -46 -13 -92q-20 -118 -20 -152q0 -185 1 -186l6 -36q6 -28 32 -48q20 -14 73.5 -18.5t61 -10.5t11.5 -21l4 -22q9 -27 -63 -118l26 -15q16 19 29 37q31 42 40 72q11 41 11 54q0 7 -2 13q43 -10 46 -10z
M295 -9q0 -12 -39 -68q-47 -66 -50 -71q-6 4 -33 9q-23 4 -29 14q-3 17 24.5 55t27.5 55q0 23 -35 37v7q-46 6 -73 13q-73 18 -73 152q0 57 4 274q3 128 39 181q42 60 144 60q4 0 26.5 -2t28.5 -2q5 0 17 17q15 21 24 28q20 14 47 14q38 0 51.5 -11t13.5 -49v-19
q-11 -7 -41 -2q-25 5 -34 -9q17 -30 53 -30q7 0 13 2q5 -9 5 -35q0 -3 -3 -4.5t-3 -6.5t3 -14q-2 -24 -16 -24q-43 0 -91.5 27.5t-63.5 27.5q-57 0 -94 -41q-11 -12 -13 -41q-6 -55 -15 -164q0 -19 -3.5 -65.5t-3.5 -50.5q0 -77 19 -102q21 -28 93 -28q4 0 41.5 4t42.5 4
q17 0 52.5 -12.5t47.5 -22.5l-2 -81q-12 -6 -43 -6q-9 0 -62 5q3 -12 3 -25z" />
    <glyph glyph-name="Ntilde" unicode="&#xd1;" horiz-adv-x="474" 
d="M411 85q0 -32 -2 -40q-6 -21 -26 -21h-39q-35 3 -43 20q-17 52 -51 148q-30 80 -52 158q-16 55 -40 109q-2 -2 -7.5 2t-7.5 4q-1 -1 -1 -5q0 1 -3 -28t-3 -51q0 -33 6 -51q3 -7 17 -35q10 -19 10 -36q5 -137 2 -178v-34q0 -18 -7 -28.5t-82 -4.5q-2 74 -13 202
q-3 16 -22.5 30t-22 23.5t-0.5 40.5q2 40 1 52q-1 21 1 45q2 34 3 79q0 22 4 68q3 38 2 71q-1 16 22 16q4 0 25.5 -4t33.5 -4l23 1q18 1 30 0q1 -2 40 -72q40 -75 67 -138q18 -43 35 -86l-2 85l3 39q0 41 -18 59q-11 12 -36 17q-28 5 -33 8.5t-4 31.5q1 27 6 43q2 5 20 5
q42 0 87 -11q60 -16 61 -42q1 -75 7 -307q2 -38 6 -113q3 -63 3 -68zM373 86q-8 186 -8 336q0 124 -14 142q-7 8 -45.5 20t-47.5 11v-26q19 0 40 -12q29 -17 38.5 -48.5t9.5 -71.5q1 -26 -4 -122q-2 -36 -6 -109q-11 2 -23 8q-17 78 -35.5 118t-50.5 111q-74 151 -102 151
q-22 0 -51 -8q2 -36 -5 -94q-9 -67 -9 -134q0 -52 1 -53q2 -10 18.5 -29t17.5 -22q9 -36 12 -100q3 -82 3 -90l21 2q-4 93 -17 217q-3 8 -12 19.5t-10 15.5q-4 14 -1 67q5 67 5 59q0 4 4.5 47t5.5 64q3 4 8 4q-4 0 24 -8q16 -3 100 -222q76 -198 92 -253q17 -3 26 0
q7 2 15 10zM423 726q-1 -10 -39.5 -22t-56.5 -12q-26 0 -75.5 23t-71.5 23q-5 0 -42 -10q-4 -21 -23 -58q-6 -5 -28 -15t-28 -10q-9 0 -21 20q-11 17 -11 24q0 8 4 11q13 4 26 8.5t13 20.5q0 15 -11 15q-4 0 -21 -10.5t-21 -10.5q-7 0 -14 15.5t-7 25.5q0 4 2 4.5t8 7t9 7.5
q14 6 36 18q10 5 25 5q22 0 26.5 -7.5t6.5 -7.5q4 0 11.5 3t11.5 4q11 2 39 2q33 0 89 -20q1 0 31 -17q22 -12 44 -12q4 0 32.5 10.5t32.5 10.5q9 0 17 -22zM401 734l-6 10q-43 -18 -54 -18h-18q-8 0 -37 15q-32 17 -34 18q-80 19 -97 19q-16 0 -32 -10.5t-19 -10.5
q-7 0 -13 15.5t-21 15.5q-2 0 -53 -23l4 -14q34 15 40 15q31 0 31 -40q0 -19 -9 -27q-14 -9 -27 -18l8 -11l31 17q12 0 12 10q0 2 -1 8v9q0 10 5 18q14 22 37 27q5 1 34 1q22 0 79 -25t65 -25q43 0 75 24z" />
    <glyph glyph-name="multiply" unicode="&#xd7;" horiz-adv-x="1000" 
d="M1007 546q0 -74 -21 -213q-25 -162 -29 -216q0 -9 2 -27q2 -21 2 -28q0 -69 -25 -69q-13 0 -20 6q7 28 5 77q-1 58 1 77q2 24 29 201q20 132 20 195q0 115 -41 152q-38 33 -154 33q-54 0 -161.5 -10t-160.5 -10q-14 0 -26 28q10 17 28 17q12 0 35.5 -5t35.5 -5
q47 0 141 13t141 13q113 0 159 -60q39 -52 39 -169zM829 517q-43 -41 -63 -73q-35 -57 -44 -69v-2q0 -6 3 -9q30 14 41 14h42q-1 -22 11 -68q-12 -12 -36 -12q-5 0 -16 2.5t-17 2.5q-18 0 -42.5 -30.5t-38.5 -30.5q-4 0 -10 2.5t-10 2.5q-9 0 -25.5 -7.5t-25.5 -7.5
q-15 0 -33 16q4 10 7 31l-5 13q17 6 63 82q28 49 57 98q-6 4 -39 4h-57v62q0 10 10 16.5t20 6.5q39 0 104 -8q81 -11 104 -13v-23zM931 518q0 -50 -20 -153q-22 -115 -25 -156q-1 -61 -12 -180h-29q-6 15 -6 28q0 73 28.5 237.5t28.5 239.5q0 38 -28 74q-11 15 -97 26
q-67 9 -109 9q5 0 -182 -10q-4 7 -4 17l4 18q181 10 263 10q40 0 141 -28q47 -63 47 -132zM367 564q0 -4 -2.5 -11t-2.5 -11q-4 -2 -12 -2q-4 0 -13.5 1t-14.5 1q-2 70 -28 70q-95 0 -95 -65h-39q-1 2 -13 11q-8 7 -8 14q0 -4 25.5 64.5t26.5 111.5q30 22 57 22q41 0 70 -84
q8 -9 22 -30q5 -11 8 -35q3 -28 5 -36q14 -17 14 -21zM804 145q0 -4 -12.5 -31.5t-12.5 -61.5q0 -10 1 -21q-2 -2 -40 -28q-9 8 -12 21q-2 10 -1 26q1 25 1 26q0 35 -25 50v24q34 15 38 15h57q6 -7 6 -20zM555 300q0 -32 -33 -58t-66 -26h-28q-4 0 -86 31q6 23 13 69
q2 22 2 112q14 4 41 15l-3 21q-9 -9 -20 -9q-10 0 -16.5 10t-6.5 20q0 56 86 56q36 0 64 -17q33 -21 33 -54q0 -15 -14 -26.5t-27 -21.5q40 -48 45 -55q16 -27 16 -67zM138 733q2 -8 2 -17l-2 -17q5 0 -83 0q-9 0 -23 28q15 17 26 17q13 0 40 -5.5t40 -5.5zM134 605
q0 -18 -23 -18q-18 0 -73 11q-6 4 -6 17q0 23 23 23q14 0 37 -7q32 -9 36 -10q6 -4 6 -16zM682 158q0 -7 -6.5 -18.5t-7.5 -17.5q-4 -34 -12 -103q-4 -6 -17 -6q-10 0 -31 40q-13 26 -25 52q-16 -19 -22 -51q-1 -2 -7 -55q-4 -6 -17 -6q-9 0 -18.5 14t-9.5 24q0 13 14 21
q18 65 18 118q9 6 22 6q19 0 39 -37q14 -28 27 -55q17 19 9 75q5 7 10.5 14.5t13.5 7.5q20 0 20 -23zM306 376q0 -80 -58 -127q-55 -43 -137 -43q-14 0 -42 13q-32 14 -32 25q0 58 13 142q7 1 25.5 7t27.5 6q19 0 19 -30q0 -9 -4 -26t-4 -25q0 -23 18 -51q24 2 46 26t22 48
q0 27 -16.5 50t-42.5 23q-11 0 -34 -7.5t-34 -7.5q-20 0 -20 19q0 5 1.5 15t1.5 14q0 5 -4 14t-4 14q0 6 15.5 16t22.5 10q5 0 7 -5.5t8 -5.5q8 0 25 3t26 3q61 0 104 -29q50 -32 50 -91zM494 95q0 -37 -21 -59.5t-58 -22.5q-20 0 -35 20q-13 17 -13 39q0 24 23 56.5
t46 32.5q7 0 24.5 -5.5t27.5 -5.5q0 -9 3 -27.5t3 -27.5zM382 180q0 -16 -5 -29h-137v-28q9 -8 24 -8q11 0 31.5 3t30.5 3l16 -2v-23l-17 -17q-9 3 -26 3q-10 0 -30 -1t-30 -1v-32q0 -24 -24 -24q-37 0 -36 72v11l6 7q0 8 -1.5 25t-1.5 25q0 37 43 37q13 0 39.5 -7.5
t39.5 -7.5q7 0 21.5 2.5t21.5 2.5q15 0 35 -11zM129 155q0 -9 -9.5 -19.5t-18.5 -10.5q-6 0 -8 5t-7 5q-7 0 -18.5 -5t-17.5 -5q-16 7 -38 24q35 8 105 27q12 -12 12 -21zM128 55h-100v28q21 6 68 6q24 0 32 -17v-17zM706 509v9h-74v-9h74zM773 509q-10 5 -55 5
q20 -10 20 -24q0 -11 -40.5 -64.5t-40.5 -82.5q26 31 60 82zM778 337v8l-39 -5v-9zM687 307q-2 -4 -15 -4q-10 0 -23 25q-22 -22 -22 -34v-16q6 4 33 6q20 2 27 23zM494 466v24q-16 15 -25 15h-20q13 -28 13 -29v-2q-6 -11 -24 -27q26 0 56 19zM291 653v18q-10 14 -28 43
q-9 -13 -19 -27q-13 -18 -13 -27v-17h37q13 0 23 10zM520 308q0 23 -24.5 57t-46.5 33q18 -22 35 -43q21 -28 21 -49q-52 -49 -74 -49l14 -5q30 0 50 13q25 15 25 43zM464 315q-18 35 -45 48v-52q0 -7 11 -18q23 11 34 22zM271 361q0 105 -122 100l-34 -1l-6 -15q9 5 22 5
q104 0 104 -107q0 -25 -10 -44q-17 -29 -19 -36q28 12 46.5 39.5t18.5 58.5zM469 89q0 13 -6 25h-29q-11 -22 -11 -32q0 -17 18 -33q28 19 28 40z" />
    <glyph glyph-name="germandbls" unicode="&#xdf;" horiz-adv-x="429" 
d="M433 679q0 -28 -31 -75q-22 -32 -44 -65q35 -16 44 -56q3 -13 3 -64q0 -78 -7 -116q-6 -12 -16 -33q-6 -23 -26 -66q-20 -29 -69 -61q-52 -34 -86 -34q-11 0 -24 9q-16 13 -16 31q0 4 46 32q55 34 86 74q46 59 46 140q0 89 -68 89q-6 0 -47 -2t-47 -2q-25 0 -25 46
q55 27 110 55q82 44 82 70q0 23 -41 33q-25 7 -46 7q-39 0 -112 -20q-17 -5 -21 -25q-6 -37 -1 -117q0 -1 -3 -50q-1 -28 -1 -51q0 2 1 -74t1 -116q0 -67 13 -117q2 -9 14.5 -27.5t12.5 -24.5q0 -26 -17 -26q-5 0 -12 3.5t-11 4.5q-12 1 -31 -1q-24 -2 -25 -2q-8 0 -13 12
t-5 22q0 5 2 43q2 42 2 66q1 36 -2 83q-3 54 -3 100q0 18 -3 58q-3 46 -4 69q-4 105 0 164q0 12 3 39q3 22 3 33q27 16 102 17q55 1 110 1q9 1 31 8.5t28 7.5q45 0 78 -22q39 -25 39 -70zM395 682q0 56 -72 56q-40 0 -102 -7q-51 -9 -138 -24q-16 -76 -16 -82q0 -17 5 -235
q7 -237 10 -304h27q-9 53 -14 168q-5 152 -5 181q0 239 -1 138q1 98 11 109q16 17 45 20t57 5q25 2 50 2q125 0 125 -42q0 -48 -66 -96q-27 -19 -99 -57q97 6 134 -45q29 -39 25 -119q-1 -21 -23.5 -61t-48.5 -69q-39 -43 -84 -66l12 -21q32 18 58 37q61 47 77 99
q29 86 29 146q0 29 -14 60q-17 38 -40 38q-6 0 -6 -2.5t-6 -2.5q-19 0 -19 26q0 3 31 36q36 40 56 85q2 4 2 27z" />
    <glyph glyph-name="ccedilla" unicode="&#xe7;" horiz-adv-x="435" 
d="M320 45q40 -6 44 0v37q-3 4 -6.5 9t-9.5 5t-82 1t-81 1q-111 6 -111 122q0 95 7 206q11 156 30 177q11 13 46 27q41 16 73 16q38 0 71.5 -25t52.5 -25q6 0 11.5 2.5t6.5 2.5v19q-21 10 -27 10q-40 0 -40 50q0 26 15 31q26 1 52 3v15q-9 10 -27 10q-22 0 -47.5 -33.5
t-34.5 -33.5q-5 0 -7 2t-8 2q-81 0 -126 -14q-32 -10 -45 -64q-6 -46 -13 -92q-20 -118 -20 -152q0 -185 1 -186l6 -36q6 -28 32 -48q20 -14 73.5 -18.5t61 -10.5t11.5 -21l4 -22q9 -27 -63 -118l26 -15q16 19 29 37q31 42 40 72q11 41 11 54q0 7 -2 13q43 -10 46 -10z
M295 -9q0 -12 -39 -68q-47 -66 -50 -71q-6 4 -33 9q-23 4 -29 14q-3 17 24.5 55t27.5 55q0 23 -35 37v7q-46 6 -73 13q-73 18 -73 152q0 57 4 274q3 128 39 181q42 60 144 60q4 0 26.5 -2t28.5 -2q5 0 17 17q15 21 24 28q20 14 47 14q38 0 51.5 -11t13.5 -49v-19
q-11 -7 -41 -2q-25 5 -34 -9q17 -30 53 -30q7 0 13 2q5 -9 5 -35q0 -3 -3 -4.5t-3 -6.5t3 -14q-2 -24 -16 -24q-43 0 -91.5 27.5t-63.5 27.5q-57 0 -94 -41q-11 -12 -13 -41q-6 -55 -15 -164q0 -19 -3.5 -65.5t-3.5 -50.5q0 -77 19 -102q21 -28 93 -28q4 0 41.5 4t42.5 4
q17 0 52.5 -12.5t47.5 -22.5l-2 -81q-12 -6 -43 -6q-9 0 -62 5q3 -12 3 -25z" />
    <glyph glyph-name="ntilde" unicode="&#xf1;" horiz-adv-x="474" 
d="M411 85q0 -32 -2 -40q-6 -21 -26 -21h-39q-35 3 -43 20q-17 52 -51 148q-30 80 -52 158q-16 55 -40 109q-2 -2 -7.5 2t-7.5 4q-1 -1 -1 -5q0 1 -3 -28t-3 -51q0 -33 6 -51q3 -7 17 -35q10 -19 10 -36q5 -137 2 -178v-34q0 -18 -7 -28.5t-82 -4.5q-2 74 -13 202
q-3 16 -22.5 30t-22 23.5t-0.5 40.5q2 40 1 52q-1 21 1 45q2 34 3 79q0 22 4 68q3 38 2 71q-1 16 22 16q4 0 25.5 -4t33.5 -4l23 1q18 1 30 0q1 -2 40 -72q40 -75 67 -138q18 -43 35 -86l-2 85l3 39q0 41 -18 59q-11 12 -36 17q-28 5 -33 8.5t-4 31.5q1 27 6 43q2 5 20 5
q42 0 87 -11q60 -16 61 -42q1 -75 7 -307q2 -38 6 -113q3 -63 3 -68zM373 86q-8 186 -8 336q0 124 -14 142q-7 8 -45.5 20t-47.5 11v-26q19 0 40 -12q29 -17 38.5 -48.5t9.5 -71.5q1 -26 -4 -122q-2 -36 -6 -109q-11 2 -23 8q-17 78 -35.5 118t-50.5 111q-74 151 -102 151
q-22 0 -51 -8q2 -36 -5 -94q-9 -67 -9 -134q0 -52 1 -53q2 -10 18.5 -29t17.5 -22q9 -36 12 -100q3 -82 3 -90l21 2q-4 93 -17 217q-3 8 -12 19.5t-10 15.5q-4 14 -1 67q5 67 5 59q0 4 4.5 47t5.5 64q3 4 8 4q-4 0 24 -8q16 -3 100 -222q76 -198 92 -253q17 -3 26 0
q7 2 15 10zM423 726q-1 -10 -39.5 -22t-56.5 -12q-26 0 -75.5 23t-71.5 23q-5 0 -42 -10q-4 -21 -23 -58q-6 -5 -28 -15t-28 -10q-9 0 -21 20q-11 17 -11 24q0 8 4 11q13 4 26 8.5t13 20.5q0 15 -11 15q-4 0 -21 -10.5t-21 -10.5q-7 0 -14 15.5t-7 25.5q0 4 2 4.5t8 7t9 7.5
q14 6 36 18q10 5 25 5q22 0 26.5 -7.5t6.5 -7.5q4 0 11.5 3t11.5 4q11 2 39 2q33 0 89 -20q1 0 31 -17q22 -12 44 -12q4 0 32.5 10.5t32.5 10.5q9 0 17 -22zM401 734l-6 10q-43 -18 -54 -18h-18q-8 0 -37 15q-32 17 -34 18q-80 19 -97 19q-16 0 -32 -10.5t-19 -10.5
q-7 0 -13 15.5t-21 15.5q-2 0 -53 -23l4 -14q34 15 40 15q31 0 31 -40q0 -19 -9 -27q-14 -9 -27 -18l8 -11l31 17q12 0 12 10q0 2 -1 8v9q0 10 5 18q14 22 37 27q5 1 34 1q22 0 79 -25t65 -25q43 0 75 24z" />
    <glyph glyph-name="divide" unicode="&#xf7;" horiz-adv-x="2653" 
d="M2641 479q0 -24 -40 -43q-34 -17 -62 -17q-37 0 -62 16q-29 19 -29 54q0 32 27.5 59.5t58.5 27.5q42 0 74.5 -28t32.5 -69zM2443 546q-12 -12 -19 -12q-9 0 -30.5 8t-35.5 8q-15 0 -30 -19q1 -16 11 -47t10 -36t-3 -12t-3 -11q-5 -6 -18 -6q-9 0 -39.5 47t-30.5 57
q0 5 3 11t3 10q15 0 26 1q19 31 39 40q15 6 55 6q33 0 62 -27v-18zM2234 430q-11 -11 -29 -11h-25q-45 0 -86 26q-48 29 -48 71q0 30 26 52.5t58 22.5q74 0 74 -64q0 -11 -2 -24q-12 -9 -56 -9q-21 0 -37 -10q7 -8 28.5 -15.5t33.5 -7.5q7 0 20 5t20 5q14 0 23 -17v-24z
M2083 401q-12 -24 -32 -24q-27 0 -80 -5t-79 -5q-39 0 -39 21q0 14 141 283q-13 -1 -56 -7q-35 -5 -56 -5q-12 0 -23 11v25l17 12q29 -1 78 1q57 3 77 3q8 0 31 -11v-23q0 -6 -23 -31q-27 -31 -28 -33q-37 -52 -101 -190q33 -4 58 -4q12 0 36 4t35 4q29 0 44 -26zM1665 563
q0 -19 -85 -233q-24 16 -24 26q0 9 15.5 46t15.5 46q0 7 -83 77v34q10 6 23 6q7 0 36 -30q19 -19 37 -38q7 26 15 52q11 37 29 37q21 0 21 -23zM1504 479q0 -35 -79 -78q-73 -39 -113 -39h-32q-5 18 -6 30q35 22 52 22q4 0 9 -2.5t9 -2.5q19 0 71 29.5t52 45.5q0 15 -50 35
h-50l1 -14q0 -27 -6 -49h-35q4 14 4 34q0 13 -2 25q-12 14 -17 26q14 28 14 38q0 11 -12 45q-13 9 -27 11q-8 8 -8 21q0 21 62 45q55 21 82 21q25 0 45 -12q25 -15 25 -38q0 -26 -42 -65q-34 -31 -67 -49q56 -17 73 -26q47 -22 47 -53zM1655 33q0 -8 -9 -17t-17 -9
q-5 0 -10.5 3t-9.5 3q-1 6 0 19q2 16 2 20q0 44 -21 44q-9 0 -25 -5.5t-25 -5.5q-63 0 -63 44q0 24 30 41q26 14 51 14q8 0 21 -7.5t21 -7.5q6 0 10.5 7.5t10.5 7.5q11 0 21 -17q1 -18 8 -67q5 -43 5 -67zM1070 534q0 -18 -57 -26q-37 -4 -73 -9q7 -22 27 -38t43 -16
q5 0 12 2.5t12 2.5q9 0 26 -16v-20q-2 -1 -15 -10q-9 -6 -16 -6q-47 0 -91.5 43t-44.5 90q0 33 24.5 62.5t56.5 29.5q22 0 59 -34t37 -55zM1415 -9q-22 0 -25 34q1 -8 1 50l-1 11q-38 2 -75 5q-51 7 -51 41q0 33 41 53q33 16 71 16q65 0 65 -166q0 -44 -26 -44zM877 414
l-6 -15h-34q-3 10 -10 31q-43 -11 -59 -11q-31 0 -54.5 22.5t-23.5 53.5q0 37 27.5 69t63.5 32q21 0 30 -5q4 7 4 14q0 25 -10.5 75.5t-10.5 75.5q0 23 21 23q12 0 19 -12q8 -54 15 -142q14 -71 28 -211zM1263 26q-5 -12 -22 -29h-24q-6 14 -6 26q0 20 24 20q11 0 28 -17z
M674 589q0 -12 -12 -24q-24 1 -35 23q10 24 23 24q24 0 24 -23zM1128 54q0 -19 -23.5 -40.5t-42.5 -21.5h-90q-5 13 -5 35q6 1 15 1t27.5 -2.5t27.5 -2.5q18 0 37 8q23 10 23 25q0 30 -54 39q-38 6 -76 11v31q75 23 93 64h-38q-6 0 -16 -8t-17 -8h-38q0 17 -6 29
q68 22 112 22q15 0 30 -10t15 -23q0 -14 -32 -42q-37 -33 -42 -41q38 -1 65 -15q35 -18 35 -51zM679 476q0 -10 -2.5 -30t-2.5 -31q-6 -6 -16 -6q-7 0 -19 41q-12 38 -12 51v27q18 6 29 6q6 0 14.5 -24t8.5 -34zM585 552q0 -5 -13 -31q-15 -29 -17 -37q-3 -12 -7 -75
q-7 -6 -20 -6q-6 0 -58 80t-52 87q0 9 7.5 17.5t16.5 8.5q13 0 41 -50q30 -54 41 -60q0 18 9 50q10 40 21 40q5 0 13 -3t12 -3q6 -5 6 -18zM851 63q-4 -10 -9 -20t-14 -10q-10 0 -16.5 12t-12.5 22q13 13 26 13q7 0 26 -17zM382 503q0 -1 -17 -68q-16 0 -30 6q2 8 2 19
q0 13 -3.5 37.5t-3.5 36.5q0 21 20 21q12 0 22 -20t10 -32zM789 208q-29 -57 -38 -78q-20 -44 -31 -81h-30q-6 5 -6 18q0 5 22 56q13 31 26 63q10 -2 -47 -2q-11 0 -32 3.5t-29 4.5q-6 10 -12 33q12 11 25 11q9 0 20 -9q35 0 70 -1q53 -3 62 -18zM360 602q-7 -6 -20 -6
q-11 0 -24 27q-17 -32 -57 -92q-15 -19 -78 -69q-66 -53 -81 -53q-8 0 -19 17q-2 44 -3 87q-2 61 -8 82q-4 12 -9 12t-5 -3t-6 -2q-14 0 -23 17v24q12 9 38 24q63 24 171 24q57 0 81 -58q9 10 20 10q13 0 23 -12v-29zM413 145q0 -55 -55.5 -102t-111.5 -47q-59 0 -105 30
q-51 34 -51 90q0 133 142 137q10 10 22 10t79.5 -35.5t72.5 -44.5q7 -15 7 -38zM2604 489q0 20 -24 34q-21 11 -43 11q-15 0 -31 -16.5t-16 -30.5q0 -31 49 -31q65 0 65 33zM2166 535q-10 20 -26 20q-17 0 -41 -25q20 5 67 5zM1451 680h-43q-9 0 -27 -9q-23 -11 -28 -12
q0 -31 11 -68q87 55 87 85v4zM1597 141q-6 0 -18 3.5t-18 3.5q-18 0 -42 -24q13 -13 24 -13q9 0 28.5 11t25.5 19zM1018 545q-3 8 -20 24.5t-24 16.5q-20 0 -34 -35q13 -8 32 -8q4 0 23 2q14 2 23 0zM1384 130q-2 1 -12 22q-5 11 -20 11q-10 0 -28.5 -12t-18.5 -22
q0 -18 45 -18q24 0 34 19zM825 467q-4 55 -4 57q-8 36 -35 36q-18 0 -39 -24.5t-21 -43.5q0 -18 19 -31q16 -11 36 -11q27 0 44 17zM271 644q-46 10 -59 10q-38 0 -67 -11q-40 -15 -40 -47q0 -24 8 -64q10 -50 23 -50q25 0 81 63t56 89q0 6 -2 10zM387 140q0 35 -71 58
q-55 18 -101 18q-35 0 -64.5 -32t-29.5 -68q0 -18 20 -45.5t38 -27.5l3 1q15 12 15 18q0 1 -8.5 18t-9.5 28q5 6 28 21l5 26q3 14 21 14q8 0 19.5 -13t19.5 -13q6 0 17 5t17 5q18 0 18 -16q0 -19 -36 -44q13 -14 33 -44q24 15 43 39q23 29 23 52zM283 35q-4 2 -14 13t-18 11
q-14 0 -31 -30z" />
    <glyph glyph-name="endash" unicode="&#x2013;" horiz-adv-x="667" 
d="M632 468q-1 -27 -1 -54q-3 -41 -22 -41h-22h-22q-111 0 -251 -13q-16 -1 -74 -55q-15 -14 -60 -25q-39 -9 -68 -9q-75 0 -75 40q0 6 3.5 25t3.5 31h41h36q9 0 35.5 9t43.5 19q4 3 21 31q15 24 29 25l312 23q64 0 70 -6zM600 435q-37 13 -59 13q-7 0 -49 -8
q-50 -8 -68 -10q-58 -2 -143 -11q-11 -3 -31.5 -27.5t-28.5 -28.5q-45 -20 -139 -28l-1 -28q82 -2 123 15q23 10 54 44q28 30 40 32q69 9 294 9q3 0 3 8q1 12 5 20z" />
    <glyph glyph-name="emdash" unicode="&#x2014;" horiz-adv-x="826" 
d="M817 465q-1 -27 -1 -54q-3 -41 -22 -41h-22h-22q-328 0 -436 -10q-16 -1 -74 -55q-15 -14 -60 -25q-39 -9 -68 -9q-75 0 -75 40q0 6 3.5 25t3.5 31h41h36q9 0 35.5 9t43.5 19q4 3 21 31q15 24 29 25q67 5 283 13q192 7 214 7q64 0 70 -6zM785 433q-37 12 -59 12
q-7 0 -49 -7q-50 -9 -68 -11q-22 -3 -172 -3q-142 0 -154.5 -4t-33 -28.5t-28.5 -28.5q-45 -20 -139 -28l-1 -28q82 -2 123 15q23 10 54 44q28 30 40 32q48 6 479 6q3 0 3 8q1 12 5 21z" />
    <glyph glyph-name="afii00208" unicode="&#x2015;" horiz-adv-x="826" 
d="M817 465q-1 -27 -1 -54q-3 -41 -22 -41h-22h-22q-328 0 -436 -10q-16 -1 -74 -55q-15 -14 -60 -25q-39 -9 -68 -9q-75 0 -75 40q0 6 3.5 25t3.5 31h41h36q9 0 35.5 9t43.5 19q4 3 21 31q15 24 29 25q67 5 283 13q192 7 214 7q64 0 70 -6zM785 433q-37 12 -59 12
q-7 0 -49 -7q-50 -9 -68 -11q-22 -3 -172 -3q-142 0 -154.5 -4t-33 -28.5t-28.5 -28.5q-45 -20 -139 -28l-1 -28q82 -2 123 15q23 10 54 44q28 30 40 32q48 6 479 6q3 0 3 8q1 12 5 21z" />
    <glyph glyph-name="quoteleft" unicode="&#x2018;" horiz-adv-x="200" 
d="M38 576q0 23 6 75q8 62 17 78q6 -4 33 -9q23 -5 30 -14q1 -13 -3 -40q-5 -31 -5 -44q0 -54 56 -77q-2 -41 -10 -57q-11 -21 -39 -21q-13 0 -42.5 28t-32.5 39q-10 43 -10 42zM60 583q0 -7 10 -32t21 -37q17 -18 36 -11l15 12q-9 3 -17 9q-18 17 -29 51q-4 11 -4 36
q0 32 5 76l-16 3q-21 -98 -21 -107z" />
    <glyph glyph-name="quoteright" unicode="&#x2019;" horiz-adv-x="200" 
d="M172 620q0 -23 -7 -75q-8 -62 -16 -78q-6 4 -31.5 9t-31.5 14q-1 13 3 40q5 31 5 44q0 54 -56 77q2 41 10 57q10 21 39 21q13 0 42.5 -28.5t32.5 -38.5q10 -43 10 -42zM150 613q0 7 -10 32t-21 37q-17 18 -37 11l-14 -12q9 -3 17 -9q18 -17 29 -51q4 -11 4 -36
q0 -32 -6 -76l17 -3q21 98 21 107z" />
    <glyph glyph-name="quotedblleft" unicode="&#x201c;" horiz-adv-x="377" 
d="M214 576q0 23 6 75q8 62 17 78q6 -4 33 -9q23 -5 29 -14q2 -13 -2 -40q-5 -31 -5 -44q0 -54 56 -77q-2 -41 -10 -57q-11 -21 -40 -21q-12 0 -41.5 28t-32.5 39q-10 43 -10 42zM236 583q0 -7 10 -32t21 -37q16 -18 36 -11l15 12q-9 3 -17 9q-18 17 -29 51q-4 11 -4 36
q0 32 5 76l-16 3q-21 -98 -21 -107zM38 576q0 23 6 75q8 62 17 78q6 -4 33 -9q23 -5 30 -14q1 -13 -3 -40q-5 -31 -5 -44q0 -54 56 -77q-2 -41 -10 -57q-11 -21 -39 -21q-13 0 -42.5 28t-32.5 39q-10 43 -10 42zM60 583q0 -7 10 -32t21 -37q17 -18 36 -11l15 12q-9 3 -17 9
q-18 17 -29 51q-4 11 -4 36q0 32 5 76l-16 3q-21 -98 -21 -107z" />
    <glyph glyph-name="quotedblright" unicode="&#x201d;" horiz-adv-x="377" 
d="M172 620q0 -23 -7 -75q-8 -62 -16 -78q-6 4 -31.5 9t-31.5 14q-1 13 3 40q5 31 5 44q0 54 -56 77q2 41 10 57q10 21 39 21q13 0 42.5 -28.5t32.5 -38.5q10 -43 10 -42zM150 613q0 7 -10 32t-21 37q-17 18 -37 11l-14 -12q9 -3 17 -9q18 -17 29 -51q4 -11 4 -36
q0 -32 -6 -76l17 -3q21 98 21 107zM348 620q0 -23 -7 -75q-8 -62 -16 -78q-6 4 -31.5 9t-31.5 14q-1 13 3 40q5 31 5 44q0 54 -56 77q2 41 10 57q10 21 39 21q13 0 42.5 -28.5t32.5 -38.5q10 -43 10 -42zM326 613q0 7 -10 32t-21 37q-17 18 -37 11l-14 -12q9 -3 17 -9
q18 -17 29 -51q4 -11 4 -36q0 -32 -6 -76l17 -3q21 98 21 107z" />
    <glyph glyph-name="bullet" unicode="&#x2022;" horiz-adv-x="215" 
d="M167 410q0 -27 -21.5 -44.5t-43.5 -17.5q-26 0 -47 28q-17 25 -17 45q0 22 11 61q18 55 45 55q73 0 73 -127zM129 397q9 6 9 22q0 17 -9 40q0 12 -6 23.5t-15 11.5q-15 0 -25 -24q-8 -18 -8 -36q0 -28 13 -37q19 -15 41 0z" />
    <glyph glyph-name="ellipsis" unicode="&#x2026;" horiz-adv-x="576" 
d="M167 82q0 -27 -21.5 -44.5t-43.5 -17.5q-26 0 -47 28q-18 25 -18 45q0 22 12 61q17 55 45 55q73 0 73 -127zM129 69q9 6 9 22q0 17 -9 40q0 12 -6 23.5t-15 11.5q-15 0 -25 -24q-8 -18 -8 -36q0 -28 12 -37q20 -15 42 0zM220 126q-2 27 20 47q19 18 41 19q27 1 49 -26
q19 -24 20 -44q1 -31 -11 -70q-16 -48 -40 -49q-73 -4 -79 123zM249 121q0 -17 11 -42q1 -12 7.5 -23t15.5 -10q16 0 24 24q6 19 6 37q-2 28 -15.5 37.5t-30.5 2.5q-18 -7 -18 -26zM524 80q0 -27 -21.5 -44.5t-43.5 -17.5q-27 0 -47 28q-18 25 -18 45q0 22 12 61
q17 55 45 55q73 0 73 -127zM486 67q9 6 9 22q0 17 -9 40q0 12 -6 23.5t-15 11.5q-16 0 -25 -24q-8 -18 -8 -36q0 -28 12 -37q20 -15 42 0z" />
  </font>
</defs>
</svg>
