<?xml version="1.0" standalone="no"?>
<!DOCTYPE svg PUBLIC "-//W3C//DTD SVG 1.1//EN" "http://www.w3.org/Graphics/SVG/1.1/DTD/svg11.dtd" >
<svg xmlns="http://www.w3.org/2000/svg" xmlns:xlink="http://www.w3.org/1999/xlink" version="1.1">
<metadata>
Created by FontForge 20230101 at Tue Jun  3 15:43:54 1997
 By Glenn Lewis
http://members.aol.com/vroomfonde/ttf/ - Tuesday (c) 1997 Tom 7 - Freeware! But Do Not Resell (on CD, for instance!) - ImightbeTM@aol.com - Tom Murphy 7 - 339 Still Hill Rd - Hamden CT 06518 - Behind every great man lies a great Drawing Tablet.
</metadata>
<defs>
<font id="Tuesday" horiz-adv-x="450" >
  <font-face 
    font-family="Tuesday"
    font-weight="400"
    font-stretch="normal"
    units-per-em="1000"
    panose-1="0 0 4 0 0 0 0 0 0 0"
    ascent="800"
    descent="-200"
    x-height="648"
    cap-height="769"
    bbox="15 -45 731 800"
    underline-thickness="20"
    underline-position="-143"
    unicode-range="U+0020-2026"
  />
<missing-glyph horiz-adv-x="500" 
d="M63 0v800h375v-800h-375zM125 63h250v675h-250v-675z" />
    <glyph glyph-name=".notdef" horiz-adv-x="500" 
d="M63 0v800h375v-800h-375zM125 63h250v675h-250v-675z" />
    <glyph glyph-name=".null" horiz-adv-x="0" 
 />
    <glyph glyph-name="nonmarkingreturn" horiz-adv-x="500" 
 />
    <glyph glyph-name="space" unicode=" " horiz-adv-x="500" 
 />
    <glyph glyph-name="exclam" unicode="!" horiz-adv-x="145" 
d="M90 691l-10 -461h-20q-8 4 -17 10v494q10 8 15 8q33 0 32 -51zM96 76q0 -40 -27 -40q-13 0 -23 8.5t-10 15.5q0 8 11 27q14 23 26 23q27 0 23 -34z" />
    <glyph glyph-name="quotedbl" unicode="&#x22;" horiz-adv-x="255" 
d="M91 695q0 -29 -14 -60h-25q0 3 4.5 17t4.5 16l-6 6q-9 8 -18 26v45h22q28 -5 32 -13v-37zM226 695q0 -29 -14 -60h-25q0 3 4.5 17t4.5 16l-6 6q-9 8 -18 26v45h22q28 -5 32 -13v-37z" />
    <glyph glyph-name="dollar" unicode="$" horiz-adv-x="460" 
d="M430 703q0 -14 -12 -16q8 1 -16 1q-11 0 -33.5 10t-48.5 10q-8 0 -46 -13q-44 -16 -44 -26q25 -287 27 -295q2 -33 6 -67q22 -8 44 -15q47 -17 74 -46q39 -42 39 -109q0 -52 -30 -90q-32 -41 -83 -41v-46h-20q-13 17 -14 30v10q-9 11 -67 29q-46 15 -46 48q0 23 13 23
q12 0 30 -18q20 -21 54 -29q0 2 1.5 4t1.5 3l-20 103q-1 5 -7 85q-1 8 -6 12q-11 2 -40 7q-106 23 -129 40q-38 27 -38 107q0 74 33 140q28 57 56 89q15 17 35 33q12 9 12 17q0 18 -17 42.5t-17 25.5q0 8 18 16q22 11 56 11q15 0 19 -6q5 -9 5 -41q2 0 4.5 -1.5t3.5 -1.5
q-6 0 21 7t64 7q117 0 117 -49zM217 317l-47 320q-26 -35 -53 -70q-47 -70 -47 -107q0 -44 32 -92q23 -35 35 -41q11 0 80 -10zM370 80v73q0 41 -24 66q-22 22 -73 38q6 -18 31 -201h43q9 12 23 24z" />
    <glyph glyph-name="quotesingle" unicode="'" horiz-adv-x="125" 
d="M96 650q0 -29 -14 -60h-25q0 3 4.5 17t4.5 16l-6 6q-9 8 -18 26v45h22q28 -5 32 -13v-37z" />
    <glyph glyph-name="parenleft" unicode="(" horiz-adv-x="250" 
d="M227 18h-20q-95 49 -140 131t-45 213q0 62 10 101q14 46 28 93q13 20 63 123q29 64 50 64q13 0 13 -16q0 -4 -29 -65q-34 -73 -52 -127q-29 -84 -29 -144q0 -17 11 -78q13 -72 26 -105q29 -73 60 -110l54 -60v-20z" />
    <glyph glyph-name="parenright" unicode=")" horiz-adv-x="300" 
d="M255 367q0 -131 -45 -213t-140 -131h-20v20l54 60q31 37 60 110q13 33 26 105q11 61 11 78q0 60 -29 144q-18 54 -52 127q-29 61 -29 65q0 16 13 16q21 0 50 -64q29 -53 63 -123q14 -47 28 -93q10 -39 10 -101z" />
    <glyph glyph-name="comma" unicode="," horiz-adv-x="125" 
d="M101 15q0 -29 -14 -60h-25q0 3 4.5 17t4.5 16q0 -1 -6 6q-9 8 -18 26v45h22q28 -5 32 -13v-37z" />
    <glyph glyph-name="hyphen" unicode="-" horiz-adv-x="240" 
d="M221 384h-189v24q4 4 7.5 7t18.5 3h158z" />
    <glyph glyph-name="hyphen" unicode="&#x2010;" horiz-adv-x="240" 
d="M221 384h-189v24q4 4 7.5 7t18.5 3h158z" />
    <glyph glyph-name="hyphen" unicode="&#x2010;" horiz-adv-x="240" 
d="M221 384h-189v24q4 4 7.5 7t18.5 3h158z" />
    <glyph glyph-name="period" unicode="." horiz-adv-x="155" 
d="M123 18l-3 -3q-4 -3 -18 -3q-29 0 -41 16l-12 24v60h30q15 -3 29 -5q8 -11 15 -22v-67z" />
    <glyph glyph-name="zero" unicode="0" 
d="M431 204q0 -72 -6 -101q-15 -65 -63 -80q-8 -3 -100 -10q-85 -7 -91 -7q-79 0 -119 58q-34 48 -34 126v327q0 3 17 90q4 31 7 63q11 51 44 79q44 39 131 39q80 0 140 -35q65 -39 65 -99v-280q9 -46 9 -170zM391 287q1 46 -2 150q-15 211 -17 217q-14 36 -58 64
q-48 30 -100 30q-33 0 -71.5 -26t-61.5 -65q-2 -4 -9 -116t-7 -139q0 -164 23 -248q29 -104 97 -104q157 0 177 43q17 37 25 118q4 49 4 76zM252 210h-20q-31 10 -36 15q-11 14 -11 69q0 24 36 24q20 0 31 -41v-67z" />
    <glyph glyph-name="one" unicode="1" horiz-adv-x="215" 
d="M183 17q-24 1 -53 0q-41 -1 -53 -1q-31 0 -31 24q0 12 12 13q20 3 25 6q15 8 19 36l-12 592q-15 -11 -28 -11q-20 0 -20 22q0 13 38 36q3 2 12 12q5 6 11 6q34 0 34 -56q0 -15 -2.5 -33.5t-2.5 -16.5l5.5 -57.5t5.5 -61.5q-3 -124 -3 -407q1 -60 12 -70q16 -5 31 -10v-23
z" />
    <glyph glyph-name="two" unicode="2" horiz-adv-x="570" 
d="M556 63q0 -39 -29 -51q-32 -12 -144 -12q-5 0 -46.5 3t-173.5 3q-3 15 -3 14q0 13 66 121q62 102 111 172q11 15 50 117q47 124 47 178q0 43 -38 84q-47 50 -122 50q-83 0 -147 -79q-55 -67 -55 -122q0 -86 41 -159q12 -21 33 -40q14 -12 14 -27q0 -11 -7.5 -20.5
t-13.5 -9.5q-28 0 -62 44q-51 64 -51 182q0 132 68 206q64 71 175 71q221 0 221 -175q0 -113 -30 -168q-36 -54 -73 -108q-14 -30 -164 -281q3 -1 51 -5.5t51 -4.5q39 0 129 4q25 2 45 11t41 19h14q2 -7 2 -17z" />
    <glyph glyph-name="three" unicode="3" horiz-adv-x="460" 
d="M424 566q0 -57 -5 -82q-10 -38 -19 -75q-10 -44 -48 -95q-36 -47 -36 -50q0 -9 35 -44.5t35 -63.5q0 -131 -116 -131q-48 0 -87 14q-53 19 -53 56q0 14 23 14q14 0 41.5 -22t54.5 -22q28 0 54.5 19.5t26.5 42.5q0 45 -22 70q-10 12 -40 29q-22 13 -22 26q0 -5 25 34
q33 51 69 139q34 83 34 173q0 46 -30 86q-34 45 -81 45q-78 0 -135 -41q-62 -46 -62 -117q0 -8 14 -22v-20q-8 0 -21 -5t-24 -5q-19 0 -19 71q0 90 74 141q62 42 143 42q102 0 143 -38q48 -45 48 -169z" />
    <glyph glyph-name="four" unicode="4" horiz-adv-x="620" 
d="M584 245q-51 -2 -190 -2q0 -50 -4 -80.5t-4 -24.5q0 3 7 -29.5t7 -54.5q0 -20 -28 -20q-25 0 -25 8q0 4 2.5 13t2.5 13l-9 172q-17 -5 -38 -3q-34 3 -38 3q-13 0 -32.5 -4.5t-31.5 -5.5q-42 0 -137 -2q-21 -1 -23.5 1.5t-2.5 24.5q0 39 24 111q32 99 42 145q8 39 17 78
q2 6 23 53q37 80 61 120q2 1 6 1q17 0 17 -29q0 -57 -37 -132q-40 -81 -40 -84q-12 -82 -53 -217v-18h237v389q0 31 -8.5 52.5t-8.5 34.5q0 16 33 16q-5 0 31 -3q0 -30 -2 -147q-1 -80 1 -147q5 -58 14 -190h137q2 0 10 2t13 2q15 0 27 -14v-32z" />
    <glyph glyph-name="five" unicode="5" horiz-adv-x="490" 
d="M461 712q0 -25 -22 -31h-24v37q-116 -3 -145 -2q-50 2 -59 2q-41 0 -66 -10.5t-50 -10.5q0 -7 -2 -125q-2 -67 5 -125q2 -42 5 -75q6 -79 15 -99q21 8 100 24h74q24 0 55 -26q52 -45 52 -142q0 -133 -155 -133q-34 0 -74 18q-45 21 -45 46q0 7 13.5 18.5t19.5 11.5
q5 0 33.5 -22t55.5 -22q46 0 82 19q40 21 40 54q0 41 -45.5 90t-92.5 49q-18 0 -54.5 -17t-55.5 -17q-39 0 -50 90l-10 146q0 1 -13 125.5t-13 129.5q0 26 6 29q137 30 217 30q20 0 101 -8q78 -7 80 -8q8 -4 15 -19t7 -27z" />
    <glyph glyph-name="six" unicode="6" horiz-adv-x="470" 
d="M419 691q-19 -13 -28 -13q-8 0 -36 18t-44 18q-43 -7 -80 -33q-87 -62 -129 -207q-35 -121 -35 -166q0 -76 68 -188q18 70 33 92q25 36 80 36t83 -39q24 -33 24 -86q0 -52 -29.5 -84.5t-77.5 -32.5q-118 0 -174 138q-39 97 -39 227q0 131 74 251q83 136 202 136
q44 0 66 -19t42 -21v-27zM315 155q0 19 -19 36t-35 17q-26 0 -56 -25q-34 -30 -34 -68q0 -55 43 -55q101 0 101 95z" />
    <glyph glyph-name="seven" unicode="7" horiz-adv-x="665" 
d="M641 715q-24 -52 -129 -358q-16 -77 -40 -174q-8 -5 -90 -187q-35 10 -35 27q0 14 30 82q44 102 88 249q29 96 47 166q28 107 59 165q0 16 -22 19q-33 2 -67 4q-50 0 -164 -4q-14 -1 -230 -20q0 -5 -1 -13t-2 -14h-24q-20 34 -20 51q0 18 60 28q31 4 184 18q25 2 129 4
q40 1 71 -6.5t24 -7.5h70q62 0 62 -29z" />
    <glyph glyph-name="eight" unicode="8" 
d="M414 547q0 -80 -18 -153q-31 -119 -99 -127l-7 -7q63 -32 86 -57q28 -31 28 -82q0 -50 -37 -89q-46 -48 -130 -48q-101 0 -150 27q-61 32 -61 109q0 74 48 110q20 16 103 47q-145 78 -145 197q0 95 76 177q67 73 122 73q107 0 149 -49q35 -40 35 -128zM374 531
q0 85 -50 125q-33 26 -71 26q-62 0 -123 -75q-58 -70 -58 -125q0 -75 78 -132q63 -46 105 -46q62 0 96 104q23 70 23 123zM347 103v67q0 27 -49 47q-44 17 -88 17q-138 0 -138 -129q0 -38 25 -52l161 -27q17 0 47 17q42 23 42 60z" />
    <glyph glyph-name="nine" unicode="9" 
d="M405 45q-12 -4 -16 -4q-31 0 -35 59q-3 44 -5 88q-6 28 -38 28q-4 0 -13 -1h-16q-39 0 -74 13q-177 66 -177 268q0 127 71 196q66 65 176 65q7 0 18 1h15q33 0 43.5 -46t20.5 -243q9 -180 21 -271l9 -73v-80zM342 264q-1 57 -7 188q-4 69 -13 131q-7 56 -7 50q0 3 3 23
t4 33q-7 2 -17 10h-87q-67 0 -111 -67q-40 -61 -40 -136q0 -107 75 -173q68 -60 160 -60q34 0 40 1z" />
    <glyph glyph-name="colon" unicode=":" horiz-adv-x="155" 
d="M123 18l-3 -3q-4 -3 -18 -3q-29 0 -41 16l-12 24v60h30q15 -3 29 -5q8 -11 15 -22v-67zM98 293l-3 -3q-4 -3 -18 -3q-29 0 -41 16l-12 24v60h30q15 -3 29 -5q8 -11 15 -22v-67z" />
    <glyph glyph-name="semicolon" unicode=";" horiz-adv-x="125" 
d="M101 15q0 -29 -14 -60h-25q0 3 4.5 17t4.5 16q0 -1 -6 6q-9 8 -18 26v45h22q28 -5 32 -13v-37zM98 238l-3 -3q-4 -3 -18 -3q-29 0 -41 16l-12 24v60h30q15 -3 29 -5q8 -11 15 -22v-67z" />
    <glyph glyph-name="equal" unicode="=" horiz-adv-x="240" 
d="M221 384h-189v24q4 4 7.5 7t18.5 3h158zM215 259h-189l5 34h158q15 0 18.5 -3t7.5 -7v-24z" />
    <glyph glyph-name="question" unicode="?" horiz-adv-x="455" 
d="M430 558q0 -43 -39 -121q-27 -55 -72 -126q-39 -60 -39 -59q0 -36 23 -112v-24h-23q-12 7 -36 54.5t-24 73.5q0 27 40 80q71 93 74 98q40 61 40 111q0 38 -26 93q-34 72 -83 72q-64 0 -140 -48q-79 -50 -79 -97q0 -29 30 -56t30 -33q0 -16 -18 -16q-68 0 -68 89
q0 93 77 148q68 49 162 49q89 0 133 -54q38 -46 38 -122zM326 50q0 -24 -13 -24q-33 0 -33 32q0 13 3 15.5t16 2.5q18 0 22.5 -5t4.5 -21z" />
    <glyph glyph-name="A" unicode="A" horiz-adv-x="620" 
d="M570 33h-20q0 17 -8 31q-36 -28 -91 -37q-44 -7 -140 -7q-109 0 -154 32t-45 99q0 38 42 116q35 59 70 118.5t96 101.5q19 11 60 37q18 12 38 17q12 3 12 8q0 25 -23 57q-27 38 -61 38q-65 0 -170 -144q-13 -18 -49 -85q-41 -77 -41 -94q0 -9 7 -19.5t7 -17.5
q0 -20 -32 -20q-6 0 -25 3v23q38 104 147 257q44 62 57 74q45 43 107 43q96 0 140 -290q9 -61 27 -112l16 -42q13 -53 19 -105q5 -36 14 -59v-23zM536 110l-99 404q-123 -60 -164 -108q-32 -44 -63 -89q-35 -40 -74 -137q0 -28 16 -62q22 -48 64 -62q3 -1 54 0q7 -4 14 -9
q13 -7 22 -7q11 0 17.5 3t13.5 3h96q8 0 101 30q0 24 2 34z" />
    <glyph glyph-name="B" unicode="B" horiz-adv-x="380" 
d="M361 279q0 -29 -10 -90q-15 -86 -39 -131q-13 -24 -58 -42t-91 -18q-33 0 -55 10h-27q0 -35 -3.5 -42t-22.5 -7q-10 3 -24 9q0 114 4 374q0 7 -7 87q-1 13 -1 29q0 24 4 77.5t4 80.5q0 9 -7 49.5t-7 67.5q12 0 34 10q0 -48 6.5 -119t6.5 -85q293 -34 293 -260zM325 282
q0 50 -1 58q-7 36 -39 68q-40 41 -127 81q-10 -2 -73 20h-14q-2 -22 -10 -79l14 -189v-176q0 -40 81 -40q26 0 77.5 16.5t58.5 29.5q11 21 23 106q10 75 10 105z" />
    <glyph glyph-name="C" unicode="C" horiz-adv-x="420" 
d="M389 90q0 -21 -46.5 -46t-78.5 -25q-76 0 -144 86q-79 98 -79 244q0 128 48 220q57 110 160 110q43 0 74 -38q28 -35 28 -74q0 -34 -25 -34q-22 0 -22 29q0 9 3 28q2 16 1 22q-5 37 -77 37q-20 0 -58 -31q-47 -39 -77 -99q-39 -77 -39 -176q0 -70 54 -181q27 -55 79 -89
q45 -28 80 -28q27 0 61.5 32t44.5 32q4 0 8.5 -6.5t4.5 -12.5z" />
    <glyph glyph-name="D" unicode="D" horiz-adv-x="470" 
d="M430 6q-13 3 -27 4q0 10 4 26q-15 5 -23 5q-3 0 -16.5 -4t-34.5 -4q-19 0 -47 3q-126 14 -195 89t-69 192q0 87 53 152t128 65t131 -17q31 -11 63 -23l-17 220q5 18 21 18q12 0 14 -10q0 -3 1 -57q1 -67 7 -148q7 -92 7 -230v-281zM407 73q0 21 -8.5 61t-8.5 77
q0 -7 3 30.5t3 75.5t-3 73q-5 53 -12 70q-6 14 -20 14q-2 0 -9.5 -1t-11.5 -1q-14 0 -27 5q-7 2 -30 15q-16 8 -29 8q-87 0 -111 -13q-35 -19 -68 -76.5t-33 -93.5q0 -105 55 -153q39 -34 156 -68q102 -30 120 -30q1 0 12 3t22 4z" />
    <glyph glyph-name="E" unicode="E" horiz-adv-x="465" 
d="M421 285q0 -61 -2 -65q-5 -8 -29 -8q-14 0 -65 6t-77 5q-77 -4 -167 -16q33 -148 236 -148q32 0 52 4h23v-26q13 -1 -67 -1q-59 0 -100.5 12t-83.5 25q-36 10 -53 37q-10 14 -19 50q-8 29 -19 38q-5 4 -26 4q2 3 -2.5 10t-3.5 8q5 5 15 4t12 2.5t2 8.5q0 2 -4 25t-4 48
q0 62 22 152q56 228 155 228q79 0 120 -41q30 -30 43 -89l16 -88q26 -102 26 -185zM399 322q0 -3 -47 215q-28 131 -156 131q-25 0 -61 -65q-23 -40 -40 -86q-11 -28 -24 -173q0 -16 6 -54q7 -43 8 -53l168 21q47 -2 139 -15q7 57 7 79z" />
    <glyph glyph-name="F" unicode="F" horiz-adv-x="600" 
d="M556 611q-9 -2 -31 0q0 37 -16 71q-20 42 -52 42q-62 0 -85 -3q-130 -17 -171 -100q-24 -48 -20 -151q7 -55 7 -187q13 -4 26 -3l223 14q4 -1 25 -14v-10h-154q-71 -10 -120 -10q0 -60 2.5 -121.5t2.5 -68.5q0 -34 -15 -44h-10q-3 11 -6 34q-4 60 -4 198
q-24 -8 -59.5 -10t-53.5 -8h-27q-1 4 -3 20q45 10 147 17l-7 239q-1 17 3 56q4 45 10 59q11 28 51 58q70 53 179 53q67 0 97 -11q24 -9 36 -33q13 -27 25 -54v-33z" />
    <glyph glyph-name="G" unicode="G" horiz-adv-x="585" 
d="M551 251q0 -81 -3 -113q-8 -85 -94 -112q-51 -15 -179 -15h-234q-1 6 -2.5 13.5l-1.5 7.5q0 9 44 9h63q13 1 65 -3q62 -4 109 -4q50 0 100 4q24 14 44 30q47 39 63 84v66q-1 0 -3 2.5t-4 2.5q-72 -20 -149 -20q-13 0 -23 7q-15 10 -21 12q-63 23 -86 92q-18 54 -18 169
q0 101 46.5 167.5t124.5 66.5q34 0 116 -21q4 11 4 33q14 0 23 -3q3 -223 3 -214q-2 -45 -2 -79q0 -68 7.5 -111t7.5 -71zM517 283q0 -5 -2.5 59t-2.5 157q0 8 1.5 36.5t1.5 46.5q0 104 -57 104h-97q-38 0 -76 -55q-40 -59 -40 -133q0 -116 36 -188q33 -65 80 -65h74
q82 0 82 38z" />
    <glyph glyph-name="H" unicode="H" 
d="M431 44q1 -3 -5 -9q-11 -12 -22 -12q-5 0 -10 3q-9 7 -5 30q-6 30 -47 224q-22 108 -28 121q-26 67 -88 67q-39 -5 -69 -9q-70 -11 -82 -19v-157q-4 -26 -10 -59l26 -188v-17q-3 -9 -18 -9q-19 0 -27 59q-7 50 -8 171q-1 60 -5 185q-4 104 -3 165q0 25 6 86q5 58 5 95
q1 2 7 7h17q10 -121 10 -138q0 -19 -5 -65.5t-5 -74.5q21 -2 58 4q41 6 52 6q74 1 108 -17q47 -26 76 -106q1 -2 41 -177q29 -126 29 -138.5t2 -27.5z" />
    <glyph glyph-name="I" unicode="I" horiz-adv-x="235" 
d="M131 734q0 -12 -11.5 -19.5t-23.5 -7.5q-10 0 -25.5 8t-15.5 18q0 14 19 26q15 10 25 10q32 0 32 -35zM182 28q-24 -10 -27 -10h-65q-14 0 -37 20q7 12 20.5 20.5t26.5 16.5v320q0 1 -6 21.5t-4 62.5q1 50 2 164q-4 12 -12 16t-17 7v10q14 7 13 7q57 0 57 -35
q0 -7 -2.5 -31t-2.5 -41v-304q0 -1 5 -26t5 -38v-80q0 -47 4 -54q4 -11 40 -36v-10z" />
    <glyph glyph-name="J" unicode="J" horiz-adv-x="590" 
d="M536 708q0 -30 -26 -30q-28 0 -28 28t31 28q17 0 20 -4t3 -22zM536 578q0 -8 -12 -128q-12 -129 -17 -150q-3 -14 -21 -157q-10 -90 -36 -117q-29 -30 -156 -30q-23 0 -122.5 16.5t-115.5 23.5q-30 12 -30 65q0 13 18 13t34 -30.5t38 -30.5q3 5 13 7q31 -20 61 -20h143
q69 0 91 32q14 20 17 81q4 70 19 107q9 22 22.5 134t13.5 152q0 48 -7 58l-22 13v10q18 0 28 2.5t9 2.5q23 0 30 -19q2 -8 2 -35z" />
    <glyph glyph-name="K" unicode="K" horiz-adv-x="460" 
d="M430 669q0 1 -77 -93q-81 -98 -93 -132t-75 -130q-59 -90 -59 -95q0 -4 63 -89.5t63 -99.5q0 -20 -36 -20q-15 0 -57 78q-29 56 -59 112q-4 -11 -4 -7q10 -36 10 -133q0 -3 17 -47q-18 -2 -28 -4.5t-12 -2.5q-14 0 -33 193l12 136q0 89 -1 102q-4 26 -8 53
q-1 12 4.5 28.5t4.5 32.5l-12 202q1 14 12 24.5t24 10.5q21 0 21 -34q0 -9 -4 -52.5t-3 -74.5q1 -48 -3 -170q0 3 3 -177q13 14 65.5 97t79.5 113q6 7 76 105t79 112q30 -15 30 -38z" />
    <glyph glyph-name="L" unicode="L" horiz-adv-x="220" 
d="M177 1q-20 4 -30 2q-16 -3 -15 -3q-40 0 -55 38q-10 24 -11 78q-1 28 -3 652q14 16 20 16q12 0 14 -14l1 -303q8 -94 8 -245q0 -27 14 -99l4 -52q5 -37 19 -41q11 2 34 -4v-25z" />
    <glyph glyph-name="M" unicode="M" horiz-adv-x="525" 
d="M481 33q0 -22 -9 -33h-34q0 53 2 303q2 165 -1 304q0 10 -15 39q-18 36 -36 36q-13 0 -60 -27q-53 -31 -53 -54v-217l10 -132q-22 -9 -40 0v222q0 198 -71 198q-41 0 -70 -37q-26 -33 -26 -64v-414l19 -121q6 -36 -31 -36q-31 0 -31 30v631q0 3 7 50t9 53q18 -9 18 -15
q0 -1 -1 -5v-9q0 -20 13 -51q22 17 37 19q3 1 42 1q35 0 45 -4q29 -11 50 -56q14 17 49 39q45 29 74 29q56 0 78 -47q17 -34 19 -109l4 -126q2 -134 2 -397z" />
    <glyph glyph-name="N" unicode="N" horiz-adv-x="475" 
d="M434 143q8 -41 8 -73q0 -56 -26 -56q-14 0 -17 18l-2 48q0 8 2 48q2 46 2 83q0 95 -14 189q-1 8 3 52q4 54 4 93q0 40 -4 76q-5 40 -27 70q-28 37 -72 37q-140 0 -184 -127q-25 -72 -25 -255q0 -38 9 -143.5t9 -108.5q-2 -84 -24 -84q-21 0 -44 214q7 116 18 256
q2 12 -2 40q-5 35 -5 62q0 23 3 49l8 114q2 27 15 27q2 0 14 -8l3 -103q31 40 62 81q38 38 92 38q96 0 143 -42q38 -34 47 -100q4 -27 4 -118v-377z" />
    <glyph glyph-name="O" unicode="O" horiz-adv-x="545" 
d="M496 272q0 -90 -30 -157q-39 -89 -117 -89q-46 0 -117 20q-87 25 -112 59q-71 96 -75 220q-7 251 66 343q51 64 168 64q10 0 56 -15q54 -17 75 -32q15 -11 33 -56q24 -62 31 -147q2 -29 14 -88q8 -41 8 -122zM451 281q0 67 -4 82q-16 56 -23 94q-5 49 -10 97
q-12 82 -41 100q-16 10 -73 20q-49 8 -67 8q-63 0 -101 -60q-36 -55 -36 -132v-90q0 -3 -7 -27t-7 -30q0 -41 31.5 -127t56.5 -106q16 -13 98 -24q65 -10 81 -10q102 0 102 205z" />
    <glyph glyph-name="P" unicode="P" horiz-adv-x="425" 
d="M401 379q0 -11 -5 -25q-7 -18 -7 -19q-13 -64 -28.5 -85t-49.5 -29q-45 -9 -89 -19q-38 -11 -71 -11q-12 0 -26.5 2t-18.5 2q-12 0 -15 -13q-2 -8 1 -46q5 -51 5 -88q0 -28 1 -26q-2 -3 -14 -3q-29 0 -35 67q-3 32 -3 210q0 94 6 146q4 33 8 67q-10 50 -10 194
q0 12 13 26h169q169 0 169 -350zM349 453q0 115 -25 170q-21 46 -65 58q-21 6 -87 6q-81 0 -81 -31q0 -5 4 -62q4 -52 3 -65q-13 -139 -13 -128q0 -100 21 -140q17 -32 53 -32q11 0 91 23q64 19 79 45q20 34 20 156z" />
    <glyph glyph-name="Q" unicode="Q" horiz-adv-x="490" 
d="M445 45q0 -35 -60 -35q-16 0 -17 1q-4 3 -4 21q0 2 1.5 57.5t1.5 115.5q-36 3 -231 27q-55 7 -85.5 58.5t-30.5 138.5q0 179 62 257q50 63 148 63h120q7 27 8.5 28.5t25.5 1.5q29 0 29 -37q0 -15 -6 -45.5t-5 -37.5q5 -50 12 -85q5 -26 5 -32q0 -2 -5 -46t-5 -47v-171
l-8 -124q2 -37 5 -42t3 -44q28 0 34 -6q2 -2 2 -17zM370 601q0 47 -3 61q-8 45 -39 45q-3 0 -7.5 -2.5t-7.5 -2.5l-128 -7q-44 -2 -86.5 -75.5t-42.5 -141.5q0 -88 11 -121.5t48 -53.5q13 -7 112 -43l135 5q1 20 1 38q0 30 -4 69q-4 32 -2 53q3 30 7 61q6 62 6 115z" />
    <glyph glyph-name="R" unicode="R" horiz-adv-x="520" 
d="M491 489q-27 -170 -52 -170q-9 0 -19.5 18.5t-10.5 40.5q0 28 20 53t20 50q0 131 -77 185q-49 34 -117 34q-44 0 -101.5 -47t-67.5 -81q-1 -3 4 -60q1 -36 2 -120q-2 -8 -6 -27q-4 -41 -4 -90v-89q5 -71 12 -106l6 -28q0 -22 -10 -25l-32 -6h-20v515q0 144 13 197
q9 40 31 40q20 0 20 -32q0 -8 -1.5 -29.5t-1.5 -32.5q0 -10 1 -19q23 24 45 47q22 19 56.5 26t113.5 7q91 0 139 -90q37 -70 37 -161z" />
    <glyph glyph-name="S" unicode="S" horiz-adv-x="350" 
d="M330 339q0 -89 -47 -156q-6 -8 -78 -118q-16 -25 -32 -25q-23 0 -23 17q0 12 45 58q52 52 68 85q6 12 19 58q18 58 18 85q0 17 -9 40q-11 27 -25 27q-20 0 -83 -56t-105 -56q-35 0 -47 15q-9 12 -9 46q0 38 17 71q31 52 61 104q61 108 77 131.5t40 42.5h10v-21
q-27 -23 -35 -36q-35 -57 -69 -114q-2 -2 -41 -76q-40 -77 -40 -84q0 -9 12 -26t27 -17q30 0 83.5 48t88.5 48q77 0 77 -91z" />
    <glyph glyph-name="T" unicode="T" horiz-adv-x="563" 
d="M543 20q-11 0 -47.5 -10t-84.5 -10q-30 0 -82 10q-30 -4 -97 -4q-48 5 -59 43t-11 198q-25 0 -85 -3q-62 -4 -60 0q2 10 2 36h136q0 18 2 58q0 5 3 26t3 30q0 13 -4 47t-4 45v195q0 8 -5 14.5t-5 13.5l7 19h38q2 -231 2 -244q0 -7 -5 -25.5t-5 -44.5v-137q2 0 71.5 -7
t78.5 -7t25.5 2.5t22.5 2.5q16 0 26 -11v-11h-218q0 -167 1 -180q3 -36 43 -36q30 0 99 -3q55 -3 98 -1q43 14 80 14q5 0 15.5 -4.5t18.5 -5.5v-10z" />
    <glyph glyph-name="U" unicode="U" horiz-adv-x="430" 
d="M379 253q0 -3 -2 -8t-2 -8v-211q-10 -2 -30 0q0 29 3 75t3 77q0 32 -2 69q-32 -71 -65 -142q-45 -89 -105 -89q-40 8 -68 32q-68 58 -66 189q1 95 10 203q1 18 10 47q12 40 16 60q22 101 31 101q19 0 19 -21q0 -19 -28 -116.5t-28 -144.5q0 -145 7 -185q21 -125 104 -125
q32 0 57 40q40 64 82 241q16 69 16 159q0 19 -2 28q-8 32 -8 58q0 42 24 42q11 0 24 -10v-361z" />
    <glyph glyph-name="V" unicode="V" horiz-adv-x="590" 
d="M569 703q-91 -275 -130 -366q-28 -67 -56 -159q-20 -68 -35 -88q-9 -12 -14 -34q-4 -17 -11 -23q-12 -9 -45 -9q-18 0 -30 26q-23 65 -47 130q-38 102 -46 174q-4 31 -31 123q-39 132 -89 224v23q12 -3 23 -2q24 2 40 2q0 -30 38 -138q42 -120 52 -189q69 -274 97 -331
q28 21 67 135q56 159 73 196q7 15 77 230q6 22 12 45q11 28 38 39h13q0 -2 2 -4t2 -4z" />
    <glyph glyph-name="W" unicode="W" horiz-adv-x="700" 
d="M666 735q0 -7 -14 -37q-17 -38 -25 -71q0 9 -50.5 -257t-50.5 -317q0 -37 -30 -37q-14 0 -21 27q-18 66 -28 93q-17 46 -30 131q-15 117 -37 257q-23 -92 -29.5 -161t-13.5 -96q-15 -48 -47 -157q-4 -31 -9 -62q-3 -14 -39 -14q-24 0 -41 42q-12 27 -35 117
q-18 57 -50 177q-14 39 -36 117q-8 45 -12 92q-4 40 -5 45q-4 15 -21 52q-12 27 -12 49q0 33 19 33q9 0 27 -44q22 -52 30 -113q17 -134 30 -164q19 -67 38 -135q41 -140 66 -192q12 28 20 66q28 138 43 208q8 26 37 136q34 132 43 132q27 0 42 -127q6 -67 12 -135
q38 -250 47 -267q21 92 60 324q7 45 36 164q11 50 23 100q11 37 44 37q19 0 19 -13z" />
    <glyph glyph-name="X" unicode="X" horiz-adv-x="670" 
d="M619 689q-9 -11 -134 -143q-31 -32 -60 -74q-23 -33 -43 -56q-7 -8 -7 -17q0 -10 21 -34q27 -32 32 -40q31 -50 51 -97q10 -23 19 -46q18 -25 37 -49q36 -51 36 -67q0 -10 -19 -18h-10q-5 13 -60 110q-71 122 -130 211q-30 -31 -60 -63q-59 -60 -91 -81q-27 -18 -80 -86
q-45 -58 -59 -58q-4 0 -11.5 7.5t-7.5 11.5q24 34 125 155q16 13 160 150l-36 58q-29 47 -67 89q-13 14 -57.5 77.5t-44.5 66.5q0 7 10.5 15t14.5 8q11 0 41 -38q33 -42 62 -99q16 -30 101 -147q25 18 66 72q48 63 60 75q16 16 66 83q35 48 52 48q6 0 12 -5q8 -8 11 -9v-10z
" />
    <glyph glyph-name="Y" unicode="Y" horiz-adv-x="640" 
d="M611 638q0 -4 -139 -324q-23 -47 -60 -127q-24 -57 -47 -114q-22 -37 -84 -40q-74 -2 -243 -7q-1 6 -5 15q0 15 19 15q9 0 35 -5t39 -5q12 0 98 9t91 11q12 5 23 26q15 30 30 61q37 73 37 81q-41 38 -69 67q-72 74 -88 116q-24 63 -79 119q-46 46 -46 62t21 16
q17 0 60 -75q55 -97 57 -99q6 -7 71 -80q69 -77 80 -87q11 22 23 47q23 29 60 90q1 16 13 60q48 121 58 140q21 43 43 47q2 -14 2 -19z" />
    <glyph glyph-name="Z" unicode="Z" horiz-adv-x="755" 
d="M731 51q-25 -15 -49 -30q-22 -10 -125 -10h-177l-12 4.5t-29.5 5.5t-31.5 1q-18 0 -48.5 -2.5t-51.5 -2.5q-16 0 -34 1v6q-1 4 -1 6q0 31 70 163l78 146q10 26 81 161t86 156v16q-47 -6 -75 -4q-45 4 -34 4l-121 -16h-147q-15 0 -25 -16.5t-19 -16.5q-16 3 -30 3v16
q18 31 21 34q13 10 59 10h80q25 0 80 6.5t61 6.5h110q-1 0 10 3t30 4q28 3 70 3v-16q-8 -16 -48 -78q-37 -56 -126 -246q-49 -104 -70 -134q-23 -33 -30 -47q-3 -7 -21 -62q-14 -44 -39 -81q4 -3 11 -4q113 -1 370 4q42 2 71 11t33 9q1 0 23 -4v-10z" />
    <glyph glyph-name="a" unicode="a" horiz-adv-x="620" 
d="M570 33h-20q0 17 -8 31q-36 -28 -91 -37q-44 -7 -140 -7q-109 0 -154 32t-45 99q0 38 42 116q35 59 70 118.5t96 101.5q19 11 60 37q18 12 38 17q12 3 12 8q0 25 -23 57q-27 38 -61 38q-65 0 -170 -144q-13 -18 -49 -85q-41 -77 -41 -94q0 -9 7 -19.5t7 -17.5
q0 -20 -32 -20q-6 0 -25 3v23q38 104 147 257q44 62 57 74q45 43 107 43q96 0 140 -290q9 -61 27 -112l16 -42q13 -53 19 -105q5 -36 14 -59v-23zM536 110l-99 404q-123 -60 -164 -108q-32 -44 -63 -89q-35 -40 -74 -137q0 -28 16 -62q22 -48 64 -62q3 -1 54 0q7 -4 14 -9
q13 -7 22 -7q11 0 17.5 3t13.5 3h96q8 0 101 30q0 24 2 34z" />
    <glyph glyph-name="b" unicode="b" horiz-adv-x="380" 
d="M361 279q0 -29 -10 -90q-15 -86 -39 -131q-13 -24 -58 -42t-91 -18q-33 0 -55 10h-27q0 -35 -3.5 -42t-22.5 -7q-10 3 -24 9q0 114 4 374q0 7 -7 87q-1 13 -1 29q0 24 4 77.5t4 80.5q0 9 -7 49.5t-7 67.5q12 0 34 10q0 -48 6.5 -119t6.5 -85q293 -34 293 -260zM325 282
q0 50 -1 58q-7 36 -39 68q-40 41 -127 81q-10 -2 -73 20h-14q-2 -22 -10 -79l14 -189v-176q0 -40 81 -40q26 0 77.5 16.5t58.5 29.5q11 21 23 106q10 75 10 105z" />
    <glyph glyph-name="c" unicode="c" horiz-adv-x="420" 
d="M389 90q0 -21 -46.5 -46t-78.5 -25q-76 0 -144 86q-79 98 -79 244q0 128 48 220q57 110 160 110q43 0 74 -38q28 -35 28 -74q0 -34 -25 -34q-22 0 -22 29q0 9 3 28q2 16 1 22q-5 37 -77 37q-20 0 -58 -31q-47 -39 -77 -99q-39 -77 -39 -176q0 -70 54 -181q27 -55 79 -89
q45 -28 80 -28q27 0 61.5 32t44.5 32q4 0 8.5 -6.5t4.5 -12.5z" />
    <glyph glyph-name="d" unicode="d" horiz-adv-x="470" 
d="M430 6q-13 3 -27 4q0 10 4 26q-15 5 -23 5q-3 0 -16.5 -4t-34.5 -4q-19 0 -47 3q-126 14 -195 89t-69 192q0 87 53 152t128 65t131 -17q31 -11 63 -23l-17 220q5 18 21 18q12 0 14 -10q0 -3 1 -57q1 -67 7 -148q7 -92 7 -230v-281zM407 73q0 21 -8.5 61t-8.5 77
q0 -7 3 30.5t3 75.5t-3 73q-5 53 -12 70q-6 14 -20 14q-2 0 -9.5 -1t-11.5 -1q-14 0 -27 5q-7 2 -30 15q-16 8 -29 8q-87 0 -111 -13q-35 -19 -68 -76.5t-33 -93.5q0 -105 55 -153q39 -34 156 -68q102 -30 120 -30q1 0 12 3t22 4z" />
    <glyph glyph-name="e" unicode="e" horiz-adv-x="465" 
d="M421 285q0 -61 -2 -65q-5 -8 -29 -8q-14 0 -65 6t-77 5q-77 -4 -167 -16q33 -148 236 -148q32 0 52 4h23v-26q13 -1 -67 -1q-59 0 -100.5 12t-83.5 25q-36 10 -53 37q-10 14 -19 50q-8 29 -19 38q-5 4 -26 4q2 3 -2.5 10t-3.5 8q5 5 15 4t12 2.5t2 8.5q0 2 -4 25t-4 48
q0 62 22 152q56 228 155 228q79 0 120 -41q30 -30 43 -89l16 -88q26 -102 26 -185zM399 322q0 -3 -47 215q-28 131 -156 131q-25 0 -61 -65q-23 -40 -40 -86q-11 -28 -24 -173q0 -16 6 -54q7 -43 8 -53l168 21q47 -2 139 -15q7 57 7 79z" />
    <glyph glyph-name="f" unicode="f" horiz-adv-x="600" 
d="M556 611q-9 -2 -31 0q0 37 -16 71q-20 42 -52 42q-62 0 -85 -3q-130 -17 -171 -100q-24 -48 -20 -151q7 -55 7 -187q13 -4 26 -3l223 14q4 -1 25 -14v-10h-154q-71 -10 -120 -10q0 -60 2.5 -121.5t2.5 -68.5q0 -34 -15 -44h-10q-3 11 -6 34q-4 60 -4 198
q-24 -8 -59.5 -10t-53.5 -8h-27q-1 4 -3 20q45 10 147 17l-7 239q-1 17 3 56q4 45 10 59q11 28 51 58q70 53 179 53q67 0 97 -11q24 -9 36 -33q13 -27 25 -54v-33z" />
    <glyph glyph-name="g" unicode="g" horiz-adv-x="585" 
d="M551 251q0 -81 -3 -113q-8 -85 -94 -112q-51 -15 -179 -15h-234q-1 6 -2.5 13.5l-1.5 7.5q0 9 44 9h63q13 1 65 -3q62 -4 109 -4q50 0 100 4q24 14 44 30q47 39 63 84v66q-1 0 -3 2.5t-4 2.5q-72 -20 -149 -20q-13 0 -23 7q-15 10 -21 12q-63 23 -86 92q-18 54 -18 169
q0 101 46.5 167.5t124.5 66.5q34 0 116 -21q4 11 4 33q14 0 23 -3q3 -223 3 -214q-2 -45 -2 -79q0 -68 7.5 -111t7.5 -71zM517 283q0 -5 -2.5 59t-2.5 157q0 8 1.5 36.5t1.5 46.5q0 104 -57 104h-97q-38 0 -76 -55q-40 -59 -40 -133q0 -116 36 -188q33 -65 80 -65h74
q82 0 82 38z" />
    <glyph glyph-name="h" unicode="h" 
d="M431 44q1 -3 -5 -9q-11 -12 -22 -12q-5 0 -10 3q-9 7 -5 30q-6 30 -47 224q-22 108 -28 121q-26 67 -88 67q-39 -5 -69 -9q-70 -11 -82 -19v-157q-4 -26 -10 -59l26 -188v-17q-3 -9 -18 -9q-19 0 -27 59q-7 50 -8 171q-1 60 -5 185q-4 104 -3 165q0 25 6 86q5 58 5 95
q1 2 7 7h17q10 -121 10 -138q0 -19 -5 -65.5t-5 -74.5q21 -2 58 4q41 6 52 6q74 1 108 -17q47 -26 76 -106q1 -2 41 -177q29 -126 29 -138.5t2 -27.5z" />
    <glyph glyph-name="i" unicode="i" horiz-adv-x="235" 
d="M131 734q0 -12 -11.5 -19.5t-23.5 -7.5q-10 0 -25.5 8t-15.5 18q0 14 19 26q15 10 25 10q32 0 32 -35zM182 28q-24 -10 -27 -10h-65q-14 0 -37 20q7 12 20.5 20.5t26.5 16.5v320q0 1 -6 21.5t-4 62.5q1 50 2 164q-4 12 -12 16t-17 7v10q14 7 13 7q57 0 57 -35
q0 -7 -2.5 -31t-2.5 -41v-304q0 -1 5 -26t5 -38v-80q0 -47 4 -54q4 -11 40 -36v-10z" />
    <glyph glyph-name="j" unicode="j" horiz-adv-x="590" 
d="M536 708q0 -30 -26 -30q-28 0 -28 28t31 28q17 0 20 -4t3 -22zM536 578q0 -8 -12 -128q-12 -129 -17 -150q-3 -14 -21 -157q-10 -90 -36 -117q-29 -30 -156 -30q-23 0 -122.5 16.5t-115.5 23.5q-30 12 -30 65q0 13 18 13t34 -30.5t38 -30.5q3 5 13 7q31 -20 61 -20h143
q69 0 91 32q14 20 17 81q4 70 19 107q9 22 22.5 134t13.5 152q0 48 -7 58l-22 13v10q18 0 28 2.5t9 2.5q23 0 30 -19q2 -8 2 -35z" />
    <glyph glyph-name="k" unicode="k" horiz-adv-x="460" 
d="M430 669q0 1 -77 -93q-81 -98 -93 -132t-75 -130q-59 -90 -59 -95q0 -4 63 -89.5t63 -99.5q0 -20 -36 -20q-15 0 -57 78q-29 56 -59 112q-4 -11 -4 -7q10 -36 10 -133q0 -3 17 -47q-18 -2 -28 -4.5t-12 -2.5q-14 0 -33 193l12 136q0 89 -1 102q-4 26 -8 53
q-1 12 4.5 28.5t4.5 32.5l-12 202q1 14 12 24.5t24 10.5q21 0 21 -34q0 -9 -4 -52.5t-3 -74.5q1 -48 -3 -170q0 3 3 -177q13 14 65.5 97t79.5 113q6 7 76 105t79 112q30 -15 30 -38z" />
    <glyph glyph-name="l" unicode="l" horiz-adv-x="220" 
d="M177 1q-20 4 -30 2q-16 -3 -15 -3q-40 0 -55 38q-10 24 -11 78q-1 28 -3 652q14 16 20 16q12 0 14 -14l1 -303q8 -94 8 -245q0 -27 14 -99l4 -52q5 -37 19 -41q11 2 34 -4v-25z" />
    <glyph glyph-name="m" unicode="m" horiz-adv-x="525" 
d="M481 33q0 -22 -9 -33h-34q0 53 2 303q2 165 -1 304q0 10 -15 39q-18 36 -36 36q-13 0 -60 -27q-53 -31 -53 -54v-217l10 -132q-22 -9 -40 0v222q0 198 -71 198q-41 0 -70 -37q-26 -33 -26 -64v-414l19 -121q6 -36 -31 -36q-31 0 -31 30v631q0 3 7 50t9 53q18 -9 18 -15
q0 -1 -1 -5v-9q0 -20 13 -51q22 17 37 19q3 1 42 1q35 0 45 -4q29 -11 50 -56q14 17 49 39q45 29 74 29q56 0 78 -47q17 -34 19 -109l4 -126q2 -134 2 -397z" />
    <glyph glyph-name="n" unicode="n" horiz-adv-x="475" 
d="M434 143q8 -41 8 -73q0 -56 -26 -56q-14 0 -17 18l-2 48q0 8 2 48q2 46 2 83q0 95 -14 189q-1 8 3 52q4 54 4 93q0 40 -4 76q-5 40 -27 70q-28 37 -72 37q-140 0 -184 -127q-25 -72 -25 -255q0 -38 9 -143.5t9 -108.5q-2 -84 -24 -84q-21 0 -44 214q7 116 18 256
q2 12 -2 40q-5 35 -5 62q0 23 3 49l8 114q2 27 15 27q2 0 14 -8l3 -103q31 40 62 81q38 38 92 38q96 0 143 -42q38 -34 47 -100q4 -27 4 -118v-377z" />
    <glyph glyph-name="o" unicode="o" horiz-adv-x="545" 
d="M496 272q0 -90 -30 -157q-39 -89 -117 -89q-46 0 -117 20q-87 25 -112 59q-71 96 -75 220q-7 251 66 343q51 64 168 64q10 0 56 -15q54 -17 75 -32q15 -11 33 -56q24 -62 31 -147q2 -29 14 -88q8 -41 8 -122zM451 281q0 67 -4 82q-16 56 -23 94q-5 49 -10 97
q-12 82 -41 100q-16 10 -73 20q-49 8 -67 8q-63 0 -101 -60q-36 -55 -36 -132v-90q0 -3 -7 -27t-7 -30q0 -41 31.5 -127t56.5 -106q16 -13 98 -24q65 -10 81 -10q102 0 102 205z" />
    <glyph glyph-name="p" unicode="p" horiz-adv-x="425" 
d="M401 379q0 -11 -5 -25q-7 -18 -7 -19q-13 -64 -28.5 -85t-49.5 -29q-45 -9 -89 -19q-38 -11 -71 -11q-12 0 -26.5 2t-18.5 2q-12 0 -15 -13q-2 -8 1 -46q5 -51 5 -88q0 -28 1 -26q-2 -3 -14 -3q-29 0 -35 67q-3 32 -3 210q0 94 6 146q4 33 8 67q-10 50 -10 194
q0 12 13 26h169q169 0 169 -350zM349 453q0 115 -25 170q-21 46 -65 58q-21 6 -87 6q-81 0 -81 -31q0 -5 4 -62q4 -52 3 -65q-13 -139 -13 -128q0 -100 21 -140q17 -32 53 -32q11 0 91 23q64 19 79 45q20 34 20 156z" />
    <glyph glyph-name="q" unicode="q" horiz-adv-x="490" 
d="M445 45q0 -35 -60 -35q-16 0 -17 1q-4 3 -4 21q0 2 1.5 57.5t1.5 115.5q-36 3 -231 27q-55 7 -85.5 58.5t-30.5 138.5q0 179 62 257q50 63 148 63h120q7 27 8.5 28.5t25.5 1.5q29 0 29 -37q0 -15 -6 -45.5t-5 -37.5q5 -50 12 -85q5 -26 5 -32q0 -2 -5 -46t-5 -47v-171
l-8 -124q2 -37 5 -42t3 -44q28 0 34 -6q2 -2 2 -17zM370 601q0 47 -3 61q-8 45 -39 45q-3 0 -7.5 -2.5t-7.5 -2.5l-128 -7q-44 -2 -86.5 -75.5t-42.5 -141.5q0 -88 11 -121.5t48 -53.5q13 -7 112 -43l135 5q1 20 1 38q0 30 -4 69q-4 32 -2 53q3 30 7 61q6 62 6 115z" />
    <glyph glyph-name="r" unicode="r" horiz-adv-x="520" 
d="M491 489q-27 -170 -52 -170q-9 0 -19.5 18.5t-10.5 40.5q0 28 20 53t20 50q0 131 -77 185q-49 34 -117 34q-44 0 -101.5 -47t-67.5 -81q-1 -3 4 -60q1 -36 2 -120q-2 -8 -6 -27q-4 -41 -4 -90v-89q5 -71 12 -106l6 -28q0 -22 -10 -25l-32 -6h-20v515q0 144 13 197
q9 40 31 40q20 0 20 -32q0 -8 -1.5 -29.5t-1.5 -32.5q0 -10 1 -19q23 24 45 47q22 19 56.5 26t113.5 7q91 0 139 -90q37 -70 37 -161z" />
    <glyph glyph-name="s" unicode="s" horiz-adv-x="350" 
d="M330 339q0 -89 -47 -156q-6 -8 -78 -118q-16 -25 -32 -25q-23 0 -23 17q0 12 45 58q52 52 68 85q6 12 19 58q18 58 18 85q0 17 -9 40q-11 27 -25 27q-20 0 -83 -56t-105 -56q-35 0 -47 15q-9 12 -9 46q0 38 17 71q31 52 61 104q61 108 77 131.5t40 42.5h10v-21
q-27 -23 -35 -36q-35 -57 -69 -114q-2 -2 -41 -76q-40 -77 -40 -84q0 -9 12 -26t27 -17q30 0 83.5 48t88.5 48q77 0 77 -91z" />
    <glyph glyph-name="t" unicode="t" horiz-adv-x="563" 
d="M543 20q-11 0 -47.5 -10t-84.5 -10q-30 0 -82 10q-30 -4 -97 -4q-48 5 -59 43t-11 198q-25 0 -85 -3q-62 -4 -60 0q2 10 2 36h136q0 18 2 58q0 5 3 26t3 30q0 13 -4 47t-4 45v195q0 8 -5 14.5t-5 13.5l7 19h38q2 -231 2 -244q0 -7 -5 -25.5t-5 -44.5v-137q2 0 71.5 -7
t78.5 -7t25.5 2.5t22.5 2.5q16 0 26 -11v-11h-218q0 -167 1 -180q3 -36 43 -36q30 0 99 -3q55 -3 98 -1q43 14 80 14q5 0 15.5 -4.5t18.5 -5.5v-10z" />
    <glyph glyph-name="u" unicode="u" horiz-adv-x="430" 
d="M379 253q0 -3 -2 -8t-2 -8v-211q-10 -2 -30 0q0 29 3 75t3 77q0 32 -2 69q-32 -71 -65 -142q-45 -89 -105 -89q-40 8 -68 32q-68 58 -66 189q1 95 10 203q1 18 10 47q12 40 16 60q22 101 31 101q19 0 19 -21q0 -19 -28 -116.5t-28 -144.5q0 -145 7 -185q21 -125 104 -125
q32 0 57 40q40 64 82 241q16 69 16 159q0 19 -2 28q-8 32 -8 58q0 42 24 42q11 0 24 -10v-361z" />
    <glyph glyph-name="v" unicode="v" horiz-adv-x="590" 
d="M569 703q-91 -275 -130 -366q-28 -67 -56 -159q-20 -68 -35 -88q-9 -12 -14 -34q-4 -17 -11 -23q-12 -9 -45 -9q-18 0 -30 26q-23 65 -47 130q-38 102 -46 174q-4 31 -31 123q-39 132 -89 224v23q12 -3 23 -2q24 2 40 2q0 -30 38 -138q42 -120 52 -189q69 -274 97 -331
q28 21 67 135q56 159 73 196q7 15 77 230q6 22 12 45q11 28 38 39h13q0 -2 2 -4t2 -4z" />
    <glyph glyph-name="w" unicode="w" horiz-adv-x="700" 
d="M666 735q0 -7 -14 -37q-17 -38 -25 -71q0 9 -50.5 -257t-50.5 -317q0 -37 -30 -37q-14 0 -21 27q-18 66 -28 93q-17 46 -30 131q-15 117 -37 257q-23 -92 -29.5 -161t-13.5 -96q-15 -48 -47 -157q-4 -31 -9 -62q-3 -14 -39 -14q-24 0 -41 42q-12 27 -35 117
q-18 57 -50 177q-14 39 -36 117q-8 45 -12 92q-4 40 -5 45q-4 15 -21 52q-12 27 -12 49q0 33 19 33q9 0 27 -44q22 -52 30 -113q17 -134 30 -164q19 -67 38 -135q41 -140 66 -192q12 28 20 66q28 138 43 208q8 26 37 136q34 132 43 132q27 0 42 -127q6 -67 12 -135
q38 -250 47 -267q21 92 60 324q7 45 36 164q11 50 23 100q11 37 44 37q19 0 19 -13z" />
    <glyph glyph-name="x" unicode="x" horiz-adv-x="670" 
d="M619 689q-9 -11 -134 -143q-31 -32 -60 -74q-23 -33 -43 -56q-7 -8 -7 -17q0 -10 21 -34q27 -32 32 -40q31 -50 51 -97q10 -23 19 -46q18 -25 37 -49q36 -51 36 -67q0 -10 -19 -18h-10q-5 13 -60 110q-71 122 -130 211q-30 -31 -60 -63q-59 -60 -91 -81q-27 -18 -80 -86
q-45 -58 -59 -58q-4 0 -11.5 7.5t-7.5 11.5q24 34 125 155q16 13 160 150l-36 58q-29 47 -67 89q-13 14 -57.5 77.5t-44.5 66.5q0 7 10.5 15t14.5 8q11 0 41 -38q33 -42 62 -99q16 -30 101 -147q25 18 66 72q48 63 60 75q16 16 66 83q35 48 52 48q6 0 12 -5q8 -8 11 -9v-10z
" />
    <glyph glyph-name="y" unicode="y" horiz-adv-x="640" 
d="M611 638q0 -4 -139 -324q-23 -47 -60 -127q-24 -57 -47 -114q-22 -37 -84 -40q-74 -2 -243 -7q-1 6 -5 15q0 15 19 15q9 0 35 -5t39 -5q12 0 98 9t91 11q12 5 23 26q15 30 30 61q37 73 37 81q-41 38 -69 67q-72 74 -88 116q-24 63 -79 119q-46 46 -46 62t21 16
q17 0 60 -75q55 -97 57 -99q6 -7 71 -80q69 -77 80 -87q11 22 23 47q23 29 60 90q1 16 13 60q48 121 58 140q21 43 43 47q2 -14 2 -19z" />
    <glyph glyph-name="z" unicode="z" horiz-adv-x="755" 
d="M731 51q-25 -15 -49 -30q-22 -10 -125 -10h-177l-12 4.5t-29.5 5.5t-31.5 1q-18 0 -48.5 -2.5t-51.5 -2.5q-16 0 -34 1v6q-1 4 -1 6q0 31 70 163l78 146q10 26 81 161t86 156v16q-47 -6 -75 -4q-45 4 -34 4l-121 -16h-147q-15 0 -25 -16.5t-19 -16.5q-16 3 -30 3v16
q18 31 21 34q13 10 59 10h80q25 0 80 6.5t61 6.5h110q-1 0 10 3t30 4q28 3 70 3v-16q-8 -16 -48 -78q-37 -56 -126 -246q-49 -104 -70 -134q-23 -33 -30 -47q-3 -7 -21 -62q-14 -44 -39 -81q4 -3 11 -4q113 -1 370 4q42 2 71 11t33 9q1 0 23 -4v-10z" />
    <glyph glyph-name="endash" unicode="&#x2013;" horiz-adv-x="250" 
d="M226 394h-189v24q4 4 7.5 7t18.5 3h158z" />
    <glyph glyph-name="emdash" unicode="&#x2014;" 
d="M431 394h-394v24q4 4 7.5 7t18.5 3h363z" />
    <glyph glyph-name="quoteleft" unicode="&#x2018;" horiz-adv-x="125" 
d="M32 638q0 29 14 60h25q0 -3 -4.5 -17t-4.5 -16q0 1 7.5 -6.5t16.5 -25.5v-45h-22q-28 5 -32 13v37z" />
    <glyph glyph-name="quoteright" unicode="&#x2019;" horiz-adv-x="125" 
d="M96 650q0 -29 -14 -60h-25q0 3 4.5 17t4.5 16l-6 6q-9 8 -18 26v45h22q28 -5 32 -13v-37z" />
    <glyph glyph-name="quotedblleft" unicode="&#x201c;" horiz-adv-x="255" 
d="M152 638q0 29 14 60h25q0 -3 -4.5 -17t-4.5 -16q0 1 7.5 -6.5t16.5 -25.5v-45h-22q-28 5 -32 13v37zM32 638q0 29 14 60h25q0 -3 -4.5 -17t-4.5 -16q0 1 7.5 -6.5t16.5 -25.5v-45h-22q-28 5 -32 13v37z" />
    <glyph glyph-name="quotedblright" unicode="&#x201d;" horiz-adv-x="285" 
d="M96 650q0 -29 -14 -60h-25q0 3 4.5 17t4.5 16l-6 6q-9 8 -18 26v45h22q28 -5 32 -13v-37zM241 650q0 -29 -14 -60h-25q0 3 4.5 17t4.5 16l-6 6q-9 8 -18 26v45h22q28 -5 32 -13v-37z" />
    <glyph glyph-name="ellipsis" unicode="&#x2026;" horiz-adv-x="470" 
d="M123 18l-3 -3q-4 -3 -18 -3q-29 0 -41 16l-12 24v60h30q15 -3 29 -5q8 -11 15 -22v-67zM273 13l-3 -3q-4 -3 -18 -3q-29 0 -41 16l-12 24v60h30q15 -3 29 -5q8 -11 15 -22v-67zM408 8l-3 -3q-4 -3 -18 -3q-29 0 -41 16l-12 24v60h30q15 -3 29 -5q8 -11 15 -22v-67z" />
  </font>
</defs>
</svg>
