<?xml version="1.0" standalone="no"?>
<!DOCTYPE svg PUBLIC "-//W3C//DTD SVG 1.1//EN" "http://www.w3.org/Graphics/SVG/1.1/DTD/svg11.dtd" >
<svg xmlns="http://www.w3.org/2000/svg" xmlns:xlink="http://www.w3.org/1999/xlink" version="1.1">
<metadata>
Created by FontForge 20230101 at Wed May 27 19:24:24 1931
 By Glenn Lewis
http://members.aol.com/vroomfonde/ttf/ - Tombats One Copyright (c) 1997 Tom Murphy 7 - All rights reserved - Freeware! Use as you like, but do not sell! (On cd, for instance!) - ImightbeTM@aol.com - Support Free Typography! - Tom Murphy 7 - 339 Stil
</metadata>
<defs>
<font id="Tombats-One" horiz-adv-x="640" >
  <font-face 
    font-family="Tombats"
    font-weight="400"
    font-stretch="normal"
    units-per-em="1000"
    panose-1="0 0 0 0 0 0 0 0 0 0"
    ascent="800"
    descent="-200"
    x-height="722"
    cap-height="743"
    bbox="-76 -176 1490 828"
    underline-thickness="20"
    underline-position="-143"
    unicode-range="U+0020-0192"
  />
<missing-glyph horiz-adv-x="800" 
d="M50 0v800h700v-800h-700zM700 50v700h-600v-700h600z" />
    <glyph glyph-name=".notdef" horiz-adv-x="800" 
d="M50 0v800h700v-800h-700zM700 50v700h-600v-700h600z" />
    <glyph glyph-name=".null" horiz-adv-x="0" 
 />
    <glyph glyph-name="nonmarkingreturn" horiz-adv-x="500" 
 />
    <glyph glyph-name="space" unicode=" " horiz-adv-x="500" 
 />
    <glyph glyph-name="A" unicode="A" horiz-adv-x="630" 
d="M611 224q0 -31 -23 -60q-31 -39 -82 -39q-19 0 -50 15t-48 28q-15 -41 -20 -49q-21 -34 -60 -34q-23 0 -46 17q-4 3 -26.5 25.5t-24.5 47t-6 24.5q-13 -12 -23 -18q-31 -18 -70 -18q-34 0 -61 26q-30 29 -30 70q0 67 30 93l50 40q-31 4 -64 37q-36 36 -36 69q0 66 52 108
q40 33 74 33q32 0 59 -16q20 -12 55 -47q21 39 30 50q20 23 49 23q40 0 58 -31q12 -35 25 -69q20 8 31 12q34 12 52 12q40 0 68 -32q23 -26 23 -63q0 -44 -26 -87q-17 -29 -43 -52l52 -46q31 -32 31 -69zM577 476q0 35 -21 56t-46 21q-64 0 -95 -44q32 -22 55 -80
q15 -40 22 -80q35 9 60 44t25 83zM397 554q0 37 -21 60q-17 19 -35 19q-19 0 -37.5 -21.5t-18.5 -40.5q0 -9 1 -13.5t9 -21.5q21 6 35 6q19 0 65 -16zM591 224q0 28 -23 54.5t-60 43.5h-13q0 -64 -50 -95q-24 -15 -47 -29q25 -11 61 -35q27 -18 47 -18q28 0 54 20
q31 24 31 59zM475 314q0 64 -33 126q-42 79 -114 79q-53 0 -90 -47.5t-37 -97.5q0 -60 44 -109.5t111 -49.5q46 0 82.5 34t36.5 65zM265 522v10q-25 45 -55.5 66t-60.5 21q-32 0 -67 -32q-41 -38 -41 -86q0 -37 42 -68q38 -28 71 -28q26 0 39 29q34 75 72 88zM385 163
q0 28 -49.5 33t-77.5 26l-11 -40q0 -19 31 -48t49 -29q16 0 35 16q23 19 23 42zM235 239q-23 31 -39 63q-19 36 -19 70q3 6 4 10h-17l-76 -44q-31 -32 -31 -78q0 -32 28 -56q24 -21 47 -21q35 0 69 21.5t34 34.5z" />
    <glyph glyph-name="B" unicode="B" horiz-adv-x="810" 
d="M779 519q0 -67 -41 -104q-31 -28 -96 -48q37 -24 52 -55.5t15 -77.5q0 -52 -40 -78q-34 -22 -88 -22q-21 0 -47 10.5t-42 25.5q-2 -3 -3 -4l-2 -2q6 -35 8 -53q9 -57 10 -61q15 16 30 33q25 23 48 23q21 0 33 -9q4 -3 23 -24v-23q-41 0 -79 -10q-63 -16 -63 -52
q0 -19 18 -61.5t43 -73.5v-14h-10q-41 73 -53 105q-7 18 -7 34q0 10 -3 18q-38 -37 -62 -52q-20 -12 -35 -12q-5 0 -18.5 2t-16.5 2q-12 0 -32 -7h-10v14q29 37 57 57q34 24 69 24q17 0 38 -8h15q-2 10 -2 25q0 10 0.5 13.5t2.5 5.5l-3 39q-4 40 -10 51q-21 -44 -54 -68
q-38 -28 -93 -28q-41 0 -54.5 11.5t-13.5 35.5q0 15 1 24q5 44 5 48q0 11 -1 17q-13 -8 -25 -16q-13 -6 -44 -6q-49 0 -73.5 29.5t-24.5 73.5q0 28 11.5 49t35.5 40q-75 25 -89 36q-26 20 -26 76q0 63 47 77l78 12q-15 20 -15 49q0 48 29 78t77 30q37 0 61 -20
q18 -15 35 -47q14 52 44 81q34 32 85 32q85 0 96 -67q2 -30 5 -60q20 15 32.5 18t39.5 3q55 0 93.5 -38.5t38.5 -100.5zM765 518q0 45 -32 83q-36 43 -88 43t-83 -37q27 -18 40 -73q9 -38 9 -75v-19q0 -10 -1 -24.5t-12 -35.5h34q73 29 83 36q50 35 50 102zM561 670
q0 31 -26.5 56.5t-62.5 25.5q-30 0 -65 -26.5t-46 -68.5h97q18 0 44 -11t40 -25q7 14 15 28q4 10 4 21zM328 651q-34 53 -80 53q-35 0 -63 -29t-28 -63q0 -16 11.5 -34t32.5 -27q0 40 59 72zM695 233q0 55 -30.5 93t-61.5 38q-29 -50 -58 -91q-32 -45 -73 -53l3 -10
q26 -28 52 -45t58 -17q42 0 74 21q36 24 36 64zM595 457q0 79 -38 126q-48 59 -148 59q-103 0 -159 -52q-63 -59 -63 -183q0 -79 61.5 -131t145.5 -52q100 0 158 98q43 72 43 135zM625 63q-29 31 -44 31q-13 0 -34 -22q-15 -16 -29 -32q27 15 45 19t62 4zM184 537
q-12 1 -29.5 4t-22.5 3q-34 0 -59.5 -19.5t-25.5 -50.5q0 -37 32 -68q29 -28 56 -28q7 0 19 3t20 3q0 72 3 99t7 54zM461 170q0 25 -5.5 33.5t-19.5 8.5q-6 0 -27 -4t-36 -4q-25 0 -52 13h-16q-2 -13 -11 -28q-19 -33 -19 -55q0 -27 15.5 -47.5t41.5 -20.5q48 0 93 36
q36 29 36 68zM285 227q-53 29 -78 60t-29 80q-24 -22 -42 -46q-23 -30 -23 -48q0 -22 21 -53q27 -40 66 -40q23 0 41 12q24 20 44 35zM472 3l-31 3q-46 0 -74 -22q-26 -28 -36 -38h50q47 21 67 34q15 17 24 23z" />
    <glyph glyph-name="C" unicode="C" horiz-adv-x="785" 
d="M774 524q0 -67 -41 -104q-31 -28 -96 -48q37 -24 52 -55.5t15 -77.5q0 -52 -40 -78q-34 -22 -88 -22q-21 0 -47 10.5t-42 25.5q-2 -3 -3 -4l-2 -2q6 -35 8 -53q9 -57 10 -61q15 16 30 33q25 23 48 23q21 0 33 -9q4 -3 23 -24v-23q-41 0 -79 -10q-63 -16 -63 -52
q0 -19 18 -61.5t43 -73.5v-14h-10q-41 73 -53 105q-7 18 -7 34q0 10 -3 18q-38 -37 -62 -52q-20 -12 -35 -12q-5 0 -18.5 2t-16.5 2q-12 0 -32 -7h-10v14q29 37 57 57q34 24 69 24q17 0 38 -8h15q-2 10 -2 25q0 10 0.5 13.5t2.5 5.5l-3 39q-4 40 -10 51q-21 -44 -54 -68
q-38 -28 -93 -28q-41 0 -54.5 11.5t-13.5 35.5q0 15 1 24q5 44 5 48q0 11 -1 17q-13 -8 -25 -16q-13 -6 -44 -6q-49 0 -73.5 29.5t-24.5 73.5q0 28 11.5 49t35.5 40q-75 25 -89 36q-26 20 -26 76q0 63 47 77l78 12q-15 20 -15 49q0 48 29 78t77 30q37 0 61 -20
q18 -15 35 -47q14 52 44 81q34 32 85 32q85 0 96 -67q2 -30 5 -60q20 15 32.5 18t39.5 3q55 0 93.5 -38.5t38.5 -100.5zM760 523q0 45 -32 83q-36 43 -88 43t-83 -37q27 -18 40 -73q9 -38 9 -75v-19q0 -10 -1 -24.5t-12 -35.5h34q73 29 83 36q50 35 50 102zM556 675
q0 31 -26.5 56.5t-62.5 25.5q-30 0 -65 -26.5t-46 -68.5h97q18 0 44 -11t40 -25q7 14 15 28q4 10 4 21zM323 656q-34 53 -80 53q-35 0 -63 -29t-28 -63q0 -16 11.5 -34t32.5 -27q0 40 59 72zM690 238q0 55 -30.5 93t-61.5 38q-29 -50 -58 -91q-32 -45 -73 -53l3 -10
q26 -28 52 -45t58 -17q42 0 74 21q36 24 36 64zM590 462q0 79 -38 126q-48 59 -148 59q-103 0 -159 -52q-63 -59 -63 -183q0 -79 61.5 -131t145.5 -52q100 0 158 98q43 72 43 135zM620 68q-29 31 -44 31q-13 0 -34 -22q-15 -16 -29 -32q27 15 45 19t62 4zM179 542
q-12 1 -29.5 4t-22.5 3q-34 0 -59.5 -19.5t-25.5 -50.5q0 -37 32 -68q29 -28 56 -28q7 0 19 3t20 3q0 72 3 99t7 54zM456 175q0 25 -5.5 33.5t-19.5 8.5q-6 0 -27 -4t-36 -4q-25 0 -52 13h-16q-2 -13 -11 -28q-19 -33 -19 -55q0 -27 15.5 -47.5t41.5 -20.5q48 0 93 36
q36 29 36 68zM280 232q-53 29 -78 60t-29 80q-24 -22 -42 -46q-23 -30 -23 -48q0 -22 21 -53q27 -40 66 -40q23 0 41 12q24 20 44 35zM467 8l-31 3q-46 0 -74 -22q-26 -28 -36 -38h50q47 21 67 34q15 17 24 23zM423 479h-10q-6 13 -9.5 31.5t-7.5 28.5v17h10l17 -64v-13z
M343 469h-10q-9 24 -18 55q-1 4 -3 9q4 4 4 6q15 -9 17 -25.5t10 -31.5v-13zM517 402q-29 -30 -53 -49q-47 -38 -104 -38q-63 0 -104 54v10l7 4q15 -23 40 -40.5t58 -17.5q50 0 97 39q29 25 59 51v-13z" />
    <glyph glyph-name="D" unicode="D" horiz-adv-x="805" 
d="M779 524q0 -67 -41 -104q-31 -28 -96 -48q37 -24 52 -55.5t15 -77.5q0 -52 -40 -78q-34 -22 -88 -22q-21 0 -47 10.5t-42 25.5q-2 -3 -3 -4l-2 -2q6 -35 8 -53q9 -57 10 -61q15 16 30 33q25 23 48 23q21 0 33 -9q4 -3 23 -24v-23q-41 0 -79 -10q-63 -16 -63 -52
q0 -19 18 -61.5t43 -73.5v-14h-10q-41 73 -53 105q-7 18 -7 34q0 10 -3 18q-38 -37 -62 -52q-20 -12 -35 -12q-5 0 -18.5 2t-16.5 2q-12 0 -32 -7h-10v14q29 37 57 57q34 24 69 24q17 0 38 -8h15q-2 10 -2 25q0 10 0.5 13.5t2.5 5.5l-3 39q-4 40 -10 51q-21 -44 -54 -68
q-38 -28 -93 -28q-41 0 -54.5 11.5t-13.5 35.5q0 15 1 24q5 44 5 48q0 11 -1 17q-13 -8 -25 -16q-13 -6 -44 -6q-49 0 -73.5 29.5t-24.5 73.5q0 28 11.5 49t35.5 40q-75 25 -89 36q-26 20 -26 76q0 63 47 77l78 12q-15 20 -15 49q0 48 29 78t77 30q37 0 61 -20
q18 -15 35 -47q14 52 44 81q34 32 85 32q85 0 96 -67q2 -30 5 -60q20 15 32.5 18t39.5 3q55 0 93.5 -38.5t38.5 -100.5zM765 523q0 45 -32 83q-36 43 -88 43t-83 -37q27 -18 40 -73q9 -38 9 -75v-19q0 -10 -1 -24.5t-12 -35.5h34q73 29 83 36q50 35 50 102zM561 675
q0 31 -26.5 56.5t-62.5 25.5q-30 0 -65 -26.5t-46 -68.5h97q18 0 44 -11t40 -25q7 14 15 28q4 10 4 21zM328 656q-34 53 -80 53q-35 0 -63 -29t-28 -63q0 -16 11.5 -34t32.5 -27q0 40 59 72zM695 238q0 55 -30.5 93t-61.5 38q-29 -50 -58 -91q-32 -45 -73 -53l3 -10
q26 -28 52 -45t58 -17q42 0 74 21q36 24 36 64zM595 462q0 79 -38 126q-48 59 -148 59q-103 0 -159 -52q-63 -59 -63 -183q0 -79 61.5 -131t145.5 -52q100 0 158 98q43 72 43 135zM625 68q-29 31 -44 31q-13 0 -34 -22q-15 -16 -29 -32q27 15 45 19t62 4zM184 542
q-12 1 -29.5 4t-22.5 3q-34 0 -59.5 -19.5t-25.5 -50.5q0 -37 32 -68q29 -28 56 -28q7 0 19 3t20 3q0 72 3 99t7 54zM461 175q0 25 -5.5 33.5t-19.5 8.5q-6 0 -27 -4t-36 -4q-25 0 -52 13h-16q-2 -13 -11 -28q-19 -33 -19 -55q0 -27 15.5 -47.5t41.5 -20.5q48 0 93 36
q36 29 36 68zM285 232q-53 29 -78 60t-29 80q-24 -22 -42 -46q-23 -30 -23 -48q0 -22 21 -53q27 -40 66 -40q23 0 41 12q24 20 44 35zM472 8l-31 3q-46 0 -74 -22q-26 -28 -36 -38h50q47 21 67 34q15 17 24 23zM401 519h-10v60h10v-60zM341 502h-10q-11 15 -15 23
q-8 14 -8 31h10q4 -12 10 -22q12 -20 13 -22v-10zM508 425l-2 -83h-11q-6 10 -23.5 30.5t-36.5 39.5q-2 -7 -4.5 -31t-2.5 -42q0 -29 6 -37h-16l-47 73q-1 -8 -1 -26v-61h-12q-27 40 -53 81q-4 -9 -8.5 -36.5t-5.5 -30.5h-10v16q7 18 9.5 37.5t7.5 33.5h10q9 -11 26 -36
q14 -21 21 -31q4 17 4 33q-1 18 -1 26q0 11 7 24h10q7 -19 15.5 -34.5t24.5 -35.5q6 18 6 24v76q17 -3 34.5 -22.5t36.5 -40.5q5 11 6 27.5t10 25.5z" />
    <glyph glyph-name="E" unicode="E" horiz-adv-x="582" 
d="M564 479q0 -54 -35 -132t-35 -155v-91q0 -30 -37.5 -45t-95.5 -15q-24 0 -75 6q-4 1 -83 11q-46 6 -49 9q-14 16 -14 108l-4 60q-47 39 -76 97q-32 63 -32 153q0 145 60 209q51 55 148 55q46 0 83.5 -11t82 -31.5t65.5 -37.5q14 -11 47 -47q8 -8 15 -25.5t15 -17.5
q7 -22 10 -35q10 -40 10 -65zM550 479q0 45 -33 103q-28 50 -57 74.5t-106.5 52.5t-118.5 28q-82 0 -131 -50q-62 -64 -62 -200q0 -44 10 -83q17 -67 61 -119q36 -43 40 -70q8 -70 17 -140q27 -4 37 -4q8 0 19 4l-1 150h16l2 -163q11 4 18 4q4 0 15 -2.5t21 -2.5
q-3 15 -5.5 60.5t-4.5 86.5h16l10 -150q10 0 21 -0.5t24 -0.5q11 0 15 1l-21 142q4 4 5 8h13q6 -13 13 -65.5t7 -87.5q5 2 17 4t16 2l-13 131l3 23h14l13 -147q40 10 40 40v74q0 83 22 142q48 128 48 155zM426 464q0 -81 -58 -81q-17 0 -27.5 16.5t-10.5 36.5q0 35 21 72
t36 37q14 0 26.5 -22t12.5 -59zM272 459q0 -45 -18.5 -62.5t-58.5 -17.5q-30 0 -42.5 29t-12.5 70q0 43 13 87q18 62 53 62q22 0 42 -44q24 -52 24 -124z" />
    <glyph glyph-name="F" unicode="F" horiz-adv-x="880" 
d="M646 573q0 -102 -25 -160q-28 -50 -55 -99q6 -32 9 -49q9 -52 9 -66q0 -25 -103 -25q-25 0 -42 2q-60 7 -74 7q-29 0 -82 -6q-6 29 -15 52q-20 53 -22 61q-1 7 0 20.5t0 16.5q-46 38 -72 81.5t-26 107.5q0 113 70.5 187.5t182.5 74.5q55 0 134 -36.5t99 -77.5
q6 -12 9 -35t3 -56zM844 169q0 -44 -67.5 -47.5t-89.5 -11.5q-56 -21 -79 -29t-88 -31q4 -4 86.5 -37t85.5 -33q19 15 37 26q22 14 36 14q28 0 44.5 -15.5t16.5 -40.5q0 -27 -4 -39q-8 -13 -15 -26q-4 -24 -7 -49q-12 -26 -74 -26q-51 0 -63.5 10.5t-12.5 41.5v18
q-12 9 -20 14q-50 33 -97 52q-35 15 -65 27q-47 19 -52 19q-13 -7 -26 -12q-24 -10 -54 -18q-8 -2 -45 -6t-51 -7q-85 -21 -107 -58q-18 -29 -53 -29q-20 0 -32 10t-12 34q0 15 6 27q2 4 6 9q-7 7 -10 12q-10 15 -10 27q0 11 11.5 23.5t22.5 12.5q25 0 37 -9l18 -22
q44 21 95.5 37t90.5 16l7 7q-41 22 -47 25t-67 25q-11 -17 -19 -22q-17 -12 -45 -12q-33 0 -58.5 11t-25.5 37q0 23 25 36q-15 33 -15 54q5 24 10 35q16 35 49 35q31 0 45 -21q48 -74 98 -103l76 -44l83 -30q79 34 148 61q76 30 113 33v27q0 21 16.5 36t29.5 15q8 0 29 -12
q11 -7 22 -13q3 1 9 2t9 1q21 0 32 -11q17 -16 17 -56zM634 566q0 42 -8 68.5t-19 39.5q-27 32 -97 61t-111 29q-129 0 -193 -101q-44 -69 -44 -145q0 -37 17.5 -79t56.5 -79q23 -22 37 -101q7 -39 30 -66h111v127l17 -3l2 -127h60v30q-5 12 -7.5 31.5t-5.5 31.5v30l17 -3
l16 -120h17q10 5 17 6t20 4q0 32 -5 58.5t-10 55.5q33 59 57.5 121.5t24.5 130.5zM830 167q0 18 -13.5 37.5t-23.5 19.5q-13 0 -23 -14.5t-13 -29.5h-17v27l21 20q-12 2 -23.5 9.5t-12.5 7.5q-7 0 -19 -15t-12 -20q2 -7 4 -17t2 -22q-23 0 -52 -10q-41 -14 -205 -80
q17 -4 28.5 -9.5t22.5 -10.5q19 0 118.5 36t114.5 51h17q4 -15 13 -15q9 2 15 2q24 0 41 12.5t17 20.5zM814 -38q0 16 -15 30t-34 14q-12 0 -39 -20t-38 -20q-3 0 -46 16q-55 20 -109 41q-33 12 -63 24.5t-88 34.5t-87 37q-32 21 -62 38q-54 31 -76 78q-16 35 -42 35
q-14 0 -28.5 -19.5t-14.5 -35.5q4 -17 7 -25q11 -26 28 -26q10 0 24.5 4.5t21.5 4.5v-16q-17 -6 -54 -9.5t-37 -22.5q0 -16 35 -27q11 -3 36 -8q21 0 32.5 8t17.5 32h17q18 -12 114 -55l192 -86q111 -52 174 -90v-16q-10 0 -20 -4q10 -22 16 -28q14 -15 52 -15q32 0 46 10
q20 14 20 52q0 18 -9 33t-20 15q-4 0 -6 -2q-6 -8 -9 -11h-13v17q5 5 12 9.5t20 4.5t23.5 -9.5t14.5 -25.5q2 4 2 6q5 17 5 27zM400 10q-28 10 -45 19q-31 17 -32 17q-32 0 -110 -30t-99 -30q-8 0 -26 18q-10 10 -26 10l-20 -18q0 -17 27 -25q17 -5 40 -5v-20q-14 3 -26 3
t-18 -2q-17 -6 -17 -25q0 -9 12.5 -20.5t21.5 -11.5q18 0 29 10t11 17q0 24 7 26q25 7 51 13q44 16 104.5 29.5t115.5 24.5zM542 498q0 -78 -66 -78q-16 0 -28 15t-12 41q0 24 19 63t40 39q16 0 31.5 -23t15.5 -57zM390 534q0 -44 -11 -69q-17 -37 -58 -37q-39 0 -53 32
q-8 19 -8 59q0 54 19.5 93.5t56.5 39.5q38 0 49 -42q5 -19 5 -76zM366 203h-20q8 11 8 25q0 6 -4 25t-4 33q0 21 7 34q2 -6 5.5 -47.5t7.5 -69.5z" />
    <glyph glyph-name="G" unicode="G" horiz-adv-x="915" 
d="M874 606q0 -27 -25 -75q-28 -48 -55 -95q6 -10 8 -18q8 -24 8 -54q0 -52 -15.5 -120t-27.5 -91q-35 -63 -134 -114q-87 -45 -142 -45q-106 0 -163 19q-37 21 -74 43q-24 -9 -53.5 -15.5t-58.5 -6.5q-44 0 -75 17t-31 52q0 37 31 78l72 82q1 3 -2.5 15.5t-3.5 24.5v134
q0 54 26 119q23 59 51 88q73 77 114 97.5t90 20.5q39 0 76 -13q35 -14 57 -22q66 -25 95 -67q11 -16 20 -16q21 10 55 17t70 7q50 0 68.5 -11.5t18.5 -50.5zM736 585q0 11 -9 20q-2 2 -10 9l-27 -4q10 -7 20 -22t20 -31q2 5 5 21q0 2 1 7zM720 537q-6 4 -20 35l-6 15l-87 94
q-22 17 -99.5 42t-94.5 25q-122 0 -199 -125q-68 -111 -68 -251q0 -81 21 -147q17 -55 28 -55q13 0 38 9q38 14 110 51q40 21 76.5 43t63.5 44l142 114q8 7 95 106zM860 614q0 20 -15.5 30t-59.5 10q-37 0 -68.5 -7.5t-46.5 -19.5q13 2 23.5 3.5t17.5 1.5q19 0 31 -10
t12 -35q0 -38 -17 -64t-76 -77q-86 -73 -171 -146q-73 -62 -185 -111q-99 -43 -149 -43q-21 0 -34.5 7t-13.5 25q0 12 9 31l22 38q-40 -54 -65.5 -90.5t-25.5 -51.5q0 -23 41 -43q33 -16 54 -16q42 0 145 43q79 33 180 86q86 45 109 62q106 78 197 203q86 119 86 174z
M796 362q0 28 -12 55l-70 -74q-90 -98 -191 -163q-95 -61 -243 -120l44 -22q56 -28 138 -28q53 0 96 13.5t76 36.5q78 51 104 86q58 77 58 216zM173 163q-3 5 -12 28t-18 35q-3 -9 -10 -21.5t-7 -19.5q0 -16 15 -20q5 -1 15 -1z" />
    <glyph glyph-name="H" unicode="H" horiz-adv-x="735" 
d="M720 526q0 -51 -66 -102l-104 -76l96 -278q-3 -13 -6 -14.5t-14 -1.5q-16 0 -37 17q-37 30 -69 49q-42 24 -60 34q-30 18 -47 36q-43 -50 -80 -87q-76 -77 -105 -77q-12 0 -14 6q0 21 -4 39l50 258q-87 64 -138 105q-55 44 -73 71v14l237 -15q14 32 25 65q18 54 39 132
q4 15 9 30q11 27 25 27q16 0 50 -74q27 -58 39 -97q1 -2 6 -27.5t21 -25.5q171 10 197 10q23 0 23 -18zM704 530l-234 -13q0 47 -34.5 124t-55.5 96q-30 -72 -56 -176q-16 -64 -35 -73l-223 21q40 -42 102 -87q108 -77 108 -88q0 -1 -25 -120t-25 -159q0 -5 4 -15
q48 28 92.5 74.5t90.5 95.5l215 -144l6 4q-42 93 -83 225q-17 55 -17 62q0 4 7 6t9 4q40 29 76.5 58.5t43.5 38.5q10 9 20 19q14 18 14 47z" />
    <glyph glyph-name="I" unicode="I" horiz-adv-x="760" 
d="M720 511q0 -51 -66 -102l-104 -76l96 -278q-3 -13 -6 -14.5t-14 -1.5q-16 0 -37 17q-37 30 -69 49q-42 24 -60 34q-30 18 -47 36q-43 -50 -80 -87q-76 -77 -105 -77q-12 0 -14 6q0 21 -4 39l50 258q-89 64 -143.5 106t-72.5 70v14l242 -15q14 32 25 65q18 54 39 132
q4 15 9 30q11 27 25 27q16 0 50 -74q27 -58 39 -97q1 -2 6 -27.5t21 -25.5q171 10 197 10q23 0 23 -18zM704 515l-234 -13q0 47 -34.5 124t-55.5 96q-30 -72 -56 -176q-16 -64 -35 -73l-228 21q39 -42 104 -87q111 -77 111 -88q0 -1 -25 -120t-25 -159q0 -5 4 -15
q48 28 92.5 74.5t90.5 95.5l215 -144l6 4q-42 93 -83 225q-17 55 -17 62q0 4 7 6t9 4q40 29 76.5 58.5t43.5 38.5q10 9 20 19q14 18 14 47zM433 412h-10q-4 11 -7 22.5t-6 20.5l3 34q6 -8 11.5 -31.5t8.5 -45.5zM383 415l-19 -3q5 11 5 22q0 7 -1 13q-4 23 -4 35h9
q0 -8 3 -27.5t7 -39.5zM496 358q0 -16 -21.5 -29.5t-62.5 -13.5q-61 0 -86 24q3 3 7 6q11 -8 32 -14t49 -6q31 0 46 9q16 15 33 31z" />
    <glyph glyph-name="J" unicode="J" horiz-adv-x="715" 
d="M700 526q0 -51 -66 -102l-104 -76l96 -278q-3 -13 -6 -14.5t-14 -1.5q-16 0 -37 17q-37 30 -69 49q-42 24 -60 34q-30 18 -47 36q-43 -50 -80 -87q-76 -77 -105 -77q-12 0 -14 6q0 21 -4 39l50 258q-87 58 -138 95q-56 40 -73 66q2 7 3 13.5t3 8.5t19 2q34 0 126 -5
q30 -1 86 -5q14 32 25 65q18 54 39 132q4 15 9 30q11 27 25 27q16 0 50 -74q27 -58 39 -97q1 -2 6 -27.5t21 -25.5q171 10 197 10q23 0 23 -18z" />
    <glyph glyph-name="K" unicode="K" horiz-adv-x="830" 
d="M791 368q0 -5 -35.5 -30t-83.5 -50l83 -160v-13h-53q-31 6 -47 8q-49 8 -60 8q-1 -3 -2 -4.5t-2 -2.5q3 -11 5 -18q14 -40 33 -78v-20h-14q-9 8 -58 38q-25 15 -69 45q-9 -22 -16 -62t-7 -71h-13q-19 22 -38 57q-27 49 -39 66q-14 -6 -37.5 -34.5t-39.5 -61.5h-13l-6 30
t-7 29.5t-8 40.5t-11 26q-6 0 -24 -18q-53 -54 -58 -58h-16v140h-57q-7 -3 -20 -7t-20 -7h-14v10q16 31 33 62t31 49q-16 12 -43.5 18t-27.5 19q0 5 31 35q35 34 70 58q-8 14 -35 28q-14 8 -59 29v10q31 14 57 25q52 23 52 27q0 3 -27 43.5t-32 47.5v12q17 7 34 7
q11 0 36 -4t34 -4q11 0 17 1l3 132l8 3q8 0 95 -90q7 8 11 16q14 24 29 68h14q12 -20 24 -40.5t23 -40.5q26 32 40 48q43 49 52 49q13 0 19 -35q11 -60 20 -85q15 8 30 18q22 14 92 45h20v-43q-4 -10 -27 -83q-11 -35 -23 -54l12 -3l132 13v-17q-36 -52 -70 -91
q-22 -25 -30 -35q15 -13 40 -21.5t60 -8.5zM769 365q-37 9 -57.5 15t-39.5 12v13q6 16 30 44q57 67 67 86l-137 -10v24q4 7 26.5 69.5t22.5 78.5l1 12q-21 -11 -77 -39q-75 -38 -77 -38q2 25 4 37.5t2 17.5q0 2 -7 23q-10 30 -15 49q-65 -65 -84 -100h-20q-3 30 -18 54
q-10 17 -22 26q-26 -80 -48 -80q-3 0 -24 21q-7 7 -21 22q-9 8 -18 17q-12 12 -26 30v-103q0 -15 -9.5 -21.5t-26.5 -6.5q-11 0 -40 4t-44 4q11 -9 21 -27q19 -33 42 -64v-23q-27 0 -56 -13q-22 -10 -44 -27q45 -17 69 -36q18 -14 18 -22q0 -5 -25 -23q-33 -24 -82 -73
q18 -3 37 -6q32 -8 32 -27q0 -12 -27.5 -55.5t-32.5 -48.5q19 3 37.5 5.5t34.5 2.5q19 0 36 -5l-3 -133q9 14 40 43t43 37h20l24 -120q6 16 33 50q32 40 48 40q7 0 37 -48t39 -68q0 38 12.5 81t24.5 43q6 0 58 -33.5t60 -40.5q-9 24 -17.5 49.5l-14.5 43.5v20q30 0 102 -13
q39 -7 58 -7q-3 9 -54 105q-22 41 -22 52q0 10 33 33q43 30 77 47zM611 367q0 -103 -57 -156q-50 -46 -131 -46q-109 0 -168.5 53.5t-59.5 145.5q0 104 54 157q47 46 124 46q31 0 61.5 -7t63.5 -15q27 0 63 -39q50 -54 50 -139zM599 366q0 105 -94 154q-63 33 -134 33
q-75 0 -119.5 -52t-44.5 -135q0 -97 82 -148q63 -39 136 -39q81 0 130 59q44 53 44 128zM446 419h-10v46h10v-46zM395 402h-9q0 22 1 33.5t8 29.5v-63zM512 312q-26 -19 -52 -37q-21 -12 -62 -12q-26 0 -56.5 18.5t-30.5 32.5q2 2 4 8q5 -2 33 -28q23 -21 51 -21q30 0 59 16
q18 10 44 33h10v-10z" />
    <glyph glyph-name="L" unicode="L" horiz-adv-x="720" 
d="M696 471q0 -109 -31 -206q-39 -122 -117 -194q-94 -87 -233 -87q-69 0 -148 36q-102 46 -134 123v10q37 0 75.5 6t75.5 17q58 17 102.5 49t79.5 85q41 62 54 95q22 55 22 131q0 64 -15 114l-44 108q7 2 19.5 3t18.5 1q85 0 164 -58q111 -81 111 -233zM684 469
q0 97 -49 163q-45 61 -138 102q-10 5 -21 6t-24 1q-12 0 -23 0.5t-26 6.5q32 -50 45 -123q8 -45 8 -87q0 -85 -33 -164.5t-77 -116.5q11 -9 18 -15q16 -12 33 -12q25 0 62.5 23t53.5 44h14v-17q-28 -25 -61 -43q-41 -23 -70 -23q-33 0 -43 6q-11 13 -20 23q-61 -54 -121 -74
q-43 -14 -163 -29q63 -70 134 -107t133 -37q166 0 271 149q97 137 97 324zM552 509q0 -4 -5 -24q-1 -4 -7 -25h-13v10q6 17 10.5 27.5t8.5 16.5q1 -3 3 -4t3 -1zM510 524q1 -8 1 -12q0 -13 -3.5 -25.5t-7.5 -26.5h-13q3 19 7 38q5 17 16 26z" />
    <glyph glyph-name="M" unicode="M" horiz-adv-x="480" 
d="M460 599q-17 -21 -36 -52q-52 -85 -67.5 -105.5t-67.5 -87.5q-38 -49 -49 -66l16 -3q38 0 81 5.5t83 11.5v-10q-15 -16 -96 -109.5t-151 -176.5q-87 -105 -114 -142h-10v17q9 15 49 104q47 105 95 210q-15 4 -34 4q-13 0 -37 -3t-33 -3q-6 0 -16 2v10q18 33 42.5 69
t50.5 75q3 5 55 86q23 36 20 58q-43 -16 -74 -27.5t-64 -33.5h-10v13l127 311q21 -5 61 -9t86 -4v-24q-57 -79 -67 -90q-18 -19 -27 -30q5 -1 10.5 -1.5t11.5 -0.5q19 0 76.5 7.5t88.5 7.5v-13zM440 599l-187 -20v20q14 12 56 68q37 50 44 62q-35 0 -60.5 2t-59.5 8
l-117 -280q36 21 65 30q58 18 69 26h23v-20l-177 -285h114v-22q-6 -8 -48 -114q-25 -64 -79 -156q19 23 124 152q85 105 113 138q51 61 67 74l-171 -14v17q24 20 81 101q44 61 92 135t51 78z" />
    <glyph glyph-name="N" unicode="N" 
d="M625 594q-17 -21 -36 -52q-52 -85 -67.5 -105.5t-67.5 -87.5q-38 -49 -49 -66l16 -3q38 0 81 5.5t83 11.5v-10q-15 -16 -96 -109.5t-151 -176.5q-87 -105 -114 -142h-10v17q9 15 49 104q47 105 95 210q-15 4 -34 4q-13 0 -37 -3t-33 -3q-6 0 -16 2v10q18 33 42.5 69
t50.5 75q3 5 55 86q23 36 20 58q-43 -16 -74 -27.5t-64 -33.5h-10v13l127 311q21 -5 61 -9t86 -4v-24q-57 -79 -67 -90q-18 -19 -27 -30q5 -1 10.5 -1.5t11.5 -0.5q19 0 76.5 7.5t88.5 7.5v-13zM451 6l-6 -10q-4 5 -4 14q-9 -4 -14 -4l2 6q6 5 12 8h10v-14zM522 -64
q-3 -9 -20 -23h-10l3 16q-11 1 -20.5 2.5t-16.5 4.5h64zM502 -14l-224 -113q10 25 97 66q108 51 117 57h10v-10zM485 -121l-150 -10q6 3 31.5 8.5t44.5 5.5h74v-4zM214 -71h-10q-4 17 -18.5 45.5t-27.5 48.5v13q15 -5 35.5 -45.5t20.5 -61.5zM194 -127h-13q-36 23 -54 34
q-54 36 -54 44q3 5 4 9h14q46 -40 66 -55.5t37 -21.5v-10zM148 -134q-4 -4 -12.5 -8t-11.5 -5h-36v14q13 -5 22 -5q5 0 11 3t12 3q8 0 15 -2zM51 -121q-9 -3 -12 -3q-3 1 -6.5 1.5t-11.5 5.5v16h12q5 -9 18 -20zM605 594l-187 -20v20q14 12 56 68q37 50 44 62q-35 0 -60.5 2
t-59.5 8l-117 -280q36 21 65 30q58 18 69 26h23v-20l-177 -285h114v-22q-6 -8 -48 -114q-25 -64 -79 -156q19 23 124 152q85 105 113 138q51 61 67 74l-171 -14v17q24 20 81 101q44 61 92 135t51 78z" />
    <glyph glyph-name="O" unicode="O" horiz-adv-x="1020" 
d="M995 457q0 -35 -12 -57q-14 -21 -27 -41v-77q0 -42 -26.5 -70.5t-67.5 -28.5q-16 0 -30.5 2.5t-39.5 12.5q-8 -32 -15 -43q-12 -20 -33 -20q-23 0 -40 12q-10 7 -35 35q-15 -15 -47.5 -25t-64.5 -10q-10 0 -16.5 1.5t-9.5 2.5q-13 5 -16 4q-12 -12 -22 -17
q-31 -17 -74 -17t-75 22q-28 25 -55 50q-7 -6 -13 -9q-20 -9 -54 -9q-85 0 -94 73q-64 7 -86 25q-25 21 -25 77q0 24 11 38q7 9 30 24q-13 20 -17 41t-4 38q0 50 29 72q22 17 61 17q19 0 35.5 -3.5t32.5 -7.5q17 21 39.5 37.5t44.5 16.5q11 0 21 -7q4 -2 15 -14q35 31 40 35
q39 30 59 30q29 0 56 -21.5t45 -63.5q30 43 64 67q42 30 89 30q30 0 78 -23q60 -29 66 -64q94 0 138.5 -29.5t44.5 -105.5zM983 455q0 49 -41.5 86.5t-96.5 37.5q-26 0 -49.5 -7t-40.5 -20h-16v10q9 10 23.5 17.5t39.5 12.5q-30 22 -60 45q-45 30 -76 30q-54 0 -105 -54
q-17 -18 -40 -55q2 -8 3 -17t1 -19h-17q-12 43 -23 86q-20 45 -74 45q-20 0 -51.5 -31.5t-34.5 -49.5h-20q-2 19 -9 28t-18 9q-14 0 -31 -12t-32 -35q5 -3 15.5 -11.5t14.5 -11.5v-17h-14q-14 18 -38 30q-29 15 -60 15q-39 0 -63 -28q-19 -22 -19 -46q0 -8 7.5 -34.5
t15.5 -43.5q9 4 17 4v-17l-30 -3q-14 -15 -18 -20q-12 -14 -12 -27q0 -28 21 -58.5t47 -30.5q11 0 24.5 4.5t20.5 4.5q0 -36 16 -57q20 -26 64 -26q12 0 25 4q25 8 29 9q-7 7 -7 12q3 4 4 11h40v-20l-10 -3q40 -34 57 -46q29 -21 59 -21q21 0 39.5 6.5t41.5 20.5
q-5 10 -5 21q0 5 1 9h14q10 -29 40 -29q78 0 105 26q5 7 11 14q7 0 31 -25t41 -25q19 0 27 18t8 44h21q8 -3 41 -13q24 -7 27 -7q34 0 56 28.5t22 64.5v87q16 14 25 29q16 25 16 51zM545 399h-13q-2 18 -8.5 31t-6.5 21q3 8 5 14q5 -6 13 -28t10 -28v-10zM498 385h-10
l-17 71q4 4 4 6h10q2 -10 7.5 -35t5.5 -42zM655 325q-35 -30 -86 -40q-29 -6 -70 -6q-44 0 -79.5 11t-48.5 35h14q28 -20 52.5 -28t63.5 -8q56 0 102 20l52 26v-10z" />
    <glyph glyph-name="P" unicode="P" horiz-adv-x="1000" 
d="M1015 452q0 -35 -12 -57q-14 -21 -27 -41v-77q0 -42 -26.5 -70.5t-67.5 -28.5q-16 0 -30.5 2.5t-39.5 12.5q-8 -32 -15 -43q-12 -20 -33 -20q-23 0 -40 12q-10 7 -35 35q-15 -15 -47.5 -25t-64.5 -10q-10 0 -16.5 1.5t-9.5 2.5q-13 5 -16 4q-12 -12 -22 -17
q-31 -17 -74 -17t-75 22q-28 25 -55 50q-7 -6 -13 -9q-20 -9 -54 -9q-85 0 -94 73q-64 7 -86 25q-25 21 -25 77q0 24 11 38q7 9 30 24q-13 20 -17 41t-4 38q0 50 29 72q22 17 61 17q19 0 35.5 -3.5t32.5 -7.5q17 21 39.5 37.5t44.5 16.5q11 0 21 -7q4 -2 15 -14q35 31 40 35
q39 30 59 30q29 0 56 -21.5t45 -63.5q30 43 64 67q42 30 89 30q30 0 78 -23q60 -29 66 -64q94 0 138.5 -29.5t44.5 -105.5zM882 113q-16 -28 -37 -60q-11 -17 -19 -37h-10q2 13 28.5 59t37.5 55v-17zM772 86q-3 -6 -9.5 -22.5t-17.5 -27.5v24q1 1 8.5 16t18.5 24v-14z
M715 86q-7 -11 -10 -21t-13 -19l-3 11q0 5 11 21t15 18v-10zM645 96l-18 -38l-8 -8q3 11 12.5 27t13.5 19zM792 -60q-7 -14 -12.5 -26.5t-20.5 -27.5v10q6 15 13 29q3 4 20 15zM588 113q-11 -19 -20 -30q-4 -5 -16 -17q8 20 13 30q12 22 23 27v-10zM695 -7q-3 -6 -5 -12
q-5 -9 -11 -15q3 14 5.5 22t10.5 15v-10zM695 -87q-8 -14 -16 -20q4 15 7 22t9 14v-16zM629 -30q-3 -16 -21 -34v17q13 12 21 17zM515 66q-1 -5 -9 -19.5t-21 -30.5v14q9 19 13.5 24.5t16.5 11.5zM585 -104l-13 -30v17zM418 56l-6 -18q-6 -16 -17 -25v10q3 8 6 17
q5 10 17 16zM522 -74q-1 -10 -5.5 -20t-11.5 -17v17q5 7 9 11.5t8 8.5zM488 -30q-8 -27 -11 -34q-6 -15 -15 -23v10q4 12 10 25t16 22zM348 90q-3 -12 -8 -21.5t-19 -25.5v10q4 12 8 25q1 2 19 12zM218 140q-2 -8 -4.5 -15.5t-19.5 -18.5v17q14 12 24 17zM258 126
q2 -17 -16 -47q-12 -20 -28 -39h-10q2 7 26 44t28 42zM398 -91q-2 -9 -10 -19t-17 -21v14q7 9 15 18q5 5 12 8zM301 -40q-12 -21 -17.5 -28.5t-18.5 -22.5v10q11 18 18 26.5t18 14.5zM218 -17l-2 -14q-6 -6 -12 -13q0 10 2 14.5t12 12.5zM143 26q0 -6 -4 -16l-8 -20
q-9 -20 -20 -33q-4 1 -8 1l6 12q9 17 12 26q9 24 16 31q3 -1 6 -1zM178 -107l-10 -17v17h10zM1003 450q0 49 -41.5 86.5t-96.5 37.5q-26 0 -49.5 -7t-40.5 -20h-16v10q9 10 23.5 17.5t39.5 12.5q-30 22 -60 45q-45 30 -76 30q-54 0 -105 -54q-17 -18 -40 -55q2 -8 3 -17
t1 -19h-17q-12 43 -23 86q-20 45 -74 45q-20 0 -51.5 -31.5t-34.5 -49.5h-20q-2 19 -9 28t-18 9q-14 0 -31 -12t-32 -35q5 -3 15.5 -11.5t14.5 -11.5v-17h-14q-14 18 -38 30q-29 15 -60 15q-39 0 -63 -28q-19 -22 -19 -46q0 -8 7.5 -34.5t15.5 -43.5q9 4 17 4v-17l-30 -3
q-14 -15 -18 -20q-12 -14 -12 -27q0 -28 21 -58.5t47 -30.5q11 0 24.5 4.5t20.5 4.5q0 -36 16 -57q20 -26 64 -26q12 0 25 4q25 8 29 9q-7 7 -7 12q3 4 4 11h40v-20l-10 -3q40 -34 57 -46q29 -21 59 -21q21 0 39.5 6.5t41.5 20.5q-5 10 -5 21q0 5 1 9h14q10 -29 40 -29
q78 0 105 26q5 7 11 14q7 0 31 -25t41 -25q19 0 27 18t8 44h21q8 -3 41 -13q24 -7 27 -7q34 0 56 28.5t22 64.5v87q16 14 25 29q16 25 16 51zM575 467q-4 -9 -8.5 -22.5t-8.5 -20.5h-10v10q1 2 11 27q6 15 16 23v-17zM478 400h-10q-3 14 -9.5 32t-10.5 25v13
q13 -6 18.5 -21.5t11.5 -31.5v-17zM622 330q-25 8 -37 11t-29 3q-25 0 -56.5 -13.5t-54.5 -33.5h-10q10 21 46.5 39t76.5 18q15 0 33.5 -3.5t30.5 -10.5v-10z" />
    <glyph glyph-name="Q" unicode="Q" horiz-adv-x="950" 
d="M915 481q0 -19 -23 -41q-46 -39 -90 -78q-13 -11 -51 -25q-70 -25 -70 -30q0 -6 19 -28q54 -64 62 -77q17 -28 31 -60.5t30 -32.5q10 0 16 -12t6 -29q0 -23 -17 -30q-8 -3 -24 -3q-33 0 -33 30q0 8 12 22t12 18q0 22 -34 72l-92 128l-91 -30q10 -18 18 -48q4 -18 9 -35
q5 3 8.5 5.5t8.5 5.5q5 0 10 -4q13 -10 13 -26q0 -14 -6 -22q-9 -12 -31 -12q-28 0 -28 17q0 7 7 23.5t5 22.5q-8 14 -14 33.5t-6 36.5h-30q-39 -13 -72.5 -18.5t-53.5 -5.5q-16 0 -26.5 1t-19.5 2q-10 0 -19 -6q-21 -50 -42.5 -100.5t-40.5 -83.5q7 -5 15 -11.5t8 -31.5
q0 -17 -7.5 -23t-29.5 -6q-43 0 -43 37q0 15 24 31q32 21 53 68l47 117q-10 3 -131 11q-58 4 -133 22q-15 4 -27.5 13.5t-12.5 20.5q26 34 42 53q51 58 95 83q20 11 26 42q12 64 24 99q22 62 93 107q79 50 182 50q77 0 144 -50q56 -42 75 -91l17 -40q48 -2 94 -12
q92 -21 92 -69zM725 500q0 17 -13.5 61t-19.5 55q-18 36 -85 74.5t-116 38.5q-126 0 -207 -79t-81 -198q4 -17 4 -26q0 -8 -4 -17l133 -10q40 0 96 6t113.5 15t106.5 30q73 32 73 50zM901 479q0 32 -75 53q-41 8 -81 17h-10v-10q9 -24 9 -37q0 -19 -21 -33q-21 -12 -34 -20
q-52 -33 -176 -52q-93 -14 -179 -14q-61 0 -86 2.5t-42 4.5q-7 0 -12 -1q0 8 -3 25t-3 35q-56 -49 -93.5 -86.5t-47.5 -60.5q50 -19 139 -31t150 -12q54 0 142 16q116 21 164 37q90 30 158 73q101 65 101 94zM831 68q0 6 -4 11q-8 10 -19 10q-4 -5 -7 -7q-11 -10 -16 -14
q12 -19 22 -19q6 0 15 5.5t9 13.5zM631 172l-3 10h-13q-8 -7 -12.5 -11.5t-7.5 -12.5q7 -4 15 -7q6 0 13.5 8.5t7.5 12.5zM278 8v17q-5 9 -23 21q-2 2 -8 5q-7 -4 -10 -6q-10 -8 -10 -17q0 -13 10.5 -20t18.5 -7zM514 558l-16 1l-6 77h16q0 -15 3 -39t3 -39zM438 542h-20
q5 6 5 18q0 1 -2.5 29.5t-2.5 42.5q8 -7 11 -21q4 -36 9 -69zM618 525q-27 -42 -58 -60q-37 -22 -97 -22q-46 0 -63 5q-35 10 -45 44q19 -7 41 -28q12 -11 69 -11q49 0 87 24t56 58h10v-10z" />
    <glyph glyph-name="R" unicode="R" horiz-adv-x="310" 
d="M278 600q0 -80 -33 -131q-38 -59 -43 -112l50 -337l-8 -62q-10 -38 -40 -38q-35 0 -52 28q-20 32 -20 115v27q0 14 5 53q1 13 6 40l5 127q0 81 -27 133q-59 114 -59 150q0 99 34.5 144t103.5 45q32 0 53 -42q25 -49 25 -140zM262 600q0 72 -19 118t-43 46q-50 0 -79 -29
q-43 -42 -43 -143q0 -44 21 -85q27 -39 54 -77l9 -118q0 -26 -2 -65t-4 -74l-10 -81q0 -78 9 -110q13 -48 51 -48q20 0 27 46q2 15 3 46l-50 332q0 54 38 114t38 128z" />
    <glyph glyph-name="S" unicode="S" horiz-adv-x="215" 
d="M192 10q0 -41 -9 -66q-12 -34 -39 -34q-35 0 -52 28q-20 32 -20 115v27q0 14 5 53q1 13 6 40l5 127q0 56 -25 144t-25 167q0 63 12 104q16 55 53 76h13l23 -250v-91q0 -78 13 -171q1 -7 26 -155q14 -83 14 -114zM176 16l-51 332v186l-22 237q-27 -18 -39 -77
q-8 -39 -8 -83q0 -54 31 -189q15 -66 15 -120q0 -26 -2 -65t-4 -74l-10 -81q0 -78 9 -110q13 -48 51 -48q20 0 27 46q2 15 3 46z" />
    <glyph glyph-name="T" unicode="T" horiz-adv-x="315" 
d="M282 556q0 -76 -31 -91q-41 -19 -45 -28q1 -11 1 -26q0 -9 -1 -23.5t-4 -30.5l50 -337l-8 -62q-10 -38 -40 -38q-35 0 -52 28q-20 32 -20 115v27q0 14 5 53q1 13 6 40l5 127q-4 37 -5 56q-6 60 -10 68q-31 38 -62 77q-25 67 -25 199q0 11 5 19.5t16 8.5q8 0 19 -51.5
t23 -109.5q7 12 7 23l-13 138h40q3 -11 9 -72.5t14 -88.5q4 16 5.5 28.5t1.5 28.5q0 19 -4.5 49t-4.5 41q1 9 1 14h31q8 -13 12 -51q8 -88 15 -103q7 11 7 18q-3 20 -5 52.5t-2 86.5l16 1q8 -1 15 -1.5t10 -3.5t12 -92q6 -59 6 -89zM266 556q0 31 -5.5 76t-11.5 92
q-11 -8 -11 -29q0 -15 3 -36q7 -48 7 -61q0 -16 -2 -25t-17 -9q-25 0 -31.5 53t-11.5 104q-1 -4 -1 -15q0 -16 2.5 -51t2.5 -43q0 -25 -4.5 -39.5t-16.5 -14.5q-18 0 -31 81q-4 27 -9 82h-10l13 -121q1 -8 1 -12q0 -19 -6 -24.5t-17 -5.5q-15 0 -27 49q-17 69 -17 114
q-2 -5 -3 -11.5t-1 -13.5q0 -154 33 -201q24 -21 48 -41q7 -13 14 -79q2 -21 5 -63l-16 -220q0 -71 3 -93q9 -65 57 -65q20 0 27 46q2 15 3 46l-50 332q0 107 40 121t40 77z" />
    <glyph glyph-name="U" unicode="U" horiz-adv-x="930" 
d="M904 720q0 -40 -71.5 -164t-142.5 -289q-51 -118 -82 -152q-38 -26 -65 -45q-21 -15 -36.5 -22t-29.5 -12q-24 -36 -59.5 -59t-85.5 -23q-33 0 -52 15t-38 15q-32 0 -84 -34l-110 -76q-15 0 -15.5 6.5t-0.5 9.5q0 15 30 41q15 13 39.5 31t62.5 36q47 22 76 22
q30 0 50 -17t36 -17q21 0 43 8q56 20 65 20t13 -1l6 33v70v28q0 43 33 108q30 58 201 349q29 47 57 92.5t30 57.5h30q0 16 5.5 21.5t20.5 5.5q11 0 39 -16q35 -20 35 -42zM467 65v-7q-3 -8 -6 -15q-1 6 1 12.5t5 9.5zM891 714q-9 19 -36 36q-9 5 -27 14q-4 0 -11 -6l-7 -7
q27 0 44 -11q13 -8 33 -32zM881 664v13q-19 31 -42 44q-16 9 -52 17l-3 -10q33 -5 54 -22q21 -21 43 -42zM861 627q-22 34 -43 54.5t-45 20.5q-4 -3 -6.5 -5.5t-6.5 -5.5q40 -12 57 -23q27 -17 37 -51q3 7 7 10zM834 606q0 25 -30 45q-22 15 -54 23l-284 -486l7 -15
q16 14 33 26q7 5 14 8q2 2 2 6t1 7q33 71 48 102q36 75 66 122q61 94 93 153q18 35 37 70h10v-13q-53 -78 -140 -244t-114 -243v-41l50 37q-3 6 0 17q6 22 26 56q41 72 75 138q57 110 98 179t52 71v-13l-241 -444q9 -2 14 -13q3 -11 6 -21zM587 120q-3 8 -5 14t-2 13
l-63 -47h-10v77q-24 -21 -32.5 -40t-8.5 -33q0 -7 1 -14v-17q20 0 29 -8q1 -1 4 -5q2 0 35 24q27 20 52 36z" />
    <glyph glyph-name="V" unicode="V" horiz-adv-x="520" 
d="M485 757v-38v-15q0 -20 -3 -48.5t-3 -44.5t0.5 -21t2.5 -9q-17 -29 -32 -54q-29 -50 -109 -190q-28 -47 -55 -93q-9 -16 -38.5 -69t-66.5 -107q-18 -26 -20 -45h-30q0 -16 -5.5 -21.5t-22.5 -5.5q-13 0 -42.5 20t-29.5 39q0 39 57.5 136t122.5 249q74 172 121 220
q21 22 153 97zM472 742q-6 -3 -11 -6q-4 -1 -10 -6.5t-7 -6.5q3 0 9.5 1t9.5 3q9 6 9 15zM468 681v20q-14 0 -21 4.5t-12 8.5q-4 0 -87 -60q6 -11 7 -27l60 47h13v-77q5 6 20.5 17.5t16.5 12.5q-1 10 -1 26q0 12 4 28zM467 588l-9 13q-52 -55 -59 -75q-25 -68 -84 -173
q-64 -115 -112 -187q-37 -56 -45 -60v14q8 9 25.5 44.5t40.5 75.5q18 31 45 73l26 40q55 99 80 153.5t36 97.5v43q-43 -27 -51 -51q-14 -39 -39 -92q-16 -32 -67 -123q-69 -122 -89 -155q-45 -75 -51 -80l-3 12q0 8 30 56q10 15 30 46q12 26 21 44t39 69q11 19 43 81
q25 51 50.5 102.5t26.5 51.5l-20 33l-230 -475q7 -29 38 -47q5 -3 44 -19zM174 83q-43 14 -45 15q-25 15 -48 58q-2 -5 -7 -10q27 -32 48 -52t40 -20q3 0 7 4zM151 46q-39 9 -49 18q-18 22 -45 49l-4 -10q0 -26 40 -46q21 -11 55 -21zM124 23q-30 0 -52 18q-13 12 -25 25
l-4 -6q0 -5 30 -28q10 -7 30 -22q6 0 11 4t10 9z" />
    <glyph glyph-name="W" unicode="W" horiz-adv-x="905" 
d="M894 444q0 -49 -23 -94.5t-64 -77.5q-67 -53 -147 -69q-52 -10 -169 -10q-65 2 -102 6q-112 13 -159 46q-12 -22 -57 -60q-35 -29 -70 -57h-24l-56 384v37h56q14 -7 52 -17q56 -15 89 -27q4 17 33 52q47 56 117 92q99 50 228 50q93 0 175 -47q121 -69 121 -208zM880 443
q0 108 -91 179q-83 65 -193 65q-35 0 -84 -8q-74 -12 -119 -37q-23 -12 -46 -23q-25 -14 -51 -40q-38 -38 -54.5 -66t-22.5 -28q-3 0 -15 6q-19 10 -41 18q-35 9 -56.5 14t-37.5 12h-33l57 -394q51 42 91 78q22 20 44 44q46 -23 105.5 -40.5t159.5 -17.5q141 0 237 39
q83 34 121 91q8 12 12.5 31.5t7.5 25.5q-41 -13 -70 -13q-77 0 -129 13q-43 16 -85 33v14l23 3q45 -23 90.5 -35t102.5 -12q32 0 54.5 11t22.5 37zM757 589q-10 -6 -14 -6q-13 0 -13 13q0 3 10 16h17v-23zM690 556h-16q-8 13 -8 15q0 5 4.5 10.5t8.5 5.5t6.5 -3t4.5 -5v-23z
" />
    <glyph glyph-name="X" unicode="X" horiz-adv-x="755" 
d="M741 244q0 -98 -74.5 -163t-178.5 -65q-66 0 -132 25q-90 34 -168 112q-70 70 -106 164q-29 75 -29 137q0 98 72 182q65 76 121 76q67 0 142 -44q86 -50 154 -144q91 -64 143 -129q56 -70 56 -151zM729 242q0 93 -85 172q-55 46 -109 93q-49 71 -125 126q-90 65 -166 65
q-69 0 -126 -90q-51 -80 -51 -152q0 -47 20 -107.5t44 -98.5q69 -107 178 -167q96 -53 181 -53q113 0 183 82q56 66 56 130zM425 500h-13q-3 11 -29 47t-26 40q5 5 5 7q16 -7 30 -30q24 -40 33 -50v-14zM365 470h-13q-13 27 -31.5 53t-29.5 34v17q17 -4 41 -42.5t33 -51.5
v-10zM462 427q-17 -3 -29 -13l-21 -21q-3 5 -5 10q0 5 12 15t26 19h17v-10z" />
    <glyph glyph-name="Y" unicode="Y" 
d="M609 434q0 -35 -5 -69t-5 -45v-87q0 -89 -74 -168q-89 -95 -231 -95q-130 0 -203 131q-64 115 -64 284q0 83 31 153q42 96 121 96q35 0 69 -11q25 -8 40 -19q14 12 14 26q0 23 3 31v13q-20 -2 -32 -2q-26 0 -62 26t-36 51q0 19 56 19q36 0 59 -14q17 -12 35 -23
q4 18 7 26q10 27 22 27q5 0 15 -8q6 -5 6 -8q0 -5 -16 -34q-10 -19 -16 -35t-14 -33q-12 -26 -12 -32t9 -6q14 5 22 7q27 7 49 7q68 0 127 -39q85 -56 85 -169zM315 714q-19 18 -37.5 29t-48.5 11q-17 0 -23.5 -1.5t-14.5 -11.5q20 -20 41 -40q23 -17 43 -17l13 3
q-22 19 -30 23q-14 7 -27 7v10h20q12 -5 25 -10q13 -7 25 -23l7 3zM595 432q0 91 -66 147q-58 49 -133 49q-24 0 -71 -17q6 -20 6 -35q0 -22 -15 -22q-18 23 -33 34q-46 34 -106 34q-66 0 -106 -101q-30 -75 -30 -134q0 -171 74.5 -287t180.5 -116q146 0 228 105
q61 78 61 151v87q4 25 7 56.5t3 48.5zM392 380h-10q-4 14 -14.5 40t-10.5 34q5 4 5 6h10q2 -13 3 -20q5 -22 17 -43v-17zM335 349l-3 -16h-10q-4 20 -11 41.5t-14 42.5q10 1 24 -26t14 -42zM482 300q-38 -60 -71 -87q-42 -35 -96 -35q-34 0 -42 2.5t-25 12.5v14q9 -3 22 -11
t46 -8q20 0 40 7.5t59 37.5q34 26 45 50q18 39 22 40v-23z" />
    <glyph glyph-name="Z" unicode="Z" horiz-adv-x="915" 
d="M876 694l-20 -13h-30v10q9 7 22 12t21 8zM869 357h-30q-9 12 -9.5 18.5t-0.5 11.5q0 14 1 19t9 18q7 -4 12.5 -13t17.5 -34v-20zM799 547q-17 -23 -37 -26.5t-40 -6.5q17 -34 35 -103.5t18 -112.5q0 -81 -27 -135q-30 -60 -103 -110q-58 -40 -116 -56.5t-135 -16.5
q-150 0 -255.5 108.5t-105.5 250.5q0 179 104 310q110 139 276 139q71 0 139 -19q56 -16 90 -38q42 -27 64 -82q37 -90 74 -90q4 0 10 1t9 1v-14zM57 663q0 -10 -9 -26h-21q5 14 5 24q0 6 -2.5 14.5t-2.5 11.5h11q10 -6 12 -8q7 -6 7 -16zM852 691h-6h6zM44 671
q-1 -9 -1 -18l-2 -6q0 18 3 24zM852 370l-10 27zM776 544q-50 0 -70 62q-25 80 -71 109.5t-100.5 44t-123.5 14.5q-54 0 -104.5 -15.5t-71.5 -34.5q-84 -78 -136 -184t-52 -200q0 -124 98 -231q106 -115 251 -115q156 0 258 81q107 85 107 221q0 65 -36 169q-32 93 -63 139
v13h17q18 -25 33 -63q9 -24 23 -24q11 0 21 4.5t20 9.5zM428 307l-3 -20h-10q-2 2 -3 4.5t-1 5.5q0 5 5 11q0 1 2 2zM375 287h-17v23l17 -3v-20zM702 327q-11 -34 -19.5 -61t-13.5 -36q-26 -39 -63 -78q-72 -76 -125 -76q-46 0 -81 9q-53 14 -122 55q-47 28 -96 76
q-56 55 -68 94l4 7q24 -31 49 -61q62 -70 126 -111q93 -59 189 -59q20 0 71 37.5t76 69.5q35 45 47 85q17 55 26 59v-10z" />
    <glyph glyph-name="bracketleft" unicode="[" horiz-adv-x="775" 
 />
    <glyph glyph-name="backslash" unicode="\" horiz-adv-x="800" 
 />
    <glyph glyph-name="asciicircum" unicode="^" horiz-adv-x="1170" 
 />
    <glyph glyph-name="underscore" unicode="_" horiz-adv-x="1555" 
 />
    <glyph glyph-name="a" unicode="a" 
d="M621 186q0 -189 -89 -260q-69 -55 -229 -55q-131 0 -204 75q-68 70 -68 185q0 75 24 147q31 92 103 184l66 84q43 56 54 80q15 32 19.5 57t4.5 50q0 9 -1 22t-1 17q0 15 14 15q12 0 18 -27q12 -60 40 -124q27 -71 32 -82.5t48 -71.5q77 -90 110 -135q59 -80 59 -161z
M238 485l-10 -23zM609 184q0 72 -66 160q-53 62 -105 125q-43 58 -81 157q-32 83 -42 140q1 -6 2 -17t1 -22q0 -19 -4.5 -43t-16.5 -55t-82 -123q-78 -103 -114 -170q-58 -109 -58 -204q0 -110 65 -176q70 -71 197 -71q137 0 203 45q101 68 101 254zM245 474q0 -21 -17 -21
l-13 2v10q4 10 7.5 16t12.5 14q8 -9 9 -11.5t1 -9.5zM571 147q0 -75 -28 -125q-31 -56 -98 -81h-63v10q75 0 127 98q42 78 42 133q0 16 -5.5 33t-8.5 29q2 3 3 6t2 8q12 -22 20.5 -49.5t8.5 -61.5zM221 395q-19 -48 -31 -108t-12 -108q0 -33 7 -48q-4 -1 -6.5 -1.5
t-5.5 -1.5q-3 1 -12 1q-25 0 -56.5 15t-31.5 33q0 61 41 140q46 88 104 115zM211 412q-63 -65 -91.5 -121t-28.5 -102q0 -19 28 -31.5t35 -16.5h14q-3 21 -3 44q0 58 18 133q11 46 28 94z" />
    <glyph glyph-name="b" unicode="b" horiz-adv-x="1132" 
d="M1130 59q0 -13 -24 -13h-17q-28 0 -100.5 16.5t-94.5 27.5l-4 -7q14 -29 25 -58q18 -46 42 -116v-30l-8 -3q-40 21 -76 47q-57 42 -136 113l-3 -16q6 -34 11 -82t5 -79q-9 -3 -10 -3q-11 0 -127 160q-34 -46 -49 -97q-19 -65 -33 -65q-12 0 -26 28q-34 66 -45 84
q-6 9 -8.5 19.5t-7.5 10.5q-3 0 -59 -65.5t-69 -84.5h-13q-7 42 -26 122q-14 59 -21 72q-48 -25 -82 -41t-61 -23l-5 7q0 19 29 81q34 68 69 136q-55 37 -106 51q-64 17 -64 30q0 4 46 30q57 31 114 63q-34 34 -70 74q-64 72 -70 96q2 2 4.5 3t6.5 1t21.5 -4t30.5 -7h77
q13 -5 27 -10q0 47 1.5 107t1.5 67q1 8 7 20h10q40 -33 108 -70q48 -26 65 -57q29 64 44 116q20 73 27 81q23 -13 57 -73q29 -50 46 -111q54 66 85 139q14 32 29 52q8 -5 29.5 -62.5t26.5 -104.5l7 -7q10 9 39 29q39 27 135 91h10v-40q-13 -26 -36 -74q-34 -72 -37 -82
l209 74q4 -3 8.5 -6.5t4.5 -12.5q0 -26 -54 -98q-47 -63 -122 -138q20 -7 84.5 -17t102.5 -10l3 -11q0 -11 -45 -38q-39 -23 -118 -61q27 -15 53 -38q30 -30 60 -59q17 -13 36 -32q30 -30 30 -42zM1108 63q-16 24 -37 43q-47 44 -57 54q-32 32 -58 48q-36 22 -36 27
q0 8 15.5 13t35.5 12q27 11 56 28t61 36q-39 9 -135 17q-53 4 -53 22q0 6 21 26q11 10 23 21q59 69 86 105q44 58 51 86l-214 -77h-17l-4 11q0 3 7 14q23 36 40 70t24 50.5t17 46.5q-35 -30 -72 -52q-75 -45 -98 -67h-10q-15 54 -25.5 94t-24.5 73q-6 -36 -55 -109t-64 -73
q-10 0 -12 11.5t-3 23.5q-10 37 -39 85q-22 37 -41 59q0 -36 -26.5 -107t-50.5 -93h-10l-3 10q0 21 -15 34q-62 39 -142 92l3 -190q-9 -3 -13 -3t-22 8.5t-22 8.5h-76q-11 0 -18 2t-13 4q13 -8 75 -84q20 -25 59 -74q-3 -7 -11 -12q-15 -10 -39 -20q-17 -7 -51.5 -29
t-48.5 -28q59 -22 118 -43q52 -22 52 -33q-21 -27 -47 -70q-29 -49 -50 -128q11 6 60 28t56 22q19 0 30 -28q17 -41 31 -152q9 20 66 80t66 60q10 0 44 -62.5t38 -77.5q4 20 39 95t44 75q13 0 19 -19.5t11 -26.5q31 -44 59 -79q14 -18 28 -35q0 45 -8 98t-8 63l3 16h20
l204 -164q-23 75 -63 168q-14 32 -14 38q0 8 1 10q1 0 2 1h14q35 -17 106 -35q40 -9 81 -18h40zM890 409q-3 -30 -6 -49q-8 -52 -24 -100q-12 -38 -23 -102q-5 -28 -18 -28q-6 0 -14.5 1.5t-17.5 1.5q-2 13 -8 27.5t-25 52.5q-12 -32 -23.5 -52.5t-33.5 -34.5h-20
q2 5 3.5 23t1.5 51q0 19 -1 44.5t-3.5 51t-4.5 70t-10 61.5q-1 -5 -9 -42q-2 -11 -7 -11q-14 4 -34.5 7t-39.5 3q-4 -16 -4 -31q0 -8 2 -27t2 -33q23 -6 28 -6t16 6v-56q-13 -8 -17 -8q-7 1 -17 1v-47q15 -4 41 -4t26 -27q0 -8 -2.5 -16t-4.5 -16q-11 0 -31 -2t-39 -2
q-13 -1 -19 -1q-7 0 -15.5 2t-21.5 9l-7 328q21 -3 30 -3q8 0 12 1t9 2q26 -2 40 -3q43 -5 59 -17q6 13 9.5 16.5t18.5 3.5q7 -2 17.5 -3t14.5 -1q0 -22 5.5 -96.5t11.5 -93.5q5 9 12 25.5t15 27.5q13 -5 18 -17q5 -17 8 -26q7 16 22 110q11 70 38 70q14 0 27 -12t13 -29z
M487 105q-5 -1 -22 -1h-20q-46 0 -49 81t-26 145q-3 -8 -10 -85q-2 -26 -7 -78v-75q-11 -8 -20 -8q-5 0 -20 4t-27 4l10 131v231q-11 11 -13 20q14 4 18 4q61 0 82 -31q22 -56 43 -103q3 9 3 13q0 8 -1 16q-5 42 -5 94l16 3q13 0 26 -2t22 -8v-355z" />
    <glyph glyph-name="c" unicode="c" horiz-adv-x="1160" 
d="M1130 59q0 -13 -24 -13h-17q-28 0 -100.5 16.5t-94.5 27.5l-4 -7q14 -29 25 -58q18 -46 42 -116v-30l-8 -3q-40 21 -76 47q-57 42 -136 113l-3 -16q6 -34 11 -82t5 -79q-9 -3 -10 -3q-11 0 -127 160q-34 -46 -49 -97q-19 -65 -33 -65q-12 0 -26 28q-34 66 -45 84
q-6 9 -8.5 19.5t-7.5 10.5q-3 0 -59 -65.5t-69 -84.5h-13q-7 42 -26 122q-14 59 -21 72q-48 -25 -82 -41t-61 -23l-5 7q0 19 29 81q34 68 69 136q-55 37 -106 51q-64 17 -64 30q0 4 46 30q57 31 114 63q-34 34 -70 74q-64 72 -70 96q2 2 4.5 3t6.5 1t21.5 -4t30.5 -7h77
q13 -5 27 -10q0 47 1.5 107t1.5 67q1 8 7 20h10q40 -33 108 -70q48 -26 65 -57q29 64 44 116q20 73 27 81q23 -13 57 -73q29 -50 46 -111q54 66 85 139q14 32 29 52q8 -5 29.5 -62.5t26.5 -104.5l7 -7q10 9 39 29q39 27 135 91h10v-40q-13 -26 -36 -74q-34 -72 -37 -82
l209 74q4 -3 8.5 -6.5t4.5 -12.5q0 -26 -54 -98q-47 -63 -122 -138q20 -7 84.5 -17t102.5 -10l3 -11q0 -11 -45 -38q-39 -23 -118 -61q27 -15 53 -38q30 -30 60 -59q17 -13 36 -32q30 -30 30 -42zM1108 63q-16 24 -37 43q-47 44 -57 54q-32 32 -58 48q-36 22 -36 27
q0 8 15.5 13t35.5 12q27 11 56 28t61 36q-39 9 -135 17q-53 4 -53 22q0 6 21 26q11 10 23 21q59 69 86 105q44 58 51 86l-214 -77h-17l-4 11q0 3 7 14q23 36 40 70t24 50.5t17 46.5q-35 -30 -72 -52q-75 -45 -98 -67h-10q-15 54 -25.5 94t-24.5 73q-6 -36 -55 -109t-64 -73
q-10 0 -12 11.5t-3 23.5q-10 37 -39 85q-22 37 -41 59q0 -36 -26.5 -107t-50.5 -93h-10l-3 10q0 21 -15 34q-62 39 -142 92l3 -190q-9 -3 -13 -3t-22 8.5t-22 8.5h-76q-11 0 -18 2t-13 4q13 -8 75 -84q20 -25 59 -74q-3 -7 -11 -12q-15 -10 -39 -20q-17 -7 -51.5 -29
t-48.5 -28q59 -22 118 -43q52 -22 52 -33q-21 -27 -47 -70q-29 -49 -50 -128q11 6 60 28t56 22q19 0 30 -28q17 -41 31 -152q9 20 66 80t66 60q10 0 44 -62.5t38 -77.5q4 20 39 95t44 75q13 0 19 -19.5t11 -26.5q31 -44 59 -79q14 -18 28 -35q0 45 -8 98t-8 63l3 16h20
l204 -164q-23 75 -63 168q-14 32 -14 38q0 8 1 10q1 0 2 1h14q35 -17 106 -35q40 -9 81 -18h40zM866 322q0 -102 -39 -148q-34 -40 -98 -40q-39 0 -39 19v80q0 27 -8 72q-1 8 -5 22l-7 150q0 24 10.5 34.5t32.5 10.5q58 0 101 -45q52 -55 52 -155zM662 146q0 -22 -4 -24
t-12 -2q-152 0 -159 10l-7 157v207q0 10 6.5 15t22.5 5q11 0 23.5 -2.5t24.5 -7.5v-304q9 -5 16.5 -6.5t12.5 -1.5q9 0 28 4t31 4q13 0 15 -17.5t2 -36.5zM460 277q0 -88 -15 -125q-21 -52 -79 -52q-66 0 -87 86q-13 54 -13 195q0 57 32 111q25 42 60 42q45 0 73.5 -70
t28.5 -187zM810 277q0 79 -16 114t-60 63l33 -257h10q12 13 22.5 26t10.5 54zM416 277q0 67 -15 120q-18 63 -46 63q-16 0 -29.5 -55t-13.5 -73q0 -109 13 -141.5t41 -32.5q34 0 45 52q5 24 5 67z" />
    <glyph glyph-name="d" unicode="d" horiz-adv-x="720" 
d="M711 484q0 -35 -53 -61t-53 -41q0 -40 47 -117t47 -125q0 -12 -2 -27.5t-5 -19.5q-11 -16 -106 -57q-116 -50 -198 -50q-102 0 -135.5 17.5t-44.5 62.5q-7 30 -11 101.5t-26 102.5q-26 -13 -49 -13q-36 0 -57 30q-24 34 -24 107q0 68 28 121q1 2 72 109q30 44 106 89
t134 45q38 0 93 -16q72 -21 115 -58q40 -34 74 -82q48 -67 48 -118zM699 482q0 3 -4 16.5t-6 21.5q-8 -5 -16 -8.5t-28 -3.5q-24 0 -39 15t-15 38t11 37.5t27 18.5q-39 35 -78 71q-50 40 -85 40q-4 -7 -8 -10q-12 -10 -34 -10q-26 0 -34 3q-18 7 -18 33h-17
q-53 -14 -100.5 -42t-99.5 -85q27 0 42 -14q20 -19 20 -61q0 -45 -28 -71q-23 -21 -55 -21q-19 0 -34 9.5t-29 27.5q-1 -11 -6 -26t-11 -27v-17q39 0 56 -19t17 -71v-12q0 -11 -4 -18.5t-19 -16.5l22.5 -2.5t9.5 -3.5q5 0 11.5 2t13.5 4l-6 13l-17 -13h-10l-4 13q9 4 47 41
q27 26 64 53q62 45 164 71t193 26q19 0 29 -2q36 -7 41 -8l-3 -17l-30 3q-1 -4 -5.5 -15t-8.5 -25h10q43 24 61 41q13 12 13 21zM685 138q0 40 -47 117t-47 126q0 33 7.5 53t20.5 30q-25 4 -29 4q-59 0 -111 -9q-80 -14 -154 -48q-93 -43 -167 -114q39 -14 46 -72t14 -125
q11 -64 51 -84q32 -16 120 -16q30 0 86.5 16.5t79.5 23.5q64 20 92 38q38 24 38 60zM545 568q0 -47 -28 -69q-24 -19 -66 -19q-54 0 -82 26t-28 68q0 23 30 46q37 28 95 28q47 0 63 -19t16 -61zM331 668q0 -46 -40 -46q-16 0 -28 7.5t-12 23.5q0 25 19.5 40t40.5 15
q9 0 14.5 -12t5.5 -28zM482 300h-8l1 67h7v-67zM432 327h-10v20l3.5 17.5t6.5 12.5q3 -15 3 -21t-1.5 -15.5t-1.5 -13.5zM295 461q0 -14 -8 -30q-11 -21 -26 -21t-27.5 11.5t-12.5 27.5q0 27 12 39t32 12q14 0 22 -11.5t8 -27.5zM529 207q-45 -37 -103 -37q-29 0 -51 10
q-30 14 -30 37l3 10q18 -11 33 -36q7 -11 47 -11q34 0 63 17q19 11 38 23v-13z" />
    <glyph glyph-name="e" unicode="e" 
d="M472 768q-2 -1 -3 -2q-31 -8 -61 -15q2 1 11 4q25 8 53 13zM398 734q-51 -12 -110 -31t-113 -42q4 4 8 7t15 9l-7 5l-26 -15q13 11 37 21q13 6 59 23q25 9 50 19q17 6 54 14q-6 -2 -9 0h19l-32 -8q-36 -11 -68 -25l7 -3q37 12 67 20t49 6zM436 550q-2 -13 -3.5 -28
t-1.5 -23q0 -14 3 -29l-19 -3q3 23 3 38q0 9 -0.5 16.5t-0.5 14.5q0 6 1.5 10t7.5 2t10 2zM376 474h-13q-3 15 -3 25q0 9 2.5 25t2.5 21q0 4 -1 10t-1 9h13q0 -14 -1.5 -31t-2.5 -37q0 -14 4 -22zM211 634h-17q-8 -3 -12 -4q-14 -5 -21 -9v10q5 3 15.5 8t17.5 5t17 -10z
M619 96q-26 0 -94 -20q-79 -25 -157 -50q-7 -1 -39.5 -5t-57.5 -11h-16q45 12 90 25q118 33 167 46q93 25 97 25q-6 49 -8 82.5t-2 54.5q0 16 1.5 30.5t1.5 19.5q-8 66 -13.5 131t-5.5 130q0 32 2 75t2 62q0 36 -4 73l-368 -120q18 21 76 40l248 80q-32 16 -45 24t-23 14
l-363 -138l40 23q-5 5 -8 5l-59 -28q32 -19 64 -37q13 -8 13 -20q-1 -15 -1 -27v-29q3 -16 4 -24q10 -79 15 -151q0 -11 2 -26q9 -107 14 -162q16 -166 23 -192l20 17h13l-30 -23h-23l6 20q-7 77 -11 123q-11 111 -25 227q-3 26 -11 128q-3 38 -3 46q0 74 -5 83
q-30 -3 -78 40q-3 -8 -4 -15.5t-1 -17.5l25 -291v-86q0 -102 50 -113q18 -2 37 -4q-14 -3 -27 -6q-13 0 -22.5 5.5t-17.5 13.5q-3 -4 -5 -8q0 -58 33 -73q40 -7 52 -12q-13 -2 -25 -4q-3 0 -18 5q-2 0 -7 2q-10 7 -20 15q-4 -1 -7 -2q0 -68 15 -71q43 -8 55 -19l-23 -2
q-28 0 -42 19t-14 73v28q0 9 -1 12q-12 54 -20 110q-2 10 -3 21v86l-25 295q0 26 1.5 36.5t6.5 29.5q5 -3 9 -6.5t6 -3.5l202 80q68 25 133.5 49.5t73.5 24.5q18 0 24 -5t6 -16v-16q1 -2 10.5 -4t23.5 -23q5 2 11 3.5t10 1.5q16 0 21.5 -13.5t5.5 -39.5q0 -18 -4 -60t-4 -61
zM508 323q-29 -37 -57.5 -51t-71.5 -14q-39 0 -70.5 18.5t-31.5 43.5q0 3 7 14q28 -66 97 -66q53 0 88 34q19 19 39 38v-17zM251 80l-30 253q0 12 4 24zM492 754h-20h20zM432 758h-10h10zM468 751h-10h10zM492 754q-23 -8 -45 -15q-5 1 -9 2q15 8 24 10.5t18 2.5h12z
M245 724l-12 -4t-12 -3q8 3 12.5 4.5t11.5 2.5zM211 711h-6h6zM171 697l-16 -3zM448 761h-13h13zM458 764h-6h6zM472 768h-10h10zM221 437v47v-47zM418 754h-6h6zM505 794l-3 20q-34 0 -70 -15q-44 -20 -80 -35q32 12 67 25q52 19 57 19q7 0 11.5 -2t17.5 -12zM328 754
q-22 -7 -42 -14t-38 -13q19 3 34 9q44 18 46 18zM248 697q-5 -2 -15 -5t-18 -5q11 4 19 6.5t14 3.5z" />
    <glyph glyph-name="f" unicode="f" horiz-adv-x="625" 
d="M447 728q-2 -1 -3 -2q-31 -8 -61 -15q2 1 11 4q25 8 53 13zM490 567l-3 -90l-10 -3q-8 0 -15 15.5t-12 24.5q-10 -16 -11.5 -25t-1.5 -29l-14 -3q-2 15 -17 60q-6 18 -6 34l10 3q6 -25 8.5 -32.5t11.5 -21.5l10 34l6 4q8 0 14.5 -13l12.5 -25q3 8 5 33t12 34zM373 694
q-51 -12 -110 -31t-113 -42q4 4 8 7t15 9l-7 5l-26 -15q13 11 37 21q13 6 59 23q25 9 50 19q17 6 54 14q-6 -2 -9 0h19l-32 -8q-36 -11 -68 -25l7 -3q37 12 67 20t49 6zM390 482q0 -22 -9 -30t-29 -8q-16 0 -24 20t-8 39q0 23 10 31q5 4 15 4q20 0 32.5 -16.5t12.5 -39.5z
M186 594h-17q-8 -3 -12 -4q-14 -5 -21 -9v10q5 3 15.5 8t17.5 5t17 -10zM442 348q0 -21 -10.5 -29.5t-31.5 -8.5q-15 0 -21.5 13.5t-6.5 29.5q0 15 10 26t27 11q20 0 28 -14q5 -9 5 -28zM303 430h-10q-3 26 -5.5 30t-16.5 4q-20 0 -20 -15q0 -7 2 -13l3 -9v-23h-10l-7 56
q-6 49 -6 64h10q0 -9 2.5 -25.5t7.5 -24.5h21q7 11 7 15q-3 5 -5 13t-2 25h9q2 -14 8 -35.5t12 -41.5v-20zM363 377h-14q-2 -12 -2 -13q0 -5 1.5 -13t1.5 -12q0 -11 -1 -19h-12q4 13 4 18q-3 8 -4 22q-9 1 -22 -1t-15 -2q9 15 28 24q20 7 25 9h10v-13zM510 201q0 -31 -8 -37
q-15 -4 -25 -7h-10q0 24 -10.5 51t-10.5 33q0 23 22 23q19 0 30.5 -19t11.5 -44zM594 56q-26 0 -94 -20q-79 -25 -157 -50q-7 -1 -39.5 -5t-57.5 -11h-16q45 13 90 25q118 33 167 46q93 25 97 25q-6 49 -8 82.5t-2 54.5q0 16 1.5 30.5t1.5 19.5q-8 66 -13.5 131t-5.5 130
q0 32 2 75t2 62q0 36 -4 73l-368 -120q18 21 76 40l248 80q-32 16 -45 24t-23 14l-363 -138l40 23q-5 5 -8 5l-59 -28q32 -19 64 -37q13 -8 13 -20q-1 -15 -1 -27v-29q3 -16 4 -24q10 -79 15 -151q0 -11 2 -26q9 -107 14 -162q16 -166 23 -192l20 17h13l-30 -23h-23l6 20
q-7 77 -11 123q-11 111 -25 227q-3 26 -11 128q-3 38 -3 46q0 74 -5 83q-30 -3 -78 40q-3 -8 -4 -15.5t-1 -17.5l25 -291v-86q0 -102 50 -113q18 -2 37 -4q-14 -3 -27 -6q-13 0 -22.5 5.5t-17.5 13.5q-3 -4 -5 -8q0 -58 33 -73q40 -7 52 -12q-13 -2 -25 -4q-3 0 -18 5
q-2 0 -7 2q-10 7 -20 15q-4 -1 -7 -2q0 -68 15 -71q43 -8 55 -19l-23 -2q-28 0 -42 19t-14 73v28q0 9 -1 12q-12 54 -20 110q-2 10 -3 21v86l-25 295q0 26 1.5 36.5t6.5 29.5q5 -3 9 -6.5t6 -3.5l202 80q68 25 133.5 49.5t73.5 24.5q18 0 24 -5t6 -16v-16q1 -2 10.5 -4
t23.5 -23q5 2 11 3.5t10 1.5q16 0 21.5 -13.5t5.5 -39.5q0 -18 -4 -60t-4 -61zM92 518l-6 -24q-12 3 -18 5.5t-12 7.5h17l6 7l-13 7l7 6h16zM450 160h-10q-5 8 -7 13q-5 11 -10 11q-13 0 -24 -12t-16 -32l-46 -3q0 13 -3 28t-14 32v20q13 2 16.5 3.5t16.5 9.5h10v-10
q-12 -5 -19.5 -10l-10.5 -7q12 -11 18 -11q9 3 19 5v-14q-12 0 -20 -2.5t-8 -6.5l8 -26q31 0 40 35q6 32 13 64q14 -7 21 -20l26 -54v-13zM98 464q0 -6 -5.5 -21.5t-9.5 -22.5h-10q-4 7 -7 14q0 9 6 26.5t13 17.5q13 0 13 -14zM103 394q-13 -4 -14 -4q-4 0 -8.5 4t-7.5 6
q5 8 7 11t8 3q7 0 15 -7v-13zM99 370l-23 -3v17h20zM323 120h-10q-1 2 -18 17q-12 11 -19 16q-2 -7 -3 -14q0 -1 1.5 -9t1.5 -20h-13l-11 89q0 20 4 27.5t18 7.5q32 0 32 -33q1 -11 1 -14q0 -4 -4.5 -7.5t-19.5 -12.5q15 -13 24 -20q13 -11 16 -14v-13zM109 330q-6 -5 -8 -7
q-9 -9 -9 -15l4 -4q6 -6 10 -14v-20h-13q-13 16 -15.5 39t-11.5 28l7 7h36v-14zM226 40l-30 253q0 12 4 24zM96 220h-23v10l13 10l-8 14q5 4 5 6h13v-40zM433 724h-6h6zM443 711h-10h10zM467 714q-23 -8 -45 -15q-5 1 -9 2q15 8 24 10.5t18 2.5h12zM196 397v47v-47zM220 684
l-12 -4t-12 -3q8 3 12.5 4.5t11.5 2.5zM393 714h-6h6zM407 718h-10h10zM186 671h-6h6zM423 721h-13h13zM467 714h-20h20zM447 728h-10h10zM146 657l-16 -3zM480 754l-3 20q-34 0 -70 -15q-44 -20 -80 -35q32 12 67 25q52 19 57 19q7 0 11.5 -2t17.5 -12zM303 714
q-22 -7 -42 -14t-38 -13q19 3 34 9q44 18 46 18zM223 657q-5 -2 -15 -5t-18 -5q11 4 19 6.5t14 3.5zM376 482q0 24 -23 39h-16l-5 -17q0 -12 14 -36q2 -4 7 -11q14 6 18.5 9.5t4.5 15.5zM430 346q0 10 -8.5 21t-12.5 11q-3 0 -13 -12q-3 -4 -10 -12q0 -6 3 -13.5t4 -13.5
l7 -3q11 0 23 10q7 6 7 12zM497 177v40q-4 8 -6 11q-6 10 -24 22l-7 -7q9 -12 14 -35.5t13 -34.5zM420 197l-10 20q0 -12 -3 -24q7 4 13 4zM292 201q0 8 -13 16q-2 1 -7 3q-7 0 -7 -7q6 -20 8 -29l16 6q3 3 3 11z" />
    <glyph glyph-name="g" unicode="g" horiz-adv-x="1000" 
d="M629 580q-7 -8 -16 -15q-16 -13 -18 -15q7 14 24 27q-11 1 -27 -1t-20 -2q2 8 4.5 14t22.5 16l-14 -17q7 -2 16 -2q8 3 11 3q4 0 17 -8zM432 717q-4 14 -4 31q0 19 -3 29q-11 -9 -17 -19q-1 -1 -10 -21h-10l-6 7q8 5 18.5 22t21.5 35h10v-84zM615 243h-50q-14 5 -24 15
q8 0 22 -2t21 -2q5 0 15 2q-8 8 -12.5 14t-14.5 20v13h13q7 -4 14 -7.5t13 -8.5l-21 2q7 -11 12.5 -17t11.5 -16v-13zM219 668q-5 0 -14 9l-24 24q-5 4 -19.5 11t-19.5 7t-5 -5q3 -9 6 -17q9 -22 28 -60v-13h-13q-17 10 -24 12t-17 5q9 4 14.5 5.5t15.5 5.5q0 15 -15 47
q-5 10 -15 29q4 4 4 6h17l50 -20q17 -11 30 -34q0 -6 1 -12zM539 466q0 -42 -6.5 -87.5t-20.5 -71.5q-26 -48 -69 -71q-28 -15 -28 -60q0 -2 6 -11t6 -31q0 -20 -10.5 -34t-8.5 -20q-9 -3 -45.5 -6t-74.5 -5q9 -9 14 -13q12 -11 20 -17l3 14l33 -3q16 0 27 19h10l3 -13
l20 20v-13q-7 -10 -26 -27q-24 -21 -34 -30h-23q-3 11 -3 20q-57 14 -70 104.5t-24 95.5q-35 16 -59 56q-34 57 -34 147q0 112 62 173q56 56 149 56q92 0 140 -58q43 -52 43 -134zM138 537q-10 -7 -29 -11t-31 -12q6 -4 15.5 -8t21.5 -12v-10q-16 2 -37 14t-21 19t17 11.5
t31 8.5h33zM155 206q-6 -15 -9 -23t-8 -13q0 9 5 22t5 16q0 6 -7 6l-26 -14h-14v13q11 15 18 37q13 43 16 47v-37q-7 -19 -14 -37q5 -1 13 -1q13 1 21 1v-17zM328 160h-30h30zM415 143l-3 -30zM358 26l-10 -6l-6 6h16zM525 476q0 72 -50 120t-121 48q-109 0 -161 -87
q-36 -60 -36 -127q0 -79 32 -131l76 -76h107q68 0 112 80q41 74 41 173zM411 192q0 6 -2 11l-4 10q-7 -4 -35 -6t-57 -2h-29t-19 1q2 -9 5 -19t23 -23l-8 12q33 -6 48 -6q23 0 38.5 18t20.5 22h13v-20l-13 -17q10 4 14.5 8t4.5 11zM412 150v10q-18 -7 -41 -11.5t-53 -4.5
h-10h-12q-15 0 -21 1v-15q10 -26 13 -31q9 -15 25 -15q11 2 39.5 4t45.5 2q2 7 10 13q-8 -6 -17.5 -8t-16.5 -2h-12q-15 0 -24 -3h-40v10h37q-7 6 -10 16q67 0 71 15t16 19zM472 337q-24 -32 -26 -34q-12 -7 -34 -20h-14v10q30 22 32 24q10 10 28 43q0 -15 4 -23l10 10v-10z
M288 560q-27 -8 -49 -37t-22 -52l11 -24q15 4 22 32t18 38q-17 -43 -17 -77l-36 -7l-8 36q0 15 22.5 57t41.5 42zM322 196h-10.5t-16.5 -3l10 -7l-17 4q4 4 6 7t6 3q13 -3 22 -4zM308 113h-10q-3 7 -3 10q0 5 2 7.5t4 3.5q0 -4 0.5 -9t6.5 -12z" />
    <glyph glyph-name="h" unicode="h" horiz-adv-x="870" 
d="M856 175q-5 -7 -68 -23.5t-79 -16.5q-32 0 -64 -7q-98 -22 -110 -23q-95 -9 -251 -43q-65 -14 -93 -14q-2 0 -17 1q-41 4 -53 4q-15 0 -20 -3l-68 481q7 63 345 111l377 55q21 0 35 -79.5t29 -165.5q12 -54 24 -144t12 -104q3 -13 3.5 -18.5t-2.5 -10.5zM184 68h-6h6z
M845 186q0 8 -17 110q-5 34 -17 101q0 3 2 8.5t3 9.5l-7 -3q2 17 -11 79q-4 20 -13 58l-16 106q-7 22 -29 22q-45 0 -81 -8l-34 -10q-15 -2 -141 -19q-43 -6 -197 -26q-100 -13 -112.5 -15.5t-65.5 -19.5q-19 -6 -61 -20q2 -5 -1.5 -12t-3.5 -11q14 -80 26 -152t12 -92
q0 -42 13 -124q17 -107 36 -107q22 0 54 2.5t67 11.5q-6 6 -6 10v107l10 10h13q0 -37 -2 -58t-4 -47q0 -18 14 -18q13 0 18.5 3.5t9.5 3.5q2 0 17 -6l-23 5v6l264 47q-17 7 -17 18q0 4 16.5 16.5t19.5 12.5q7 0 13.5 -10.5t6.5 -17.5q0 -9 -2 -11l-4 -4l22 -3q30 4 46 6
q55 7 66 7q-10 2 -44.5 49.5t-41.5 47.5q-11 0 -164 -25.5t-188 -25.5q-1 -6 -6 -8.5t-14 -4.5l-3 20q44 12 195 36t189 24q27 0 55 -43t28 -67q25 11 67.5 14.5t42.5 16.5zM582 165l-14 -10l10 -3zM722 534q-6 3 -54 3q-17 0 -38.5 -1t-47.5 -4l-161 -16q-78 -19 -133 -34
q-135 -35 -157 -47h-17q-5 18 -9 34q-8 31 -14 63q11 4 143 32q157 33 261 52q151 27 197 27q13 0 21.5 -8.5t8.5 -18.5v-82zM671 440q0 -74 -92 -83q-46 -4 -91 -8q-27 -5 -153 -34q-43 -10 -67 -10q-43 0 -57 28q-8 16 -8 51q0 55 71 81q47 17 104 17q36 0 119 17l86 18
q88 0 88 -77zM651 163q0 -7 -6 -15h-13l-3 16q0 8 7 12t13 6zM432 135q-11 0 -17 3q-2 -6 0 -13l-10 8q-8 8 -8 13q0 4 3.5 8.5t7.5 4.5t10.5 -4.5t13.5 -9.5v-10zM378 118l-33 -3l-4 10q0 4 8 12q2 2 9 8q6 0 20 -10v-17zM709 548v64l-17 17q-10 -5 -49 -7
q-110 -6 -242 -36q-15 -3 -114 -24q-169 -35 -177 -35l-12 2q4 -8 14.5 -42t11.5 -38q59 27 169 52q90 20 172.5 32.5t106.5 12.5q36 3 63 3q17 0 35.5 -0.5t38.5 -0.5zM659 440q0 24 -23.5 43.5t-49.5 19.5q-42 -9 -115.5 -22.5t-179.5 -25.5q25 0 42.5 -20.5t17.5 -47.5
t-11 -41q-16 -21 -58 -21q-28 0 -44.5 17.5t-16.5 37.5q0 14 7 28.5t10 20.5q-11 -14 -16 -21t-5 -22q0 -29 12 -48t41 -19q22 0 63 10q122 30 145 33q52 4 105 8q76 15 76 70zM335 379v13q-7 2 -11 9q-13 22 -39 38v-17q-17 2 -20 2q-4 0 -17 -12q6 -4 7 -10
q-18 -4 -18 -20q0 -7 4.5 -10.5t6.5 -6.5q6 6 17 7v-17l-10 -3q13 -3 23 -10h20l20 7l-3 13q11 0 15 5q3 8 5 12zM641 433q0 -17 -16 -35q-21 -23 -51 -23q-26 0 -44.5 18.5t-18.5 44.5q0 18 23 34.5t54 16.5q28 0 42 -19q11 -15 11 -37zM505 375q-31 -5 -63 -10.5t-41 -9.5
h-36q-2 16 -8 39t-6 32v16q16 4 35 7q74 14 78 14q31 0 37 -18q2 -24 4 -33v-37zM629 432q-5 8 -9 16t-8 11q-5 -8 -9 -8q-6 1 -11 1v23h-17l3 -10q-6 -1 -14 -1q-10 1 -16 1q-2 -14 -3 -20q-6 -1 -12 -1.5t-6 -7.5q0 -4 2 -8.5t3 -8.5q7 6 20 6v-16l-10 -4
q11 -5 19.5 -10.5t9.5 -5.5q1 8 4 13h13v-10q13 7 20.5 13.5t10.5 9.5h-17v17q10 2 12 2q4 0 7.5 -0.5t7.5 -1.5zM438 379q-16 17 -16 33q0 10 3 30l-27 -3q14 -12 17 -20.5t3 -26.5v-17z" />
    <glyph glyph-name="i" unicode="i" horiz-adv-x="705" 
d="M675 398q1 -18 1 -28q0 -12 -4 -63q0 -34 -20 -71q-15 -28 -40 -53l-86 -86q-62 -53 -185 -53q-151 0 -233 91q-75 83 -75 219q0 153 83 266q90 122 227 122q143 0 237.5 -99.5t94.5 -244.5zM185 280l-4 17zM661 396q-25 134 -36 158q-28 58 -98 109q-88 65 -186 65
q-130 0 -216 -123q-78 -111 -78 -249q0 -165 117 -245q81 -55 178 -55q79 0 129 26q41 21 104 85q44 45 59 69q19 31 25 77q3 24 3 41q0 9 -0.5 19.5t-0.5 22.5zM605 457l-6 17q-6 -6 -9 -6q-19 0 -35 16q-11 -8 -11 -14q0 -7 1 -13q-7 5 -10.5 11t-6.5 12q-6 -8 -6 -16
q-12 3 -17 10l-23 -14l-14 20l-3 -16h-10q-2 17 -11 32q-9 12 -17 25l18 6l-13 20q5 2 7 3.5t2 6.5t-3 14l10 -7q1 7 -1 18q-4 11 -5 15q8 -8 23 -13l-3 17q1 0 5.5 -1t7.5 0q0 6 -5 17t-12 20q10 -9 20 -13q4 5 7 14t7 13q-6 2 -11 4l4 16q43 -16 73 -67t47 -147zM461 382
q0 -53 -30 -76q-24 -18 -69 -18q-68 0 -92.5 23.5t-24.5 89.5q0 59 31 88q27 25 75 25q72 0 96 -45q14 -26 14 -87zM265 273l-24 -16q2 -6 4 -17q-8 -2 -17 0q-3 -11 -3 -27l-20 4q-1 -7 2.5 -17.5t3.5 -19.5h-10q-5 6 -11 13.5t-19 13.5q2 -6 4.5 -10t12.5 -17v-10l-17 -3
l7 -10v-10q-6 0 -13 -3.5t-11 -3.5q-26 0 -49.5 38.5t-23.5 93.5q0 15 3 25q10 -7 16.5 -26t13.5 -31l3 7l-13 46v24l10 3q4 -11 8.5 -26.5t8.5 -23.5q1 6 1 14q0 6 -2.5 13.5t-2.5 13.5t7 17q7 -13 11.5 -28t9.5 -23q1 3 1 6.5v4.5q-2 14 -2 22t4 20q6 -4 9.5 -12t7.5 -15
q3 15 6 31q11 -7 14 -14q14 11 16 13t7 11q6 -4 24 -35q10 -17 23 -26v-10zM447 380q0 42 -12 72q-15 38 -30 38q-23 0 -34.5 3t-20.5 7q-40 0 -66.5 -28.5t-26.5 -68.5q0 -45 14 -66q25 -37 93 -37q41 0 64 27q19 23 19 53zM415 409q0 -56 -29 -71q-9 -5 -30 -4
q-33 0 -52 19t-19 49t23 51t51 21q27 0 41.5 -18.5t14.5 -46.5zM401 407q0 22 -13.5 37.5t-33.5 15.5q-17 0 -37 -21t-20 -35q0 -15 18.5 -35.5t43.5 -20.5q19 0 30.5 18.5t11.5 40.5z" />
    <glyph glyph-name="j" unicode="j" horiz-adv-x="665" 
d="M504 734q-11 7 -31 16l-40 18h17q23 -11 33.5 -18.5t20.5 -15.5zM487 694q-7 15 -13 30q-10 18 -25 18q-3 0 -10.5 -1.5t-11.5 -2.5q10 10 19 10q25 0 31.5 -24t9.5 -30zM36 691q-11 -12 -11 -30q0 -23 -6 -34v67zM66 667q-6 3 -10 3q-8 0 -10 1q-6 -10 -8 -29t-2 -48
q-4 11 -4 25q0 7 2 22t2 25t-1 15h18zM591 -69q-40 0 -76 -6t-38 -6h-70q-17 0 -84.5 -8t-143.5 -17q-34 0 -38.5 62.5t-7.5 106.5l-27 190q-3 27 -3 46v21.5t1 20.5q0 11 -1 16l-45 277q0 12 49 23.5t134 22.5t127 21.5t78 20.5q14 0 30 -43.5t28 -131.5q5 -38 5 -53
t21 -134q4 -20 30 -210q18 -130 30 -164zM644 -44q-4 12 -7 23q-2 17 -3 34q8 -7 8 -27.5t2 -29.5zM614 23q1 -2 3 -3q1 -7 1 -20q0 -30 -1 -43l-4 -18q-2 4 -3 16.5t-1 32.5q0 25 5 35zM624 -87l-20 -16q-4 -2 -27 -11h-17l-3 17q11 -9 13 -9q13 0 25 6q3 2 19 13h10z
M140 -134q-16 3 -19.5 5.5t-4.5 12.5t-1.5 18.5t-0.5 12.5q0 18 6 45q0 -40 4.5 -60.5t15.5 -33.5zM103 -137q-15 6 -20.5 19t-5.5 28q1 14 1 20l5 20q0 -36 3.5 -51t16.5 -36zM577 -50v23q-10 33 -21 110q-35 238 -39 261q-8 36 -15 73q-12 68 -12 114q0 61 -16.5 114
t-30.5 59l-370 -67q3 -20 7 -40q13 -77 19 -122q13 -94 24 -208q7 -75 9.5 -96.5t13.5 -90.5q8 -94 12 -134t23 -40q12 0 64 9q21 4 58 11q72 4 120 5.5t64 4.5l62 12q14 2 28 2zM406 442q0 -17 -12.5 -30.5t-23.5 -24.5q2 12 11 21q13 14 16 19t3 17q0 22 3 30zM380 455
q0 -13 -6 -24q-9 -16 -31 -31q5 13 14 21t12.5 18.5t4.5 27t3 20.5zM362 506q0 -64 -15 -84q-11 -15 -44 -15q-17 1 -27 1q-56 0 -78 25q-16 18 -16 56q0 45 29.5 79t60.5 34q34 0 59 -22q31 -27 31 -74zM190 577q-24 -16 -28 -57t-6 -46v43q5 20 11 41q5 13 23 19zM163 601
q-19 -26 -30 -47q-19 -36 -19 -62q0 -5 2 -15q-2 4 -4 9t-2 13q0 20 15.5 55.5t37.5 46.5zM520 103q-15 -24 -29 -48q-43 -68 -43 -73q6 6 11 12q21 27 34 54q26 54 27 55zM487 116q-11 -35 -16 -48q-9 -23 -47 -62q2 8 22 36q14 21 23.5 44t10.5 46.5t7 34.5v-51zM466 199
q0 -117 -54 -165q-38 -34 -102 -34q-71 0 -105 50q-29 42 -29 113q0 66 44.5 115.5t100.5 49.5q48 0 94 -36q51 -40 51 -93zM226 354q-8 -13 -24 -28t-19 -19q-13 -27 -21.5 -43t-18.5 -24q9 35 39 71q22 27 44 43zM246 320q-31 -29 -54.5 -55.5t-31.5 -44.5v9
q11 24 36.5 51.5t49.5 39.5zM350 504q0 29 -26.5 56.5t-52.5 27.5q-28 0 -51.5 -36.5t-23.5 -60.5q0 -32 22.5 -51.5t59.5 -19.5q43 0 57.5 16.5t14.5 67.5zM450 194q0 48 -43.5 84t-86.5 36q-24 0 -51 -15.5t-41.5 -34t-26 -50t-11.5 -49.5q0 -64 32.5 -107.5t88.5 -43.5
q69 0 104 46.5t35 133.5zM296 503q0 -8 -4 -13.5t-16 -12.5h-23l-3 18q0 10 9.5 17.5t18.5 7.5q7 0 11 -4t7 -13zM356 177q0 -21 -11 -29t-31 -8q-17 0 -20.5 3.5t-3.5 18.5q0 21 11.5 31.5t29.5 10.5q11 0 18 -8t7 -19zM280 494v13l-10 3q-1 -2 -4 -5.5t-4 -4.5q4 -6 4 -10
zM342 175q0 15 -15 15q-5 0 -15 -11t-10 -15q0 -3 2.5 -4t2.5 -7h16q6 3 12.5 7.5t6.5 14.5z" />
    <glyph glyph-name="k" unicode="k" horiz-adv-x="650" 
d="M631 27q0 -30 -36 -53q-26 -17 -90 -41q-57 -30 -86 -41.5t-59 -11.5h-14q-28 0 -58 47q-45 71 -127 276q-42 83 -70 150q-54 128 -54 215q0 33 19 45.5t129 57.5q42 18 66 26q75 27 110 27q76 0 157 -334q25 -103 56 -187q20 -52 41 -103q16 -41 16 -73zM345 337h-7h7z
M338 333h-10h10zM619 25q0 18 -22 77q-44 120 -48 130q-32 93 -44 148q-7 31 -14 53q-13 34 -23 64q-1 4 -27 101q-30 114 -82 114q-23 0 -86 -22q-21 -7 -75 -29q-147 -59 -147 -92q0 -57 31 -145q21 -59 59 -139l34 -68q7 -17 35 -83q20 -48 41 -94q37 -82 45 -97
q26 -49 65 -49q29 0 74 22l60 30q64 23 97 47q27 20 27 32zM425 469q0 -51 -13 -67t-77 -35q-5 -1 -96 -36q-34 -13 -46 -13q-22 0 -52 69.5t-30 118.5q0 32 25 52q20 16 82 39t91 35q38 16 45 16q24 -44 35 -69q36 -77 36 -110zM441 368q0 -14 -93 -46q-71 -24 -127 -59
h-13q-4 9 -6 16q-5 13 -5 17q0 12 33 20q44 11 78 24l120 50q13 0 13 -22zM555 41q0 -17 -73 -57q-79 -44 -126 -44q-27 0 -78 146q-18 49 -26 74q-27 78 -27 84q0 15 46 29l54 14q4 1 53.5 21t52.5 20q25 0 41 -42q16 -47 33 -93q1 -3 25.5 -74t24.5 -78zM428 367l-3 7
q-7 -5 -34.5 -15.5t-42.5 -18.5q24 7 48 16t32 11zM411 468q0 11 -22.5 73.5t-37.5 89.5v-10q-38 0 -126 -36q-102 -42 -102 -78q0 -33 26 -93q23 -53 46 -84q32 18 160 58q56 17 56 80zM452 290v10q-6 3 -7 7q-13 0 -21 -1.5t-16 -2.5q10 -8 10 -23q16 7 34 10zM472 240
l-14 33q-10 -3 -21.5 -6t-11.5 -10q0 -11 2 -17t5 -13q21 10 40 13zM498 173q-5 8 -10 21q-8 18 -10 29q-14 -3 -25.5 -7.5t-14.5 -5.5q6 -10 9 -19.5t8 -27.5q20 10 43 10zM401 286l-3 14q-10 -3 -20 -5q-16 -6 -27 -22q6 -3 10 -16q14 4 27 9t13 20zM412 220l-4 33
q-8 -2 -23 -8q-5 -2 -17 -8q5 -8 10 -27q6 2 14.5 6t19.5 4zM542 36v10q-12 22 -23 56t-14 55h-17q-4 -3 -13.5 -6.5t-12.5 -4.5q2 -12 31 -84q12 -30 12 -46q7 8 18 13q1 1 19 7zM345 250l-4 30q-6 -5 -19 -8.5t-24 -4.5l10 -34q3 2 16 8.5t21 8.5zM435 160l-13 43h-10
q-13 -4 -30 -13q13 -19 16 -44q7 6 18.5 9t18.5 5zM325 330q-65 -20 -76 -24q-24 -8 -34 -13l6 -13q7 5 35 18q64 29 69 32zM358 200v13l-10 20q-7 -4 -16 -8.5t-17 -7.5q9 -11 10 -17t3 -13q8 6 14.5 8.5t15.5 4.5zM458 86q-2 10 -4 18.5t-12 35.5q-10 0 -18.5 -2.5
t-18.5 -7.5q6 -10 12 -26.5t8 -27.5zM382 140l-17 43q-14 -4 -30 -13q8 -10 13 -23q2 -6 7 -17q12 7 27 10zM291 227l-6 36q-21 -9 -29 -12q-15 -7 -15 -16l13 -25q9 7 19 10.5t18 6.5zM492 10q-6 9 -10.5 26.5t-16.5 29.5q-20 0 -33 -10l30 -66q6 5 13.5 10t16.5 10z
M408 70q-6 17 -12 35q-5 11 -14 18l-21 -10q6 -6 13 -21t11 -29q5 4 12 5t11 2zM311 180q-3 6 -5 12q-5 10 -11 18q-4 -3 -16.5 -7.5t-23.5 -5.5q6 -7 10.5 -21t5.5 -23q5 8 18 16zM338 120l-20 43q-19 -12 -24.5 -14.5t-15.5 -2.5q1 -4 7 -25t16 -28q4 8 9.5 12t27.5 15z
M368 56l-23 47q-19 -13 -22 -14q-11 -6 -25 -9q5 -13 8 -23q7 -20 9 -31q13 16 53 30zM445 -17q-10 15 -18.5 35t-14.5 35q-8 -2 -20 -7q4 -5 10.5 -22t15.5 -38v-13l-13 -3q-9 17 -10.5 20.5t-19.5 49.5q-8 -5 -14 -8q-19 -10 -36 -16q16 -62 33 -62q24 0 47 9q10 4 40 20z
M298 507h-13q-5 9 -8 18t-6 19v17h10q4 -19 7 -28t10 -16v-10zM258 484h-10q-3 9 -7.5 18.5t-9.5 17.5v14q15 -8 20.5 -21.5t6.5 -15.5v-13zM355 467q-18 -25 -41 -39t-56 -14q-20 0 -29 2.5t-18 14.5l7 7q6 -5 16.5 -9.5t25.5 -4.5q30 0 56 21q19 17 39 35v-13z" />
    <glyph glyph-name="l" unicode="l" horiz-adv-x="680" 
d="M656 196q0 -17 -41 -28q-87 -20 -178 -43q-63 -20 -128.5 -35t-99.5 -15q-37 0 -110 213q-25 72 -38 137q-8 50 -15 100l-22 73q8 7 46 18q107 28 200 53q60 16 112 30q105 28 112 28q20 0 37 -30q32 -57 76 -228q7 -24 28 -138.5t21 -134.5zM513 412v10l-53 144
q-10 56 -21.5 91.5t-22.5 35.5q-20 0 -133 -35q-127 -39 -187 -46q13 -21 33 -103q38 -154 54 -154q34 0 184 28q50 9 146 29zM634 188v40q-7 52 -13 101q-12 94 -31 146q-2 5 -56 175q-20 63 -43 63q-3 0 -9 -2q-20 -7 -42 -12q12 -11 19 -40q22 -85 27 -94.5t24.5 -74.5
t19.5 -73q0 -15 -30 -26t-133 -29l-187 -23q-26 0 -32 17q-11 45 -25 99q-9 36 -28 91q-13 38 -13 48q3 9 4 15q-28 -13 -30 -15t-2 -20q0 -55 26 -154q3 -10 29 -98q38 -132 60 -182.5t42 -50.5q38 0 100 16q76 21 152 43q-9 15 -22.5 90t-40.5 75q-34 0 -77 -9t-73 -26
q8 -37 17.5 -74t28.5 -83v-20h-13q-24 53 -40 120q-5 22 -11 56q0 19 46.5 33.5t81.5 14.5t66 9q73 21 81 21q30 0 46 -79q11 -55 11 -106zM550 165q-14 81 -22.5 127.5t-21.5 46.5q-10 -6 -18 -8q-25 -8 -61 -13q14 -10 21 -31q12 -36 25 -132q11 3 31 6.5t46 3.5zM349 532
h-13v60l10 15q2 -7 2 -20q0 -9 -1 -20t-1 -13q0 -10 3 -22zM310 609l-10 -57h-10v14q5 20 7.5 28t12.5 15zM420 499q-12 -27 -24 -33.5t-46 -6.5h-26q-40 0 -61 4q-38 7 -57 29q4 3 9 7q13 -12 41 -21t70 -9q65 0 73 13q15 24 21 27v-10zM370 189q0 -22 -6 -28t-28 -6
q-13 0 -28.5 34.5t-15.5 63.5q0 12 9 16t25 4q20 0 32 -24t12 -60zM357 172v26q-13 38 -17 49.5t-16 11.5q-1 0 -18 -4q7 -25 13 -45.5t17 -41.5q9 4 21 4z" />
    <glyph glyph-name="m" unicode="m" horiz-adv-x="1110" 
d="M1085 284l-2 -64q-20 -27 -201 -27l-260 -16h-134l-354 -61q-14 3 -28 42q-17 49 -26 148t-22 147q-5 19 -5 31q0 52 45 66q22 7 93 7l22 78q34 69 105 69h77q9 -4 15 -5q19 -5 38 -5h104q17 0 49 17l74 40q-11 -20 -50 -43.5t-67 -23.5h-120q-7 0 -20 3q-30 7 -64 7
q-74 0 -111 -38q-17 -18 -39 -72v-20q14 0 85 13q38 7 86 7h46h36h30h26h22h19h17h15h13h11h38.5t40.5 1h13q87 0 197.5 17.5t126.5 19.5q12 -2 24.5 -42t22.5 -123q4 -34 9 -68q3 -32 3 -105zM789 344v10v-10zM552 287h-10h10zM355 233v7v-7zM1073 243v77q0 49 -19 159
t-25 128q-28 -5 -43 -11q-5 -2 -8 -2q-75 0 -102.5 -5t-50.5 -5q20 0 37 2q52 6 60 6q25 0 50 -7v-8l-157 -13q3 -7 4 -16t3 -17q19 6 92.5 18t81.5 12q-2 3 -4 7q-6 11 -6 23h20q3 -9 10 -20v-24l-196 -33q-12 0 -20 25q-2 8 -5 26q0 9 6.5 12.5t20.5 3.5l-41 1h18
q-28 -4 -51 -6.5t-39 -2.5q-64 0 -164 -1t-164 -1q-63 0 -177 -23q-38 -7 -103 -24v-74l30 -320q102 19 211 38q123 22 136 22h134l237 13q46 6 135 9t89 31zM829 462q0 -19 -4.5 -25.5t-19.5 -6.5h-76q-11 12 -11 24q1 8 1 12q0 25 7.5 31.5t31.5 6.5h19q8 0 12.5 -1.5
t9.5 -2.5q-1 -1 -5.5 -3.5t-4.5 -5.5q3 -14 4 -21q5 -23 9 -30q6 2 11.5 5.5t5.5 15.5q0 9 -4 17.5t-10 18.5v10h14q5 -15 7.5 -23t2.5 -22zM999 277q-11 -12 -11 -16q1 -9 1 -21q-13 -3 -25.5 -4.5t-25.5 -1.5h-15h-24q-9 0 -9 5t-0.5 11.5t-7.5 19.5v9q13 0 40 2t39 2
q26 0 38 -6zM691 533q0 -18 -9 -23.5t-43 -5.5q-18 0 -18 13v15q0 22 13.5 31t33.5 9q8 0 15.5 -11.5t7.5 -27.5zM591 535q0 -15 -1.5 -21.5t-13.5 -6.5q-12 1 -20 1q-24 0 -29 3q-10 6 -10 26q0 15 12 20t29 5q33 0 33 -27zM822 235q-13 6 -29 6q-9 0 -26.5 -3.5
t-21.5 -3.5q-18 0 -34.5 13t-21.5 16q6 11 16.5 15.5t26.5 4.5h77l13 -16v-32zM487 526v-10q-1 -2 -16 -9h-60q-5 21 -11 33q-1 2 -3 5q0 4 17 10.5t32 6.5q17 0 29 -11t12 -25zM1056 242h-17t-16 1q-13 0 -21 -1v25q2 4 5 11t9 15q-4 1 -14 1q-9 0 -33.5 -2t-33.5 -2h-15
q-23 0 -28 3.5t-20 26.5q-5 -15 -10 -21.5t-11 -6.5q-11 2 -20 2q-17 0 -20 1.5t-12 14.5q-4 -8 -4 -17h-66l-7 31q-4 -8 -7 -15v-12q-8 0 -26 -2t-31 -2q-2 -11 1 -26.5t3 -23.5q-40 -10 -93.5 -13.5t-78.5 -7t-56 -15.5q-24 -9 -48 -9q-13 0 -25 19q-9 -25 -54 -32
q-77 -12 -103 -22h-36q0 20 -4 28.5t-7 15.5q0 6 75 23.5t82 17.5q4 0 7.5 -4t6.5 -7q-53 -7 -83 -15q-56 -15 -67 -15q-3 -4 -5 -8q2 -2 3.5 -7.5t1.5 -18.5h20q17 7 64 17q58 13 83 13l2 7q-16 49 -32 100q-32 102 -32 134q0 16 21 24.5t121 21.5l159 10q115 0 127 -64
l14 -86q13 8 19 8q6 -2 11 -2q6 0 14 4q-19 10 -20 12q-4 6 -4 20q0 13 11.5 19.5t23.5 6.5q10 0 19 -11t9 -25q0 -7 -3 -15q17 -4 34 -7q8 -3 26 -23q4 4 4 8q0 26 -8 66t-16 83q0 10 15 13.5t44 3.5q13 0 26 -0.5t26 -0.5v14q6 -9 23 -19q25 -15 47 -15q5 -52 13 -101.5
t8 -60.5q0 -17 -11 -28q12 -6 20 -13v-45zM375 513q0 -13 -9 -18q-1 0 -21 -8h-44q-3 22 -10.5 28.5t-7.5 11.5q0 4 21 15.5t31 11.5q17 0 28.5 -13.5t11.5 -27.5zM261 511q0 -15 -1.5 -21.5t-13.5 -6.5q-10 1 -18 1h-16q-9 0 -12 3.5t-3 16.5q0 14 9 26t26 12
q16 0 22.5 -8.5t6.5 -22.5zM231 431q0 -19 -30 -26q-19 -4 -37 -8h-30q-3 12 -5 19t-2 18q0 21 11.5 28t28.5 7q12 -1 15 -1q35 0 44 -10q5 -6 5 -27zM251 351q0 -17 -16.5 -25t-60.5 -8q-26 0 -31.5 7t-5.5 24q0 31 68 31h14q21 0 26.5 -6.5t5.5 -22.5zM295 274
q0 -13 -51 -30q-17 -5 -51 -14q-14 0 -25 13t-11 28q0 13 46.5 33t54.5 20q15 0 26 -17t11 -33zM956 497h-38q-3 -7 -3 -19q0 -6 2 -18t2 -20l35 -3q-3 15 -3 25q0 11 2.5 22.5t2.5 12.5zM1032 317v30q-9 31 -11 82.5t-39 60.5h-13v-53h50v-17h-47v-48h15.5t15.5 1
q12 0 19 -1v-18h-50q0 -6 1 -17t1 -15q0 -10 -2 -15h-16v47l-27 6q0 -8 1.5 -20t1.5 -13q0 -10 -3 -24h33q5 2 36 7q22 5 34 7zM906 437q-2 15 -3.5 26t-1.5 14q0 9 3 20l-42 -3q2 -11 6 -28.5t4 -28.5q5 -1 13 -1q13 1 21 1zM956 374v46h-34q4 -20 9 -39q2 -1 25 -7z
M1042 253v24l-6 10q-10 -8 -14.5 -17.5t-5.5 -12.5q13 0 26 -4zM916 303q-4 32 -7 64h-15q-2 6 -5 13h19q-1 15 -1 25q0 9 1 15l-32 -3v-27q2 -7 6 -40t34 -47zM778 444q1 7 1 14v10q-1 16 -1 19h-23q-1 -5 -1 -9v-5q0 -5 1 -7.5t3 -5.5q0 -7 -3 -16h23zM742 444
q-2 16 -2.5 24.5t-7.5 18.5v-40zM679 527v10q-5 6 -9.5 11.5t-13.5 5.5q-21 0 -21 -16l3 -21q20 5 41 10zM976 250v20h-77q3 -7 3 -20q16 -4 31 -4q8 0 22 2t21 2zM795 377q-2 9 -10 23h-23v-20l24 -6q5 2 9 3zM855 313q-4 10 -13 25q-4 7 -10 19q-4 -3 -14 -6t-13 -4
q2 -3 8 -26q3 -13 20 -13q9 0 22 5zM689 450q-9 12 -17 24q-14 5 -27 10h-33q3 -6 5.5 -17.5t4.5 -19.5q5 1 19 2t34 1h14zM578 521v13l-22 14q-11 -4 -24 -4v-13l6 -10h40zM782 307q-2 10 -4.5 17t-15.5 20h-23v-35zM602 444v36q-8 8 -25 8l-29 -4v-10q9 -6 13 -16
q3 -12 4 -18q13 3 19 3.5t18 0.5zM709 355v13q0 31 -6 45q-9 21 -35 21q-16 0 -25 -2t-18 -2l7 -40q12 5 28 5q18 0 35 -5v-16q-7 0 -19 1t-18 1q-13 0 -20 -2q6 -29 8.5 -42.5t5.5 -24.5h10q19 4 39 8q8 4 8 40zM809 253q-8 18 -23 18q-12 -1 -21 -1l-50 -3q11 -7 16 -11
q12 -8 15 -8q14 2 22 2q33 3 41 3zM615 390q-4 17 -7 27.5t-10 10.5q-1 -1 -6 -2.5t-24 -1.5q5 -9 5 -20q-1 -11 -1 -17l16 -2q12 4 27 5zM475 524q-5 8 -10 13q-10 11 -22 11q-9 0 -14.5 -2.5t-10.5 -4.5q2 -9 5 -17q2 -2 21 -2q10 0 17.5 0.5t13.5 1.5zM545 431q0 9 -2 21
t-2 17q0 7 3 15q-10 0 -15.5 -1.5t-10.5 -2.5q-4 0 -16 4l3 -54q8 5 19 5q7 0 21 -4zM632 307v13q-2 6 -6.5 25t-10.5 29q-19 -5 -28.5 -8t-9.5 -16q0 -4 4 -14t4 -29h47zM555 371l-3 49q-11 -3 -21 -3q-12 0 -23 3v-17.5t1 -16.5q0 -10 -1 -16q15 2 31 4q7 0 16 -3z
M488 430q-2 11 -4 23l2 27q-9 0 -30.5 -1.5t-24.5 -1.5q8 -7 12.5 -24t4.5 -33zM568 303q-2 15 -4 32t-2 25q-16 -4 -32 -7q-4 0 -15 7l10 -60q9 3 43 3zM495 367q-2 5 -2.5 17.5t-0.5 25.5q-15 0 -20.5 -1.5t-8.5 -2.5q-1 0 -12 4q0 -10 2 -26t2 -27q16 6 40 10zM361 510
q-6 13 -12 20.5t-13 7.5t-31 -14q8 -9 10 -24h20zM431 417q-1 7 -3 19t-2 18t4 20q-11 0 -24 -2t-25 -2q2 -2 4 -10h-24q8 -9 12.5 -27t4.5 -29q9 4 23.5 7t29.5 6zM505 293v20l-10 34q-13 0 -22.5 -3t-14.5 -4l10 -50zM438 350q0 14 -1 26l-2 24q-3 -1 -21 -4.5t-33 -8.5
q8 -17 9.5 -23.5t4.5 -29.5q7 3 12 5q24 10 31 11zM648 253q-2 9 -4 19q-2 4 -15 12l-258 -34q4 -17 8.5 -28.5t7.5 -11.5q23 8 55 16q41 11 76 14zM248 500v17l-18 11l-19 -7v-21q12 -4 13 -4q8 0 24 4zM455 287q-5 6 -8 17t-6 30q-5 -3 -17.5 -6.5t-25.5 -7.5l7 -37
q10 0 28.5 2t21.5 2zM378 330q-2 8 -9 37q-1 6 -4 17q-9 4 -14 4q-4 0 -9 -5t-7 -6v13q13 7 26 7l-10 63q-10 0 -20 -0.5t-19 -0.5t-14 1v-23q10 -26 18 -63t12 -71q4 5 20 13t30 14zM388 277l-7 40q-5 -4 -8 -5.5t-42 -14.5v-10q10 -7 14.5 -10t13.5 -3q14 1 29 3zM218 427
q-5 21 -7.5 24t-19.5 3h-11q-18 0 -28.5 -3t-10.5 -16l3 -21l8 -4zM238 340v17q-3 2 -6 5q-10 6 -29 6q-17 0 -25.5 -3t-26.5 -15q6 -15 9.5 -17.5t14.5 -2.5q4 0 27 5t36 5zM281 273q-5 13 -8 18.5t-9 11.5q-29 0 -60 -11.5t-31 -22.5q0 -5 7 -12q12 -11 14 -14q11 6 27 10
q35 8 60 20z" />
    <glyph glyph-name="n" unicode="n" horiz-adv-x="475" 
d="M450 705q-4 1 -17 1q-17 0 -23.5 -0.5t-10.5 -1.5q-32 0 -59 9q-63 21 -71 21q-30 0 -71.5 -58.5t-41.5 -100.5q0 -12 6 -33.5t13 -21.5q14 4 25 6q33 6 71 6q111 0 120.5 -100t15.5 -122q3 -10 24 -188q11 -93 11 -105q0 -46 -39 -108q-46 -73 -100 -73q-118 0 -165 33
t-62 121q-18 101 -22 136q-8 66 -8 152q-7 15 -10 29q-10 44 -10 117q0 58 20 75q24 21 104 21q1 4 1 12q0 11 -3.5 27.5t-3.5 20.5t2 14q13 52 48 98q39 52 77 52q38 -10 79.5 -18t99.5 -8v-13zM380 321v33q-6 18 -8 89t-101 71q-21 0 -49.5 -3.5t-31.5 -3.5
q19 -19 29.5 -65t16.5 -122q28 0 54.5 2.5t58.5 5.5q20 0 31 -7zM216 320q-9 43 -17 80q-2 7 -26 104h-33q-10 -6 -54 -7.5t-44 -72.5q0 -51 4 -84q5 -24 10 -47q23 10 82 18.5t78 8.5zM426 17l-36 290h-43q-129 -3 -209 -14.5t-80 -53.5q0 -30 17 -137q14 -87 21 -119
q14 -70 47 -95q44 -34 159 -34q32 0 78 58.5t46 104.5z" />
    <glyph glyph-name="o" unicode="o" horiz-adv-x="960" 
d="M939 117q0 -11 -12 -17.5t-45 -6.5h-250q-11 -88 -44 -124q-27 -29 -73 -29q-59 0 -103 44t-44 99q-7 1 -14.5 1h-12.5h-33q-80 0 -104 8.5t-24 25.5q1 10 1 15q-24 0 -37 -1l-26 -2q4 21 9 43q4 12 17 12q7 0 34 -5l2 147v120l-2 147v134q0 5 4.5 20.5t9.5 15.5
q43 0 99 -34q42 -26 130 -94q125 -97 188 -142q32 -23 71 -62q47 -48 106 -122q18 -21 27 -31q30 -34 49 -72q25 -50 64 -70q13 -7 13 -20zM121 441q-21 -2 -53.5 -4.5t-61.5 -2.5h-11.5t-7.5 2q2 2 4.5 2.5t14.5 4t29.5 5.5t30.5 2q22 0 39 -4q3 -1 16 -5zM118 314
q-19 1 -35.5 3t-48.5 7q24 -2 50 -4.5t34 -5.5zM118 253l-7 -10h-73q-9 0 -38 8q-10 2 -29 9q13 -2 23 -2q61 -5 124 -5zM98 597h-174h174zM672 420q-13 10 -26 21t-24 23v-19q0 -12 -2 -17t-15 -18q12 4 27.5 7t39.5 3zM605 454q0 18 -29 43q-9 8 -29 21q-19 0 -34.5 -20.5
t-15.5 -36.5q0 -15 23 -31t41 -16q24 0 36 16q8 11 8 24zM532 531q-6 2 -40 26t-40 30l-7 -123v-34q1 -6 7 -6q7 0 15 -0.5t18 -3.5h10q-4 6 -9 14t-5 27q0 34 17 52q13 14 34 18zM926 113q-47 42 -62 61q-16 29 -52 79q-58 77 -99 123q-14 15 -32 32q-12 -5 -20 -7
q-26 -7 -56 -7q-43 0 -106.5 6.5t-66.5 9.5l-4 17v73q0 5 5.5 52t4.5 49q-2 6 -11 9q-26 9 -49 31q-46 45 -71 61q-31 20 -96 42h-10q0 -11 -5 -46t-5 -53l4 -535q6 -1 81 -10q12 -1 34 -4q10 0 26 2t26 2q0 90 44 138q36 40 89 40q38 0 83 -51q51 -58 51 -124zM619 67
q0 71 -36 123q-48 70 -92 70t-81 -52q-33 -47 -33 -88q0 -76 52 -125q43 -41 87 -41q41 0 74 42q29 37 29 71zM178 147v20l-37 3l-3 -23h40zM549 484l-14 3v10l14 -3v-10zM582 460q-5 -8 -9 -15q-4 -3 -9 -5t-9 -3h-20q2 3 13 6.5t15 7t7 8.5q7 13 12 18v-17zM535 470h-17
v17h11zM515 105q0 -8 -6.5 -16.5t-14.5 -8.5q-6 0 -8.5 5t-4.5 12q0 6 7.5 12.5t12.5 6.5q14 0 14 -11z" />
    <glyph glyph-name="p" unicode="p" horiz-adv-x="675" 
d="M635 447q0 -99 -35 -161q-9 -16 -58 -86q-40 -57 -121 -99q-72 -37 -118 -37l-18 2q67 14 133 47t107 87q63 84 79 119q21 47 21 126q0 115 -88 198q-80 75 -169 75q-23 0 -62 -13q-11 -4 -48 -18q-102 -37 -154.5 -114t-52.5 -179t68 -180t150 -78q76 0 158 60
q108 79 108 205q0 109 -52 170t-141 61q-19 0 -43.5 -10.5t-53.5 -34.5q-60 -49 -86 -88q-34 -52 -34 -116t45.5 -109.5t100.5 -45.5q87 0 131 50q39 44 39 121q0 57 -30 96q-34 45 -92 45q-62 0 -104 -59q-34 -48 -34 -85q0 -32 26 -62t59 -30q38 0 64.5 25.5t26.5 64.5
q0 28 -14.5 47t-41.5 19q-22 0 -36 -19.5t-14 -35.5q0 -30 25 -30q11 0 29 5v-10q-12 -7 -15 -7q-4 1 -12 1q-23 0 -30 8t-7 32q0 27 17.5 46.5t43.5 19.5q33 0 49 -18t16 -57q0 -58 -35 -83q-25 -18 -67 -18q-45 0 -69.5 29.5t-24.5 68.5q0 61 43 109.5t107 48.5
q67 0 101 -46q29 -40 29 -104q0 -182 -182 -182q-67 0 -110.5 45.5t-43.5 117.5q0 40 18 90.5t48 78.5q44 42 73 61q47 31 90 31q105 0 157 -74q44 -63 44 -165q0 -82 -35 -139q-42 -68 -132 -104q-20 -14 -50 -24t-60 -10q-73 0 -139 56q-88 75 -88 210q0 137 94.5 236.5
t233.5 99.5q115 0 193 -89q73 -83 73 -192z" />
    <glyph glyph-name="q" unicode="q" horiz-adv-x="675" 
d="M643 382q0 -135 -87 -209q-67 -57 -140 -57q-32 0 -62 10l-48 24q-90 36 -131 103q-36 59 -36 140q0 102 43 164q52 75 158 75q43 0 89 -30q28 -18 74 -62q30 -28 48 -78.5t18 -90.5q0 -72 -43.5 -117.5t-110.5 -45.5q-182 0 -182 182q0 65 28 104q33 46 102 46
q62 0 106 -49t44 -109q0 -40 -22 -67q-26 -31 -72 -31q-43 0 -67 17q-35 25 -35 84q0 31 7 45q15 30 58 30q27 0 44 -19t17 -47q0 -23 -7.5 -31.5t-29.5 -8.5q-11 -1 -13 -1t-14 7v10q18 -5 30 -5q24 0 24 30q0 16 -14 35.5t-36 19.5q-25 0 -40.5 -19.5t-15.5 -46.5
q0 -40 26 -65t65 -25q34 0 59.5 29.5t25.5 62.5q0 37 -33 84q-42 60 -105 60q-57 0 -89.5 -42t-32.5 -99q0 -77 38 -121q44 -50 132 -50q56 0 101 45t45 110t-33 115q-25 39 -87 89q-27 23 -54 34t-43 11q-89 0 -141 -61t-52 -170q0 -125 108 -204q84 -61 158 -61
q82 0 150 78t68 180t-52 179t-155 114q-48 19 -63 23q-28 8 -47 8q-90 0 -169 -74q-88 -83 -88 -199q0 -93 34 -152q14 -24 66 -93q39 -51 108 -86l132 -48l-18 -2q-45 0 -117 37q-83 42 -122 99q-57 82 -70 111q-23 53 -23 136q0 109 72 192q78 89 194 89q140 0 234 -99
t94 -237z" />
    <glyph glyph-name="r" unicode="r" horiz-adv-x="1170" 
d="M1148 220h-1132v324h1132v-324zM1140 387q0 36 -9 66.5t-14 34t-47 9t-73 5.5l-133 9q-56 0 -164.5 5.5t-153.5 5.5q-122 0 -271 -10q-88 -6 -192 -16q-11 0 -28 -3t-18 -6q-6 -26 -9.5 -50t-3.5 -44q0 -45 5 -76q2 -15 11 -45q35 -4 71 -8q110 -12 165 -16
q106 -8 180 -8h234q90 0 189.5 8t140 13t66.5 7t31.5 4t14 41t8.5 74zM1123 385q0 -23 -7.5 -59t-11 -39.5t-157.5 -16.5t-260 -13h-207q-62 0 -216 15q-82 8 -136 8l-75 6q-5 27 -8 57.5t-3 48.5q0 16 2 38t5 44q3 2 44 7q93 11 155 11q70 0 174 6.5t158 6.5t139 -5t140 -5
q50 0 64 -1q45 -5 100 -10q21 -2 50.5 -5.5t30.5 -4.5q6 -10 12.5 -39t6.5 -50zM1098 307q-9 19 -18 39q-13 22 -34 31q26 17 29 20q13 11 13 28q0 16 -8 26t-29 19h-110v-163h46v67h17q5 -6 25 -41q10 -17 18 -26h51zM911 307v33h-87v37h77v30h-77v30h83v33h-133v-163h137z
M746 364q1 8 1 14q0 5 -3 22h-74l-3 -33h37v-20q-19 -5 -37 -9q-37 0 -37 51q0 22 6.5 36.5t28.5 14.5q16 0 26 -10q4 -5 9 -10l44 10q-17 27 -21 30q-17 14 -55 14t-63 -26t-25 -55q0 -40 25.5 -64.5t59.5 -24.5q32 0 50.5 5t28.5 22q3 6 3 15q-1 11 -1 18zM552 305v166
h-45v-90q-12 18 -19 29q-25 37 -42 60h-46l2 -165h43l1 87l63 -87h43zM382 306l-59 163l-30 1h-27q-11 -28 -18 -47q-24 -63 -42 -118h54q1 5 3 11.5t2 14.5h56q2 -5 6 -19q0 -2 2 -6h53zM205 389q0 30 -11.5 48.5t-40.5 32.5h-97l1 -165h13h35t36 1h11q28 3 42 33
q11 23 11 50zM1034 423q0 -5 -2.5 -8.5t-4.5 -7.5h-36v30h30q13 -10 13 -14zM309 369l-32 -1l15 55zM155 387q0 -24 -8.5 -33.5t-23.5 -9.5l-17 3v87h17q17 -3 24.5 -13.5t7.5 -33.5z" />
    <glyph glyph-name="s" unicode="s" horiz-adv-x="1555" 
d="M1410 151h-70q-3 7 0 15h16t15 1q12 0 21 -3.5t18 -12.5zM1490 11h-15v35h15v-35zM1289 211h-15v15h15v-15zM1490 -29q-5 0 -10 0.5t-5 7.5q0 3 4.5 4t5.5 3q4 -6 5 -15zM1309 151h-30q-7 9 -10 11q-7 6 -15 9v15h15q5 -9 19.5 -19t20.5 -16zM1169 191h-15v15h15v-15z
M1490 -169q-5 0 -10 0.5t-5 7.5q0 3 4.5 4t5.5 3q4 -6 5 -15zM1169 151h-15v15h15v-15zM1129 131h-15v15q6 -3 13 -6q0 -3 2 -9zM1490 71h-15q0 26 -8 35l-12 10q-1 2 -1 14q0 9 1 31.5t1 29.5q0 9 -1 10q-5 7 -13.5 9.5t-22.5 2.5h-14q-32 0 -41 11t-9 35q0 21 3 25
q9 5 17 12q-6 10 -10 15h-51q-3 -8 -5 -15q0 -9 10 -12t10 -15q0 -6 -2 -11.5t-2 -6.5h-11v35q-7 5 -13 5q-9 0 -12 -10t-28 -10q-13 0 -24.5 6.5t-22.5 13.5q-3 -8 -5 -15q0 -4 20 -16t20 -29l-5 -20l-30 5q6 8 20 20q-10 12 -13.5 16.5t-11.5 18.5h-15q-7 -11 -20 -15
q9 11 20 20v30q-6 5 -10 5q-3 0 -30 -53q-17 -33 -45 -57l20 -30h-50q-5 9 -15 20q-12 -9 -20 -20q-12 9 -20 20h-65l-10 -10q10 -10 42 -30q40 -25 58 -25q0 -19 6.5 -31.5t13.5 -23.5l-55 5q6 8 20 20q-6 9 -9 12t-14 3q-9 0 -21 -10t-37 -10q-21 0 -27 2t-22 18
q-13 -13 -15.5 -22.5t-4.5 -17.5q-8 6 -20 20q-39 -28 -66 -41.5t-29 -18.5h-15v15l60 30v30q-8 2 -16 5q-2 0 -9 -10t-18 -10q-10 0 -13 3l-4 12q25 0 34 6q13 13 26 24q-8 12 -16.5 21t-13.5 14q-13 -13 -15.5 -22.5t-4.5 -17.5q-11 9 -15 13q-8 7 -18 7q-8 0 -36 -40
q-19 -26 -25 -41.5t-33.5 -34.5t-27.5 -44h-150q-30 33 -59 67q-27 44 -27 143l-10 10q-97 -70 -157 -122q-66 -58 -76 -58q-4 0 -17 5q14 34 41 73t79 87v15h-55q-11 -12 -20 -16.5t-20 -4.5q-7 0 -14.5 1t-14.5 2q-7 0 -11.5 -2.5t-19 -21t-28.5 -18.5q-10 0 -13 3l-4 12
h35q5 6 5 10q0 9 -22 11.5t-38 18.5q12 -1 18 -1q22 0 22 24q0 12 -6 18q-10 6 -14 9q21 25 33.5 86.5t26.5 69.5q-7 15 -20 20v15h15q2 -8 3.5 -12.5t16.5 -7.5v-15h-15q-3 -6 -5 -15l10 -10q12 10 16.5 13.5t18.5 11.5v15q-39 26 -60 60q5 0 16.5 0.5t28.5 19.5l20 -15
q6 -5 15 -5q10 0 22 12.5t18 17.5q-6 6 -9 11t-7 5q-11 -1 -24 -1v35h50l10 10q-9 12 -20 20q9 11 14.5 15.5t5.5 15.5v19q11 0 19.5 -0.5t13.5 -0.5q17 0 22 7t5 34q30 0 49 6l28 14q10 0 28 -20q6 6 11 9t5 7q-1 11 -1 24q10 0 50 11q50 14 86 29v-30q-24 -6 -40 -15
q4 -6 9.5 -10.5t22.5 -4.5q8 0 40 13q17 7 40 7q35 0 45 -5q7 -9 13 -15q12 9 20 20q11 -8 32 -19q16 -8 28 -21q6 6 35.5 52t39.5 68h15q-1 -3 -2 -6.5t-18 -18.5v-30q7 -3 15 -5q3 4 5 6q8 8 20 14l-7 -10.5t-13 -9.5q2 -9 3.5 -13.5t5.5 -6t18 -1.5q13 0 37 1t26 0
q7 -7 15 -13q15 -7 34 -7q20 -2 25 -2q6 0 13 6l28 26q-6 6 -9 11t-7 5q-11 -1 -24 -1q0 26 -9 33q-16 11 -31 22h536v-736zM929 51h-15v15q8 -4 15 -15zM48 407q-4 -8 -15 -15v15h15zM48 362q-5 -5 -15 -10v15zM1409 500q-13 7 -29 7l-5 -10q8 -3 13 -3q4 0 9 1.5t12 4.5z
M1269 612v15h-15v-15h15zM1430 452v15h-15v-15h15zM1350 512v15h-15v-15h15zM1429 380q-13 7 -29 7l-5 -10q8 -3 13 -3q4 0 9 1.5t12 4.5zM1309 472v15h-15v-15h15zM1269 520q-14 7 -30 7l-5 -10q16 -4 19 -4q1 0 16 7zM1350 412v15h-15q-3 -12 -11 -17q-9 -3 -10 -3v-15h16
q4 16 5 17q6 0 15 3zM1450 291q-4 7 -12 18t-8 38q-14 -10 -18 -14l-17 -17v-20q13 -2 24.5 -3.5t30.5 -1.5zM1229 472v15h-15v-15h15zM1350 347h-15q3 -10 10 -16zM1249 437q0 5 -5 10q-6 -3 -10 -10q8 -2 15 0zM1430 261q-19 -6 -34.5 -14.5t-20.5 -15.5h30q4 7 11 14.5
t14 15.5zM993 630q-3 10 -4 17q-8 -3 -15 -10v-20l10 -5q1 2 5 7.5t4 10.5zM929 707l-20 -14q0 -5 3 -9q9 -7 12 -12zM1089 219q-14 7 -30 7l-5 -10q16 -4 19 -4q1 0 16 7zM909 367h-30q-1 -5 -3.5 -7.5t-2.5 -10.5q0 -5 3 -11t3 -7q11 9 17.5 16.5t12.5 19.5zM1309 341
q-14 6 -18 6q-5 0 -14 -8.5t-13 -12.5h-50q-1 5 -1 13t1 13h55v55h-30l-5 -10q12 -5 20 -10v-15l-20 -5l-5 20h-15q-3 -11 -10 -20h-15v20q11 6 20 15q-33 11 -46 19q-20 12 -20 29q2 5 2 7q4 11 4 15h25q0 -5 -1 -13t-1 -11q0 -15 21 -15l16 4q-21 31 -47.5 42.5
t-32.5 27.5q11 6 20 15q-7 2 -14 3t-12 2q-11 0 -18 -3q-16 -9 -31 -17l-5 45h40q-11 11 -20 16q-15 8 -30 19q-9 -15 -12.5 -17.5t-15.5 -2.5q-6 0 -14 6q-20 14 -103 14q-1 9 -1 13q0 8 1 12h35v35q-62 0 -70 12l-10 28q-2 3 -15.5 0.5t-18.5 -2.5q-12 0 -19 8.5t-7 33.5
q-16 -10 -26 -19.5t-10 -20.5q0 -5 10 -14.5t26 -20.5q1 2 0 11.5t19 9.5q19 0 22 -6t3 -19q0 -15 -8 -19q-6 -1 -11 -2q-3 7 -8.5 12t-11.5 8q-3 -11 -10 -20h-15q-8 40 -68 40q-32 0 -39.5 -4t-7.5 -14q0 -16 -10 -22q-7 -4 -14.5 -1.5t-9.5 2.5q-4 0 -10 -2t-16 -9
q12 -5 20 -10v-15q-12 -3 -48.5 -4t-51.5 -41h-20l-5 25h20q-7 11 -15 15q-7 -31 -24.5 -52.5t-35.5 -27.5q-2 5 -3.5 12.5t-1.5 27.5q-14 -15 -63 -79q-53 -69 -53 -73q0 -5 5 -23q6 3 7 4t8 16h161v-20q-39 -11 -66 -23q-27 -14 -44 -23q-2 -1 -15 -1q-1 0 -25 1t-26 0
q-40 -18 -43 -35t-22 -25q-8 14 -15 20q-6 -11 -22 -27l-23 -23q15 -8 20 -25h35v40h20q4 -7 6 -10q7 -10 16 -10q10 0 24 15q1 2 19 25h15l15 -20l10 40h16q4 -7 6 -10q7 -10 16 -10q13 0 16.5 6.5t6.5 13.5h130l6 16q5 4 21 4q20 0 126 -33q58 -18 67 -27l6.5 13t10.5 7
t9.5 -2t3.5 -3q-1 -11 -1 -14t2 -7t9 -14l10 20h15l10 -20q7 5 13.5 10.5t16.5 19.5q-50 17 -52.5 27.5t-12.5 17.5h-50q-2 6 -3.5 11.5t-6.5 8.5q-2 1 -30.5 0t-29.5 -1q-9 0 -10 1q-8 11 -16 21q-16 20 -29 20h-135q-1 9 -1 13q0 8 1 12h215q5 -10 15 -20l8 16q4 5 9 5
q7 0 22 -19.5t16 -21.5q12 11 43 27q10 5 29 14q16 0 25 -9q14 -14 23 -53q10 10 15 21h60q0 -30 2.5 -36t19.5 -6q21 1 38 1q-1 -5 -1 -10q0 -13 9 -27q13 -20 47 -43q-10 17 -20 35q21 12 30.5 25t9.5 40h40q7 -18 25 -18h13q15 0 28 -4t34 -18v23q0 9 3 12q8 7 17 15z
M469 727q-12 -7 -20 -15l15 -20zM489 592v15h-15v-15h15zM409 547h-16v-15h11zM729 186h-15v-15q5 3 10 5q2 5 5 10zM388 502q-9 2 -18 5q-6 0 -17 -10l-20 -20l30 -5q6 10 12.5 17t12.5 13zM530 234l3 17l-25 -1l3 -23zM327 418q-17 11 -21 11q-3 0 -11 -1t-17 -1l-5 -10
q14 -4 18 -5t8 -1q8 0 28 7zM308 372l-5 15q-6 -5 -10 -15h15zM227 460q-13 7 -29 7l-5 -10q8 -3 13 -3q4 0 9 1.5t12 4.5zM168 432v15q-11 3 -19 8.5t-16 11.5v-15q16 -4 17 -5q0 -6 3 -15h15zM148 352v35q-55 -24 -55 -40q4 -10 5 -16q14 15 17.5 18t14.5 3h18zM127 299
q-13 7 -29 7l-5 -10q8 -3 13 -3q4 0 9 1.5t12 4.5zM108 231v15h-15v-15h15zM1129 291h-15q0 22 -4 30q-8 17 -11 26h30v-56zM869 552h-15v15h15v-15zM1069 352h-30q-6 4 -6 8q0 8 7 8t14.5 -4.5t14.5 -11.5zM849 492h-15v15h15v-15zM749 612q-20 0 -41 -13q-10 -6 -17 -6
q-10 0 -10 3q0 5 -7 11q36 0 41.5 14t33.5 26v-35zM809 492h-15v15h15v-15zM509 472h-15v15h15v-15zM469 472h-15v15q8 -4 15 -15z" />
    <glyph glyph-name="t" unicode="t" horiz-adv-x="870" 
d="M694 708h-10q-2 6 -4 9t-3 4h-10q-2 -6 -2.5 -7t-2.5 -3q0 -3 5 -7t10 -7v-13q-12 1 -20 7q-5 -4 -7 -6q-8 -9 -8 -15l15 -13v-20l-11 -3q-8 0 -9.5 5t-3.5 12q-16 -12 -10 -27h-10l-3 16q18 32 27 47q29 47 36 47q6 0 21 -10v-16zM850 19h-53h-43h-36h-30h-26h-22h-20
h-18h-15h-14h-12h-11h-36t-37 1h-11q-99 0 -160 -7q-111 -21 -217 -33q5 8 45.5 19t71.5 11v33l-50 267q-4 -1 -10.5 -2.5t-12.5 -4.5h-54q4 12 59.5 95.5t77.5 108.5q58 66 90 116q47 73 57 79l187 -171q6 31 9.5 52t13.5 21q16 -7 27 -10q32 -11 60 -17v-13
q-5 -12 -20 -59q-4 -15 -14 -45q14 -10 37.5 -40.5t46.5 -79.5v-23h-57q4 -33 7 -56.5t3 -57.5l1 -171l186 -1v-12zM643 564q-14 6 -36.5 12t-29.5 11q-7 -21 -8.5 -37.5t-8.5 -25.5q11 -5 33 -26q19 -17 24 -24q2 17 12.5 47t13.5 43zM697 330q-5 8 -8.5 25t-11.5 25
q-82 84 -159 157q-9 9 -95 87q-38 35 -60 60l-260 -364q31 0 67 6q84 14 183 14zM600 177l-114 13q6 -60 6 -95q0 -38 -1.5 -47.5t-4.5 -14.5h94q3 10 11 73.5t9 70.5zM650 33v160q0 30 -5 72.5t-8 51.5l-458 -4l-3 -19q0 -21 10 -67t20 -80q7 -25 9.5 -78t26.5 -53l231 17
l3 29l-10 145h47q2 -1 35.5 -4.5t68.5 -12.5v-40q-7 -14 -8 -32.5t-1 -26.5q0 -23 -1.5 -34.5t-9.5 -23.5q7 0 14 -0.5t15 -0.5h14q6 1 10 1zM573 103l-3 -17q-8 7 -8 11q0 6 4 6h7zM376 167l-124 -17q3 8 3.5 16.5t1.5 13.5q0 11 -1 19q-4 30 -4 37q0 26 3.5 32t23.5 6
q16 0 35 -6t27 -6q10 0 19 5q10 -13 12.5 -39.5t3.5 -30.5v-30zM356 223v20l-33 7v-27h33zM363 180q-2 10 -4.5 16t-8.5 11h-27v-27q5 -1 14 -1q17 1 26 1zM306 223v30l-16 7h-24v-37h40zM306 170v37h-37v-44q17 7 37 7z" />
    <glyph glyph-name="u" unicode="u" horiz-adv-x="805" 
d="M766 415q0 -177 -89 -262q-48 -45 -164 -83q-64 -21 -108 -28q-8 -1 -19 -2q-37 0 -82 10q-28 6 -54 16q-47 18 -121 89q-85 82 -103 148l294 67q-4 10 -29 108q-18 70 -43.5 174.5t-25.5 106.5q0 9 18 12t30 3q10 0 63 -14q75 -20 207 -63v-13q-18 -22 -39 -45
q-41 -46 -67 -68t-50 -45q-48 -47 -48 -59q0 -8 11.5 -48.5t15.5 -40.5q10 0 61 11q72 16 145 39q94 30 172 72h13q0 -15 3 -30q9 -46 9 -55zM523 687q-20 3 -56 17q-23 9 -64 27q-13 6 -49 9.5t-64 13.5l43 -260zM340 377l-70 384q-5 -2 -20 -2q-5 -1 -10 -1l90 -384z
M754 414q0 14 -7.5 37t-12.5 29q-28 -17 -121 -46q-49 -15 -100 -30q-155 -45 -279 -71q-64 -14 -131 -24q-41 -6 -57 -15q89 -128 165 -181q85 -59 177 -59q9 0 62 14q18 4 53 15q116 34 170 89q81 82 81 242z" />
    <glyph glyph-name="v" unicode="v" horiz-adv-x="1155" 
d="M1164 60h-20q-21 11 -29.5 20.5t-8.5 18.5q0 5 1.5 10t-1.5 5q-4 0 -43 -39q-19 -19 -44 -19q-26 0 -36 8t-10 22q5 25 6 32.5t-4 7.5q-19 0 -53 -36t-69 -36q-27 0 -35 8.5t-8 23.5q0 20 -2 20q-32 -22 -58.5 -39t-51.5 -17q-30 0 -45 22l-20 48q-31 -29 -59 -52.5
t-59 -23.5q-28 0 -36.5 13.5t-8.5 30.5q0 4 9 30q-1 4 -1 8q-12 0 -81 -58q-33 -28 -70 -28q-39 0 -39 25q0 10 5 28l-7 3q-31 -24 -61.5 -43t-60.5 -19q-29 0 -29 23q0 10 4.5 23t6.5 20l-9 4q-19 0 -56 -28q-44 -33 -82 -43v10q55 29 87 52q15 11 40 18h40v-10
q-8 -10 -14 -21t-6 -17q0 -21 20 -21q22 0 45 15q75 49 89 54q-78 87 -97 109q-26 31 -37 71l294 67q-4 10 -29 108q-18 70 -43.5 174.5t-25.5 106.5q0 9 18 12t30 3q10 0 63 -14q75 -20 207 -63v-13q-18 -22 -39 -45q-41 -46 -67 -68t-50 -45q-48 -47 -48 -59
q0 -8 11.5 -48.5t15.5 -40.5q10 0 61 11q72 16 145 39q94 30 172 72h13q0 -15 3 -30q9 -46 9 -55q0 -95 -24 -158t-92 -131q7 0 14.5 2.5t10.5 2.5q8 0 21 -4q-6 -7 -8 -10q-8 -11 -8 -18q0 -10 10 -17.5t25 -7.5q20 0 35 13q59 50 87 63h20v-14q-9 -12 -9 -13q-4 -7 -4 -15
q0 -14 12 -23t24 -9q7 0 37 23q26 19 54 44h33v-13q-9 -5 -13 -8q-13 -9 -13 -17q0 -19 46 -25v-10zM663 677q-20 3 -56 17q-23 9 -64 27q-13 6 -49 9.5t-64 13.5l43 -260zM480 367l-70 384q-5 -2 -20 -2q-5 -1 -10 -1l90 -384zM894 404q0 14 -7.5 37t-12.5 29
q-28 -17 -121 -46q-49 -15 -100 -30q-155 -45 -279 -71q-64 -14 -131 -24q-41 -6 -57 -15q64 -92 121 -147q34 -33 79 -57q10 0 17.5 14t9.5 16q12 7 19 10q20 11 31 20h50v-17q-11 -2 -21 -13.5t-10 -20.5q0 -13 14 -23t26 -10t66 48q30 27 42 33h37v-17q-7 -4 -9 -5
q-6 -5 -6 -8q0 -11 15 -21t20 -20q40 18 79.5 49t73.5 85q27 43 40.5 97.5t13.5 106.5zM373 63q-18 6 -41 22q-13 9 -19 11q-6 -12 -11 -23q0 -19 27 -19q13 0 20 2q21 6 24 7z" />
    <glyph glyph-name="w" unicode="w" horiz-adv-x="795" 
d="M760 280q0 -126 -95 -208q-100 -87 -268 -87q-65 0 -156.5 37t-121.5 73q-18 23 -47 127q-36 131 -36 240q0 106 34.5 156.5t117.5 50.5q26 0 58.5 -4t66.5 -13q3 6 7 13q-8 9 -12 15q-13 18 -18 36q34 8 56 13q43 10 67 10l20 -3q0 -32 0.5 -47.5t2.5 -31.5q30 15 65 26
q43 14 78 14q14 0 51 -5q13 -1 37 -6q34 -29 58 -106q35 -114 35 -300zM417 722l-10 4zM746 279q0 30 -6 111q-2 27 -6 75q-12 91 -33 147q-14 37 -24 44q-18 12 -61 21q-14 2 -39 6q-39 0 -80 -15q-52 -19 -94 -59h-10v10q7 13 14 20l-20 -7q0 24 -3.5 38.5t-3.5 22.5
q0 7 10 19v-23v30h10v-10v13l-87 -16q13 -12 24 -39t23 -41v-10l-10 -4q-27 21 -76.5 33t-87.5 12q-55 0 -86 -27q-52 -46 -52 -166q0 -95 35 -222t63 -151q6 -5 31 -17q52 -26 59 -29q50 -25 64 -31q37 -15 99 -15h12q29 0 58 3.5t71 15.5q-1 3 52 29q42 21 88 58
q25 21 45.5 77t20.5 97zM660 211q-13 -90 -20 -105q-13 -28 -70 -55q8 15 43 43q16 13 22.5 28t9.5 41t5 46q0 42 -5 108t-5 108q0 58 -21 125q-27 87 -71 87q-26 0 -74 -16q-37 -12 -71 -35q7 -4 29 -10.5t25 -10.5q7 -10 26.5 -93.5t19.5 -109.5v-74q7 -33 13 -73
q14 -84 14 -132q0 -27 -21.5 -43.5t-55.5 -24.5q6 11 40 28q27 13 27 39q0 24 -9 80.5t-18 115.5v74q-11 60 -16 91q-18 94 -25.5 106t-23 18t-35.5 6q-10 0 -16 -1q46 42 84.5 58.5t88.5 16.5q44 0 72 -60.5t28 -151.5q0 -43 5 -112t5 -112zM430 15h-10q-6 21 -32 130.5
t-44 197.5q-24 120 -24 160q0 35 7.5 53.5t21.5 18.5q8 0 13 -6t8 -10q-26 0 -33 -9t-7 -46l40 -239q8 -45 28.5 -126.5t31.5 -110.5v-13zM367 25h-14q-26 16 -50 32.5t-47 40.5q-27 28 -59 152q-35 136 -35 241q0 75 18.5 103.5t78.5 28.5q21 -2 32 -3q34 -5 46 -18
q-8 -2 -34.5 4.5t-44.5 6.5q-53 0 -73 -34q-14 -23 -14 -64q1 -17 1 -22q0 -54 20 -162q24 -131 58 -200q7 -14 37 -42q40 -37 80 -54v-10z" />
    <glyph glyph-name="x" unicode="x" horiz-adv-x="775" 
d="M760 290q0 -126 -95 -208q-100 -87 -268 -87q-65 0 -156.5 37t-121.5 73q-18 23 -47 127q-36 131 -36 240q0 106 34.5 156.5t117.5 50.5q26 0 58.5 -4t66.5 -13q3 6 7 13q-8 9 -12 15q-13 18 -18 36q34 8 56 13q43 10 67 10l20 -3q0 -32 0.5 -47.5t2.5 -31.5q30 15 65 26
q43 14 78 14q14 0 51 -5q13 -1 37 -6q34 -29 58 -106q35 -114 35 -300zM417 732l-10 4zM746 289q0 30 -6 111q-2 27 -6 75q-12 91 -33 147q-14 37 -24 44q-18 12 -61 21q-14 2 -39 6q-39 0 -80 -15q-52 -19 -94 -59h-10v10q7 13 14 20l-20 -7q0 24 -3.5 38.5t-3.5 22.5
q0 7 10 19v-23v30h10v-10v13l-87 -16q13 -12 24 -39t23 -41v-10l-10 -4q-27 21 -76.5 33t-87.5 12q-55 0 -86 -27q-52 -46 -52 -166q0 -95 35 -222t63 -151q6 -5 31 -17q52 -26 59 -29q50 -25 64 -31q37 -15 99 -15h12q29 0 58 3.5t71 15.5q-1 3 52 29q42 21 88 58
q25 21 45.5 77t20.5 97zM660 221q-6 -45 -11 -90q-14 -38 -79 -70q5 8 21 24t33 26l-34 10h-60q1 -13 1 -21q0 -26 -12 -41q-18 -23 -66 -34q6 11 40 28q27 13 27 39q0 15 -5 23q-9 10 -15 16q-4 -4 -13.5 -22t-20.5 -18q-4 0 -12 7q-22 19 -41 27q-4 -3 -7 -6q5 -17 7 -27
q9 -31 17 -54v-13h-10q-6 19 -12 43t-8 40l-7 7q-12 -16 -18 -23q-11 -13 -21 -13q-17 0 -45 33t-36 33q-4 0 -8.5 -3.5t-8.5 -6.5q11 -20 47.5 -49t63.5 -41v-10h-14q-64 42 -80 57t-30 36q-10 -10 -19 -18.5t-15 -8.5t-24.5 58t-18.5 86q0 27 13 28t13 4q0 10 -13 68
t-19 77q0 38 1.5 86t1.5 54q0 32 28 51.5t68 19.5q21 -2 32 -3q34 -5 46 -18q-8 -2 -34.5 4.5t-44.5 6.5q-33 0 -59 -19t-26 -49t1.5 -69t1.5 -44q15 14 20 17q10 6 24 6h73q17 -50 22 -79q10 -59 11 -61v-13h-13q-49 21 -76.5 37.5t-54.5 34.5q15 -46 17.5 -78t70.5 -94
q5 5 16 28q8 15 17 15q7 0 18 -8l42 -32q3 6 3 12l-46 286q0 35 7.5 53.5t21.5 18.5q8 0 13 -6t8 -10q-26 0 -33 -9t-7 -46q9 -49 13 -77q15 -90 24 -135q5 -42 10.5 -73t25.5 -51q15 9 21 60q3 21 13 21q8 0 22 -19q37 -48 48 -55v37q-11 32 -12.5 51.5t-1.5 31.5
q-29 28 -46 45t-17 29q0 19 12 48q28 69 28 70q0 41 -22.5 63.5t-57.5 22.5q-9 0 -13 -1q46 42 84.5 58.5t88.5 16.5q46 0 71 -64q19 -49 29 -148q1 -9 2.5 -27.5t1.5 -30.5v-35q-3 -18 -4 -26t-1 -13.5v-7.5q0 -17 5 -46t6 -38zM644 245q0 43 -3.5 104t-3.5 86
q0 73 -23 136q-26 72 -66 72q-31 0 -79 -18q-39 -15 -62 -29q42 -11 44 -12q23 -15 29 -69q8 3 15 3q25 0 45 -24.5t20 -51.5q0 -2 -36 -66q-18 -32 -18 -64q0 -12 3.5 -30t4.5 -23l9 33t12 11q11 0 32 -36q4 -6 20 -39q16 81 19.5 99t13.5 18q9 0 16.5 -33t7.5 -67z" />
    <glyph glyph-name="y" unicode="y" horiz-adv-x="800" 
d="M786 60q0 -13 -8 -13q-9 2 -13 2q-18 0 -33 11q-4 3 -28 28q9 7 19 7q11 0 37 -12t26 -23zM680 105q-23 5 -32 7q-38 9 -101 9h-67q-24 0 -91 43q-86 56 -133 131.5t-166 94.5q-44 7 -44 39q0 18 12 24.5t26 6.5q11 -1 13 -1q28 0 50.5 -6.5t45.5 -13.5q19 0 19 15
q0 12 -53 82t-53 102q0 51 85 51q28 0 65 -10.5t60 -32.5q44 -42 63.5 -70.5t26.5 -28.5q11 0 15.5 13t4.5 29q0 44 -33 79t-33 55q0 24 18 24q51 0 102 -59q56 -64 56 -141q0 -28 -6.5 -67.5t-13.5 -80.5q9 -39 14 -61q17 -68 30 -106q22 -63 54 -90q33 -19 66 -37zM771 61
q-6 4 -12 9q-8 2 -15 5q11 -10 27 -14zM592 139q-33 34 -57 120q-29 106 -29 167q0 16 4 37q12 62 12 83q0 82 -56 133q-26 24 -89 54l-5 -8q5 -10 47 -59q21 -25 21 -75q0 -23 -7 -40.5t-24 -17.5q-16 0 -80 72t-140 72q-32 0 -54 -16q-17 -13 -17 -22q0 -22 52 -85t52 -98
q0 -16 -1 -19q-4 -12 -30 -12q-13 0 -31 6q-43 14 -65 14h-18q-8 0 -11.5 -7l-6.5 -13q39 -24 80.5 -25.5t156.5 -117.5q37 -41 75 -82q80 -69 173 -69q11 0 27.5 3.5t20.5 4.5zM226 646h-16l3 20l13 -7v-13zM183 649h-13v17h13v-17zM326 462h-20q-38 20 -71 53t-33 54
q0 18 19 18q20 0 43.5 -22.5t61.5 -79.5v-23z" />
    <glyph glyph-name="z" unicode="z" horiz-adv-x="840" 
d="M805 452q0 -184 -134 -329q-127 -137 -270 -137q-182 0 -276 119q-82 103 -82 274q0 24 7 84t18 88q26 64 105 113q94 58 215 58q141 0 268 -69q149 -81 149 -201zM791 450q0 42 -31 77q-10 11 -31 27q-5 5 -1 13q1 3 1 4q-9 27 -52 55q-47 31 -98 48q-70 23 -111 28.5
t-82 5.5q-145 0 -232 -78q-97 -87 -97 -249q0 -57 15 -115q22 -83 73 -156q28 -40 105 -75t152 -35q80 0 148.5 38t124.5 115q66 91 89 148q27 65 27 149zM485 497q0 -14 -6 -23.5t-18 -9.5q-16 0 -25 11t-9 24q0 11 8 21t22 10q28 0 28 -33zM341 553q0 -47 -32 -65
q-18 -10 -43 -10q-30 0 -40.5 14t-10.5 39q0 44 24 63q18 14 47 14q31 0 43 -12t12 -43zM592 270q-6 -22 -8 -33t-2 -16v-11v-87h-10q-8 24 -50 91q-47 73 -74 93q-13 -75 -19.5 -120.5t-6.5 -93.5h-10q0 15 -22 96q-25 93 -42 104q0 -27 -20 -99t-20 -104q-4 -4 -8 -4
q-6 0 -20 46q-1 2 -19 65q-8 28 -15 56q-8 25 -21 54q-8 -13 -24 -58q-29 -81 -43 -89v17q16 27 33 78t30 72q23 -12 43 -86q17 -63 34 -125l47 207l10 4q12 -17 24 -58q32 -110 33 -112l33 180q5 -1 54 -68t70 -99l16 157h7v-57z" />
    <glyph glyph-name="braceleft" unicode="{" horiz-adv-x="805" 
 />
    <glyph glyph-name="bar" unicode="|" horiz-adv-x="1155" 
 />
    <glyph glyph-name="braceright" unicode="}" horiz-adv-x="915" 
 />
    <glyph glyph-name="asciitilde" unicode="~" horiz-adv-x="720" 
 />
    <glyph glyph-name="florin" unicode="&#x192;" horiz-adv-x="1170" 
 />
  </font>
</defs>
</svg>
