<?xml version="1.0" standalone="no"?>
<!DOCTYPE svg PUBLIC "-//W3C//DTD SVG 1.1//EN" "http://www.w3.org/Graphics/SVG/1.1/DTD/svg11.dtd" >
<svg xmlns="http://www.w3.org/2000/svg" xmlns:xlink="http://www.w3.org/1999/xlink" version="1.1">
<metadata>
Created by FontForge 20230101 at Thu Nov 20 15:26:09 1997
 By Glenn Lewis
http://members.aol.com/vroomfonde/ttf/ - Copyright (c) 1997 Tom Murphy 7 - Free, but not to be resold! - ImightbeTM@aol.com - Tom Murphy 7 - 339 Still Hill Rd - Hamden CT 06518 - USA
</metadata>
<defs>
<font id="Two-TurtleDoves" horiz-adv-x="130" >
  <font-face 
    font-family="Two Turtle Doves"
    font-weight="400"
    font-stretch="normal"
    units-per-em="1000"
    panose-1="0 0 0 0 0 0 0 0 0 0"
    ascent="800"
    descent="-200"
    x-height="371"
    cap-height="626"
    bbox="-3 -167 750 826"
    underline-thickness="20"
    underline-position="-143"
    unicode-range="U+0020-2026"
  />
<missing-glyph horiz-adv-x="800" 
d="M50 0v800h700v-800h-700zM700 50v700h-600v-700h600z" />
    <glyph glyph-name=".notdef" horiz-adv-x="800" 
d="M50 0v800h700v-800h-700zM700 50v700h-600v-700h600z" />
    <glyph glyph-name=".null" horiz-adv-x="0" 
 />
    <glyph glyph-name="nonmarkingreturn" horiz-adv-x="500" 
 />
    <glyph glyph-name="space" unicode=" " horiz-adv-x="500" 
 />
    <glyph glyph-name="exclam" unicode="!" horiz-adv-x="225" 
d="M181 716q-13 -33 -18.5 -80.5t-10.5 -92.5q-6 -38 -24 -142q-28 -160 -36 -252l-24 2q7 76 15 139q2 14 37 235q10 69 15 103q10 61 24 96zM87 68l-24 -6l-5 20l24 6z" />
    <glyph glyph-name="quotedbl" unicode="&#x22;" horiz-adv-x="265" 
d="M37 617q0 15 9.5 24.5t23.5 9.5q40 0 40 -40q0 -26 -26 -80q-20 -42 -40 -72l-13 26q18 26 24.5 41.5t6.5 25.5q-2 13 -2 19q0 9 -11.5 15t-11.5 31zM162 612q0 15 9.5 24.5t23.5 9.5q40 0 40 -40q0 -26 -26 -80q-20 -42 -40 -72l-13 26q18 26 24.5 41.5t6.5 25.5
q-2 13 -2 19q0 9 -11.5 15t-11.5 31z" />
    <glyph glyph-name="numbersign" unicode="#" horiz-adv-x="388" 
d="M135 453q-3 -21 -5 -37.5t-2 -30.5l118 -22l14 76q-32 3 -61.5 6t-63.5 8zM111 457q-18 3 -33.5 7t-31.5 10l8 22q5 -2 22.5 -7.5t38.5 -9.5l3 18q6 30 11.5 65.5t5.5 84.5l24 -2q0 -56 -6 -95q-7 -36 -11 -57l-3 -18q29 -4 63.5 -8t62.5 -4q14 77 18 95q9 44 20 90
l24 -6q-10 -38 -24 -110q-9 -44 -14 -72q47 -5 79 -13l-6 -24q-32 8 -77 13l-15 -78l62 -11l-4 -24l-62 12l-29 -133l-24 6q7 31 10 47q12 52 18 85l-116 25q-9 -76 -18 -151v-29h-24v31q4 21 8.5 56t10.5 96q-16 3 -21.5 4t-16.5 1h-39v24h8.5t12.5 1q14 0 20 -1
q9 0 16.5 -1.5t20.5 -5.5q0 20 1 28.5t7 38.5z" />
    <glyph glyph-name="dollar" unicode="$" horiz-adv-x="271" 
d="M148 321l12 -148l5 -56q20 17 34.5 43t14.5 50q0 32 -19 61q-15 22 -47 50zM117 588q-27 -17 -49 -52t-20 -53q4 -29 23.5 -59.5t49.5 -54.5l-2 40q0 43 -0.5 91t-1.5 88zM123 342q-51 42 -68 62q-31 37 -31 79q0 40 25 74.5t66 56.5q0 48 -6 89l24 4l6 -81q30 11 57 11
q14 0 22.5 -1.5t19.5 -3.5l-4 -24l-51 4q-11 0 -16.5 -1t-26.5 -11l-1 -75q0 -21 2 -64.5t2 -50.5l3 -60q57 -45 74.5 -74.5t17.5 -65.5q0 -32 -20 -62q-15 -23 -50 -53l5 -44l5 -45l-24 -2l-8 56l-2 20q-18 -9 -40 -15.5t-38 -6.5q-23 0 -35 11q-5 5 -20 30l20 12
q8 -12 14.5 -18t20.5 -11q8 -2 18 -2q16 0 32.5 5.5t26.5 17.5l-13 144z" />
    <glyph glyph-name="percent" unicode="%" horiz-adv-x="350" 
d="M163 554q0 -35 -26 -50q-19 -11 -47 -11q-14 0 -25.5 19t-11.5 33q0 24 19 43t43 19q17 0 36 -25q12 -15 12 -28zM305 629l-150 -234l-135 -211l-20 12l64 104q68 110 121 190l100 151zM285 359q9 -8 9 -24q0 -10 -2 -17t-7 -21.5t-14.5 -24t-20.5 -9.5q-25 0 -36 4
t-18 19q-3 9 -3 16q0 6 4 20.5t16.5 28t21.5 16.5t20 3q18 0 30 -11zM141 566q-3 9 -10.5 15.5t-12.5 6.5q-17 0 -32 -11.5t-15 -35.5q0 -4 6 -11t13 -13q2 -2 12 -2q19 0 28 8q14 12 14 29q0 6 -3 14zM266 309q4 12 4 16q0 8 -7 15t-17 7q-5 0 -11.5 -5t-10.5 -11
q-7 -10 -7 -18q-1 -7 2.5 -18.5t26.5 -11.5q5 0 11 9t9 17z" />
    <glyph glyph-name="ampersand" unicode="&#x26;" horiz-adv-x="468" 
d="M478 63l-23 -8l-57 52q-32 -55 -64 -67t-94 -12q-69 0 -128 41q-64 44 -64 106q0 42 4.5 79t19.5 50t35 18t50 9l-88 98q-41 56 -41 126q0 86 25 112q9 10 75 36q30 12 59 12q40 0 81 -25q32 -18 50 -39q22 -25 22 -51q0 -88 -18 -148q-23 -77 -75 -117q-8 -6 -22.5 -11
t-25.5 -7q8 -9 37.5 -38.5t53.5 -50.5q3 -3 36 -33q42 -38 67 -56q11 20 19 30q13 18 30 34l16 -16q-17 -17 -28 -31q-4 -6 -20 -29q8 -6 24.5 -21.5t43.5 -42.5zM316 600q-7 19 -35 41q-14 11 -51 33q-8 5 -18.5 7t-20.5 2q-22 0 -48 -8q-14 -5 -27 -9q-31 -5 -45 -27
q-19 -29 -19 -84q0 -80 61 -146q35 -37 71 -74q18 3 30 4.5t20 8.5q20 16 51 90q35 83 35 135q0 16 -4 27zM382 119q-19 13 -37 29q-29 27 -57 54q-25 22 -64 58t-44 43l-8 10q-33 -4 -55.5 -10t-27.5 -15t-11 -55t-6 -58q0 -20 70.5 -68.5t113.5 -48.5q35 0 68 14
q41 17 58 47z" />
    <glyph glyph-name="quotesingle" unicode="'" 
d="M39 619q0 15 9.5 24.5t23.5 9.5q40 0 40 -40q0 -26 -26 -80q-20 -42 -40 -72l-13 26q18 26 24.5 41.5t6.5 25.5q-2 13 -2 19q0 9 -11.5 15t-11.5 31z" />
    <glyph glyph-name="parenleft" unicode="(" horiz-adv-x="275" 
d="M244 679q-75 -23 -109 -104q-20 -48 -38 -167q-2 -12 -3 -28.5t-1 -32.5q0 -38 5 -73t12 -60t29 -59q28 -43 64 -76l-16 -18q-43 40 -65 72t-38 83q-10 30 -14.5 62t-4.5 64v33.5t1 36.5q0 108 39 181q44 81 131 108z" />
    <glyph glyph-name="parenright" unicode=")" horiz-adv-x="275" 
d="M56 61q75 23 109 104q20 48 38 167q2 12 3 28.5t1 32.5q0 38 -5 73t-12 60t-29 59q-28 43 -64 76l16 18q43 -40 65 -72t38 -83q10 -30 14.5 -62t4.5 -64q0 -18 -0.5 -33t-0.5 -27v-10q0 -108 -39 -181q-44 -81 -131 -108z" />
    <glyph glyph-name="asterisk" unicode="*" horiz-adv-x="277" 
d="M117 735q0 5 2.5 11.5t2.5 8.5h-24q0 -5 -2.5 -11.5t-2.5 -8.5q0 -12 1 -21t6 -39q-25 11 -37 16q-20 9 -37 19l-12 -20q19 -11 44 -23q10 -5 47 -20l7 -26q-21 -32 -26 -40q-17 -27 -26 -39l20 -14q21 25 41 61l7 -45l24 2q-1 14 -5 36.5t-7 35.5l8 14q32 -15 54 -30.5
t44 -39.5l18 16q-20 22 -49 42q-23 16 -58 32q8 14 17 29q19 33 27 49l-22 10q-13 -28 -31 -60q-4 -7 -12 -19l-8 4q-4 18 -7.5 37.5t-3.5 32.5z" />
    <glyph glyph-name="plus" unicode="+" horiz-adv-x="367" 
d="M192 401l148 -14l-2 -24l-56 5l-92 9q-2 -28 -4 -61t-2 -64v-62l-3 -20h-24l3 20v64q0 31 2 64t4 61l-60 7q-18 2 -73 6q-8 0 -20 1l2 24l77 -5l75 -9l7 105l3 78l24 -2z" />
    <glyph glyph-name="comma" unicode="," 
d="M24 52q0 15 9.5 24.5t23.5 9.5q40 0 40 -40q0 -26 -26 -80q-20 -42 -40 -72l-13 26q18 26 24.5 41.5t6.5 25.5q-2 13 -2 19q0 9 -11.5 15t-11.5 31z" />
    <glyph glyph-name="hyphen" unicode="-" horiz-adv-x="300" 
d="M277 293q-13 -2 -23.5 -2h-18.5h-60h-32q-40 0 -58 -1.5t-40 -10.5l-10 22q22 9 46.5 11.5t59.5 2.5h34h60h15q5 0 23 2z" />
    <glyph glyph-name="period" unicode="." horiz-adv-x="120" 
d="M17 86q16 25 43 25q12 1 26 -13q4 -6 9 -11q7 -10 7 -34q0 -13 -2.5 -20.5t-13.5 -11.5q-3 -1 -21 -4q-9 -3 -17 -3t-15 4.5t-14.5 14.5t-9.5 18q-3 9 -0.5 17t8.5 18z" />
    <glyph glyph-name="slash" unicode="/" horiz-adv-x="305" 
d="M276 661q-12 -40 -24 -79l-58 -180q-40 -126 -64 -197l-39 -114l-22 8q18 59 28 94q33 110 54 179.5t44 147.5q22 63 47 122q4 11 12 27z" />
    <glyph glyph-name="zero" unicode="0" horiz-adv-x="602" 
d="M588 190q0 -75 -5 -106q-9 -54 -38 -91q-13 -16 -65 -26q-36 -6 -53 -9q-45 -8 -79 -13t-62 -5q-36 0 -65 7.5t-64.5 29.5t-71.5 44q-56 42 -56 139v58.5t5 67.5q10 101 54 194q60 127 146 127q76 0 148 -42q40 -25 84.5 -50.5t48.5 -28.5q14 -10 26 -28q27 -37 39 -124
q8 -60 8 -144zM564 190q0 93 -4 131q-8 79 -35 115q-9 12 -25 25q-7 5 -47.5 31.5t-77.5 52.5q-67 39 -125 39q-10 0 -16 -1q-67 -6 -126 -141q-45 -102 -49 -143t-5 -74t-1 -65q0 -72 46 -113q54 -33 68 -45q10 -9 63 -18.5t109 -9.5q16 0 35.5 0.5t49 7.5t59.5 13
q31 9 42 23q26 34 34 79q5 29 5 93z" />
    <glyph glyph-name="one" unicode="1" horiz-adv-x="260" 
d="M161 76h52l2 -28q-12 2 -27 3t-35 1q-17 0 -30 -1t-23 -5l-8 22q9 3 25 4t24 2l-6 242l-8 266q-10 -13 -25 -24q-48 -36 -59 -46l-16 16q30 30 46 47q50 51 78 73l1 -62q0 -49 7 -215q4 -95 4 -127q0 -57 -0.5 -97.5t-1.5 -70.5z" />
    <glyph glyph-name="two" unicode="2" horiz-adv-x="291" 
d="M288 132v-34q-19 4 -50 5t-45 1q-20 0 -40 -0.5t-40 -0.5q10 26 41 137t35.5 147.5t4.5 88.5q0 24 -1 39.5t-3 25.5q-6 25 -35 46q-21 15 -40 21q-4 1 -10 1q-25 0 -39 -37.5t-14 -82.5l-24 2q8 95 23 115q19 26 64 26q27 0 56 -26t43 -62q4 -9 5 -20t1 -30
q0 -25 -1 -41.5t-6.5 -77t-16.5 -105.5t-49 -143z" />
    <glyph glyph-name="three" unicode="3" horiz-adv-x="350" 
d="M322 525q3 -21 3 -37q0 -49 -28 -68q-24 -16 -77 -16q14 -30 23.5 -75t9.5 -79q-1 -10 -1 -15q-1 -9 -1 -13q0 -11 1 -23t2 -23q0 -16 -3.5 -26.5t-14.5 -21.5q-16 -15 -29.5 -18.5t-51.5 -3.5h-24q-25 0 -37 1.5t-30 9.5l10 22q17 -7 38 -8.5t26 -2.5q13 -2 43.5 4.5
t32.5 19.5q7 41 14 83q0 49 -9 91q-12 55 -40 101q62 0 91.5 17.5t29.5 57.5q0 15 -2 23q-11 59 -18 75q-23 52 -62.5 56.5t-59.5 4.5q-65 0 -110 -44l-16 16q26 26 59.5 39.5t72.5 13.5q22 0 41 -4q66 -12 91 -54q16 -27 26 -103z" />
    <glyph glyph-name="four" unicode="4" horiz-adv-x="273" 
d="M141 274l-47 -1l-42 2q0 61 -1.5 134t-1.5 74l27 2v-49.5t1 -52.5v-13v-11q0 -44 -5 -48q2 0 5 -4q8 -9 11 -9l53 3v33l14 183l28 2l-15 -183v-33h15v-28h-15v-82q2 -9 4 -23.5t2 -23.5l-28 -2l-5 46v84z" />
    <glyph glyph-name="five" unicode="5" horiz-adv-x="482" 
d="M60 586q65 28 149.5 46t164.5 25l2 -24q-62 0 -152 -23q-78 -20 -150 -50l8 -142q26 5 41 7q47 7 77 7q61 0 127 -50q82 -62 105 -162q2 -8 2 -22q0 -66 -97 -107q-79 -33 -172 -33l-5 22q76 0 156 33q94 39 94 91q0 6 -2 16q-23 89 -76.5 138.5t-131.5 49.5
q-33 0 -90 -8q-19 -2 -51 -8l-10 190z" />
    <glyph glyph-name="six" unicode="6" horiz-adv-x="315" 
d="M174 78q24 -5 43 41q8 20 15.5 38t7.5 36q0 41 -43 77q-36 30 -52 32t-20 2h-6q-25 0 -38 -12t-23 -39q-1 -76 26 -119t90 -56zM59 304q20 23 74 23q68 0 99 -49q25 -40 25 -118q0 -37 -14 -66q-18 -37 -48 -37q-102 0 -137 61q-25 44 -25 150q0 87 32 150q40 79 115 79
q18 0 48.5 -7t38.5 -8l-16 -30q-12 1 -35 9t-34 8q-4 0 -14 -2q-41 -11 -72.5 -57.5t-36.5 -105.5z" />
    <glyph glyph-name="seven" unicode="7" horiz-adv-x="344" 
d="M296 497q-6 -51 -9 -81q-11 -101 -17 -144.5t-22 -143.5q-4 -30 -13 -80l-24 4q7 67 11 107q13 113 27 195l22 119q-4 10 -12.5 13.5t-24.5 3.5q-6 0 -23 -1t-27 -1h-21q-11 3 -15 4q-32 6 -46 6q-12 0 -30 -4t-32 -4q-7 0 -16 -7q4 -12 7.5 -36t5.5 -38l-24 -4
q-3 22 -6 43t-10 44q13 10 18 13q13 9 25 9q3 0 51 2t82 2q54 0 87 -4.5t36 -16.5z" />
    <glyph glyph-name="eight" unicode="8" horiz-adv-x="549" 
d="M504 208q0 44 -9 84t-32 67t-47 55q-19 18 -55 38q-29 16 -45 21t-51.5 10.5t-50.5 5.5q-7 -1 -10 -1q-79 -14 -118 -99q-28 -61 -28 -124q0 -37 9 -98q14 -92 39 -136q9 -14 35 -36.5t43 -26.5q58 -18 117 -36q58 -8 127 74q76 90 76 202zM425 436q16 -6 36 -25
q16 -15 33 -36q23 -27 30 -74q4 -28 4 -93q0 -110 -61 -200q-67 -100 -166 -100q-32 0 -63.5 8.5t-62.5 22.5q-21 9 -49.5 35.5t-39.5 44.5q-30 52 -41 108.5t-11 137.5q0 100 32 156q40 70 138 91q5 1 8.5 1.5t6.5 1.5q3 -2 13 -3q-18 23 -23 46t-5 67q0 99 26 136
q32 46 126 46q72 0 117 -54.5t45 -127.5q0 -67 -32.5 -110.5t-91.5 -58.5q14 -13 31 -20zM371 472q56 6 95 68q34 54 28 85q-14 70 -43 109q-36 49 -95 49q-73 0 -106 -64q-22 -43 -22 -94q0 -32 9 -69.5t18 -37.5q17 0 56 -17q15 -6 36 -17t24 -12z" />
    <glyph glyph-name="nine" unicode="9" horiz-adv-x="310" 
d="M259 265l-1 35q0 33 -3 77t-3 49l-10 107q-17 2 -39 3t-45 1q-33 0 -40 -4q-37 -25 -59 -60t-22 -68q0 -49 27 -98q22 -40 41.5 -52t67.5 -12q20 0 30 1.5t24 7.5zM259 240l-27 -11q-13 -4 -32.5 -7.5t-32.5 -3.5q-36 0 -65 13q-50 21 -69.5 63.5t-19.5 110.5
q0 51 25.5 88.5t73.5 63.5q12 6 45 6q23 0 44 -2t38 -4l-6 47l24 2q7 -36 10 -58q10 -66 10 -107q0 -24 3 -64t3 -65l2 -162l2 -125l-28 1l2 124z" />
    <glyph glyph-name="colon" unicode=":" horiz-adv-x="105" 
d="M62 380h-24v20h24v-20zM72 67l-24 -4l-5 41l24 2z" />
    <glyph glyph-name="semicolon" unicode=";" 
d="M24 52q0 15 9.5 24.5t23.5 9.5q40 0 40 -40q0 -26 -26 -80q-20 -42 -40 -72l-13 26q18 26 24.5 41.5t6.5 25.5q-2 13 -2 19q0 9 -11.5 15t-11.5 31zM17 286q16 25 43 25q12 1 26 -13q4 -6 9 -11q7 -10 7 -34q0 -13 -2.5 -20.5t-13.5 -11.5q-3 -1 -21 -4q-9 -3 -17 -3
t-15 4.5t-14.5 14.5t-9.5 18q-3 9 -0.5 17t8.5 18z" />
    <glyph glyph-name="less" unicode="&#x3c;" horiz-adv-x="363" 
d="M323 114l-16 -18q-77 63 -150 153q-63 77 -85 124l229 245l18 -16l-210 -225q48 -76 101 -144q58 -73 113 -119z" />
    <glyph glyph-name="equal" unicode="=" horiz-adv-x="332" 
d="M308 399q-10 0 -23 -2.5t-17 -2.5h-231v24h228q9 0 22.5 2.5t18.5 2.5zM302 297l-275 2v24l275 -2v-24z" />
    <glyph glyph-name="greater" unicode="&#x3e;" horiz-adv-x="363" 
d="M324 218q-23 -49 -84 -124q-70 -86 -151 -153l-16 18q54 45 112 118q51 72 102 145l-210 225l18 16z" />
    <glyph glyph-name="question" unicode="?" horiz-adv-x="357" 
d="M318 411q-27 -47 -66 -65q-14 -6 -88 -25l-20 -199l-24 2l22 214q55 16 104 43t51 42q4 17 4 37q0 52 -29 101q-16 27 -37.5 49t-51.5 22q-58 0 -119 -72q-10 -12 -13 -34.5t-5 -42.5l-23 4q4 24 10 51t10 34q18 32 60 53.5t86 21.5q34 0 57 -16q19 -13 48 -62
q36 -61 36 -110q0 -25 -12 -48zM137 48q-8 -10 -11 -14q-7 -9 -12 -17l-20 13q5 8 12 17q4 5 13 16z" />
    <glyph glyph-name="at" unicode="@" horiz-adv-x="430" 
d="M281 449q-2 7 -7 14.5t-8.5 11t-12.5 10.5q-13 15 -18 20q-9 10 -28 10q-3 0 -27.5 -3.5t-39.5 -40.5t-10 -56q8 -32 31.5 -56.5t51.5 -24.5q5 0 15 2q37 11 48 39q5 14 5 50v24zM282 490l13 3l5 -20l1 -10q2 -21 9 -43.5t14 -42.5q12 12 18 23.5t19 52.5q2 8 2 14
q0 43 -30 90q-36 57 -84 57q-7 -1 -11 -1q-77 -10 -131.5 -74.5t-54.5 -134.5q0 -14 3 -29q10 -47 61 -95t92 -48q21 0 86 42q75 48 98 92l22 -12q-28 -51 -101 -100q-69 -46 -105 -46q-56 0 -116.5 56.5t-60.5 110.5q0 109 49 181q55 81 158 81q71 0 111 -55
q36 -50 36 -129q0 -35 -18 -61q-11 -15 -54 -57l-15 47q-9 -30 -25 -50q-19 -24 -42 -24q-46 0 -85.5 32.5t-39.5 74.5q0 50 16 81q21 41 66 41q31 0 55 -13q19 -10 39 -34z" />
    <glyph glyph-name="A" unicode="A" horiz-adv-x="211" 
d="M150 321l-80 -2l-11 -209l-24 11l11 197h-19v24h20l28 232l5 21l36 2l53 -250h4l2 -24l41 -196l-33 1l-21 115zM71 343l74 2l-37 173z" />
    <glyph glyph-name="B" unicode="B" horiz-adv-x="350" 
d="M194 366q61 0 97 -37t36 -99q0 -67 -68.5 -132.5t-145.5 -65.5q-14 0 -29 3l-6 90q-7 65 -24.5 181.5t-27.5 197.5q-14 117 -14 195q32 -3 55 -3h22t21 1q92 0 140 -62q42 -55 42 -145q0 -51 -28 -82q-24 -26 -70 -42zM73 364q105 23 123 31q62 28 72 95q1 7 1 19
q0 60 -53 109q-47 43 -106 55q-12 2 -20 2q-12 0 -25.5 -1t-26.5 -2q0 -62 11.5 -146t23.5 -162zM76 339q7 -50 12 -85q14 -95 14 -128l4 -70q4 -1 12 -1q59 0 125 70q60 64 60 105q0 42 -35 76q-38 37 -93 37h-68z" />
    <glyph glyph-name="C" unicode="C" horiz-adv-x="510" 
d="M468 333l-16 -16q-37 37 -88 54t-114 17q-30 0 -82 -6.5t-89 -52t-37 -126.5q0 -66 85 -148q94 -90 203 -103v-24q-135 0 -223.5 77.5t-88.5 197.5q0 108 27 150q35 54 135 54q135 0 192 -17.5t96 -56.5z" />
    <glyph glyph-name="D" unicode="D" horiz-adv-x="375" 
d="M357 360q0 -61 -15 -127q-18 -81 -49 -111q-22 -22 -80 -32q-42 -7 -93 -7h-52q-3 40 -4 67q-4 83 -4 166v84.5t1 104.5l-5 174q48 -7 66.5 -11.5t37.5 -15.5t33 -21q25 -19 51 -37q48 -30 80.5 -97.5t32.5 -136.5zM326 355q0 56 -25 120q-28 73 -70 99q-41 28 -81 57
q-11 6 -30 10t-40 9l5 -141l7 -89v-190.5v-122.5h28q32 0 77 10.5t77 24.5q23 10 39 96q13 70 13 117z" />
    <glyph glyph-name="E" unicode="E" horiz-adv-x="441" 
d="M399 49l-2 -21l-54 3q-76 0 -153 9l-36 5l-123 16l-4 150q0 39 -3 101t-3 101q0 31 2 65t4 63q36 10 57 14q66 14 107 14h68.5h43.5v-22q-12 1 -27 1.5t-35 0.5h-25q-16 -2 -23 -2q-36 0 -94 -13q-19 -4 -51 -13l1 -156v-40q24 -3 58.5 -4.5t75.5 -1.5q17 0 49 -3.5
t44 -3.5v-21q-124 0 -223 11v-219l101 -16l36 -5q35 -4 77 -7t77 -3z" />
    <glyph glyph-name="F" unicode="F" horiz-adv-x="284" 
d="M53 638l262 9v-24l-238 -9v-182h8.5h10.5h16q31 0 55 3l38 6l10 -22l-43 -7q-22 -2 -50.5 -2.5t-41.5 -0.5l1 -28q0 -66 17 -205q9 -74 9 -101l-34 1q-6 66 -9 106q-10 130 -10 195v40v38v34v29v24v20v16v13v28t-1 19z" />
    <glyph glyph-name="G" unicode="G" horiz-adv-x="483" 
d="M453 456q-20 -18 -46 -37q-15 -11 -49 -33q15 -11 21 -25q11 -26 11 -65q0 -77 -37 -122q-42 -51 -120 -51q-125 0 -169 90q-31 64 -31 207v67q0 116 18 160q27 65 109 65q99 0 145 -23q57 -29 77 -106l-24 -6q-16 64 -85 92q-48 19 -113 19q-62 0 -87 -58
q-18 -43 -18 -124q0 -16 1 -45.5t1 -40.5q0 -108 39 -186q44 -88 118 -88q12 0 19 1q48 7 89 49q46 47 46 104q0 32 -6 44t-27 29q-29 -20 -35 -25t-22 -21l-16 16q25 25 64 52q96 66 111 79z" />
    <glyph glyph-name="H" unicode="H" horiz-adv-x="280" 
d="M200 312l-32 221l24 4l32 -225h16v-24h-13l25 -171l-24 -4l-25 175h-121q6 -42 8 -87t2 -96h-24q0 97 -10 183h-8v24h4q-9 72 -31 136v82h24v-79q10 -30 18 -64.5t14 -74.5h121z" />
    <glyph glyph-name="I" unicode="I" horiz-adv-x="115" 
d="M87 71l-24 -2q-1 10 -1.5 22.5t-0.5 18.5v24.5t1 25.5v120l-19 235q0 20 13 68q7 26 7 43l24 -2q0 -21 -10 -54t-10 -54l19 -235v-121q0 -14 -0.5 -27.5t-0.5 -26.5v-16q2 -13 2 -19z" />
    <glyph glyph-name="J" unicode="J" horiz-adv-x="238" 
d="M151 509l-36 -11l-8 22l130 40l8 -22l-71 -22q19 -75 34 -187.5t15 -166.5v-13l-8 -120q-14 -62 -79 -62q-44 0 -77 25q-25 19 -53 60l20 14q21 -30 45 -46.5t65 -28.5q8 -2 12 -2q35 0 46 75q5 33 5 85q0 94 -12 179t-36 181z" />
    <glyph glyph-name="K" unicode="K" horiz-adv-x="211" 
d="M52 410l1 -7q24 -21 61.5 -77t51.5 -88q10 -23 22 -60q16 -52 19 -60l-22 -8q-28 78 -54 136q-40 88 -76 127l23 -235l-32 -2l-10 182q0 84 -14 214q-4 44 -15 117l24 2l9 -101l10 -104q4 12 46 57q46 49 80 77l16 -18q-21 -17 -42.5 -34t-39 -35t-32 -37.5t-26.5 -45.5z
" />
    <glyph glyph-name="L" unicode="L" horiz-adv-x="330" 
d="M280 109q-5 -3 -8 -4q-11 -6 -19.5 -7t-32.5 -2t-51 -1q-25 0 -52.5 0.5t-58.5 1.5q-7 0 -11.5 4.5t-4.5 10.5l-24 292q5 43 5 80q0 49 -6.5 100.5t-18.5 97.5l30 11q9 -61 14 -109.5t5 -100.5q0 -16 -0.5 -29.5t-4.5 -51.5l25 -280q23 -2 53 -3t65 -1q19 0 35 0.5
t32 3.5q8 3 10.5 4.5l7.5 4.5z" />
    <glyph glyph-name="M" unicode="M" horiz-adv-x="434" 
d="M279 504q-10 -65 -23 -115.5t-40 -129.5q-27 80 -56 134q-32 61 -72 102q-8 -88 -8 -133q0 -61 -20 -170q-16 -87 -18 -103l-16 -147l-20 -4l16 152q5 62 14.5 138.5t18.5 150.5q14 112 18 158q46 -43 80 -94q18 -27 35 -61.5t28 -63.5q11 37 23 93t23 108q3 10 11 24
q3 5 9 13q14 -38 23 -75q6 -25 13 -63q11 -66 32 -151.5t43 -173t33 -151.5l-20 -4q-12 72 -33 155t-42 164q-25 101 -35 156q-3 21 -7 47.5t-10 43.5z" />
    <glyph glyph-name="N" unicode="N" horiz-adv-x="305" 
d="M233 190l12 86q0 1 18 119q9 58 16 119l14 135h24q-2 -17 -2 -28q-5 -63 -10 -107q-18 -120 -36 -239q-5 -47 -6.5 -89.5t-2.5 -62.5l-32 -4v17q-21 49 -50 139q-23 70 -45 141q-27 82 -50 141l-11 29v-45l2 -241v-131h-28l4 129q0 47 -1 121t-1 121v100l23 5
q19 -41 39 -81q22 -55 76 -233q26 -85 47 -141z" />
    <glyph glyph-name="O" unicode="O" horiz-adv-x="672" 
d="M644 316q0 -68 -4.5 -127t-15.5 -113q-20 -95 -35 -124q-37 -73 -185 -73q-78 0 -120 5q-78 9 -105 35q-70 66 -99.5 144t-29.5 184q0 118 65 226q75 125 184 125q60 0 133 -26t119 -66q25 -22 31 -28q13 -13 27.5 -35.5t24.5 -59t10 -67.5zM619 316q0 36 -5 66t-21 44
q-25 18 -35 26q-18 14 -31 29q-37 41 -103.5 66t-124.5 25q-65 0 -122 -74q-43 -56 -75 -146q-26 -73 -26 -105q0 -62 26 -145q34 -108 93 -165q24 -22 97 -29q33 -3 112 -3q81 0 128 42t66 134q10 42 15.5 110t5.5 125z" />
    <glyph glyph-name="P" unicode="P" horiz-adv-x="266" 
d="M221 484q8 -38 8 -63q0 -59 -35 -83t-103 -24q0 -47 5.5 -82t20.5 -73l-39 -6q-14 84 -27 174t-13 184v42.5v27.5h8l-2 14q22 3 44.5 4t43.5 1q50 0 67 -33q6 -11 22 -83zM193 477q-10 42 -25 67.5t-29 27.5t-26 2q-17 0 -47 -5v-54q0 -32 15 -108q8 -41 8 -65
q51 0 80 26t29 72q0 15 -5 37z" />
    <glyph glyph-name="Q" unicode="Q" horiz-adv-x="387" 
d="M284 97l-47 53l15 13q20 -24 30 -34.5t21 -20.5q45 35 45 104q0 48 -9 104q-5 31 -20 99q-2 22 -4 38.5t-12 22.5q-21 15 -58.5 21t-76.5 6q-78 0 -112 -76q-25 -56 -25 -144q0 -32 -1 -68t-2 -70q0 -34 4 -39.5t35 -18.5t57 -13q21 -3 31 -3.5t25 -0.5h21q17 3 26 4
q15 0 32 8q7 3 25 15zM349 58l-16 -13l-33 36q-16 -9 -33.5 -16.5t-39 -10.5t-37.5 -3q-15 0 -39 1.5t-28 1.5q-34 0 -69 17t-42 31q-1 2 -1 17v27v68.5t1 68.5q0 128 48 190q39 50 108 50q40 0 81.5 -7t65.5 -23q11 -8 15.5 -30.5l8.5 -42.5q12 -61 19.5 -111t7.5 -97
q0 -40 -12.5 -69t-36.5 -49z" />
    <glyph glyph-name="R" unicode="R" horiz-adv-x="230" 
d="M187 170q0 -12 -4.5 -25t-11.5 -17.5t-13 -6.5t-12 -3l33 -115l-24 -6l-35 121h-53l1 -27l-1 -34h-24v137v112v39v59l-5 62l57 8q63 0 82 -56q10 -30 10 -112v-136zM163 171v133v24q0 56 -9 81q-14 39 -54 39h-19t-19 -3l5 -39q1 -8 2.5 -9.5t1.5 -5.5v-14q-3 -18 -4 -28
t-1 -19q1 -14 1 -25q1 -30 1.5 -66.5t0.5 -69.5l-2 -27l28 1q8 0 17 -0.5t18 -0.5q19 0 22 3q11 10 11 26z" />
    <glyph glyph-name="S" unicode="S" horiz-adv-x="305" 
d="M263 488q-10 -2 -54 -22q-39 -17 -45.5 -16t-51.5 -28.5t-46 -33.5q-1 -11 31 -58q11 -17 23 -33q20 -30 51 -92.5t31 -74.5q0 -11 -31.5 -88t-40.5 -82q-18 -10 -32.5 -13t-32.5 -3q-13 0 -24.5 0.5t-21.5 0.5v24h24t24 -1q20 0 31.5 2.5t21.5 11t34 72.5t24 76
q0 13 -30 70q-26 49 -48 84q-30 37 -46 59.5t-16 34.5q0 37 85 82q66 35 134 52z" />
    <glyph glyph-name="T" unicode="T" horiz-adv-x="390" 
d="M354 536l-8 -22q-68 26 -141 43l-31 -332q0 -38 6 -104q2 -23 7 -63l-24 -6q-4 41 -6 65q-7 80 -7 109l31 336l-32 6h-129v24h131q50 -8 104 -23t99 -33z" />
    <glyph glyph-name="U" unicode="U" horiz-adv-x="580" 
d="M556 580q-12 -25 -21.5 -75t-17.5 -91t-24 -96.5t-29 -85.5q-31 -74 -55 -103q-16 -19 -30 -19h-13q-27 -17 -51.5 -22t-61.5 -5h-43q-26 0 -48 11q-9 5 -16.5 6t-18.5 1q-6 0 -16 -1t-13 -1q-17 0 -22 16.5t-9.5 31.5t-8.5 30q-11 42 -16.5 90.5t-5.5 129.5v29
q0 23 6 74t6 76l24 -2q0 -34 -1 -56q-4 -86 -4 -93v-59q0 -63 2.5 -102t12.5 -81q3 -13 7 -29t9 -23q2 -3 29.5 -3t38 -1t21.5 -10.5t23 -9.5h40q35 0 56.5 4t47.5 19q30 19 48 49q8 13 32 71q11 25 26 82q10 40 19 82t25 93t30 83z" />
    <glyph glyph-name="V" unicode="V" horiz-adv-x="191" 
d="M174 459q-23 -40 -45 -128q-18 -73 -28 -138l-24 -1l-5 21q-23 128 -45 257h24q0 -42 12 -105q8 -43 23 -99q5 45 25.5 106.5t42.5 98.5z" />
    <glyph glyph-name="W" unicode="W" horiz-adv-x="336" 
d="M356 521q-9 -28 -26 -61t-33 -64q-20 -40 -31 -124q-6 -40 -10.5 -73.5t-10.5 -57.5q-2 -10 -13 -49h-15h-11q-34 41 -48 71.5t-19 72.5q-14 -45 -14 -91v-42t2 -31l-31 -2l-63 438l24 4l50 -303q5 28 13.5 50t12.5 33v7l24 2q0 -69 10 -101.5t47 -79.5q3 15 23 150
q13 93 37 140q0 1 33 58q17 29 27 61z" />
    <glyph glyph-name="X" unicode="X" horiz-adv-x="237" 
d="M144 269q17 -105 22 -121q12 -41 39 -87l-20 -12q-28 47 -41 99q-8 31 -15 86l-3 -5q-12 -20 -47 -54q-49 -46 -50 -48l-18 16q40 38 61 59q25 25 32.5 39.5t10 20t6.5 16.5q-8 38 -23 69q-20 39 -56 75l16 16q33 -32 50 -61t26 -63q13 39 21 53q15 28 47 57l16 -18
q-36 -32 -51 -68q-13 -43 -23 -69z" />
    <glyph glyph-name="Y" unicode="Y" horiz-adv-x="365" 
d="M191 433q-10 22 -20 41q-14 26 -38 64q-17 26 -41 50q-19 19 -47 42l17 24q36 -28 70 -72q30 -39 56 -88l21 -43q20 23 38 52q20 36 31 55.5t22.5 38t25.5 36.5l20 -21q-17 -17 -30 -36q-1 -2 -40 -67q-16 -28 -26 -42q-13 -19 -35 -42l3 -31l2 -51q0 -86 0.5 -140
t2.5 -109l-30 1q0 32 1.5 138t1.5 112l-3 47l-5 40z" />
    <glyph glyph-name="Z" unicode="Z" horiz-adv-x="480" 
d="M450 -167q-40 2 -88.5 4t-93.5 2l-102 1q0 17 0.5 34.5t2.5 42.5q11 123 51 223q8 20 22 50q19 42 23 50q33 61 49 93q31 60 58 143q-34 -2 -56 -3q-152 -9 -208 -9l-70 -1l-6 24l65 5q76 0 202 5q42 1 112 5q-18 -61 -59 -143q-33 -65 -65 -129q-8 -17 -23 -61
q-5 -15 -15 -39q-30 -73 -38 -101q-17 -57 -17 -115q-1 -14 -1.5 -27t-0.5 -25l120 3l138 3v-35z" />
    <glyph glyph-name="bracketleft" unicode="[" horiz-adv-x="192" 
d="M150 -92h-122v32v469q0 9 -2.5 22.5t-2.5 18.5q-1 16 -1.5 28.5t-0.5 21.5q0 32 0.5 43.5t1.5 18.5h38h35l40 -5l-2 -24l-40 5h-47q0 -6 -0.5 -18.5t-0.5 -33.5q0 -24 1 -35q0 -10 2.5 -22.5t2.5 -17.5v-201.5v-163.5v-106v-8h98v-24z" />
    <glyph glyph-name="backslash" unicode="\" horiz-adv-x="265" 
d="M256 115l-22 -10q-28 67 -69 183q-32 91 -64 183q-36 101 -72 184l22 10q32 -75 71 -183q32 -92 64 -183q37 -106 70 -184z" />
    <glyph glyph-name="bracketright" unicode="]" horiz-adv-x="192" 
d="M154 560q0 -9 -2.5 -22.5t-2.5 -18.5v-469v-32h-122v24h98v8v104.5v163.5v203q0 10 2.5 23t2.5 17q1 10 1 22.5v19.5v25.5t-1 19.5h-47l-40 -5l-2 24l40 5h44.5h28.5q1 -12 1.5 -27t0.5 -36v-25q-2 -17 -2 -24z" />
    <glyph glyph-name="asciicircum" unicode="^" horiz-adv-x="265" 
d="M246 649l-22 -8q-30 86 -94 152q-19 -23 -41.5 -69t-42.5 -89l-12 20q19 48 42.5 94.5t54.5 76.5q47 -47 72.5 -86t42.5 -91z" />
    <glyph glyph-name="underscore" unicode="_" horiz-adv-x="470" 
d="M445 -67l-110 4l-141 3l-170 8l2 24l169 -8l140 -3l110 -4v-24z" />
    <glyph glyph-name="grave" unicode="`" horiz-adv-x="125" 
d="M101 640l-22 -10l-65 171l56 14q6 -14 15 -86.5t16 -88.5z" />
    <glyph glyph-name="a" unicode="a" horiz-adv-x="303" 
d="M266 -14l-22 -8q-4 19 -5.5 28t-2.5 17q-10 -15 -28 -19.5t-46 -4.5q-47 0 -82 42q-20 24 -21 63.5t-3 56t-2.5 26.5t-0.5 26q0 17 0.5 23.5t6 31.5t19.5 41q24 21 44 39q13 12 33 20q5 2 26 9l-15 46q-10 19 -28 38.5t-27 21.5q-11 2 -25.5 0t-29.5 -5l-8 22q9 3 15 4
q18 4 33 4q9 0 21.5 -2.5t28.5 -15.5q21 -17 42 -55q33 -60 50 -130t17 -151v-57.5v-37.5q5 -37 10 -73zM233 47l-1 9q-2 14 -2 45q-1 12 -1 25v25q0 69 -8 110.5t-30 96.5q-18 -7 -34 -15q-24 -12 -28 -18q-21 -27 -31 -43q-13 -20 -13 -28q-3 -30 -3 -96v-18q0 -23 4 -41
t16 -34q20 -26 30.5 -34t30.5 -8q24 0 37 3q24 6 33 21z" />
    <glyph glyph-name="b" unicode="b" horiz-adv-x="275" 
d="M97 96l3 -22l-24 -4q-10 63 -15 108.5t-5 100.5v152q0 64 -10 157q-1 17 -6 43l32 -1q3 -43 5.5 -95.5t2.5 -101.5v-44q7 1 20 1h22q53 0 91.5 -48.5t38.5 -113.5q0 -70 -44 -103q-39 -29 -111 -29zM80 365v-83q0 -38 4.5 -80.5t9.5 -81.5q53 0 94.5 27t41.5 65
q0 11 -2 16q-19 75 -38 103q-24 36 -56 36q-8 0 -12 -1t-8 -1h-6h-17h-11z" />
    <glyph glyph-name="c" unicode="c" horiz-adv-x="343" 
d="M327 117q-27 -11 -53 -21q-25 -8 -61 -8q-94 0 -126 27q-36 30 -36 121q0 64 5 90q11 59 49 86q17 12 37 17.5t39 5.5q15 0 39 -1.5t26 -1.5h33v-24h-31h-27.5t-26.5 1q-24 0 -41.5 -3.5t-31.5 -13.5q-26 -18 -38 -50.5t-12 -66.5q0 -11 0.5 -17.5t3.5 -21.5
q8 -48 29 -78q33 -47 90 -47q13 0 19 1q45 5 64 11q21 9 42 16z" />
    <glyph glyph-name="d" unicode="d" horiz-adv-x="409" 
d="M308 429l-12 135l-22 203l24 2l16 -113q4 -30 15 -130q17 -152 17 -233v-121h-24v24q-56 -20 -58 -21q-38 -12 -61 -12q-9 0 -13 1q-85 14 -122 39q-50 34 -50 105q0 65 53 104.5t123 39.5q28 0 59 -5.5t55 -17.5zM311 399q-16 13 -48.5 21.5t-57.5 8.5q-9 0 -11 -1
q-90 -38 -106 -53q-27 -24 -34 -65q-3 -14 -3 -25q0 -43 59 -66q78 -30 83 -32.5t18 -2.5q23 0 53.5 12.5t57.5 24.5v70q0 28 -5 69q-1 14 -6 39z" />
    <glyph glyph-name="e" unicode="e" horiz-adv-x="499" 
d="M366 373q-13 26 -16 31q-11 18 -25 29q-32 25 -86 46q-44 17 -60 17q-49 0 -84.5 -56.5t-35.5 -127.5q0 -25 3 -38.5t3 -25v-21.5q78 37 157 75q46 29 88 49q35 16 56 22zM382 357l-6 -2q-23 -5 -48 -21q-26 -20 -51 -40q-104 -46 -208 -91q5 -25 21 -51.5t31 -50.5
q6 -12 58 -35t86 -23q7 1 10 1q44 4 88 9q66 14 70 59l33 -9q-27 -59 -75 -74q-28 -9 -116 -9q-54 0 -100.5 21.5t-79.5 57.5q-42 45 -53 116q-3 20 -3 40v13q0 119 19 170q31 82 121 82q75 0 135.5 -44t84.5 -112z" />
    <glyph glyph-name="f" unicode="f" horiz-adv-x="220" 
d="M84 352q6 -30 14.5 -85t13.5 -97l-24 -4q-8 15 -16 84q-11 92 -13 104l-40 2l2 24l33 -2l-10 98q-3 15 -3 28q0 74 83 74q38 0 48.5 -6t21.5 -36l-29 -12q0 11 -8 21t-23 10q-6 0 -14 -3q-25 -8 -38.5 -25.5t-13.5 -50.5q0 -47 11 -100h6q11 0 21 1l20 2q6 -1 10 -1
l-5 -30z" />
    <glyph glyph-name="g" unicode="g" horiz-adv-x="312" 
d="M260 21q-24 -9 -54 -9q-74 0 -126 35q-60 40 -60 109q0 66 46 111t112 45q19 0 27.5 -1t38.5 -7l-11 36l22 8q18 -43 24.5 -100.5t6.5 -126.5q0 -24 -1 -71t-1 -68q0 -54 -19.5 -76t-70.5 -22q-41 0 -66.5 11.5t-42.5 42.5l22 12q22 -44 70 -44q5 0 17 2q28 5 39 12
q27 18 27 62v39zM261 48v58v22q0 60 -1.5 87t-9.5 63q-19 5 -33 8t-27 3q-8 0 -12 -1q-32 -5 -77 -41q-57 -46 -57 -98q0 -38 44 -77t94 -39q12 0 19.5 2t28 5t31.5 8z" />
    <glyph glyph-name="h" unicode="h" horiz-adv-x="209" 
d="M64 303q-2 -17 -2 -27q-5 -60 -7.5 -70t-5 -49.5t-5.5 -77.5l-24 2l31 360l17 176l24 -2l-10 -116l-14 -156q7 7 13 8t14.5 1.5t12.5 0.5q26 0 39.5 -12.5t25.5 -24.5q8 -6 12 -29.5t4 -53.5q0 -31 -1.5 -57t-3.5 -39.5t-3 -26t-1 -29.5l-24 6q0 8 2 27.5t2 23.5
q0 29 1 55t2 51q0 37 -7 53t-31 27t-36 5q-13 -7 -21 -18z" />
    <glyph glyph-name="i" unicode="i" horiz-adv-x="114" 
d="M53 700l-3 -10q-7 -11 -18 -8q-5 1 -7 6t-4 12l16 16zM83 183q0 -30 -1 -78t-1 -73h-24q0 25 1 72t1 77q0 51 -14 176q-7 62 -7 111l-5 127l24 2q6 -45 8 -72q9 -89 9 -133q0 -48 2 -80q7 -113 7 -129z" />
    <glyph glyph-name="j" unicode="j" horiz-adv-x="229" 
d="M160 716h-28v24h28v-24zM208 252q0 -54 -10 -78q-16 -38 -60 -38q-57 0 -74 9t-24 30q-3 9 -3 20q0 10 0.5 15t2.5 10h24q-2 -11 -2 -17q0 -12 5 -20q9 -12 20 -19.5t28 -7.5q12 0 23 4q24 9 35 36.5t11 55.5q0 52 -6 114q-9 76 -13 112q-7 70 -13 141l24 2l7 -47
q13 -96 19 -169t6 -153z" />
    <glyph glyph-name="k" unicode="k" horiz-adv-x="260" 
d="M63 158q3 -7 5 -10q6 -10 14 -15q25 -11 47.5 -22t36.5 -22t23 -20.5t25 -31.5l-22 -8q-11 17 -19 23q-15 11 -24 21q-13 14 -42.5 22.5t-42.5 19.5l15 -114l-27 1q-4 32 -6 51q-6 58 -6 94v19q0 49 -10 130q-3 27 -10 72h24l20 -171l6 3q10 5 19 9t17.5 8t17.5 10
q17 13 35 26q13 8 39 18l8 -22q-28 -12 -34.5 -16t-33.5 -25q-5 -4 -19 -9.5t-19 -9.5t-29 -24q-3 -2 -8 -7z" />
    <glyph glyph-name="l" unicode="l" horiz-adv-x="108" 
d="M92 270q0 -51 2 -108t4 -105l-24 2q-5 47 -7 76q-7 87 -7 141v136q0 48 -15 123t-15 112l24 2q0 -35 11 -85q25 -114 25 -155q0 -26 1 -69t1 -70z" />
    <glyph glyph-name="m" unicode="m" horiz-adv-x="547" 
d="M111 493q11 15 33 20q32 5 52 9q12 3 28.5 -3.5t26.5 -19.5q5 -7 10 -16.5t10 -21.5l9 -25q14 27 29.5 35.5t50.5 8.5q64 0 98 -42.5t34 -107.5q0 -52 6 -142q2 -30 6 -80h-28q-3 61 -4 94q-4 100 -4 128q0 46 -18 78q-27 48 -90 48q-22 0 -48.5 -32t-35.5 -71l-24 3
q1 14 2 37.5t1 28.5q0 26 -3 32q-8 14 -11.5 20t-8.5 11q-10 9 -23.5 13t-21.5 3q-34 -6 -45 -13q-17 -11 -27 -41q-10 -39 -15 -62q-17 -68 -29.5 -110t-22.5 -116q-3 -23 -8 -63h-24q6 39 9 62q10 65 21 112q21 95 27 128q11 64 11 130v24h24v-23z" />
    <glyph glyph-name="n" unicode="n" horiz-adv-x="244" 
d="M80 412q30 24 72 24q44 0 61 -82q11 -53 11 -142v-32h-24q0 7 2 42t2 58q0 60 -9 90q-13 42 -43 42q-41 0 -72 -33v-163h-24v220h24v-24z" />
    <glyph glyph-name="o" unicode="o" horiz-adv-x="635" 
d="M608 151q0 -109 -10 -139t-65 -96q-24 -29 -87.5 -52.5t-109.5 -23.5q-54 0 -111.5 12t-105.5 33q-32 14 -52 52q-23 42 -43 149q-5 26 -5 42q0 8 2.5 27t2.5 38q0 47 1 57q7 24 13 73t9.5 63t14.5 32q17 30 59 56t92 38q31 7 59 7q13 0 28.5 -1.5t41.5 -5.5
q53 -8 106 -34q19 -10 90 -52q24 -14 43 -55q16 -36 27 -84q5 -23 5 -48q0 -19 -1 -31q-4 -48 -4 -57zM584 153q0 27 -3 74t-3 58q0 35 -23 73q-17 28 -40 48q-34 28 -64 47q-59 36 -99 36q-9 0 -14 -1q-68 -5 -135 -10q-45 -10 -73.5 -28.5t-44.5 -46.5q-10 -18 -13.5 -38
t-3.5 -46q0 -21 -11 -71q-6 -28 -6 -64q0 -30 -2 -45.5t-3 -28.5q0 -12 2 -20q12 -61 38.5 -113.5t51 -69.5t64.5 -22q65 -4 130 -9q7 -1 52 9q100 23 131 47q38 30 51 71q18 57 18 150z" />
    <glyph glyph-name="p" unicode="p" horiz-adv-x="303" 
d="M48 270q16 0 48.5 2t36.5 2q46 0 70 -8.5t48 -37.5q35 -43 35 -106q0 -45 -14 -70q-17 -31 -59 -41q-28 -7 -75 -11t-72 -4v-51l1 -49v-23q0 -14 -2 -23l-24 4q2 11 2 23.5v18.5l-1 48q0 25 -3 66t-3 66l-15 223l24 2zM50 246q6 -36 8 -58q8 -66 8 -107v-61q6 0 22.5 -1
t27.5 -1q17 0 24 1t26.5 5t49.5 28q39 31 46 70q2 14 2 19q0 50 -53 81q-36 21 -78 28q-6 1 -18 1q-13 0 -35.5 -2.5t-29.5 -2.5z" />
    <glyph glyph-name="q" unicode="q" horiz-adv-x="307" 
d="M188 488q-8 2 -17 7t-20 5q-4 0 -14 -1.5t-17 -2.5q-29 -6 -53 -26q-35 -30 -35 -76q0 -15 2 -25t28 -29t49 -28q12 -5 20 -8.5t22 -3.5h18q11 3 20 4.5t14.5 5t10.5 11.5zM183 514l-3 12l24 4l46 -267l13 -83l11 27l22 -10l-28 -68l-23 5v15l-23 142q-6 -6 -13 -8.5
t-21 -2.5q-55 0 -109 21q-69 27 -69 69q0 69 23 106q27 44 87 44q17 0 28.5 -1.5z" />
    <glyph glyph-name="r" unicode="r" horiz-adv-x="264" 
d="M20 371l-8 63l24 4l7 -46q36 28 97 28q58 0 74 -20.5t16 -81.5l-18 -6q0 40 -24.5 63.5t-45.5 23.5q-56 0 -96 -34l16 -113q10 -60 15 -84q9 -40 26 -79l-37 -11q0 34 -11.5 78.5t-14.5 63.5z" />
    <glyph glyph-name="s" unicode="s" horiz-adv-x="210" 
d="M190 346q-34 -2 -69.5 -4.5t-47.5 -7.5q-42 -17 -35 -40q5 -16 36 -52q37 -42 43 -54.5t13 -42.5t7 -52q0 -10 -1 -13q-10 -37 -20 -47q-15 -15 -50 -15q-25 0 -37 9q-12 11 -19 18l16 18q10 -12 15.5 -17.5t14.5 -5.5q2 0 10 2q42 12 43.5 21t2.5 17q3 8 3 16
q0 17 -6 35t-15 35q-38 46 -59 76t-21 52q0 30 25 46q21 12 33 19t31 10.5t42 3.5q20 0 28.5 -0.5t16.5 -2.5v-24z" />
    <glyph glyph-name="t" unicode="t" horiz-adv-x="322" 
d="M99 485l-77 -9l-2 30q6 -1 12 -1h12q13 0 28.5 1.5t24.5 2.5l-5 42l-8 87l32 14v-44v-54l5 -42q9 1 20 4q34 9 44 10t17 1h10q28 0 47.5 -2t36.5 -5v-24h-22t-32 1q-40 0 -72 -3l-47 -6q10 -132 21 -263q4 -39 23 -65t45 -26q4 0 14 2.5t19.5 15t17.5 24.5l18 -16
q-12 -16 -23 -31q-19 -21 -45 -21q-54 0 -70.5 21.5t-22.5 93.5z" />
    <glyph glyph-name="u" unicode="u" horiz-adv-x="412" 
d="M325 272l17 165l26 -9q-8 -23 -14 -79t-8 -69t-2 -37v-41v-71t1 -55h-24v73q-11 -28 -22 -43q-15 -21 -37 -32t-29 -14q-15 -7 -58 -7q-31 0 -77 8t-61 67q-3 13 -16 91q-2 16 -2 68q0 38 0.5 74.5t1.5 66.5h24q0 -18 -1 -70.5t-1 -72.5q0 -49 2 -63q10 -54 14 -68
q12 -46 40 -59q14 -6 38.5 -12t37.5 -6q14 1 29 2q25 4 49 18q6 3 24 37q42 79 48 138z" />
    <glyph glyph-name="v" unicode="v" horiz-adv-x="191" 
d="M189 450q-9 -43 -37 -136q-33 -111 -54 -154q-23 63 -45 140q-25 86 -30 124l26 1q5 -32 23 -101q8 -30 29 -100q7 19 30.5 112t27.5 111z" />
    <glyph glyph-name="w" unicode="w" horiz-adv-x="210" 
d="M122 189q11 73 24 144q17 91 23 104l19 1q-13 -78 -26 -155q-17 -107 -17 -161l-23 -5l-9 18q-6 36 -7 43q-8 39 -25 65q-11 -62 -22 -123l-23 4q0 49 -12.5 119t-23.5 135l24 4l30 -182q4 36 7 53t10 32q21 -21 32 -44t19 -52z" />
    <glyph glyph-name="x" unicode="x" horiz-adv-x="249" 
d="M215 188q-13 28 -21 45q-14 29 -24 45t-23 31q-30 -73 -60 -145l-27 14q5 15 47 99q18 36 23 55q-29 25 -45 38q-51 42 -74 51l10 22q28 -12 60.5 -37t58.5 -53q13 34 19 51q10 28 17 55l22 -23q-9 -29 -19.5 -53.5t-21.5 -48.5q11 -12 19.5 -23.5t15 -22t21.5 -42.5
q19 -39 23 -46z" />
    <glyph glyph-name="y" unicode="y" horiz-adv-x="244" 
d="M113 190q-9 18 -19 34t-21 33l-28 48q-20 33 -32 45l16 16q17 -17 29 -33q9 -11 25 -37q12 -19 24 -42q5 -10 22 -42q11 17 20 37q6 14 14 37.5l16 47t15 37.5l22 -10q-8 -15 -23 -62q-19 -59 -22 -67q-7 -22 -17 -31q-5 -5 -16 -17l2 -49l9 -165h-24l-9 160l-3 52v8z
" />
    <glyph glyph-name="z" unicode="z" horiz-adv-x="238" 
d="M221 128l-2 -24q-57 0 -89.5 5.5t-64.5 16.5q15 36 30 67q21 41 31 61q17 35 27 58q14 33 20 65l-34 1q-28 0 -74 -4q-15 -1 -41 -4v24l116 8h23.5t26.5 1h13q-7 -42 -14 -71.5t-17.5 -53.5t-38 -69.5t-37.5 -68.5q26 -6 61.5 -9t63.5 -3z" />
    <glyph glyph-name="braceleft" unicode="{" horiz-adv-x="200" 
d="M155 459q-39 -16 -59 -96q-7 -28 -14 -83q-2 -10 8 -43q6 -20 6 -35q0 -9 -12.5 -16t-12.5 -10q0 -1 18 -16q10 -8 13.5 -15.5t3.5 -15.5t-24 -89q-12 -40 -12 -64q0 -32 10.5 -57t33.5 -33l-8 -22q-29 11 -45 41.5t-16 67.5q0 29 10 65q23 84 23 88q0 8 -1.5 13t-17 13
t-15.5 26q0 4 18 15q9 6 9 9q0 17 -6.5 36.5t-6.5 41.5q0 72 17 120q22 61 70 81z" />
    <glyph glyph-name="bar" unicode="|" 
d="M75 300q0 -13 -1 -49t-1 -51v-28t1 -27v-16q-1 -6 -1 -9l-1 -40h-24l1 41q1 8 1 16.5v13.5q0 12 -0.5 24t-0.5 25q0 14 1 50t1 50l-3 360h24z" />
    <glyph glyph-name="braceright" unicode="}" horiz-adv-x="200" 
d="M172 288q0 -19 -15.5 -27t-17 -12.5t-1.5 -12.5q0 -9 22 -88q11 -40 11 -65q0 -36 -15.5 -67t-45.5 -42l-8 22q22 8 33 33t11 57q0 27 -11 64q-25 85 -25 90q0 7 4 14.5t22 22.5q9 7 9 9q0 3 -12.5 9.5t-12.5 16.5q0 18 8 42.5t6 35.5q-8 63 -13 83q-20 80 -60 96l10 22
q48 -20 70 -81q17 -48 17 -120q0 -25 -6.5 -45.5t-6.5 -32.5q0 -4 18 -15q9 -6 9 -9z" />
    <glyph glyph-name="asciitilde" unicode="~" horiz-adv-x="375" 
d="M360 693q-13 -19 -25 -37q-14 -13 -45 -13q-34 0 -61 4.5t-54 16.5q-7 3 -15.5 16t-19.5 13q-29 0 -48 -6t-49 -35l-16 16q26 27 49 38t64 11q15 0 24 -11q14 -17 21 -20q23 -10 48.5 -14.5t56.5 -4.5q22 0 32 11q10 17 18 29z" />
    <glyph glyph-name="ellipsis" unicode="&#x2026;" horiz-adv-x="450" 
d="M17 86q16 25 43 25q12 1 26 -13q4 -6 9 -11q7 -10 7 -34q0 -13 -2.5 -20.5t-13.5 -11.5q-3 -1 -21 -4q-9 -3 -17 -3t-15 4.5t-14.5 14.5t-9.5 18q-3 9 -0.5 17t8.5 18zM167 76q16 25 43 25q12 1 26 -13q4 -6 9 -11q7 -10 7 -34q0 -13 -2.5 -20.5t-13.5 -11.5
q-3 -1 -21 -4q-9 -3 -17 -3t-15 4.5t-14.5 14.5t-9.5 18q-3 9 -0.5 17t8.5 18zM317 81q16 25 43 25q12 1 26 -13q4 -6 9 -11q7 -10 7 -34q0 -13 -2.5 -20.5t-13.5 -11.5q-3 -1 -21 -4q-9 -3 -17 -3t-15 4.5t-14.5 14.5t-9.5 18q-3 9 -0.5 17t8.5 18z" />
    <glyph glyph-name="quoteleft" unicode="&#x2018;" 
d="M81 515q0 -15 -9.5 -24.5t-23.5 -9.5q-40 0 -40 40q0 26 26 80q20 42 40 72l13 -26q-18 -26 -24.5 -41.5t-6.5 -25.5q2 -13 2 -19q0 -9 11.5 -15t11.5 -31z" />
    <glyph glyph-name="quoteright" unicode="&#x2019;" 
d="M39 619q0 15 9.5 24.5t23.5 9.5q40 0 40 -40q0 -26 -26 -80q-20 -42 -40 -72l-13 26q18 26 24.5 41.5t6.5 25.5q-2 13 -2 19q0 9 -11.5 15t-11.5 31z" />
    <glyph glyph-name="quotedblleft" unicode="&#x201c;" horiz-adv-x="265" 
d="M81 515q0 -15 -9.5 -24.5t-23.5 -9.5q-40 0 -40 40q0 26 26 80q20 42 40 72l13 -26q-18 -26 -24.5 -41.5t-6.5 -25.5q2 -13 2 -19q0 -9 11.5 -15t11.5 -31zM221 520q0 -15 -9.5 -24.5t-23.5 -9.5q-40 0 -40 40q0 26 26 80q20 42 40 72l13 -26q-18 -26 -24.5 -41.5
t-6.5 -25.5q2 -13 2 -19q0 -9 11.5 -15t11.5 -31z" />
    <glyph glyph-name="quotedblright" unicode="&#x201d;" horiz-adv-x="285" 
d="M37 617q0 15 9.5 24.5t23.5 9.5q40 0 40 -40q0 -26 -26 -80q-20 -42 -40 -72l-13 26q18 26 24.5 41.5t6.5 25.5q-2 13 -2 19q0 9 -11.5 15t-11.5 31zM162 612q0 15 9.5 24.5t23.5 9.5q40 0 40 -40q0 -26 -26 -80q-20 -42 -40 -72l-13 26q18 26 24.5 41.5t6.5 25.5
q-2 13 -2 19q0 9 -11.5 15t-11.5 31z" />
    <glyph glyph-name="endash" unicode="&#x2013;" horiz-adv-x="300" 
d="M277 293q-13 -2 -23.5 -2h-18.5h-60h-32q-40 0 -58 -1.5t-40 -10.5l-10 22q22 9 46.5 11.5t59.5 2.5h34h60h15q5 0 23 2z" />
    <glyph glyph-name="emdash" unicode="&#x2014;" horiz-adv-x="460" 
d="M432 283q-13 -2 -23.5 -2h-18.5h-60q-16 0 -93 2.5t-100 2.5q-74 0 -92 -7l-10 22q12 5 42 7t68 2q53 0 100.5 -2t84.5 -3h60h15q5 0 23 2z" />
  </font>
</defs>
</svg>
