<?xml version="1.0" standalone="no"?>
<!DOCTYPE svg PUBLIC "-//W3C//DTD SVG 1.1//EN" "http://www.w3.org/Graphics/SVG/1.1/DTD/svg11.dtd" >
<svg xmlns="http://www.w3.org/2000/svg" xmlns:xlink="http://www.w3.org/1999/xlink" version="1.1">
<metadata>
Created by FontForge 20230101 at Sun Apr 25 00:29:54 1999
 By Glenn Lewis
Tombots (Tombats 5) is Copyright (c) 1999 Tom Murphy 7. http://fonts.tom7.com/ - Use freely, but don't resell the font itself. ImightbeTM@aol.com / 339 Still Hill Rd / Hamden CT 06518.1830 / USA / Enjoy! "Some Drilling Implied"
</metadata>
<defs>
<font id="Tombots" horiz-adv-x="500" >
  <font-face 
    font-family="Tombots"
    font-weight="400"
    font-stretch="normal"
    units-per-em="1000"
    panose-1="0 0 4 0 0 0 0 0 0 0"
    ascent="800"
    descent="-200"
    x-height="645"
    cap-height="750"
    bbox="2 -94 1144 806"
    underline-thickness="20"
    underline-position="-143"
    unicode-range="U+0020-00A9"
  />
<missing-glyph 
d="M63 0v800h375v-800h-375zM125 63h250v675h-250v-675z" />
    <glyph glyph-name=".notdef" 
d="M63 0v800h375v-800h-375zM125 63h250v675h-250v-675z" />
    <glyph glyph-name=".null" horiz-adv-x="0" 
 />
    <glyph glyph-name="nonmarkingreturn" 
 />
    <glyph glyph-name="space" unicode=" " 
 />
    <glyph glyph-name="A" unicode="A" horiz-adv-x="580" 
d="M563 746q0 -22 -25 -30q-32 -11 -32 -12q-33 -38 -96 -130q61 -29 92 -97q24 -53 24 -113q0 -47 -12 -207q-1 -5 -13 -12q6 -56 -8 -71q-18 -22 -39 -28q-72 -24 -152 -24q-87 0 -154 7q-23 2 -36.5 21t-19.5 75q-12 4 -38 17q-8 5 -12 23q-15 72 -15 142q0 108 33 167
q35 65 126 105q-5 33 -21.5 78t-22.5 45q-3 0 -6.5 -1.5t-7.5 -1.5q-35 0 -35 40q0 22 15.5 33.5t37.5 11.5q51 0 51 -45q0 -24 -25 -33q10 -28 36 -120q59 11 86 11q47 0 91 -20q30 44 89 133q2 3 0 7q-11 29 -4 49q9 24 36 24q17 0 37 -14t20 -30zM540 746
q-3 8 -14.5 14.5t-17.5 6.5q-9 0 -13 -3q-12 -9 0 -24q5 -7 14 -7q4 0 18 5t13 8zM169 737q1 5 0 9q-3 13 -23 13q-23 0 -28 -12q-4 -9 0 -16q4 -6 18 -6q30 0 33 12zM492 364q0 14 -4 41t-26 73q-33 65 -72 65q-4 0 -11 -8q-3 -4 -7 -9q-3 3 -5 9q0 1 1.5 6t1.5 8
q-44 17 -79 17q-56 0 -73 -9q-4 -4 -12 -8q-29 -3 -66 -28t-52 -52q-32 -57 -32 -163q0 -116 12 -147q3 -9 18 -10h22q25 -3 65 -10q17 -3 57 -3q163 0 249 40q13 202 13 188zM469 97v38h-10q-103 -28 -221 -28q-48 0 -64 4q-21 5 -56 11q7 -21 15.5 -42t31.5 -21
q3 0 67 -1.5t67 -1.5q50 0 100 11q59 12 70 30zM399 273q0 -13 -12 -25.5t-22 -12.5q-29 0 -29 35q0 9 8 23q10 18 25 18q12 0 21 -14t9 -24zM285 267q0 -21 -18 -21q-13 0 -13 18q0 22 16 22q15 0 15 -19z" />
    <glyph glyph-name="B" unicode="B" horiz-adv-x="596" 
d="M573 107q0 -17 -18 -17q-10 0 -27.5 23.5t-26.5 23.5q-8 0 -17.5 -7t-9.5 -15q0 1 27 -38q9 -13 9 -22q0 -8 -7 -12.5t-11 -4.5q-5 0 -41 52q-92 -36 -187 -36q-28 0 -70 5q-4 1 -18 7t-17 6q-15 0 -21.5 -29t-18.5 -29q-17 0 -17 19q0 9 21 58q-3 1 -11.5 5.5t-12.5 4.5
q-2 0 -26 -21t-29 -21q-16 0 -16 14t31 38q25 18 32 20q-16 52 -18 84q-3 51 -3 143q0 231 113 261q-1 18 -9 48q-8 5 -22 14.5t-14 27.5q0 16 12 27.5t24 11.5q8 0 21.5 -10t15.5 -23q0 -1 -7 -26q-7 -28 7 -64q25 6 67 14q23 1 70 8v49q-29 15 -29 41q0 16 15.5 28
t30.5 12q35 0 35 -41q0 -15 -8.5 -21t-16.5 -11q-3 -20 -6 -46v-18q58 -6 86 -47q22 -32 30 -93q3 -52 7 -104q15 -184 8 -223q9 -3 28 -13q13 -11 29 -29.5t16 -23.5zM369 736q3 8 0 12q-4 4 -13 0q-9 -5 -8 -12q0 -4 3 -6q4 -4 12 0q4 2 6 6zM180 701q4 2 4 9q0 6 -5 9
q-6 3 -10.5 -1.5t-1.5 -10.5q4 -10 13 -6zM468 274v17q0 10 -5 84q-5 86 -11 131q-5 36 -27 71q-18 29 -56 29q-9 0 -13 -8h-6q-13 19 -22 19q-36 0 -115 -22q-11 -15 -15 -15q-3 0 -7 4t-7 4q-22 0 -41 -29q-44 -67 -44 -199q0 -1 1.5 -48t2.5 -70l-4 -4h23v11q-4 31 -4 43
q0 26 10 26q3 0 5 -1t3 -1q2 -20 5 -40q5 -31 17 -31q4 0 8.5 1.5t5.5 1.5q-6 47 4 57h8q9 -6 13 -25q2 -13 5 -27h33q-12 12 -12 39q0 16 11 16t18 -22q3 -15 7 -30q10 0 18 1l8 1q-1 8 -2 17q-2 15 -2 25q0 23 9 23q18 0 26 -59q26 2 31 2q0 4 -1.5 19.5t-1.5 24.5
q0 24 12 24q14 0 20 -28l4 -32h28q-3 55 14 55q16 0 21 -55h25zM471 199v40h-23q0 -59 1 -32q-1 -28 -16 -28q-17 0 -20 29q0 -2 0 31h-23q4 -15 4 -25q0 -24 -17 -24q-13 0 -17 18l-5 26q-17 -5 -28 -5q0 -4 3 -17t3 -19q0 -16 -18 -16q-20 0 -20 47l-26 -3v-9q0 -5 3 -19
t3 -20q0 -12 -10 -15q-5 -1 -13 0q-13 3 -14 20v28q-1 8 -3 15h-26q0 -2 4.5 -24t4.5 -34q0 -23 -14 -23q-17 0 -27 78q-17 -3 -20 -2q10 -61 10 -48q0 -17 -12 -17q-10 0 -18 26l-10 36q-11 -3 -22 -3q-1 -125 152 -125q72 0 125 17q89 28 89 97zM384 423q0 -20 -12 -36
t-31 -16q-23 0 -38 14.5t-15 36.5q0 14 9 33q11 23 29 23q22 0 40 -17.5t18 -37.5zM253 402q0 -15 -15.5 -29.5t-28.5 -14.5q-15 0 -29 21q-13 18 -13 28q0 14 14.5 30.5t30.5 16.5q17 0 30 -21q11 -17 11 -31z" />
    <glyph glyph-name="C" unicode="C" horiz-adv-x="619" 
d="M599 556l-31 -26q5 -6 5 -11q0 -9 -16 -18q-11 -6 -22 -11q9 -18 9 -21q0 -10 -91 -124q-1 -1 -3 -12q-8 -6 -18 -6q-24 0 -107 33q-10 6 -28 18q19 -101 46 -287q0 -8 7.5 -42t7.5 -35q0 -5 -4 -8q-10 0 -38.5 -3l-28.5 -3q-10 0 -60 5t-56 6q-10 17 -31 80q0 6 -2 20
q-2 3 -41.5 33t-39.5 40q0 5 11 16q-4 3 -7.5 10t-3.5 26l12 92q2 15 6 47q2 10 10 10q2 0 4 -2t4 -2t13.5 9t18.5 11.5t22 9.5q-2 6 -12 38q-27 2 -33 2q-2 0 -7 -1.5t-7 -1.5q-18 0 -22 125q-2 55 -2 138q5 4 10 4h39q7 15 32 48q-5 22 20 22q20 0 20 -11q0 -2 -3 -8
q-45 -21 -57 -48q6 -5 21 -10q21 -6 25 -7q7 12 22 37q8 8 19 22q1 5 5 13q5 5 18 5q11 0 11 -11q0 -9 -8.5 -15t-15.5 -6q-2 0 -2.5 1t-2.5 1q-8 0 -17.5 -21t-9.5 -29q12 -9 29 -10q9 -1 9 -17v-138q0 -24 7.5 -50t7.5 -25q0 -14 -37 -14q-19 0 -31 2q-1 -1 -1 -4
q0 -5 12 -23q76 23 90 23q7 0 14 -4.5t15 -7.5q35 -5 112 -31q18 43 68 117q12 14 34 43q-18 18 -18 31q0 4 5 4t20 -31q13 -1 18 16t10 33h6q1 0 1.5 -1t0.5 -4q0 -2 -6 -18t-6 -18q0 2 6 -13q7 13 21 40h7q0 -1 1 -2t1 -5q0 -2 -12.5 -21.5t-12.5 -21.5q0 -5 4 -10
q8 7 25 23h7l1 -1t1 -4zM557 517q-4 12 -15 39q-7 -4 -19 -11q0 -3 2 -10t3 -9q2 -17 6 -22q11 7 23 13zM236 765l-5 4q-4 -2 -8 -10h8q5 3 5 6zM178 774q-13 3 -22 0v-6q4 -4 6 -4q14 4 16 10zM526 469q0 3 -4 9.5t-4 8.5l-9 33q-86 -123 -86 -130q0 -5 25 -34q10 14 49 69
q29 42 29 44zM438 340q-11 19 -28 54q-2 -2 -6 -2q-8 0 -59 15t-62 21q5 -7 7 -20q4 -20 4 -21q25 -12 66 -24q54 -14 78 -23zM221 464q-12 39 -13 78v128q-15 3 -39 7q0 5 -1.5 7t-20.5 7.5t-24 5.5q-3 0 -5.5 -2t-4.5 -2t-12 3t-13 3h-6v-111q0 2 11 -120h6q17 0 49 -1
q1 0 6 -1.5t7 -1.5h60zM172 420q-9 15 -9 26q-3 0 -8 1h-8q6 -10 13 -33q6 2 12 6zM337 18v14q0 1 -6.5 29t-7.5 38q-5 51 -33 213q-2 11 -17 114q-56 -12 -173 -47q2 -3 17 -14q12 -8 12 -14q0 -2 -4.5 -28t-4.5 -28q0 -62 17 -101q4 -10 23 -24q16 -13 20 -13q2 0 3 1t3 1
q12 0 9 -18h5q7 0 14 -5q-7 15 5 25q7 -3 7 -9q0 -4 -2.5 -10t-2.5 -8q8 -2 10 -8q20 26 25 26q3 0 5 -3q1 -1 0 -7q-1 -8 -10 -13.5t-17 -9.5v-9q31 4 29 4q9 0 9 -7q0 -4 -2 -4q-19 -6 -32 0v-11q37 -12 37 -17q0 -6 -7 -6q-2 0 -14.5 5t-15.5 5q-2 0 -7 -2.5t-7 -2.5
q-21 0 -30 4q-2 1 -5.5 5.5t-5.5 4.5h-3q-1 -1 -3 -1q-5 0 -31 18q11 -28 34 -83q10 -4 20 -4q-3 0 53 0h84zM115 350q-10 6 -29 16q-15 -119 -15 -131q0 -2 1.5 -12t1.5 -15q8 7 22 17q6 42 19 125zM118 209v7q-6 57 -6 46q-8 -29 -8 -41q5 -4 14 -12zM226 87q1 8 0 12
q0 4 -6 21q-9 1 -16 8q-6 -13 -6 -24v-15q18 0 28 -2zM180 135q0 16 -14 23q-26 14 -32 19q-15 14 -38 31q-15 -15 -23 -25q51 -42 52 -43q31 -24 51 -33q4 18 4 28zM181 597q0 2 -2.5 -4t-5.5 -6q-5 -1 -8 4q-7 12 2 16q5 2 9 0q5 -4 5 -10zM138 569q0 -7 -8 -11
q-8 2 -8 11q0 11 7 11q9 0 9 -11z" />
    <glyph glyph-name="D" unicode="D" horiz-adv-x="354" 
d="M333 56q0 -19 -15.5 -22t-29.5 -4q-25 -9 -72 -13q-40 -3 -81 -7q-18 25 -18 88q0 12 3 16.5t21 11.5l-6 42q-15 -4 -23 -4q-15 0 -19.5 10.5t-7.5 20.5q-5 35 -17 104q-15 83 -13 146q1 31 -6.5 94.5t-7.5 58.5q0 12 19 18q23 7 25 9q-3 22 -11 62q-6 2 -16.5 9
t-10.5 21q0 27 25 27q13 0 20 -18q-3 -8 -5 -24q7 -24 19 -72l41 12q-4 33 -9 57q-5 3 -15 14q-6 11 -6 26q0 23 24 23q12 0 22 -7.5t10 -17.5q0 -2 -12 -26v-16q0 -49 10 -49q2 0 16.5 3t17.5 3q11 0 13 -11q9 -60 37 -189q12 -52 32 -137q28 -108 28 -101q0 -10 -15 -15
q-11 -3 -21 -6q4 -13 13 -36q24 0 26 -12q15 -65 15 -89zM157 736q0 10 -14 10q-7 2 -10 0q-1 -1 -2 -5q0 -4 5 -14.5t8 -10.5q3 1 8 8.5t5 11.5zM79 720q0 9 -7 10q-9 2 -9 -11q0 -7 2 -9q3 -1 7 0q7 3 7 10zM287 223v9l-20 62q-5 24 -16.5 67.5t-33.5 131.5q-7 42 -27 131
q-46 -10 -125 -26l14 -158q0 -64 1 -78q1 -3 19 -117q2 -12 18 -57q37 10 109 28q21 1 61 7zM267 153q-7 19 -7 37q-6 -1 -15 -4q11 -21 10 -33h12zM235 147q-1 6 -4.5 18.5t-4.5 18.5q-5 -3 -13 -2q4 -12 8 -38q2 0 7 1.5t7 1.5zM203 141q-5 13 -9 37q-4 0 -9.5 -1l-5.5 -1
q2 -4 8 -23q4 -15 9 -15q4 0 7 3zM171 133l-4 20q-2 14 4 19h-14q-4 -4 -4 -8q0 9 6 -34q2 0 6.5 1.5t5.5 1.5zM307 61q-8 48 -12 71h-7q-50 -11 -147 -34q3 -23 10 -64q7 4 65 10q63 6 91 17zM217 385q0 -17 -13 -17q-6 0 -11.5 6.5t-5.5 12.5q0 19 14 19q16 0 16 -21z
M149 386q0 -18 -15 -18t-15 22q0 20 13 20q17 0 17 -24z" />
    <glyph glyph-name="E" unicode="E" horiz-adv-x="852" 
d="M811 631q0 -9 -12 -15t-22 -6q-12 0 -39 26q-6 0 -22.5 -12t-16.5 -17q0 -37 33 -37q5 0 18 14t29 14q30 0 30 -19q0 -9 -18.5 -39t-25.5 -33t-22 -3q-11 0 -48 8t-42 13q-6 11 -18 31h-15q-12 -22 -27 -22q-6 0 -17 2t-16 2q-58 -53 -175 -157q2 -20 12 -57q4 -8 76 -38
t85 -30q5 0 16.5 3.5t18.5 3.5q9 0 16 -11q4 -9 9 -17q8 -3 23 -5q12 18 27 18q6 0 18 -9.5t12 -15.5q0 -17 -5 -20q6 -17 13 -28l12 -2q15 -7 15 -31q0 -18 -19 -18q-1 -7 -1 -23q4 -3 13 -11l1 -4q0 -12 -10 -26t-21 -14q-5 0 -14 4q-4 0 -21 -13q-1 -14 -14 -23.5
t-28 -9.5q-7 0 -20 16q-15 2 -44 4q-7 -14 -23 -14q-33 0 -38 12t-21 12t-19.5 -7t-17.5 -7q-19 0 -23 3t-16 19q-12 2 -35 4q-7 -12 -38 -12q-15 0 -21 7t-11 7q-17 0 -37 -11t-33 -11q-18 0 -29 7q-16 33 -30 33q-2 0 -5.5 -2t-5.5 -2q-8 0 -18.5 12t-10.5 20q0 6 12 17
q-4 27 -3 52q-13 9 -13 19q0 40 32 38q17 22 29 32q0 7 5 19q10 3 27 17q25 32 35 72q-16 -7 -47 -26l-19 -19q-14 -13 -19 -13q-6 0 -8 4q-21 -38 -55 -118q10 -8 10 -13q0 -37 -19 -37q-2 0 -5 -6q-11 -29 -14 -85q0 -3 1 -8v-7v-3q-15 -11 -25 -11q-9 0 -11 11
q-2 7 -1 21q2 19 2 17v72q-14 7 -14 12q0 11 22 47q27 44 29 50q58 130 92 130q2 0 4 -2t4 -2q34 13 99 43q4 1 12 22q-38 -1 -51 26q-10 19 -10 61q0 181 43 197q9 2 25 9q-3 16 -3 24q0 14 13 16q-2 0 25 0t36 -3q17 -6 17 -25q0 -5 -2 -12h14q35 -1 43 -35q1 -4 4 -62
q2 -68 2 -70q0 -11 -7 -91q27 26 53 51q31 31 47 57q0 10 5 30q9 16 34 16q46 0 53 -20q15 1 18 13q4 19 5 21q13 16 46 33t53 17q12 0 37.5 -24.5t25.5 -36.5zM778 638q-27 30 -31 30q1 0 -10 -6h2q9 1 21 -9q9 -8 18 -15zM772 568q-25 -26 -39 -26q-9 0 -30 10.5t-24.5 19
t-3.5 36.5q0 21 21 34l38 20q-42 -8 -57 -24q-19 -18 -19 -57q0 -49 85 -49q14 0 29 36zM641 594h-18v-12h15zM596 602q-3 0 -9 1t-9 1q-16 0 -17.5 -13t-1.5 -27q20 -4 23 -4q10 0 12 17q1 12 2 25zM354 731q2 6 2 12l-2 6h-45v-18q11 2 45 0zM405 569q0 93 -7 124l-12 9
q-88 0 -103 -7q-26 -12 -26 -162q0 -41 8 -58q17 -7 95 -7q24 0 34 3q11 21 11 98zM405 424h-19q-9 0 -9 -12q0 -5 2 -14zM537 227q-11 4 -34 9v-2q0 -10 15 -10q3 0 9 1.5t10 1.5zM679 125q0 27 -12 48q-14 25 -39 25q-101 0 -101 -80q0 -62 57 -62q36 0 63 16q32 19 32 53
zM459 256q-34 15 -49 24q-27 15 -42 34q-5 -2 -37 -2v-2q0 -16 -10 -16q-15 0 -9 19q-14 7 -14 44q0 17 18 17q3 0 8.5 -2t8.5 -2q4 0 11.5 1t11.5 1v11q0 9 -2 25.5t-2 25.5h-4q-11 0 -40 4q-7 -37 -32 -88q-22 -42 -43 -83q21 3 43 -1q-1 14 17 14q42 0 38 -35q8 -1 25 -5
v4q-1 22 24 22q30 0 27 -33q6 0 18.5 -1t18.5 -1v2q0 6 7 13.5t8 9.5zM350 354q-15 -3 -31 0v-22h29q0 12 2 22zM267 399l-75 -35l2 -5l70 33zM515 190q-83 3 -178 24q22 -37 22 -71q0 -32 -25 -66q28 0 84 -6.5t84 -6.5q-9 33 -9 55q0 34 22 71zM179 341q-5 3 -15 13
q-11 -11 -11 -14t5 -8.5t5 -7.5q6 6 16 17zM325 143q0 30 -25.5 63.5t-54.5 33.5q-37 0 -60.5 -29.5t-23.5 -67.5q0 -25 13 -46q15 -24 39 -24q112 0 112 70zM147 315l-12 13q-23 -45 -62 -137h7q38 97 67 124zM90 156v12h-25q-4 0 -10.5 -1t-9.5 -2l-4 -9q39 3 49 0z
M68 138q-8 0 -13 2q2 -14 2 -30q0 -14 -1 -37q-2 -26 -2 -37q7 60 14 102zM365 619q0 -13 -12 -13q-14 0 -14 14t14 14q12 0 12 -15zM315 621q0 -13 -12 -13t-12 13q0 15 12 15t12 -15zM637 124q0 -13 -11.5 -24.5t-23.5 -11.5q-13 0 -23 11t-10 23q0 15 10.5 26.5
t25.5 11.5q32 0 32 -36zM303 309q0 -9 -11 -9t-11 10q0 12 11 12t11 -13zM287 151q0 -41 -38 -41q-20 0 -34 14t-14 33q0 39 43 39t43 -45z" />
    <glyph glyph-name="F" unicode="F" horiz-adv-x="731" 
d="M718 401q0 -8 -4 -35q-4 -31 -8 -34q-10 -7 -29 -21q8 -37 8 -68q0 -41 -15 -80q-13 -15 -32 -49q-1 -2 3 -15t4 -23q0 -6 -1 -11q-3 -16 -33 -29q-25 -12 -50 -16q-34 -6 -134 -6q-54 0 -71 2.5t-46.5 14.5t-57.5 12q-3 0 -23 -8.5t-32 -12t-62 -3.5q-34 0 -66 15
q-42 19 -42 53q0 30 29.5 71t29.5 46q0 3 -4 32q-6 34 -8 47q2 12 1 36q-13 13 -34 41q-4 6 -8 31q-4 22 -4 27q0 117 66 209.5t167 118.5q64 17 144 17q186 0 257 -105q55 -81 55 -257zM673 448q-15 -9 -49.5 -19.5t-47.5 -10.5q-48 -4 -136 -4h-127q-7 0 -50 7
q-46 7 -47 9q-2 2 0 22q2 19 3.5 21t17.5 1q203 -13 187 -13q101 0 179 11q15 2 60 23q-5 25 -12 61q-10 86 -97 130q-65 32 -148 32q-70 0 -99 -6q-51 -10 -119 -50q-37 -23 -71 -76q-26 -43 -35 -76q2 -11 1 -29q-5 -8 -11 -21q-6 -24 -6 -47q0 -27 11 -37q26 -24 62 -31
q25 -4 50 -7q50 -11 75 -12q84 -3 163 -3q61 0 165 11q16 6 47 17q10 2 23 12q11 26 11 85zM596 82v9q-3 23 -43 51t-62 28q-38 0 -94 -32q-60 -33 -69 -66q24 -14 43 -14q59 0 122 3q73 3 103 21zM640 251q0 2 -1.5 18t-1.5 23q-72 -13 -131 -13q-3 0 -115.5 1.5
t-115.5 1.5q-15 0 -77 8q-65 9 -78 10v-9q0 -65 56 -152q11 -17 30 -27q16 -6 32 -13q33 -15 32 -15h13q13 49 86 93q68 40 120 40q46 0 81 -32q17 -11 43 -31q27 35 27 97zM183 67q-21 20 -42 42.5t-32 44.5q-37 -40 -38 -72q23 -18 60 -18q2 0 23.5 1.5t28.5 1.5zM196 471
q2 -2 0 -19q-3 -16 -4 -17q-15 3 -36 4q-1 -12 -4 -26q-3 -3 -17 -2t-16 5q1 14 0 31q-12 3 -27 10q-3 2 -1 17q2 14 4 17q12 -2 26 -2q1 15 5 33q2 2 20 0q17 -2 19 -6q-3 -17 -3 -38q16 -1 34 -7zM305 207q-6 -11 -18 -11q-17 1 -16 21q1 17 16 18q12 1 18 -8t0 -20z
M203 248q0 -34 -26 -34q-20 0 -20 25q0 12 7.5 22t19.5 10q19 0 19 -23z" />
    <glyph glyph-name="G" unicode="G" horiz-adv-x="1000" 
d="M936 91q0 -54 -101 -54q-30 0 -61 8q-62 15 -66 16q-2 -6 -8 -15q-45 -29 -112 -37q-32 -3 -123 -3q-61 0 -80 2.5t-51.5 15.5t-64.5 13q-3 0 -24 -8q-24 -10 -37.5 -14t-69.5 -4q-38 0 -74 16q-47 22 -47 60q0 33 33.5 79.5t33.5 51.5q0 3 -7.5 49t-7.5 51q0 81 16 120
q29 73 94 143q72 77 139 92q30 7 116 8q14 22 39 48q34 35 53 35q45 0 43 -97v-16q12 2 44 16q19 7 48 7q60 0 60 -45q0 -5 -21 -74q5 3 22 3q21 0 37 -9q20 -11 20 -30q0 -4 -9.5 -21.5t-11.5 -22.5q-1 -3 0 -8q5 3 9 3q13 0 22 -21q7 -16 7 -32q0 -11 -4.5 -25
t-24.5 -45.5t-20 -34.5q0 -16 7 -16q4 0 21.5 6t20.5 6q21 0 32 -18q9 -14 9 -29q0 -3 -5.5 -20t-6.5 -26q29 20 48 20q36 0 41 -42q-4 -19 -1 -55q2 -4 15 -18q8 -8 8 -29zM680 625q0 8 -4 8q-5 1 -35 0q-20 1 -51 -18q38 -28 63 -54zM742 518q-9 1 -31 2q-16 0 -22 -13
q9 -19 21 -51q2 4 20 32q14 22 14 28q0 2 -2 2zM535 681q0 8 -3.5 28t-6.5 20q-12 1 -57 -54q27 -8 60 -24q7 20 7 30zM764 405q0 4 -1.5 10t-1.5 9q-32 -16 -32 -30q0 -4 6 -22t7 -23q3 6 13 32q9 20 9 24zM895 148v11q-3 10 -7 21q-6 17 -15 17q-12 0 -33 -22
q17 -8 55 -27zM802 261q0 5 -7 12q-7 -2 -23 -11t-19 -14q12 -14 33 -36q2 7 9 26.5t7 22.5zM886 94q-35 20 -69 40q-52 30 -75 57q0 -13 -17 -40q-22 -34 -25 -40q22 -4 86 -18q29 -6 49 -6q23 0 51 7zM703 292q0 50 -21 115.5t-47 100.5q-17 22 -36 35q-10 8 -71 44
q-66 41 -129 41q-70 0 -120.5 -31t-100.5 -105q-56 -84 -56 -151q0 -60 21 -119q15 -42 48 -75t71 -44q12 -3 42 -19q12 52 93 101q78 47 138 47q50 0 90 -35q19 -13 48 -34q30 36 30 129zM654 82v9q-3 26 -48 57.5t-70 31.5q-42 0 -105 -36q-67 -37 -77 -74q27 -15 48 -15
q67 0 137 3q81 3 115 24zM191 65l-45 45q-25 27 -37 52q-41 -45 -42 -80q26 -21 66 -21q3 0 27 2t31 2zM360 244q0 -18 -11 -36q-14 -22 -34 -22q-18 0 -31 24q-11 19 -11 31q0 21 10 39q13 22 34 22q43 0 43 -58zM215 267q0 -14 -8 -26t-21 -12q-24 0 -24 28q0 13 9 24.5
t22 11.5q22 0 22 -26z" />
    <glyph glyph-name="H" unicode="H" horiz-adv-x="1000" 
d="M911 634q0 -38 -21.5 -58.5t-56.5 -17.5q-1 -4 0 -14q2 -12 2 -13q0 -20 -28 -106q-8 -23 -29 -48q-6 -7 -34 -18q-44 -18 -69 -18q-8 0 -17 2q2 -22 2 -42q0 -108 -52 -172q-56 -69 -157 -69q-87 0 -131 31q-54 39 -90 148q-36 -25 -37 -49q0 -14 1 -43q1 -32 1 -30v-67
q0 -40 -82 -40q-56 0 -73 9q-20 12 -20 115q0 56 12 76q6 11 18 19q-3 8 -1 18q25 100 116 100q30 0 59 -9q3 20 13 60q10 34 38 74q35 48 79 77q-5 16 -5 28q0 33 47 33q86 0 86 -28q0 -8 -9 -18q25 -5 69 -21q8 0 21 -3q23 -12 39 -41q12 -24 23 -47q17 9 30 9q3 0 3.5 -1
t3.5 -1q10 0 26 10t16 20q0 18 -5 56q-7 54 -18 54q-2 0 -2 -1t-3 -1q-23 0 -38 28q-12 22 -12 51q0 14 17 36.5t27 22.5q30 0 41 -31q1 10 5 30q1 2 -1 7.5t-2 7.5q0 13 11.5 22t22.5 9q17 0 37.5 -17t26.5 -37q13 13 22 13q15 0 29 -17.5t14 -26.5q0 -3 -6.5 -19t-8.5 -24
h26q15 0 21 -9q3 -8 3 -9zM850 697q0 1 -5.5 5.5t-9.5 4.5q-5 0 -16 -21l-16 -28q8 -7 16 -7q10 0 20 21q6 12 11 25zM784 720q0 4 -5.5 11.5t-8.5 7.5t-12 -2.5t-13 -2.5q-7 -34 -7 -32q0 -21 19 -21q-4 0 10 3q17 34 17 36zM881 624q0 4 -3 7q-10 -3 -30 -15
q-26 -15 -26 -24q0 -3 1.5 -5t1.5 -3h22q34 0 34 40zM809 624q-5 0 -8 3v-8q3 0 8 5zM773 653l-10 5l-1 -3l10 -5zM728 667q-5 2 -13 9v-12q10 0 13 3zM816 558q0 1 -12 13t-10 19q-25 0 -24 28q-35 22 -40 22q-3 0 -5.5 -1t-4.5 -1q-4 0 -8 5t-5 5q-3 0 -4 -1t-3 -1
q-16 0 -17 25.5t-10 30.5q-21 -19 -21 -29q0 -44 48 -68q9 -8 26 -21q14 -4 35 -12q10 -4 10 -12q0 -11 -12 -11q-14 0 -38 13v-8q13 -51 13 -77q0 -18 -35 -39q-31 -18 -47 -18q-11 0 -15 2q6 -18 16 -52q25 3 49 6q33 6 55 23q10 8 21 32q3 6 20 57q18 58 18 70zM456 565
q-3 8 -31 14q-21 5 -34 5q-12 0 -19 -5q-1 -15 3 -21q30 8 45 8h17q14 -1 19 -1zM626 287q0 18 -3 41q-6 47 -44 132q-8 19 -13 26q-11 18 -24 25q-5 6 -14 14q-44 11 -83 11q-90 0 -143 -80q-44 -67 -44 -150q0 -107 81 -190v14q-3 30 -5 88q0 16 61 29q26 1 73 5q8 1 32 6
q21 4 24 4q15 0 20 -14q13 -48 20 -115q29 22 47 72q15 43 15 82zM533 112q-3 19 -8.5 58.5t-8.5 59.5q-13 -1 -32 -5q9 -63 9 -99q0 -12 -11 -12q-13 0 -16 47q0 -3 0 62l-23 -2q0 5 1 -20t1 -60q0 -30 -15 -30q-11 0 -11 38v70h-19v-102q0 -10 -11 -10t-11 54q0 40 2 54
q-7 -3 -19 -7v-105q36 -9 83 -9q48 0 89 18zM227 258q-3 35 0 60q-23 -4 -21 -4q-3 0 -26.5 3.5t-26.5 3.5q-37 0 -57 -26q7 2 24 2q44 0 44 -46q0 -9 -3 -17q11 -10 18 -12q21 38 41 38q3 0 4.5 -1t2.5 -1zM128 256q0 9 -13 9t-25 -9q-2 -15 2 -24q17 0 32 -4q-2 8 1 17.5
t3 10.5zM161 64q0 13 -25 16t-25 16q0 14 20 15q14 -1 27 -1q-1 10 -7 27q-21 -4 -36 -4t-15 15q0 10 21 16q14 3 28 7q0 1 3.5 6t3.5 8q0 5 -7 12t-14 7q-3 0 -8.5 -2t-8.5 -2q-2 0 -11.5 1t-11.5 1q-31 0 -38 -14q-4 -8 -4 -47q0 -48 7 -96q21 -3 43 -3q21 0 53 6
q5 6 5 16zM506 394q0 -32 -30 -32q-22 0 -22 22q0 34 28 34q24 0 24 -24zM411 383q0 -11 -9 -20.5t-18 -9.5q-19 0 -19 23q0 31 24 31q22 0 22 -24z" />
    <glyph glyph-name="I" unicode="I" horiz-adv-x="521" 
d="M501 128q0 -34 -21 -41q-3 -1 -50 -1l-7 -1l-8 -36q-6 -22 -26 -22q-85 0 -117 -2q-7 0 -23 -3t-26 -3q-28 0 -38 11q-8 8 -15 38q-13 0 -43 -6.5t-45 -6.5q-14 0 -25 9.5t-11 23.5v120q0 77 -13 228.5t-13 227.5q0 49 7 53q19 11 91 23q66 10 96 10q11 0 32 -4t31 -4
q5 0 13.5 1.5t12.5 1.5q11 0 32 -5t31 -5q4 0 11.5 1t11.5 1q44 0 52 -28q3 -33 4.5 -65.5l4.5 -97.5q4 -54 30 -209q21 -132 21 -209zM452 135v27q0 5 -12 90l-31 222q-1 12 -16 214l-28 -2q-10 0 -28.5 4.5t-26.5 4.5q-56 4 -94 4q-56 0 -147 -15h2q0 -99 11 -401
q2 -60 11 -179q36 7 73 11q-1 17 -13 66q-9 42 -9 65q0 36 98 55q67 12 132 12q12 0 20 -6q12 -10 20 -80l8 -92h30zM377 136q-3 44 -15 133h-24q-89 -3 -153 -29q6 -31 16 -123q54 7 176 19zM375 71v12q-30 1 -47 0q-40 -3 -120 -10v-12q19 -2 29 0q9 3 26 7q23 3 112 3z
M349 398q0 -24 -18 -24t-18 22t18 22t18 -20zM257 395q0 -23 -22 -23q-17 0 -17 24q0 27 17 27q8 0 15 -10t7 -18z" />
    <glyph glyph-name="J" unicode="J" horiz-adv-x="484" 
d="M463 120q0 -42 -20 -48q-18 0 -53 -2q-3 -16 -7 -32q-6 -22 -24 -22q-110 0 -126 -3.5t-29 -3.5q-26 0 -34 8.5t-15 37.5q-10 -1 -45 -7t-37 -6q-34 0 -34 31v111q0 131 -11.5 240.5t-11.5 174.5q0 55 7.5 58.5t26.5 9.5q47 11 55.5 10.5t15.5 2.5q-34 68 -34 74
q0 18 18 18q13 0 30.5 -44.5t24.5 -44.5q3 0 18 2.5t18 2.5t21 -3t25 -3q17 0 54 -1q9 21 19 41q17 36 27 36q20 0 20 -18q0 -7 -33 -61q2 -2 8 -6q4 -2 12 0.5t10 2.5q39 0 47 -22q3 -32 6 -65q0 -27 3 -91l24 -181q24 -171 24 -197zM417 117v25q0 -13 -40 289
q-1 11 -15 200l-26 -3q-2 0 -22 4.5t-29 4.5q-22 0 -55 2q-12 1 -33 1q-9 0 -30 -1q-37 -1 -106 -12h2q2 -113 11 -370q3 -61 9 -169q34 6 69 10q-3 21 -12 72q-10 48 -10 49q0 33 85 50q59 13 115 13q27 0 34 -7t12 -47.5t13 -110.5h28zM350 89q0 -1 -5 89h-27
q-25 1 -138 -17v-14q1 15 12 -94q9 -8 20 -8q2 0 12.5 4t14.5 5q101 3 106 3q0 6 2.5 18t2.5 14zM322 361q0 -22 -17 -22t-17 20q0 21 17 21t17 -19zM310 410q0 -11 -10.5 -18.5t-21.5 -7.5q-19 0 -32 6q-16 12 -55 37q-10 5 -46 18q-5 4 -5 10q0 18 27 18q47 0 93 -34
q1 -1 29 -9q21 -7 21 -20zM236 358q0 -21 -21 -21q-15 0 -15 22q0 25 15 25q10 0 15.5 -10.5t5.5 -15.5z" />
    <glyph glyph-name="K" unicode="K" horiz-adv-x="726" 
d="M689 399q0 -31 -34 -31q-19 0 -30 19q-3 5 1 24q-16 7 -66 15q-44 7 -62 22v-28v-74q-1 -13 -7.5 -40t-6.5 -28q0 -2 7.5 -19t9.5 -29q0 -2 7 -83q1 -11 6 -11q3 0 5.5 1.5t6.5 1.5q22 0 36 -25q11 -21 11 -46q0 -23 -36 -43q-31 -16 -50 -16q-18 0 -38.5 14.5
t-20.5 29.5q0 11 7 37t9 27q10 7 34 18q-1 2 1 17q2 21 2 36q0 32 -10 58q-9 -14 -73 -21q-51 -4 -101 -8q0 -3 -2 -12q-1 -8 0 -13q0 -6 6 -33q5 -22 5 -34q0 -11 -3 -18q10 -6 25 -22q11 -18 11 -35q0 -38 -69 -38q-28 0 -46.5 15.5t-18.5 42.5q0 6 11 27.5t19 28.5
q13 3 38 12q-8 37 -8 53t5 29q-56 10 -90 62q-31 47 -28 98h-16q-11 0 -18 -7q-12 -17 -47 -51q6 -8 19 -15q8 -4 8 -15t-23 -25.5t-32 -14.5q-10 0 -17 13q-5 9 -5 14q0 16 9 29t17 24q10 24 37 68q7 8 28 13q27 6 33 8q0 111 86 163q-2 15 -3 29q-1 15 5 25q14 15 33 47
q1 18 11 48q21 0 31 -7q28 -20 28 -37q0 -10 -14 -17t-24 -7q-8 0 -20 6q-2 -7 -6 -20q-11 -16 -23 -49l5 -5q25 16 68 22q4 1 47 2q34 83 78 83q3 0 35 -7q0 5 -1 14v12q0 31 21 31q36 0 36 -37q0 -14 -10 -24t-20 -10t-19 9q-1 -13 -21 -16q-13 -2 -26 -3
q-14 -6 -29 -24.5t-16 -31.5q13 3 24 3q47 0 64 -62q7 -46 13 -92q12 6 19 6q21 0 65 -5q57 -7 71 -17q36 -27 36 -51zM514 707v11l-24 3q9 -17 15 -17q5 0 9 3zM310 702q-10 10 -17 8q-5 -2 -6 -8q-2 -7 2 -11q9 -12 19 -1q6 8 2 12zM448 389q0 -15 -5 114q-2 37 -8 54
q-3 10 -17 11h-21q-14 5 -29 11h-18q-38 0 -82 -25q-47 -27 -71 -68q-4 -7 -4 -44q0 -3 2 -15.5t3 -18.5q1 -31 8 -83q16 -61 112 -61q-2 0 76 8q12 1 25.5 2.5t15.5 8.5q13 35 13 106zM537 66q0 38 -17 38q-20 0 -53 -16q0 -13 -4 -34q20 -13 26 -13q5 0 25 10.5t23 14.5z
M303 45v10q-3 5 -13 18q-8 10 -8 14q0 7 3 7q-8 4 -18 4q-7 0 -18 -10.5t-11 -19.5q0 -27 31 -27q3 0 16.5 2t17.5 2zM389 389q0 -24 -18 -24q-8 0 -13 9t-5 15q0 5 6 14.5t12 9.5q18 0 18 -24zM309 383q-8 -6 -15 -6q-15 0 -15 18t17 18q2 0 13 -10v-20z" />
    <glyph glyph-name="L" unicode="L" horiz-adv-x="691" 
d="M663 270q0 -97 -50 -134q-40 -30 -149 -41q-16 -2 -65 -39q-28 -21 -53 -26q-13 -3 -48 -3q-48 0 -72 4q-35 5 -113 43q-101 49 -101 89v256q0 22 15.5 55.5t32.5 39.5q30 11 77.5 14t96.5 6q-1 17 -7 48q-8 20 -33 47q-24 24 -31 24q-3 0 -10 -3t-12 -3q-39 0 -39 47
q0 22 16 36t33 14q31 0 41 -26q3 -7 0 -44q68 -63 68 -119q0 -11 -1 -24q16 0 51.5 -1.5t36.5 -1.5q36 0 53 6q2 10 -15 67q-19 65 -38 65q-4 0 -9.5 -3.5t-9.5 -3.5q-13 0 -30 14.5t-17 28.5t12 29.5t30 15.5q31 0 44 -26q6 -12 2 -28q29 -21 45 -64q14 -36 14 -73
q0 -15 -3 -25q28 1 74 -2q92 -7 118 -51t32 -80q14 -74 14 -128zM333 716q-5 2 -10 0q-9 -5 -8 -15q2 -11 15 -10q7 0 9 11q1 10 -6 14zM162 695q0 18 -14 18q-17 0 -17 -21q10 -20 15 -20q16 0 16 23zM625 243v58q0 10 -5 45q-7 43 -15 65q-17 47 -37 59q-10 6 -39 13
q-33 7 -57 7q-4 0 -69 -3t-69 -3t-65 3t-65 3q-83 0 -109 -7q-31 -10 -38 -43q-5 -22 -5 -109q0 -108 7 -125q4 -11 157 -12q76 0 196 24.5t146 24.5q3 0 25 -1.5t32 -2.5zM591 189h-64q5 0 -113 -21q-124 -23 -191 -25q-7 0 -130 8q78 -40 114 -53q44 -15 93 -15q31 0 49 7
q6 3 43 30q34 24 54 28q77 13 90 16q50 12 55 25zM497 296q0 -19 -15.5 -31.5t-29.5 -12.5q-49 0 -49 47q0 18 11.5 34t32.5 16q25 0 39 -19q11 -16 11 -34zM340 288q0 -17 -16 -36q-18 -22 -37 -22q-24 0 -43 25q-16 22 -16 44q0 44 34 44q18 0 45 -13q33 -17 33 -42z" />
    <glyph glyph-name="M" unicode="M" horiz-adv-x="254" 
d="M230 272q0 -28 -31 -28q-8 0 -17 13l-6 -26q-6 -16 -20 -15q9 -47 30 -141q2 0 5 1t6 1q19 0 19 -30q0 -35 -37 -35q-23 0 -23 34v11l5 5t4 6t-31 139q-4 -1 -9 1.5t-9 2.5v-92q2 -41 2 -57l8.5 -1t10.5 -8q6 -21 6 -29q0 -11 -12 -17t-24 -6q-31 0 -31 30q0 20 20 26
v152q-7 1 -18 7q-3 13 -10 41q0 -18 -30 -18q-26 0 -26 32q0 9 6 13t12 9q-2 9 -2 19q0 24 11 60q8 27 16 53q5 11 15 31q1 6 5 17q5 8 15 10q14 2 17 4q-1 23 -4 68q-19 3 -54 17q-10 6 -13 22q-5 32 -5 68q0 18 7 106q1 10 8 16q12 12 49 12q49 0 64 -21q13 -17 13 -64
q0 -65 -13 -136q-3 -3 -9 -12q-1 0 -14 -5h-7q-4 0 -4 -2q0 -46 9 -71q14 -5 32 -22q24 -68 36 -110q2 -14 9 -44q6 -4 15 -12q4 -7 4 -25zM145 738q0 35 -60 35q-3 0 -12 -4t-9 -6l-5 -65q-3 -34 -3 -35q0 -43 6 -68q1 -3 13.5 -8t17.5 -5q42 0 46 7q1 1 4 81q2 41 2 68z
M190 309q0 2 -3.5 17t-4.5 20l2 -45q6 6 6 8zM212 265q7 15 -2 26q-2 3 -8 0q-6 -2 -6 -12q0 -14 4 -16q9 -5 12 2zM156 285q0 40 -8 131q-4 17 -9 48h-35q-4 0 -9 -3q-8 -23 -8 -103q0 -69 9 -123h22q-9 1 34 8q4 27 4 42zM64 284v7q-1 9 -1 26q-1 23 -1 60
q-13 -44 -11 -78q11 -7 13 -15zM49 265l4 8q0 9 -7 14q-7 3 -12 -6.5t-5 -15.5q0 -3 4.5 -7.5t7.5 -4.5zM196 36q11 15 -1 22q-2 1 -8 1q-7 0 -11 -7q-10 -17 4 -22q9 -3 16 6zM125 25q2 7 -3.5 13.5t-14.5 4.5q-8 -2 -11 -9t0 -11q2 -3 12 -4q14 0 17 6zM130 659
q0 -10 -10 -10q-5 0 -8 6q-2 5 0 8q3 6 8 6q10 0 10 -10zM100 645q0 -10 -10 -10q-8 0 -9 11q0 12 9 12q10 0 10 -13z" />
    <glyph glyph-name="N" unicode="N" horiz-adv-x="760" 
d="M740 548q0 -19 -18.5 -29t-39.5 -10q-16 0 -50 13t-33 13q-62 0 -110 -19q84 -47 84 -312q0 -72 -10.5 -98t-42.5 -31q-15 -3 -93 -3q-3 0 -23.5 1.5t-24.5 1.5q-12 -13 -19 -20q-23 -20 -40 -22q-28 -4 -126 -4q-85 0 -109.5 11t-26.5 13q-17 10 -19 24q-9 67 -9 123
q0 37 6 54q6 14 33 29l6 51q4 59 22 99q16 35 67 73q48 36 81 41l12 7q3 13 3 38q-1 34 0 38q2 36 17 53q31 35 103 31q22 52 54 52q20 0 40.5 -16.5t20.5 -31.5q0 -27 -35 -46q-28 -16 -52 -16q-15 0 -23 13t-20 13q-41 0 -55.5 -11t-17.5 -40q-3 -35 -6 -71q12 0 36.5 2
l24.5 2q16 0 107 -26q1 0 13 7q24 14 55 20q25 0 72 8q7 9 23 24q10 7 32 7q33 0 59 -12q32 -16 32 -44zM705 547q-1 5 -21 16.5t-26 11.5q-5 0 -25 -10q22 -22 49 -22q4 0 12.5 2t10.5 2zM466 716q-25 12 -35 12q-7 0 -13.5 -7.5t-6.5 -14.5v-15h13q4 0 21.5 9.5t20.5 15.5
zM527 149v122q0 12 -12 76q-12 68 -19 86q-15 42 -41 50q-6 -12 -14 -12q-13 0 -13 15v17q-88 17 -83 17q-85 0 -149 -41q-80 -52 -84 -148q0 -6 -3.5 -19t-3.5 -16v-15q56 -14 165 -48q19 -12 49 -30q16 -7 32 -15q22 -13 24 -29t4 -32.5t13 -16.5q76 0 125 15q10 3 10 24z
M434 319q0 -36 -24 -36q-22 0 -22 39t22 39q24 0 24 -42zM330 340q0 -45 -24 -45q-25 0 -25 37q0 16 4 32q7 23 18 23q27 0 27 -47z" />
    <glyph glyph-name="O" unicode="O" horiz-adv-x="1157" 
d="M1144 339q0 -50 -7 -122q-2 -23 -3 -46q-5 -32 -26 -42q-27 -14 -88 -24q-47 -8 -65 -8q-40 0 -56 35q-9 33 -18.5 66.5t-38.5 33.5q-26 0 -84 -62q-70 -75 -84 -84q-27 -18 -127 -50q-108 -34 -151 -34q-39 0 -111 26q-85 31 -113 36q-5 1 -48.5 27.5t-63.5 54.5
q-14 12 -37 40q-1 2 -1 29q0 40 21.5 70t21.5 34q0 5 -16 27q-19 24 -22 31q-5 13 -5 32q0 25 31 152q4 16 33.5 52t57.5 56.5t64 21.5q41 1 54 8q70 35 91 43q46 17 97 17q122 0 195 -31q90 -39 143 -136q12 -14 38 -47h11q12 76 25 151q24 85 111 85q49 0 95 -11
q53 -12 57 -30q8 -32 11 -105l4 -132q4 -128 4 -164zM1062 343q0 -15 -9 169v189q-7 -3 -33 -1l-39 2q-19 0 -27 -2q-18 -28 -28 -93q-11 -83 -16 -99q-14 -45 -48 -45q-18 0 -44 5q-32 5 -40 13t-78 108q-50 71 -97 85.5t-111 14.5q-71 0 -115 -13l-110 -38
q-123 -38 -144 -94q-10 -28 -21 -75q-11 -43 -11 -52q0 -8 22 -40t28 -32t14.5 41.5t31.5 41.5t29 -36l2 -46h38q1 22 3 45q7 41 33 41q28 0 34 -41q1 -7 1 -49q38 1 50 -5l6 52q4 31 24 52h13q20 -19 25 -55q2 -10 4 -53h38q4 25 9 51q12 44 33 44q24 0 28 -48q0 -25 1 -51
q13 -3 25 -6q18 -6 18 -21q0 -17 -13.5 -22t-25.5 -10q2 -11 2 -24q0 -53 -35 -53q-18 0 -28.5 17t-10.5 34q0 6 1 9h-42q1 -7 1 -15q0 -54 -39 -54q-29 0 -36 28q-3 11 -1 50q-10 0 -25 2t-18 2q4 -60 -37 -60q-40 0 -40 46q0 9 2 19q-20 -2 -46 4q0 -19 -10.5 -31
t-25.5 -12q-36 0 -31 48h-20q-4 -8 -19 -30q-13 -18 -13 -22q0 -8 18.5 -30.5t35.5 -33.5q22 -15 61 -25q48 -13 56 -17q99 -42 167 -42q28 0 122 33q26 6 62 21q50 47 106 112q38 44 59 55q28 14 90 14q43 0 68 -43q9 -17 31 -87q40 10 85 18q10 74 10 140zM453 515
q0 -17 -13.5 -30t-28.5 -13q-18 0 -28 15q-9 11 -9 22q0 17 11.5 31t27.5 14q17 0 28.5 -13t11.5 -26zM313 502q0 -16 -10.5 -29.5t-26.5 -13.5q-32 0 -32 43q0 44 32 44q16 0 28 -19q9 -14 9 -25z" />
    <glyph glyph-name="P" unicode="P" horiz-adv-x="1082" 
d="M1071 212q0 -115 -117 -166q-78 -33 -185 -33q20 0 -367 40q-27 3 -109.5 4.5t-129.5 6.5q-144 18 -144 178q0 139 128 284q114 130 242 176q7 2 72 36q43 22 78 22q342 0 475 -371l34 -82q23 -59 23 -95zM987 208q0 38 -16 78q-16 37 -33 74q-64 163 -147 235
q-97 85 -257 85q-73 0 -178 -64q-110 -67 -183 -162q-83 -109 -83 -215q0 -104 109 -104q5 0 31 2t30 2q82 0 284.5 -23t208.5 -23q234 0 234 115zM665 449q0 -165 -7.5 -187.5t-32.5 -22.5q-44 0 -44 93q0 79 13 237q1 9 13.5 18t21.5 9q37 0 37 -98q0 -14 -1 -31v-18z
M446 472q0 -237 -44 -237q-16 0 -25.5 14t-9.5 30q0 6 4 139q2 53 4 70q10 58 40 58q25 0 30 -31q1 -6 1 -43z" />
    <glyph glyph-name="Q" unicode="Q" horiz-adv-x="853" 
d="M827 253q0 -22 -19 -69q-21 -52 -37 -57q-5 -27 -17 -50q-17 -30 -37 -30q-41 0 -41 25q0 10 20 33l20 23q-1 1 -5 1q-26 0 -47.5 -22.5t-25.5 -22.5q-15 0 -34 48q0 27 38 45q32 16 61 16q17 0 38 -12q1 3 1 17q0 10 9 25.5t9 20.5q0 30 -16.5 60t-43.5 38q2 -4 2 -8
q0 -18 -23 -55q-18 -26 -35 -53q-27 -52 -56 -60q-78 -20 -238 -20q-36 0 -50 6q-25 9 -71 66.5t-51 84.5q-6 32 -6 107v0q-1 2 -5 2q-17 0 -50 -32q-29 -28 -38 -46t-9 -104q16 -9 16 -33q16 -11 23 -33q5 -18 11 -18q4 0 12.5 2.5t12.5 2.5q22 0 53 -20.5t31 -41.5
q0 -15 -17 -27.5t-32 -12.5q-9 0 -17 13q-4 10 -9 19l-2 -1q1 -8 12 -31t11 -27q0 -8 -12 -17.5t-19 -9.5q-34 0 -49 94q-7 10 -19 29q-10 0 -17 11q-9 15 -11 17q-8 4 -21 16q-2 2 -2 37q0 9 -7 24t-9 21q-5 24 -5 69q0 61 82 134q14 13 41 19q37 8 45 12q5 98 21 131
q7 13 83 102l28 36q19 24 33 28q26 9 84 9h87q28 0 38 -8q16 -26 46 -67q25 -27 51 -54q30 -32 39.5 -61t11.5 -71q1 -36 1 -72l1 -32h4h4q54 0 91 -59q32 -51 32 -107zM793 260q0 101 -97 144q3 -14 3 -37q30 -6 54.5 -40t24.5 -69q0 -10 -2 -20l13 -3q4 12 4 25zM792 188
q1 8 0 12q-4 18 -14 18q-8 0 -15 -15l3 1q6 0 14 -7t12 -9zM775 166q0 17 -12 17q1 0 -13 -7q8 -9 14 -30q11 11 11 20zM661 335q0 168 -16 244q-1 5 -85 110q-11 17 -23 34q-17 26 -23 26q-13 0 -38.5 -3.5t-37.5 -3.5q-7 0 -21 1t-21 1q-32 0 -47 -9q-7 -4 -64.5 -74
t-61.5 -79q-13 -30 -13 -118q0 -154 18 -181q9 -14 40.5 -50t41.5 -42.5t30 -6.5q27 0 126 9q106 9 114 14.5t29 38.5q52 81 52 89zM745 123l-8 3q-12 -26 -34 -51l17 -3q10 16 25 51zM730 149q-2 3 -15.5 8.5t-18.5 5.5q-15 0 -36.5 -8t-28.5 -19q6 -9 6 -15q31 32 64 32
q15 0 29 -4zM171 444v11l-20 -10l-16 -9zM126 433q-29 -7 -62 -48t-33 -72q0 -26 10 -80l15 8q-15 37 -15 45q0 51 22 85q16 25 63 62zM202 88q-31 33 -47 33h-20q1 0 7 -3q29 -16 44 -44q6 3 16 14zM66 198q0 9 -12 15q-11 -22 -11 -32q0 -7 4 -13q9 5 19 30zM88 165
q0 6 -3 11l-17 -26q0 -7 9 -6q11 10 11 21zM102 141q-9 -6 -9 -12q0 -7 7 -10q0 4 1 11t1 11zM152 23q-24 37 -25 73q-6 -3 -14 -5q14 -51 33 -72zM552 353q0 -41 -37 -41q-21 0 -24 16q-16 64 -16 198q0 62 32 62q22 0 27 -21q18 -77 18 -214zM403 341q0 -34 -23 -34
q-5 0 -15 5t-11.5 10t-5.5 73q-3 44 -8 132q0 5 -3 14.5t-3 15.5q0 38 38 38q18 0 20 -37q-1 17 -1 -52q0 -28 6 -83t6 -82zM490 245q0 -15 -21.5 -26t-38.5 -11q-9 0 -19 7t-10 17q0 16 17 35.5t33 19.5q12 0 25.5 -15t13.5 -27z" />
    <glyph glyph-name="R" unicode="R" horiz-adv-x="424" 
d="M397 52q0 -12 -8.5 -22t-21.5 -10q-16 0 -29.5 5.5t-27.5 12.5q-6 1 -13 3q-10 3 -15 11q-2 4 -22 71q-16 53 -40 100q-4 -11 -8 -32q-7 -30 -21 -93q-1 -20 -6 -59q0 -2 -17.5 -10t-33.5 -16q-19 -8 -36 -8t-28 12.5t-11 25.5q0 25 30 34q8 0 23 1q18 19 27 44
q6 12 13 38q16 133 16 170q0 33 -15 81.5t-26 54.5l-6 12t-12 12q-8 0 -26.5 -26t-18.5 -30q0 -18 7 -38q5 -15 5 -34q0 -14 1 -27q-1 -19 -1 -57q2 -1 7 -6q9 -15 13 -33q3 -11 3 -13q0 -21 -38 -21q-23 0 -23 30q0 17 7 28.5t7 9.5q0 2 -5 17t-6 20q-13 58 -13 90
q0 22 7 49q9 33 18 46q17 23 19 26q12 13 29 25q4 0 13 1q2 0 8 4q-4 6 -9 50q-3 35 -3 44q0 26 8 60q10 41 23 44q7 2 22 2q14 30 39 28q2 0 2 -4q0 -6 -16 -23q9 -9 19 -9q43 28 45 28q10 0 10 -12q0 -1 -2 -7q-34 -20 -34 -22q0 3 6 -9q7 -15 7 -30t-7 -45.5t-14 -38.5
q1 -34 1 -32q-2 -21 -15 -36q24 -10 47 -19q33 -16 43 -38l12 -15q10 -17 28 -51q6 -21 21 -63q6 -4 15 -13q3 -4 12 -28q10 -28 10 -38q0 -12 -12 -20.5t-21 -8.5q-12 0 -17 8q-7 12 -9 41q-3 34 -6 44q-44 161 -91 161q-5 0 -5 -8q0 11 12 -46q1 -14 6 -46q4 -17 13 -59
q7 -22 19 -65q45 -182 54 -182q1 0 6 1h6q18 0 34 -11.5t16 -30.5zM202 599q-16 -10 -30 -10q-20 0 -42 12q1 -13 4 -37q2 -5 16 -9.5t21 -4.5q17 0 25 21zM189 573q-6 -7 -11 0q-4 7 0 11t11 -1q5 -4 0 -10zM169 583q5 -7 -1 -13q-6 -5 -10 0q-1 1 -1 6q0 6 1 7q8 5 11 0z
" />
    <glyph glyph-name="S" unicode="S" horiz-adv-x="498" 
d="M472 181q0 -52 -67 -66q-2 -1 -10.5 -4.5t-10.5 -3.5q5 0 -10 5q-5 1 -42 26q-5 1 -12 4q-48 34 -79 52q-36 21 -45 27q-10 -15 -31 -64q-20 -45 -20 -48q0 -1 20.5 -19.5t23.5 -24.5q7 -12 7 -25q0 -23 -21 -23q-5 0 -15 1.5t-14 1.5q-53 0 -63 18q-3 4 -3 26q0 15 7 38
q14 45 25 112q8 57 17 113q-1 -5 -4 8q-1 7 0 13q5 35 5 45q-6 -9 -19 -24q12 -30 -4 -40q-3 -2 -18 -3q-15 -21 -28 -21q-15 0 -29 12t-14 24q0 13 11.5 35.5t21.5 30.5q-8 58 108 175q2 3 15 10q-6 4 -18 21q-5 12 -5 50q0 94 26 119q5 4 36 4q32 0 64 -7q8 -2 16 -12
q9 -1 20 -11q5 -16 5 -46q0 -36 -10 -84q-4 -17 -10 -25l-6 -8q0 -1 4 -7q5 -20 12 -59q7 -104 7 -115q0 -3 -5 -18q-2 3 -2 -1q0 -2 5 -18t5 -18q0 -23 -6 -31q-8 -11 -31 -11q-20 0 -33 8q-3 -4 -11 -10q26 -20 65 -63q60 -64 69 -73l28 38q13 16 33 16q40 0 40 -50z
M291 709q0 34 -5 42.5t-24 8.5q-3 0 -12 -1h-16q-21 0 -42 2q-15 -12 -15 -96q0 -19 4 -42q24 -17 67 -17q11 0 21 3q3 2 6 5q16 39 16 95zM299 416q0 3 -2.5 11t-2.5 11q-6 63 -6 90q-11 -51 -31 -148q8 1 25 15t17 21zM281 584q-20 -4 -32 -4q-14 0 -56 7q20 -11 20 -39
q0 -20 -31 -72q-16 -27 -32 -53q-2 -14 -2 -73q0 -11 16 -11q-32 1 26 1q20 0 31 -9q6 55 26 128q33 122 34 125zM297 359q0 2 -1 9.5t-1 11.5q-17 -18 -33 -18q-2 0 -5 1l-3 1q-2 -11 -4 -20q4 -3 9 -6q31 -3 23 -3q15 0 15 24zM185 548q0 11 -7 15q-4 1 -12 4
q-10 -21 -32 -49q-59 -79 -59 -101q11 -24 22 -24q4 0 46 71t42 84zM450 184q0 26 -19 26q-23 0 -58 -73q8 -4 10 -4t10 3t11 3q20 4 33 17t13 28zM363 153v6l-53 53q-7 5 -18 13q-28 33 -69 87q-20 4 -35 4q-23 0 -46 -3q-1 -7 -19 -158q-1 -5 -5 -19t-4 -15v-9q10 2 16 1
q4 10 24 62.5t20 55.5q0 1 -20 48q0 7 8 7q5 0 20 -19q19 -22 25 -26q14 -10 41 -23q31 -15 40 -20q34 -22 72 -49zM96 350q-4 12 -15.5 22.5t-22.5 20.5q-19 -47 -19 -55q16 -12 20 -12t10 11t16 11q3 0 6 -1l3 -1q0 2 2 4zM172 44q0 11 -18.5 30t-32.5 19t-16 -6v-16
q0 -18 5 -22q14 -10 45 -10q-6 0 11 -3q6 -1 6 8zM261 681q0 -11 -9 -11q-12 0 -12 13q0 10 10 10q11 0 11 -12zM224 680q0 -16 -11 -16q-12 0 -12 15q0 16 11 16q12 0 12 -15z" />
    <glyph glyph-name="T" unicode="T" horiz-adv-x="662" 
d="M613 56q0 -12 -23.5 -22.5t-37.5 -10.5t-40 6.5t-38 6.5q-11 0 -21 -6.5t-14 -7.5q-14 -4 -62 -4q-44 0 -44 25q0 18 18 36t36 20q-23 106 -41 288q-26 13 -26 26q0 2 1 12t1 18v139l-84 -153v-12h2q37 1 37 -25q0 -20 -46 -13q1 -6 1 -7q-6 -27 -36 -27q-12 0 -19 16
q-11 -24 -33 -24q-20 0 -27 12h-3q-11 0 -21 8.5t-10 19.5t8 25l-2 3q-5 -10 -25 -10q-46 0 -46 25q0 12 10.5 21.5t22.5 9.5q1 0 12.5 -3t13.5 -3q0 7 -1 20.5t-1 20.5q0 56 17 73q12 11 67 25l-1 9q-1 14 11 24.5t12 17.5q0 14 -6 16t-8 10q1 5 17 12q6 -1 9 -12
q-3 -8 -6 -12q6 -7 6 -14q0 -8 -10.5 -21.5t-10.5 -22.5q0 -7 2 -8q2 -2 7 0q6 1 9 1q14 0 33 -24q26 57 53 114q44 90 64 81q5 11 18 23q16 -10 21 -10q6 0 12.5 6.5t16.5 6.5l30 -8q23 10 41 10q17 0 19 -20h6q18 1 18 -8q0 -2 -1 -5q13 -3 26.5 -7t16.5 -21
q23 -29 23 -61q0 -12 4 -33q4 -25 5 -33q8 -91 6 -157l4 -4q2 -15 2 -37q0 -88 -12 -113q-30 -20 -38 -18q0 -25 -4 -72.5t-4 -72.5q63 -16 63 -65zM589 436v13q0 46 -6 119q-7 87 -16 120q-3 11 -15.5 25.5t-22.5 14.5q-5 0 -10 -3q18 -205 18 -264q0 -15 -1 -19
q1 -5 5 -15zM524 416v11q0 4 -3 14t-3 15q-4 69 -14 206q-6 68 -6 59q0 7 8 21l-9 -1q-17 0 -17 17q-5 -3 -15 -6l-11 5l-20 -7q-4 -1 -15 7q-11 0 -19 -9t-13 -9q-12 0 -27 16l-2 -3v-6q5 -4 10.5 -21.5t5.5 -24.5q0 -19 -17 -50.5t-17 -50.5q0 -34 1 -92q2 -70 2 -93v-3
q66 -5 78 -5q52 0 93 13zM590 416q-15 -5 -43 -8l-8 3q-4 -12 -4 -17q0 -7 11 -10q1 13 10 13q10 0 7 -9l-7 -21l5 -77h11q12 0 16 59q1 34 2 67zM350 699q0 21 -14 32q-28 -34 -57 -96l-44 -104l5 -46q16 24 61 109q49 93 49 105zM183 659q-2 4 -6 6q-3 -3 0 -6q3 -4 6 0z
M519 393q-30 -13 -96 -13q-11 0 -29 2q-23 3 -30 3q10 -56 29 -167q1 -23 8 -70l-3 -12q0 -14 9 -41q10 -7 16 -7q5 0 19 2q10 2 20 0q-1 8 -1 86l-4 2q3 15 3 29q0 15 -2 39q-4 31 -4 40l-5 11q-14 5 -17 11q4 4 10 6l13 -3l31 3l1 -6q-4 -3 -11 -8q0 -2 -1 -9t-1 -10
q0 -16 5 -48.5t5 -48.5q0 -9 -3 -25.5t-3 -24.5q0 -10 3 -25q3 -21 3 -26q28 28 50 34q-3 13 -3 32q0 29 3.5 87.5t3.5 87.5q0 28 -1 36t-10.5 14t-9.5 12q0 3 2 7zM172 563l-4 -5l-8 8q-43 -14 -52 -23q-11 -12 -11 -54q0 -57 10 -70q13 -18 66 -18q26 0 33.5 7.5t7.5 31.5
q0 84 -12 105q-5 8 -14 12q-14 5 -16 6zM257 394q-10 7 -23 7l-7 -9q23 2 30 2zM587 57v2q0 13 -13.5 25t-26.5 12t-33 -12t-33 -13v-13l2 -5q26 -10 30 -10q52 0 74 14zM212 369q1 4 -2 11l-17 -3q-1 -4 0 -6q1 -5 6 -7q10 -4 13 5zM157 367q0 13 -14 13h-5q-3 -19 -2 -21
q3 -4 6 -4q7 -2 10 1t5 11zM118 382l-15 6l-4 -11q0 -10 8 -11h10v8q1 5 1 8zM81 416q-1 7 -2 13q-4 0 -12.5 1.5t-12.5 1.5q-14 0 -16 -10q-1 -3 0 -6q0 -3 17 -5h12q4 2 14 5zM466 51v9q0 6 -18 13l1 -1q0 -2 3 -7q3 -2 -1 -2q-1 0 -26.5 6t-37.5 6q-8 0 -20.5 -12
t-12.5 -20v-7q12 1 112 15zM180 482q0 -13 -12 -13q-11 0 -11 12t11 12q12 0 12 -11zM141 493q0 -16 -14 -16q-12 0 -12 16q0 15 12 15q14 0 14 -15z" />
    <glyph glyph-name="U" unicode="U" horiz-adv-x="619" 
d="M579 66q0 -9 -4 -14q-7 -7 -13 -13.5t-25.5 -13t-28.5 -6.5q-35 0 -86 13q-26 7 -35 23q-15 27 -19 79l-4 94q-46 -1 -120 17q-16 -63 -47 -190l-11 -11q-1 -4 -4.5 -11.5t-18.5 -15.5t-27 -8q-25 0 -73 22q-56 26 -56 54q0 16 22 27q18 9 36 9q21 0 50 -10
q36 -11 54 -30l52 169q-6 -5 -28 8.5t-22 24.5q-1 47 0 79q0 22 1 35.5l1 13.5q0 22 -10 138q-10 124 -16 155q-2 11 -9 43q-7 27 -7 31q0 19 62 19q11 0 157 -15q3 -1 16 -5t16 -4t10.5 2.5t12.5 2.5q23 0 30 -16q15 -34 25 -90q3 -20 10 -107q8 -93 8 -126q0 -25 -9 -74
q-4 -16 -13 -47q-4 -24 -19 -68q-4 -8 -19.5 -13.5t-29.5 -10.5q6 -45 17 -138q21 10 43 19t52 9q20 0 46 -13q33 -15 33 -37zM438 463q0 112 -16 209q-4 25 -19 71q-7 -1 -40 3q-5 4 -13 8q-82 13 -129 11h-55q10 -41 23 -113q21 -166 21 -234q0 4 -1 -30q-2 -42 -3 -111
q29 -1 91 -7q58 -5 59 -5q-1 0 62 8q-4 19 1 37q19 76 19 153zM540 65q-22 16 -51 16q-27 0 -73 -17q59 -13 89 -13q8 0 35 14zM158 53q-52 36 -90 36q-24 0 -29 -12q12 -12 52 -26q34 -12 41 -12q8 0 26 14zM384 376q2 -9 -3 -23q-6 -17 -18 -17q-19 0 -19 24q0 26 21 26
q8 0 19 -10zM309 362q0 -26 -19 -26q-10 0 -16 11q-4 8 -4 13q0 7 5.5 19t14.5 12q7 0 13 -12t6 -17z" />
    <glyph glyph-name="V" unicode="V" horiz-adv-x="516" 
d="M491 258q0 -30 -8 -56q-10 -34 -28 -38q-9 -2 -23 -3l-30 -90q-26 -60 -58 -60q-89 0 -135 12q-70 18 -98 70q-4 7 -27 90q-23 -9 -36 -9q-21 0 -34 40q-10 31 -10 61q0 70 46 76q-1 10 -5 41q-4 28 -4 31q0 40 -1 22q1 11 11 24q7 10 34 16.5t47 6.5q3 0 16 -1t16 -1
q-2 0 30 24q-5 9 -9.5 17.5t-4.5 25.5q0 3 4 23.5t4 22.5q0 3 -5.5 17.5t-6.5 19.5q3 11 5 33l-6 22q-3 13 2 22q-25 12 -25 35q0 15 16 24q12 7 25 7q20 0 20 -29q0 -12 -5 -21q-5 -3 -11 -12q-7 -18 -7 -22q0 -2 4.5 -10t5.5 -11q1 -6 -2.5 -18t-3.5 -13q0 -3 7.5 -22
t7.5 -22q0 -2 -5.5 -22t-5.5 -23q0 -9 1 -10q2 -5 10 -18t8 -16q0 -5 -17 -22q34 -2 97 -10q12 23 24.5 46t35.5 23q3 0 9.5 -1t8.5 -1q22 0 34 18q11 15 11 38q0 13 -1 17q-6 -2 -9 -6.5t-14 -4.5q-24 0 -24 30q0 21 23 21q8 0 22 -5q1 -1 1 4q0 10 -12 39q-9 25 -12 29
q-9 -7 -18 -7q-16 0 -26 18q-7 13 -7 23q0 37 28 37q9 0 20 -7q15 -9 16 -21q1 -18 -1 -27q12 -17 26 -78q-2 -9 -1 -29q1 -5 6 -14q2 -4 2 -18q0 -31 -18.5 -54.5t-46.5 -23.5q-2 0 -7 1t-7 1q-20 0 -40 -51q23 -3 64 -17q12 -7 38 -26q4 0 12 -1q5 -2 13.5 -13t8.5 -14
v-66v-32q35 -17 35 -52zM391 762q0 21 -20 21q-9 0 -9 -14q0 -24 15 -24q14 0 14 17zM410 638q-4 4 -7 5q-9 2 -12 0q-2 -2 2 -10v-5q3 -1 8 0q9 3 9 10zM192 754q0 16 -12 12q-5 -1 -5 -11q0 -14 8 -14q9 0 9 13zM468 261q0 15 -14 28q-2 -16 -9 -56q-6 -35 -6 -37v-7
q5 -1 8 0q8 5 16 37q5 25 5 35zM422 362q0 41 -5 52q-3 6 -38 20t-50 14h-7q0 2 6 -11l-3 -3q-7 -1 -21 15q-54 10 -53 10h-71q0 -16 0 -15h-5q-8 13 -21 15q2 0 -17 0q-52 0 -64 -15q-3 -36 11 -100q1 -4 9.5 -14t8.5 -11q0 -8 -14 -7q7 -34 23 -93q6 -2 7 -4q-2 -9 -3 -23
q7 -46 8 -50q7 -31 23 -53q36 -47 120 -47q12 0 37 1t37 1q18 0 37 55q45 137 45 263zM79 208v7q-9 36 -23 108q-6 1 -10 0q-17 -6 -17 -49q0 -15 8.5 -40t13.5 -30q2 -3 7 -3q4 0 11.5 3t9.5 4zM345 177q0 -11 -8.5 -24.5t-19.5 -13.5q-24 0 -24 23q0 12 9 24.5t22 12.5
q9 0 15 -8t6 -14zM242 175q0 -24 -16 -24q-15 0 -15 16q0 26 19 26q12 0 12 -18z" />
    <glyph glyph-name="W" unicode="W" horiz-adv-x="519" 
d="M490 712q0 -27 -25 -27q-22 0 -22 20q0 5 8.5 17.5t18.5 12.5q8 0 14 -9.5t6 -13.5zM319 756q0 -27 -27 -27q-23 0 -23 24q0 27 27 27q23 0 23 -24zM459 647q0 -5 -41 -63l-67 -94q60 -44 60 -220q0 -100 -43 -155q-36 -46 -142 -91q-14 -6 -51 -14q-33 -6 -41 -6
q-100 0 -100 145q0 -7 12 88q7 61 13 122q14 78 46 122q22 31 88 36q11 28 30 87q30 103 52 103t22 -22q0 -4 -19 -66q-24 -76 -32 -103q55 -18 57 -18q117 171 133 171t23 -22zM357 273q0 33 -6 87q-7 58 -14 67q-4 6 -17 12q-16 7 -17 9q-29 21 -61 21q-10 0 -15 -11
t-20 -11q-14 0 -20 9.5t-12 9.5q-42 0 -62 -107q-7 -58 -13 -116q-12 -93 -12 -89q0 -31 27 -53q24 -21 52 -21q4 0 25.5 1.5t25.5 1.5q15 0 62 31q43 28 47 36q30 54 30 123zM310 244q0 -28 -29 -28q-28 0 -28 28q0 13 9.5 21t18.5 8q29 0 29 -29zM240 240
q0 -11 -9.5 -17.5t-17.5 -6.5q-20 0 -20 27q0 24 20 24q27 0 27 -27z" />
    <glyph glyph-name="X" unicode="X" horiz-adv-x="301" 
d="M281 754q0 -21 -35 -31l-22 -87q18 -5 34.5 -12t16.5 -28q0 -37 -15 -92q-20 -74 -22 -87.5t-7 -37.5q-3 -8 -31 -82q-27 -69 -27 -71q0 -12 10.5 -72t14.5 -70q3 3 9 3q10 0 20 -20t10 -31q0 -12 -11.5 -21.5t-24.5 -9.5q-31 0 -41 41q-4 -41 -40 -41q-37 0 -40 46
q-14 -16 -37 -16q-26 0 -26 37q0 52 40 48q3 17 20 57q17 36 18 55q-5 10 -5 33q0 7 -3.5 15.5t-3.5 13.5q-7 56 -8 158q-4 23 -8 71q-1 8 0 22q1 15 1 21q0 7 -2 19.5t-2 19.5q0 29 24 37q12 4 49 3v29q0 10 3.5 29t3.5 28q0 6 -7 15t-7 15q0 28 31 28q23 0 23 -22
q0 -9 -7 -17q-9 -11 -10 -15q-12 -27 -12 -92q6 1 10 1q28 -1 43 -8q17 68 17 112q0 28 32 28q24 0 24 -22zM266 755q0 4 -4 7q-3 2 -7.5 -3t-5.5 -6l-2 -12q6 2 13 6t6 8zM164 759q7 7 0 12q-9 6 -12 -4q-2 -4 0 -6q1 -3 6 -3q5 -1 6 1zM246 600q-45 19 -65 19h-16
q-12 -1 -17 -1l-8 -12l-3 12q-18 2 -28 0q-7 -1 -15 -2t-8 -8q0 -4 13 -143q14 -144 14 -192q0 -16 5 -21q16 -2 50 -6q0 6 2 19q12 40 35 129l26 102q15 61 15 104zM173 81q-3 20 -8 60q-2 26 -5 79l-12 2q0 -26 -2 -69q-3 -48 -3 -67q17 -21 17 -37q3 11 13 32zM128 223
q-8 2 -16 2q-2 -10 -18.5 -66.5t-16.5 -57.5l6.5 -6t6.5 -20q16 9 29 11q1 26 9 137zM217 39q0 18 -11 26q-4 3 -12 -3t-8 -14q0 -19 17 -19q14 0 14 10zM137 46q0 18 -19 18q-4 0 -9 -7t-5 -11q0 -17 17 -17q16 0 16 17zM66 77q0 6 -6 11t-12 3q-5 -2 -5 -21q0 -8 2 -10
q3 -3 12 0q9 4 9 17zM219 543q0 -17 -14 -17q-13 0 -13 15q0 17 12 17q15 0 15 -15zM181 501q0 -19 -18 -19q-15 0 -15 16q0 18 18 18q15 0 15 -15z" />
    <glyph glyph-name="Y" unicode="Y" horiz-adv-x="598" 
d="M586 195q0 -65 -1 -71q-2 -10 -19.5 -34t-28.5 -29q-136 -57 -256 -57q-65 0 -137 18q-88 23 -111 61q-10 15 -10 50q0 29 6 78q2 27 8 78q3 12 9 37q22 99 101 159q70 54 162 68q-1 -12 -2 71q-2 19 -3 58q-25 17 -25 50q0 51 32 51q21 0 34 -22q11 -18 11 -35
q0 -11 -7 -27q-7 -3 -14 -21q-1 -16 -1 -125q43 -2 74 -16q18 -7 50 -26q87 -69 113 -157q15 -50 15 -159zM326 730q0 30 -14 24q-5 -2 -5 -20q0 -22 5 -22q14 -2 14 18zM372 481q0 10 -17 19t-24 8q0 -6 -2 -17q-1 -6 -8 -6q-10 0 -11.5 3.5t-1.5 19.5l-26 -8
q-16 -5 -21 -12q-1 -2 0 -8q2 -9 34 -15q16 -2 40 -2q37 0 37 18zM549 131q0 -1 -0.5 12.5t-1.5 35.5v79q0 69 -35 135q-41 77 -112 108q6 -11 6 -22q0 -22 -27 -37q-22 -12 -41 -12q-106 0 -105 65q-85 -37 -126 -109q-30 -53 -40 -141q-7 -69 -13 -139q24 -30 104 -48
q65 -15 122 -15q61 0 143 20q100 23 120 56q6 11 6 12zM510 165q-2 -9 -14 -9q-14 0 -22 26q-5 19 -5 38q0 26 21 26q6 0 13 -4.5t7 -8.5q6 -40 0 -68zM443 186q0 -43 -21 -43q-22 0 -22 60q0 8 6 17t14 9q23 0 23 -43z" />
    <glyph glyph-name="Z" unicode="Z" horiz-adv-x="480" 
d="M456 550q0 -52 -54 -52q-36 0 -60 18q-29 21 -29 57q0 15 6 32q-4 2 -40 10.5t-46 8.5h-11q-4 -63 -5 -103q-1 -44 -4 -87q-3 -23 -8 -67q-2 -49 -7 -147q-1 -8 -12 -29l-11 -21q0 -20 13 -67q25 9 31 9q17 0 31.5 -13.5t14.5 -27.5t-23 -22q-18 -5 -36 -5q-8 0 -23 7.5
t-19 12.5q-1 6 4 16q-12 16 -9 66q-15 0 -26 2q-1 -1 -1 -66q6 -25 -24.5 -48.5t-55.5 -23.5q-31 0 -31 27q0 21 22 33q18 11 40 11q6 0 22 -4q1 1 1 76q-6 7 -15 23q0 10 -1 28q-10 44 -10 108q0 3 4 85.5t4 84.5t-4.5 75.5t-4.5 76.5q0 36 8 68q12 45 38 51q19 5 80 5
q3 0 50 -3t50 -3q35 37 73 37q74 0 74 -59q0 -63 -78 -63q-13 0 -33 8.5t-30 19.5q-1 2 -14 31q-22 3 -73 8q-9 0 -26 1q11 -15 16 -44q4 -22 8 -45q20 0 61.5 -6t42.5 -6q12 0 23 10t28 10q37 0 60 -38q19 -31 19 -66zM425 730q0 36 -40 36q-14 0 -35 -8q-27 -11 -27 -29
q0 -15 20 -26q17 -10 30 -10q52 0 52 37zM425 549q0 39 -21 67q-6 8 -25 8q-15 0 -26 -17t-11 -30q0 -17 15 -33t35 -16q33 0 33 21zM189 624q0 104 -32 104q-22 0 -27 -2q-20 -13 -20 -88q0 -25 6 -71.5t6 -84.5q0 -42 -8 -125q0 -54 -1 -86q0 -22 -1 -33q0 -10 0 -8
q0 -18 16 -20.5t30 -4.5q13 11 13 87v74l4 30t5 42q5 83 5 130q0 10 2 32.5t2 23.5zM155 175q-16 5 -47 13q-4 -5 -2 -6q13 -12 38 -12q6 0 11 5zM240 74q-7 19 -23 19q-19 0 -32 -19q20 -7 21 -7q2 0 15 3.5t19 3.5zM102 63h-10q-11 0 -28 -7q-21 -8 -21 -19q0 -4 2 -6.5
t6 -2.5t26.5 15.5t24.5 19.5zM403 723q0 -18 -16 -18q-15 0 -15 21q0 18 15 18q16 0 16 -21zM393 562q0 -19 -14 -19q-16 0 -16 19t16 19q14 0 14 -19z" />
    <glyph glyph-name="a" unicode="a" horiz-adv-x="558" 
d="M543 289q0 -18 -15 -18q-22 0 -24 -2q-5 -8 -21 -20q-18 -5 -75 -5q-2 0 -13 1h-18v-101q41 -30 41 -61q0 -23 -28 -38q-23 -12 -48 -12q-3 0 -25.5 3t-25.5 3q-6 0 -26 -10.5t-46 -10.5t-39.5 10.5t-27.5 10.5q-54 -10 -59 -10q-62 0 -62 59q0 22 8.5 31t31.5 15
q-9 27 -9 40q0 9 10 65q4 34 8 67q5 46 18 78q-18 14 -23 28q-2 8 -2 33q0 24 12 126q3 31 6 43q4 26 12 44q4 8 27 19q-14 11 -27 21t-24 10q-8 0 -15.5 -8.5t-21.5 -8.5q-26 0 -26 29q0 13 9.5 23.5t15.5 10.5q12 0 21.5 -13.5l9.5 -13.5q2 0 6.5 1t7.5 1q13 0 47.5 -24.5
l34.5 -24.5q4 0 47 6q-4 20 -27 33.5t-45 13.5q-2 0 -5.5 -1t-5.5 -1q-9 0 -18.5 9.5t-9.5 19.5q0 22 29 22q11 0 21 -11q4 -4 3 -17q18 4 40 -9.5t36 -35.5q9 -15 15 -29q6 0 18 -3t14 -3q3 0 7 1t6 1q59 0 59 -90q0 -26 -11 -152q-2 -20 -12 -43v-5q34 -2 96 -9
q23 -1 68 -9q8 -2 10.5 -15t4.5 -13t5.5 1t5.5 1q17 0 18 -7q6 -19 6 -46zM140 750q4 6 0 10q-3 4 -9 3q-7 -2 -7 -8q0 -3 2 -5q10 -7 14 0zM521 309q-1 8 -2 10q-7 0 -15 1q1 -3 1 -22q13 -1 15 0.5t1 10.5zM54 718q0 5 -5 10.5t-11 4.5q-7 -1 -7 -11t4 -14t12 0q7 3 7 10z
M318 566q0 31 -3 46q-3 10 -10 27q-4 5 -29 10q-28 6 -56 6q-25 0 -78 -7q-9 -2 -13 -7q-8 -37 -12 -70q-12 -90 -12 -126q0 -22 7 -31q52 -2 98 -3q38 -2 37 -2q36 0 54 3q7 16 8 34q9 133 9 120zM376 321q2 10 -4 31h-15l3 -33q0 -3 8 -2q8 0 8 4zM329 354h-15v-30
q1 -2 8 -3q6 -1 7 2q2 7 0 31zM468 287v50q-9 1 -23 5q-5 4 -11 7l-45 3q-1 -11 -2 -34q-2 -16 -24 -16q-13 0 -20 10q-13 -8 -21 -8q-9 0 -15 6q-11 -11 -24 -11q-30 0 -30 32q0 11 4 23h-41q-18 0 -28 -30q-10 -25 -7 -33q28 -9 42 -9q4 0 28 3.5t26 3.5q3 0 65.5 -4.5
t64.5 -4.5q1 0 24.5 1.5t33.5 1.5q1 2 3 4zM294 321q2 14 -2 31h-16q0 -3 -1 -9.5t-1 -9.5q0 -10 5 -12q13 -7 15 0zM348 172q0 56 -11 78q-41 5 -59 5q-3 0 -26.5 -2t-26.5 -2q-76 0 -76 47q0 56 40 81q-22 1 -63 5q-6 -25 -19 -108q-13 -86 -13 -104q0 -31 48 -31h59
q3 0 46.5 5t46.5 5t10.5 -1t9.5 -1q34 0 34 23zM384 80q4 9 -13.5 22t-29.5 13q-6 0 -22 -11q-18 -14 -18 -22q0 -7 16 -13q13 -4 24 -4q7 0 24 5t19 10zM261 77q0 6 -10 20t-21 14q-38 0 -41 -48q22 -15 28 -15q7 0 23 7q21 9 21 22zM168 106h-10q5 -5 5 -9q0 4 5 9z
M130 80q0 9 -12.5 16.5t-26.5 8.5q-21 1 -28 -7q-5 -4 -5 -11q0 -10 10 -18.5t24 -8.5q38 0 38 20zM293 527q-5 -5 -28 13q-27 20 -40 20q-2 0 -15 -6.5t-15 -6.5q-16 0 -16 20q0 24 26 24q51 0 88 -64zM291 509q0 -15 -15 -15q-7 0 -10 5q-7 7 0 16q5 6 12 6q13 0 13 -12z
M255 515q0 -5 -5 -12t-11 -7q-7 0 -12 7q-7 11 0 20q6 7 14 7q14 0 14 -15z" />
    <glyph glyph-name="b" unicode="b" horiz-adv-x="327" 
d="M293 359q-2 -22 -25 -24q0 -6 7 -15q3 -2 3 -36q0 -23 -4 -28q-10 -8 -11 -11q-1 -14 -3 -36q0 -8 -4 -33q-4 -21 -4 -33q0 -16 6 -39.5t6 -26.5q0 -13 -20.5 -38.5t-32.5 -25.5t-34 11t-22 21q0 19 49 61q-13 60 -17 101l-2 2q-37 -13 -88 -34q-6 -19 -44 -19
q-24 0 -30 16q-2 7 -2 36q0 57 13 57t27 -8t27 -15q70 39 84 38q-1 12 -1 18q-24 1 -28 5.5t-8 27.5q-10 -6 -17 -6q-14 1 -19 30q-1 9 1 15q1 3 5 8q-9 35 -9 86q0 16 9 42t9 36q-39 45 -39 156q0 26 27 53t53 27q20 0 31 -21l16 -42q18 -48 15 -164h3q31 2 51 -62
q18 -55 12 -89q4 -3 9 -13q3 -14 1 -28zM203 563q7 35 -7 58q-5 -1 -7 0q-4 0 -10 3q1 1 4.5 3.5t8.5 9.5q2 5 0 8q-2 4 -8 6q-2 -1 -6 0q-3 0 -6 1q1 6 9.5 8.5t9.5 2.5q-1 23 -11 56q-13 40 -26 40q-19 0 -41 -23.5t-22 -42.5q0 -144 62 -144q17 0 50 14zM194 495l-7 1
l5 -5zM282 354q2 3 -4 32l-11 2q-6 0 -13 -5v-7q1 -28 8 -28q17 0 20 6zM241 369q0 5 -1 13v4q-8 -8 -3 -16q1 -1 4 -1zM271 398v5q0 12 -5 35.5t-6 32.5q-4 46 -39 68v-5q0 -8 -6 -11q-8 7 -7 22q-13 -7 -26 -12v-6q0 -5 4.5 -11.5t8.5 -7.5l21 14l4 -7q-24 -39 -30 -39
q-7 0 -17 16.5t-10 23.5l2 6h7l-2 8q-17 -2 -21 -2q-13 0 -22 5q-5 -13 -15 -43q-3 -17 0 -62q3 -16 7 -47l8 -7q-3 -4 -11 -8q-4 -2 -4 -12q0 -16 6 -16l16 2q-3 23 -8 76q-2 17 -4 35t4 34q1 8 3 16.5t8 8.5q7 0 9 -10.5t1 -26.5q-1 -23 -1 -19q0 -82 8 -137q3 -5 12 -5
q38 0 90 18v5q-15 6 -15 28q-7 1 -11 4.5t-4 11.5q0 11 12 19l1 20q1 9 -1 24.5t-2 23.5q0 11 4 15q2 -1 4 -4q9 -45 8 -77q6 1 9 1q4 0 10 -3zM262 286q1 9 0 24q-43 -12 -67 -12q-3 -4 -3 -15q0 -14 -101 -57l4 -32q7 1 21 5q11 4 19 9q58 25 124 59q1 1 3 19zM244 233
q-11 -5 -37 -16v-5q0 3 14 -108q5 -4 16 -9q2 5 4 16v12q-1 8 -1 12q0 17 2 49t2 49zM84 178q-4 27 -10 59h-6l12 -64zM233 77q0 3 -1 8q-3 0 -10 2q-3 1 -8 2q-11 0 -43 -44q6 -4 20 -8q17 6 42 40zM69 193q0 11 -6 26l-10 25q-2 2 -8 4h-9q2 -8 1 -22q-2 -25 -2 -27v-13
q0 -5 31 -14q0 3 1.5 9t1.5 12zM254 69l-5 2l-41 -44l4 -4zM149 644q-3 -4 -8 -4q-6 0 -8 4t0 8q2 5 8 5q5 0 8 -5q2 -3 0 -8zM120 648q0 -10 -9 -10t-9 11q0 9 8 9q10 0 10 -10z" />
    <glyph glyph-name="c" unicode="c" horiz-adv-x="411" 
d="M377 320q0 -20 -1 -66q-1 -11 -4.5 -41.5t-3.5 -46.5q2 -164 -130 -164q1 0 -14 -2t-24 -1q-9 2 -30 8q-20 3 -62 14q-37 17 -55.5 38t-29 71.5t-10.5 52.5q-7 107 0 168q8 66 9 74q7 36 23 70q8 24 15 47q10 20 67 61q7 4 20 13q-2 13 -10 47q-21 1 -21 26q0 27 26 27
q25 0 25 -24q0 -14 -14 -22q3 -28 10 -50q40 7 60 7q12 0 19 -2q34 81 34 89q0 2 -4.5 5t-5.5 5q-4 7 -4 18q0 14 10 26.5t27 12.5q31 0 31 -40q0 -18 -17 -27q-6 -2 -17 -6q-5 -14 -16 -43.5t-16 -43.5q55 -29 69 -56q9 -31 19 -62q11 -27 20 -106q5 -52 5 -77zM306 743
q0 9 -7 9q-15 0 -15 -12q0 -8 11 -8t11 11zM150 691q0 8 -7 8q-4 1 -7 -4t0 -10t8 -2q6 2 6 8zM347 320q0 33 -6 72q-5 24 -12 62t-8 39q-7 31 -16 45q-23 36 -52 55q-7 -21 -15 -21t-8 8q0 7 3 18h-22q-5 0 -42 -14q0 -20 -9 -20l-9 8q-58 -31 -76 -69q-3 -4 -25 -84
q-3 -15 -8 -70q-6 -60 0 -166q0 -12 6 -29q7 -28 13 -56q12 -35 44 -44q7 -5 25 -14q10 -4 38 -4h28q18 0 87 13q16 2 27 13q22 22 25 55q1 30 2 61q10 66 10 142zM335 368q0 -41 -21 -67q-23 -29 -65 -29q-13 0 -26.5 7t-12.5 7q-2 0 -11 -9.5t-14 -12.5q-9 -6 -31 -6
q-80 0 -80 88q0 33 18.5 57.5t51.5 24.5q29 0 44 -17q46 49 78 49t52 -33q17 -28 17 -59zM316 151q0 -49 -46 -72q-35 -17 -89 -17q-44 0 -72 20t-28 59q0 46 61 79q50 27 89 27q1 0 10 -2.5t14 -2.5q9 1 25 -3q36 -21 36 -88zM294 325q0 20 -20 20t-20 -21t19 -21
q8 0 14.5 7.5t6.5 14.5zM159 301q0 17 -16 17q-18 0 -18 -20q0 -16 16 -16q18 0 18 19zM272 137q0 1 -1.5 30.5t-2.5 42.5q-8 8 -19 8l-22 1q2 -19 6.5 -59t6.5 -59q32 8 32 36zM223 94v6q-12 53 -10 116q-5 -1 -24 -5q3 -20 6.5 -59.5t5.5 -59.5q17 2 22 2zM184 94
q-3 11 -3.5 58t-1.5 55q-4 -1 -11.5 -4.5t-10.5 -5.5q1 -38 11 -106q6 1 16 3zM152 93q-10 62 -2 99q-25 -20 -25 -23q0 4 1 -16t1 -48q11 -8 25 -12z" />
    <glyph glyph-name="d" unicode="d" horiz-adv-x="256" 
d="M138 457q-2 -1 -8 -1q-1 0 -5.5 1t-6.5 1q4 -9 11 -9q6 0 9 8zM233 724q0 -42 -1 -63q-1 -15 -8 -68q-2 -12 -9 -35q-9 -16 -44 -20q-1 -10 -15 -25q0 -3 -1 -8q0 -1 -5 -7q1 -4 -1 -13l-3 -6q-1 -10 -5 -22q1 -9 0 -12q10 -4 12 -19q4 -40 1 -57q4 -2 11 -10q4 -6 3 -12
l-1 -8q4 -20 16 -74q4 -4 9 -10q4 -13 4 -20q0 -13 -5.5 -18l-16.5 -15q-10 -15 -33 -42q-20 -21 -20 -25q0 -9 6.5 -40.5t7.5 -38.5q-8 8 -13 33q-4 20 -9 41q-6 -5 -20 -15q6 -22 50 -103q-18 17 -33 45q-13 25 -26 51q-25 -16 -63 -43h-5v4q65 47 65 48q0 5 -9 26
q-4 10 -31 87q-4 3 -9 10.5t-5 14.5q0 4 3 7.5t6 8.5q8 29 32 77q0 7 2 10t13 10q0 43 1 47q5 29 26 33q0 2 -1 10t-1 9q0 10 2 18v11q4 23 4 24t-3 4t-3 5q-1 3 0 14q-40 22 -40 72q0 1 1 9t1 9v44q0 35 18 68q23 42 62 42q14 0 24.5 -3.5l10.5 -3.5q1 0 4 1t4 1
q7 0 20 -10.5t16 -20.5q4 -13 4 -27zM213 724q0 47 -56 47q-62 0 -69 -98q-1 -16 -1 -58q0 -52 36 -55q5 -1 14 -3t10 -2q47 0 52 13q10 25 11 49t2 46q1 19 1 61zM153 532v4q-11 1 -33 4v-6q8 -5 21 -5q10 0 12 3zM145 512q-8 1 -23 4v-4q8 -4 14 -4q5 0 9 4zM141 495
q-7 1 -20 4v-6q0 -8 8 -8q9 0 12 10zM139 476q-5 -3 -10 -3q-1 0 -11 3q3 -8 11 -8q9 0 10 8zM138 386q0 16 -4 47q-3 0 -8 1t-6 1q-22 0 -22 -48q0 -23 28 -23q12 0 12 22zM158 344q1 0 0 5q-1 6 -6 8q-6 -6 -6 -5q0 -8 8 -8q5 0 4 0zM129 338q1 3 -2 10h-9q0 -1 -1 -3
t-1 -3q0 -6 6 -6t7 2zM92 354q0 3 -5 3q-7 0 -6 -6q0 -2 8 -2q3 0 3 5zM184 234q0 15 -8 15q-7 0 -9 -28l4 -4q13 0 13 17zM166 267q0 10 -5 36t-7 30q-7 2 -15 11q1 -5 -2 -9t-5 -8q-5 -12 -5 -29q0 -16 4 -28q7 -24 7 -19q0 -2 -4 -14t-5 -17q-6 -35 -6 -62q18 24 34 52
q-7 16 1 40q2 5 5 6.5t3 10.5zM129 251q0 10 -6 10q-4 0 -4 -16q0 -9 2 -14q8 4 8 20zM116 211q0 5 -4.5 13.5t-4.5 21.5q0 -1 7 23q2 11 2 23q0 24 -5 37q-2 3 -5 7q-1 8 0 16q-1 -6 -8.5 -11t-12.5 -4q-6 -7 -19.5 -31t-13.5 -27q0 -2 3.5 -5.5t4.5 -5.5v-7q0 -7 -3 -21
t-3 -10q0 -11 21 -75q5 -13 15 -31q11 6 24 23q2 15 2 64zM50 253v12q-9 -7 -9 -12t5 -7zM209 634q0 -41 -20 -41q-14 0 -14 23q0 33 15 33q11 0 15 -2t4 -13zM173 633q0 -32 -18 -32q-19 0 -19 25q0 29 17 29q1 0 16 -5q4 -4 4 -17zM197 628v10h-9q-1 -14 0 -31q5 -5 7 3
q2 5 2 18zM159 643h-8q-1 -12 -1 -27q2 0 5 -1q4 4 4 14v14z" />
    <glyph glyph-name="e" unicode="e" horiz-adv-x="716" 
d="M691 309q0 -14 -13 -22t-25 -8q-25 0 -29 23q-9 6 -42 40q-28 29 -46 34h-5q-1 -18 -6 -54q-8 -43 -15 -73q34 -17 48 -57q8 -34 17 -67q1 -6 11.5 -23t11.5 -17q2 0 7 1.5t8 1.5q16 0 26.5 -11t10.5 -23q0 -28 -34 -28q-15 0 -26 11.5t-9 26.5q-30 33 -39 89
q-9 52 -38 77q-20 -49 -56 -63q11 -7 20 -30.5t9 -39.5q0 -49 -43 -50q-16 -17 -23 -17q-13 0 -22 10t-9 22t10 20t19 8q10 0 20 -11.5l10 -11.5q19 0 19 30q0 15 -9 35q-12 26 -29 26q-2 0 -26.5 -2t-26.5 -2q-46 0 -84 18q-2 -9 -2 -19q0 -11 2 -29t2 -26q0 -29 -21 -51
q3 -11 3 -19q0 -29 -32 -29q-41 0 -41 36q0 32 32 32q2 0 10 -2t10 -2q12 0 18 41q0 -5 -3 34q-2 31 0 48q-13 19 -26 49q-6 15 -15 46q-5 18 -13 53q-4 5 -12 5q-19 0 -39 -29q-13 -21 -25 -43q-33 -52 -54 -47q-10 -40 -41 -40q-25 0 -25 30q0 36 39 36q2 0 9 -4t9 -4
q21 0 50 46q12 23 43 60q9 7 43 10v42q-1 13 -3 38q-22 12 -32 26q-8 20 -24 58q-6 12 -3 38q3 38 3 31v7q-1 6 -1 9q-5 -2 -9 -2q-14 0 -26 17q-10 14 -10 23q0 11 13.5 22t24.5 11q13 0 21 -16q7 -12 7 -21q0 6 -3 -16l-5 -8q0 1 4.5 -8.5t2.5 -25.5q-3 -25 -3 -24
q0 -68 43 -90q6 20 18 57q1 4 8.5 17t7.5 15q0 -4 -14 26q-8 15 -8.5 37t-1.5 43q0 10 -5 29q-7 11 -17 18q-31 22 -44 22q-1 0 -7 -3t-14 -3q-24 0 -24 26q0 12 8 22t19 10q31 0 27 -33q14 2 42.5 -20t34 -44.5t3.5 -41.5q-4 -31 -4 -33q0 -24 18 -39q24 21 41 30
q7 41 51 68q-1 19 10 43q10 20 21 41q-3 9 -3 28q2 7 11.5 14t16.5 7q28 0 28 -28q0 -11 -8.5 -22t-18.5 -11q-3 0 -4.5 1t-3.5 1q-1 0 -25 -38q-1 -8 -4 -28q-1 -2 1 -2l36 8q24 8 40 23q-2 4 -2 10q0 13 7.5 24t18.5 11q13 0 21 -14q6 -10 6 -19t-10.5 -19t-17.5 -10
q-3 0 -7 3t-6 3t-8 -6t-8 -7q-11 -7 -35 -13q-34 -9 -37 -10q-2 -8 2.5 -19t8.5 -21q14 -2 41 -6q5 -1 15.5 -6t12.5 -5t12.5 5t13.5 6q25 3 72 14q16 6 36 21q27 20 35 40l-22 16q-3 4 -3 15q0 36 31 36q29 0 29 -34q0 -4 -4.5 -11t-6.5 -16q-15 -54 -68 -75l-92 -26
q12 -6 35 -21q18 -17 25 -48q4 -23 7 -46q7 5 23 5q12 1 23 1q4 6 7.5 12.5t11.5 6.5q41 0 41 -35q0 -12 -12.5 -18.5t-18.5 -6.5q-14 0 -29 21q-11 0 -22 1q-15 -1 -26 -10q-7 -35 -7 -40v-21q32 0 96 -70q4 6 14 13q10 3 23 3q10 0 17.5 -11.5t7.5 -18.5zM627 721
q0 16 -13 16q-11 0 -11 -17q0 -13 14 -13q10 0 10 14zM475 718q0 12 -13 15h-6q-6 -2 -4 -16q1 -13 10 -13q3 0 8 5.5t5 8.5zM411 775q0 10 -12 10q-15 0 -15 -12q0 -3 5 -8t11 -5q11 0 11 15zM628 469q5 11 -14 15q-5 1 -7 0q-7 -3 0 -17q4 -7 12 -6q7 1 9 8zM671 307
q4 13 -11 14q-6 1 -10 -4t-4 -11q0 -4 2 -6q5 -3 14 0q4 1 9 7zM353 615q-1 6 -4 18t-4 18q-32 -18 -37 -44q11 3 45 8zM135 745q4 4 3 10q0 6 -5 7q-5 0 -9 -7q-5 -8 0 -12q6 -5 11 2zM143 636q0 17 -13 17q-12 0 -12 -12q0 -4 5 -11.5t10 -7.5q10 0 10 14zM508 478
q0 42 -16 64q-10 6 -25 16q-20 14 -21 14q-12 0 -13 -25.5t-22 -25.5q-17 0 -17 17q0 5 2 9q11 13 29 36q-26 6 -47 6q7 0 -51 -9q-2 -9 -4 -13q-8 -15 -24 -15q-5 0 -15 10q-12 -4 -30.5 -39.5t-18.5 -50.5q0 -2 3.5 -10t3.5 -10q0 -17 -13 -29v-9q0 -104 47 -199
q7 9 13.5 18t16.5 9q18 0 18 -18q0 -23 -23 -23q-4 0 -8 1q18 -18 72 -18q2 0 14 1t17 1q-5 7 -20 19q-9 8 -9 17q0 18 22 18q20 0 20 -19q0 -2 -4 -7.5t-4 -7.5q0 -4 7 -10.5t9 -6.5q57 0 76 143q2 11 1 26q-15 6 -15 18q0 25 21 27q1 14 5 45q3 28 3 30zM630 52
q-5 17 -16 17t-11 -13q0 -10 14 -10q7 0 13 6zM419 58q-1 10 -13 13q-4 1 -6 0q-5 -2 0 -15q2 -7 8 -8q5 -1 7 0q4 3 4 10zM246 26q0 6 -6 14t-13 8q-16 0 -16 -14q0 -15 23 -15q12 -2 12 7zM56 215q0 11 -13 11q-10 0 -14 -8q-4 -7 0 -15q2 -4 7 -6q7 -3 13.5 2.5t6.5 15.5
zM438 417q0 -18 -17 -18q-10 0 -16 17q0 18 17 18q16 0 16 -17zM378 422q0 -23 -22 -23q-17 0 -17 14q0 8 6.5 17.5t16.5 9.5q16 0 16 -18zM448 348q0 -12 -6 -11q-13 2 -68 2q-43 0 -49 -23h-6q-5 3 -5 9q0 35 106 35q28 0 28 -12z" />
    <glyph glyph-name="f" unicode="f" horiz-adv-x="944" 
d="M909 598q0 -21 -19.5 -37.5t-37.5 -16.5q-21 0 -37 16t-16 34q0 35 27 43q7 0 20 2q23 4 18 4q20 0 32.5 -13.5t12.5 -31.5zM784 586q0 -14 -31 -39q-22 -18 -102 -78q-62 -46 -62 -49q0 10 21 -67q8 -35 26.5 -99t18.5 -89q0 -37 -20 -37q-14 0 -70 57q-91 94 -90 94
q3 0 -5 -3q-21 -13 -124 -65q-99 -50 -101 -50q-20 0 -20 23q0 -10 6 28q7 43 28 109l36 106q-30 30 -104 99q-9 7 -27 22q-11 7 -22 15q-15 13 -15 27q10 12 79 20q51 6 87 6q-1 0 21 -1.5t32 -0.5q1 3 -5 53t-6 53q0 39 66 39q20 0 71 -3q24 -2 38 -9q7 -5 12 -37
q2 -27 10 -83q81 7 77 7q37 0 86 -8.5t58 -17.5q11 -1 30 -14q1 -3 1 -8zM731 62q0 -19 -16.5 -31.5t-31.5 -12.5q-24 0 -38 14.5t-14 36.5q0 26 26 33q8 2 39 2q15 0 25 -14.5t10 -27.5zM116 593q0 -18 -13 -31.5t-30 -13.5t-27.5 10t-10.5 25q0 16 11 31q14 20 40 20
q14 0 22 -14.5t8 -26.5zM241 102q0 -21 -16 -37t-36 -16q-18 0 -33.5 15t-15.5 31q0 17 16 32.5t35 15.5q50 0 50 -41zM872 597q0 9 -8.5 15t-18.5 4q-16 -3 -17 -17q-2 -20 22 -20q20 0 22 18zM734 578q-7 5 -17 11q-92 14 -185 14q1 -3 1 -6q0 -20 -17 -20q-16 0 -18 16
q-5 46 -13 125q0 1 -37.5 4.5t-49.5 3.5q-18 0 -28 -3q8 -47 8 -92q0 -56 -17 -56q-10 0 -11 19q-51 -1 -182 -18q101 -63 147 -128v-13q0 -16 -16 -71q-8 -28 -16 -55q-8 -37 -22 -104q51 28 129.5 68.5t82.5 40.5q10 0 71 -59q73 -70 75 -72q-65 228 -65 234q0 7 2 9
q63 54 178 152zM698 58q4 8 -2.5 15.5t-15.5 8.5q-18 1 -21 -13q-2 -8 6 -14.5t17 -5.5q13 1 16 9zM85 591q0 -2 -2 4q-4 10 -8 10q-6 1 -12 -9q-5 -11 0 -17q4 -4 11 -2q4 1 8 10q2 2 3 4zM208 98q-1 21 -21 21t-19 -23q2 -20 21 -19q19 2 19 21zM471 654q0 -15 -13 -16
q-6 0 -10 4.5t-4 11.5q1 16 14 15q12 -1 13 -15zM425 651q0 -7 -4.5 -12.5t-11.5 -4.5q-10 1 -11 16q0 19 12 19q15 0 15 -18z" />
    <glyph glyph-name="g" unicode="g" horiz-adv-x="465" 
d="M434 71q0 -59 -88 -59q-28 0 -55 9q-32 10 -38 25q0 11 -6 38h-51q2 -8 2 -14q0 -33 -41 -50q-29 -12 -62 -12q-26 0 -47 11q-26 12 -26 35q0 38 43 57q-45 35 -45 116q0 45 17 93q32 89 144 227q5 16 17 49q9 21 33 59t38 52q-13 3 -13 28q0 23 17 36q6 7 23 17
q9 3 18 3q21 0 21 -19q0 -21 -14 -39q-90 -113 -112 -180q5 0 19 -1t16 -1q3 0 28 51q20 25 44 42q11 4 31 16q4 9 16 25q14 10 40 10q12 0 19.5 -10.5t7.5 -19.5q0 -17 -16.5 -27t-34.5 -10q-12 0 -19.5 4.5l-7.5 4.5q-7 0 -32 -21t-28 -27q-9 -14 -23 -44q29 -10 57 -45
q25 -30 36 -60q7 -26 22 -82q9 -32 9 -83q0 -36 -22 -129q-3 -15 -18 -26q81 -9 81 -49zM410 664q1 15 -13 15q-4 0 -14 -5q-13 -7 -15 -15q-1 -7 0 -10q3 -5 20 0q11 3 14 4q7 4 8 11zM310 766q-32 -6 -31 -27q-5 -12 0 -12q7 2 20 17t13 21q0 2 -2 1zM359 271q0 40 -3 53
q-12 62 -20 87q-17 50 -47 80q-22 23 -34 23q-2 0 -5.5 -5.5t-6.5 -5.5q-8 0 -8 16h-25q-18 0 -28 -24t-17 -24q-2 0 -3 1h-2v16q-31 -38 -70 -118q-44 -89 -44 -130q0 -35 10.5 -67.5t27.5 -39.5q10 -5 72 -13q50 -7 74 -7q30 0 64.5 9t44.5 29q4 6 13 62l1 7q6 36 6 51z
M408 68q0 13 -23 22q-18 6 -29 6q-26 0 -54 -18l-3 3q0 2 1 5.5t1 4.5q-35 -6 -34 -6q2 -12 15 -35q11 -12 61 -12q21 0 39 7q26 8 26 23zM175 80v10q-2 -2 -35 0q9 -14 9 -20q0 -7 -7 -7q-1 0 -22 12t-29 12q-13 0 -28 -9.5t-11 -21.5q5 -16 27 -19q17 -2 52 -2
q9 0 26.5 18.5t17.5 26.5zM282 316q0 -29 -21 -29q-12 0 -12 25q0 24 16 24q17 0 17 -20zM228 292q0 -14 -16 -14q-14 0 -14 16q0 20 14 20q7 0 11.5 -9t4.5 -13z" />
    <glyph glyph-name="h" unicode="h" horiz-adv-x="244" 
d="M222 732q-6 -7 -21 -19q-9 0 -30 -11q29 -32 29 -88q0 -9 -7 -39t-12 -40q-8 -5 -24.5 -18t-16.5 -21q0 -2 4.5 -12.5t5.5 -15.5q11 -40 16 -74q4 -20 9 -58q-1 -13 1 -37q5 -4 13 -12q8 -12 8 -24q0 -27 -31 -32q-3 -2 -4 -8q-6 -38 -15 -70q-5 -19 -5 -48
q0 -25 8.5 -42.5t8.5 -20.5q0 -9 -10 -18q-6 -2 -18 -8q-28 -20 -39 -20q-8 0 -12.5 7t-6.5 7t-10.5 -1.5t-10.5 -1.5q-23 0 -23 13q0 15 27 23l28 6l1 3t2.5 15t1.5 14q0 10 -9 77t-12.5 69t-10.5 5q-12 8 -12 23q0 11 3 17.5t9 21.5q5 22 5 33v55q0 14 8 43q6 16 11 31
t5 36q0 19 -2 25q-37 14 -50.5 30.5t-13.5 52.5q0 37 15 79q21 62 63 62q2 0 4 -1h5q-2 8 16 21q30 22 34 25q10 9 12 9q13 0 13 -12q0 -9 -8 -12.5t-30 -18t-22 -18.5q0 1 37 -25q7 12 20 16.5t17 9.5q-2 14 12 14t14 -17zM182 614q0 24 -18 24q-9 0 -17 -12t-8 -19
q0 -32 17 -32q26 0 26 39zM129 621q0 51 -24 51q-26 0 -26 -80q0 -25 28 -25q22 0 22 54z" />
    <glyph glyph-name="i" unicode="i" horiz-adv-x="723" 
d="M690 130q0 -18 -22 -30q-16 -9 -26 -9q-37 0 -48 40q4 11 5 30q-6 15 -21 38q-21 31 -25 39q-31 -17 -98 -50q12 -29 40 -86q1 -2 25 -9q12 -4 22 -18t10 -23q0 -16 -28 -32q-24 -13 -36 -13q-17 0 -31 13t-14 30q0 4 9 21.5t9 20.5q0 7 -17.5 48t-21.5 41
q-2 0 -6.5 -1.5t-8.5 -1.5q-64 0 -116 70q-46 62 -46 118q0 30 27 75q31 51 69 66q-32 20 -99 20q-52 0 -96 -21q-28 -13 -57 -37q-25 -20 -29 -20q-19 0 -35.5 17.5t-16.5 31.5q0 49 20 94q45 101 143 155q84 47 178 47q82 0 168 -43q110 -55 134 -147q10 -26 19 -52
q14 -39 14 -69q0 -48 -7 -72q-14 -46 -40 -84q-17 -26 -42 -50q-19 -20 -19 -21q0 -5 21 -35t38 -46q9 0 27 -4q10 -5 19 -19.5t9 -21.5zM633 476q0 36 -10 63q-9 22 -17 44q-20 81 -118 128q-74 35 -142 35q-80 0 -153 -39q-80 -43 -121 -118q-20 -37 -19 -61v-31
q82 75 198 75q105 0 140 -53q5 -9 21 -8q23 2 21 3q14 -3 33 -14q25 -16 25 -36q0 -12 -9 -12q-43 30 -72 30q-14 0 -40.5 -8.5t-36.5 -17.5q-15 -13 -32 -47q-14 -29 -14 -46q0 -36 35 -83q39 -54 82 -54q75 0 152 80.5t77 169.5zM657 132q3 8 -4.5 16.5t-15.5 5.5
q-10 -4 -10 -16q0 -18 16 -17q10 0 14 11zM515 56q2 9 -6 15.5t-17 4.5q-8 -3 -12 -17q-4 -12 0 -16q3 -3 16 0q9 3 13.5 5t5.5 8zM500 347q-4 -9 -16 -10q-11 0 -16 10q-4 7 0 14q4 10 17 9q11 0 15 -6q5 -7 0 -17zM434 343q1 -9 -2.5 -13.5t-13.5 -4.5q-20 1 -20 20
q0 18 17 19q18 2 19 -21z" />
    <glyph glyph-name="j" unicode="j" horiz-adv-x="247" 
d="M220 271q0 -24 -10 -40q-5 -8 -22 -10q0 -11 -10 -28q-6 -1 -17 -7v-58q0 -20 -13 -110q6 0 22.5 2t17.5 2q23 0 23 -10q0 -8 -8 -9q-64 -4 -55 -4q-2 0 -8 4t-9 4q-22 1 -67 5q-6 1 -6 8q0 9 17 9q-3 0 40 -5q1 1 1 8q0 1 -4 31l-6 51q-2 26 -6 79q-8 2 -22 7
q-5 3 -9 26q-12 77 -2 216q-8 -1 -12 3q-11 -13 -11 -76q0 -56 4 -72q4 -5 9 -16q3 -21 3 -32q0 -31 -28 -31q-14 0 -15 11q-2 33 -2 41q0 15 4 22l10 5q-3 79 1 112q2 18 7 30q6 8 13 23q-2 6 -2 23q0 5 9.5 13.5t15.5 8.5q3 0 5 -1q1 8 21 15l-2 6q-3 -2 -13 -2
q-22 0 -24 9.5t-6 66.5q-5 88 -5 103q0 -1 -1 11t-1 21q1 13 4 20q7 14 60 14h7q5 -1 7 -1q3 0 12 3.5t11 3.5q10 0 26.5 -13t17.5 -22q3 -24 3 -54q0 -81 -10 -145q-1 -7 -11 -9l-54 -6q2 -3 15.5 -12t17.5 -9q2 0 6.5 2.5t7.5 2.5q6 0 9 -4q5 -8 9 -10t11 -7t8 -16.5
t2 -12.5q8 -16 8 -40q0 -37 -7 -123q-1 1 3 1q10 0 10 -28zM166 688q0 37 -5 46q-8 15 -43 15q-41 0 -44 -6t-2 -79q0 -1 11 -114q27 2 76 6q1 26 4 81q3 50 3 51zM195 461q0 10 -5 18q-2 3 -3 0q-1 -5 0 -21q0 -2 4 -1t4 4zM201 440q-4 -3 -11 -6q-2 -37 -4 -77v-54
q6 23 10 67q5 68 5 70zM73 490q-6 -13 -6 -11q0 -2 1 -5t1 -4q4 12 4 20zM161 435q-1 21 -3 41q-2 16 -7 18q-17 2 -50 6q-11 -20 -16 -91q-2 -24 -2 -76q0 -38 11 -115q17 -1 50 -3q13 -1 15 3zM205 250v39h-12l-5 -17v-36q17 5 17 14zM45 239q0 44 -8 44q-2 0 -3.5 -1
t-2.5 -1q2 -33 2 -47q8 3 12 5zM125 176v15q-2 0 -6 1t-6 1q1 -9 4 -27.5t4 -27.5q0 -9 3 24q1 9 1 14zM145 174v15q-2 0 -6 1t-6 1q2 -100 2 -103q10 79 10 86zM150 652q0 -13 -10 -13q-8 0 -8 11q0 12 9 12t9 -10zM125 654q0 -13 -12 -13q-4 0 -7 4q-6 7 0 15q4 6 10 6
q9 0 9 -12z" />
    <glyph glyph-name="k" unicode="k" horiz-adv-x="611" 
d="M599 686q0 -14 -2.5 -17.5t-18.5 -9t-22 -5.5q-2 0 -4 2t-4 2q2 0 -90 -80q-19 -14 -60 -45q10 -38 10 -48q0 -15 -7 -16q-13 -1 -17 -6q2 -33 -1 -84q0 -3 -1.5 -12.5t-1.5 -11.5v-100q0 -14 -1 -24.5t-1 -13.5q0 -2 1.5 -15.5t1.5 -15.5v-66q0 4 11 -67q3 0 9 1t9 1
q9 0 19 -8q1 -6 3 -20t2 -16q0 -12 -14 -12h-31q-27 0 -30 15q0 20 -1 40q-5 23 -12 66q-5 30 -14 95q-12 -32 -23 -79q-8 -41 -17 -82q1 -13 0 -40q-1 -12 -27 -12h-30q-19 0 -19 15q0 -8 8 39q17 8 36 6q7 96 26 165q-2 1 -11 1q-11 63 -16 140q-1 6 -7 47q-6 34 -6 63
q1 0 -10 0q-17 0 -21 30q0 17 -1 34q-3 4 -7 6q-15 6 -37 21q-31 19 -59 45l-23 22q-1 0 -4.5 -3t-7.5 -3q-23 0 -60 14q-7 2 -7 14q0 13 11.5 29t20.5 16q-1 0 16 -5q2 1 5 8q2 3 8 3q15 0 16 -18l1 -31q8 -6 72 -56q14 -11 27 -16t15.5 -6.5t10 -11.5t10.5 -10q2 0 4 1
t4 1q8 0 11.5 -6.5t6.5 -6.5q6 0 8 5v7q5 4 16.5 5.5t16.5 4.5q-7 3 -24 11l-7.5 12t-7.5 18q0 24 21 77q2 4 30 17q-1 27 -13 27q-3 0 -3.5 -2t-2.5 -2q-7 0 -11 19q0 10 12 10q11 0 19.5 -22t5.5 -31h10q1 7 6.5 19t18.5 18q10 5 11 15q-3 8 -1 22q15 16 25 -3
q2 -4 -2.5 -8t-8.5 -8q-2 -10 -16 -26q-22 -14 -22 -18v-10q7 2 20 0q10 -6 20 -39q12 -39 12 -64q0 -28 -38 -28q-2 0 -9 1h-11v-5q18 -2 41 -13q0 -3 -2 -9q-1 -4 5 -4h22q3 0 56 49q72 65 87 78q-5 24 -5 22q-14 10 -14 20q0 7 9 12t14 5t18 -18q28 11 29 11q16 0 16 -38
zM580 679l-2 24q-6 -4 -31 -13q0 -12 4 -19q10 4 29 8zM541 705q0 2 -2.5 6l-2.5 4q0 -1 -4 -1zM370 778q0 2 -5 2t-7.5 -3t-0.5 -7q1 -2 3 -3q4 -2 7 2.5t3 8.5zM289 748q-4 8 -11 2q-2 -3 -1 -7q2 -4 5 -4q12 0 7 9zM366 611q-3 14 -7.5 41t-7.5 40q-26 -4 -61 -1
q-10 -19 -25 -85q5 0 101 5zM367 595h-41l-2 -8h37zM313 581q0 8 -5 8q-3 0 -3 -4v-3zM389 488q0 14 -1 34q0 4 -3 4t-3 -4q2 -8 2 -37q0 2 5 3zM313 567v8h-7l-1 -7zM336 554q-21 10 -25 10q0 -6 -10 -6q23 -4 35 -4zM299 594q1 -1 -30 -1q14 -4 20 -4q7 0 10 5zM295 558v6
q-3 -1 -9 -3.5t-14 -3.5zM75 695q-2 2 -7 2q0 -1 -2 -4q1 -1 3 -2.5t3 -2.5q3 3 3 7zM244 497v38q-6 6 -11 6q2 -42 0 -44h11zM67 651v8q0 11 -14 18q-11 3 -22 7q-3 -8 -6 -27q12 -3 42 -6zM363 435q0 42 -5 89q0 2 -3.5 7t-3.5 7q-12 0 -36.5 2t-25.5 2q-13 0 -28 -6
q2 -66 13 -151q10 -72 19 -144h27q3 0 4 2t3 2l14 -3q9 -2 20 1q-1 6 -3 55q0 19 2.5 80.5t2.5 56.5zM371 87q0 5 -1 37q-1 36 -4 100q-12 -3 -26 -2q20 -67 31 -135zM316 226q-12 0 -19 2q-21 -153 -21 -163l2 -5q0 2 2.5 5.5l2.5 3.5q15 99 33 157zM419 18v18q-8 4 -14 4
q-1 0 -13 -2q-10 -1 -14 0v-20q34 2 41 0zM276 43q-14 -5 -11 -5q-2 0 -7.5 3t-7.5 3q-13 0 -13 -17v-6q11 3 37 0q0 17 2 22zM334 651l-3.5 -1t-6.5 -1l-2 14h10l1 -4t1 -8zM308 656q0 -7 -10 -11q-5 3 -5 7q0 9 9 14q6 -4 6 -10z" />
    <glyph glyph-name="l" unicode="l" horiz-adv-x="533" 
d="M518 179q0 -21 -7 -27q-20 -19 -92 -74q-93 -71 -115 -71q-2 0 -39 17q-41 20 -60 26q-14 5 -76 15q-22 7 -63 19q-54 268 -54 344q0 16 1 18q5 12 57 48q42 30 126 83q0 14 -14 38q-18 30 -22 40q-5 14 -1 42q-15 4 -15 18q0 6 10.5 15t12.5 9q9 0 15 -8t6 -13
q0 -12 -15 -19q-3 -2 -3 -13q0 -21 3 -27q11 -23 21 -46q13 -27 17 -27q1 0 29 17t31 17t13.5 -4.5t15.5 -5.5q4 11 4 42q0 36 -7 51q-3 11 -16 30l-18 12q-4 3 -4 15q0 26 23 26q25 0 25 -25q0 -18 -13 -21q18 -23 22 -44q11 -50 -1 -93q11 -9 32 -14q34 -9 35 -9
q21 -10 64 -25q11 -1 23.5 -3t15 -8t5.5 -80q1 -32 5 -95q3 -38 13 -116q10 -73 10 -74zM294 762q0 14 -12 14q-5 -1 -9 -6q-4 -6 0 -15q3 -5 9 -5q12 -1 12 12zM175 711q7 10 0 14q-2 1 -8 1q-8 0 -10 -6t1 -9q10 -10 17 0zM446 522q-60 21 -139 53v-35q4 -2 -4 -15
q-7 8 -8 28q-1 14 -2 29q-12 9 -20 9q-10 0 -58 -35q0 -8 2 -24.5t2 -23.5q-2 -10 -4 -28h-7q-6 3 -7 29v40q-42 -25 -155 -96q23 -2 125 -34.5t100 -32.5zM489 173q-25 172 -33 315q-64 -47 -175 -129q5 -113 37 -315q35 20 171 129zM293 42q-34 170 -35 317
q-48 22 -110 44q-90 33 -101 33h-11q0 -67 20 -172q23 -115 25 -159l102 -22q70 -14 110 -41zM428 333q9 -8 9 -22q0 -16 -12 -20q-7 -2 -12 0q-8 3 -6 24q2 24 10 23q5 0 11 -5zM370 277q1 -23 -12 -23q-6 0 -12 6q-18 19 0 36q7 5 12 6q11 0 12 -25zM204 226
q0 -51 -38 -51t-38 51q0 65 37 65q39 0 39 -65zM188 228q-2 47 -15 47q-4 0 -3 -1t-3 -1t-6.5 3.5l-2.5 3.5q-4 -3 -10.5 -22.5t-6.5 -25.5q0 -41 26 -41q21 0 21 37z" />
    <glyph glyph-name="m" unicode="m" horiz-adv-x="558" 
d="M540 729q0 -22 -16.5 -34.5t-39.5 -12.5q-4 0 -29 18q-25 0 -56.5 -29.5t-36.5 -52.5q64 -20 101 -93q28 -53 35 -121q1 -9 0 -30q-1 -24 -1 -23v-76q0 -3 7.5 -88t7.5 -88q0 -30 -69 -68q-48 -26 -191 -26q-71 0 -116 14q-50 15 -105 57q-6 6 -8 21q-3 39 -3 68
q0 56 11 155q8 78 13 102q9 52 21 79q20 48 60 76q16 8 49 26q0 83 17 109q6 10 28.5 21t36.5 13q15 32 42 32q28 0 38 -3q21 -7 21 -32q0 -19 -18 -31t-38 -12q-16 0 -28.5 10l-12.5 10q-8 0 -27 -10t-22 -20q-8 -18 -9 -50v-22q15 2 50 6q31 5 34 5q21 0 49 -6q8 29 43 64
t59 35q3 0 6.5 -1t7.5 -1q9 0 14.5 11.5t11.5 15.5q10 6 44 6q7 0 13 -10t6 -14zM520 728q0 10 -12 10q-13 0 -21 -13t-6 -16q10 -8 22 -4q17 6 17 23zM332 743q0 4 -6 9.5t-13 5.5q-25 0 -29 -11q-3 -7 0 -14q3 -8 16 -8q32 16 32 18zM471 175q0 -11 -5 67q-4 70 -2 106
q3 46 -4 84q-6 35 -15.5 60t-35.5 56q-33 40 -59 40q-4 0 -8 -6.5t-8 -6.5t-8 9t-5 11q-6 0 -19.5 1.5t-16.5 1.5q-38 0 -84 -19l-4 -20q-5 -14 -12 -14t-9 11.5l-2 11.5q-26 -10 -50 -35t-32 -50q-16 -50 -21 -84q-20 -166 -20 -210q0 -23 44 -53q37 -24 50 -26
q58 -9 102 -9q40 0 94 9q12 1 51 12q16 5 43 20q36 19 36 33zM479 99q0 3 -3 13.5t-3 14.5q-25 -24 -101 -42q-69 -17 -120 -17q-3 0 -28.5 1.5t-28.5 1.5q-41 0 -71 16q-26 13 -73 55v-19q0 -20 4 -24q18 -19 93 -42q71 -22 102 -22q76 0 129 9q18 3 59 21.5t41 33.5z
M426 324q0 -18 -9 -34q-10 -19 -24 -19q-16 0 -26 19q-7 14 -7 27q0 46 34 46q13 0 23 -17q9 -13 9 -22zM314 266q0 -11 -8 -19.5t-17 -8.5q-10 0 -16.5 10t-6.5 17q0 10 7.5 21t17.5 11q23 0 23 -31z" />
    <glyph glyph-name="n" unicode="n" horiz-adv-x="668" 
d="M645 606q0 -25 -27 -41q-21 -10 -43 -20q-25 -9 -72 -28q-15 -7 -157 -50q-41 -12 -124 -36q3 -4 12 -11q61 -30 69 -34q60 -35 60 -57t-35 -36q-26 -12 -43 -12q-3 0 -31.5 2.5t-31.5 2.5q-14 0 -18 -4q-2 -35 3 -45q14 -29 44.5 -70.5t35.5 -41.5q2 0 22.5 5t23.5 5
q15 0 25 -15t10 -26q0 -24 -38 -41q-29 -13 -49 -13q-27 0 -41 17l-30 50q-1 -14 -7 -43q-3 -9 -56 -30.5t-69 -21.5q-17 0 -28 10.5t-11 25.5q0 23 39 39q26 10 51 19v92q-1 69 -19 154q-2 8 -34 53q-57 79 -57 159q0 77 70 128q93 69 234 69q66 0 140 -21q79 -23 125 -60
q57 -46 57 -74zM614 606q0 19 -41 45q-34 22 -49 29q-22 10 -65 23l-66 19q-36 8 -78 8q-91 0 -165 -32q-103 -46 -103 -139q0 -21 5.5 -51.5t10.5 -38.5q22 -30 43 -61q29 -41 33 -61q16 -93 16 -198q0 1 1.5 -14t0.5 -25q-1 -14 -5 -22q-11 -17 -41 -23q-33 -6 -43 -15
q0 -1 1.5 -6t1.5 -6h13q7 0 40 13q38 14 55 28q4 3 5 52q1 37 17 37q12 0 34 -51t46 -51q9 0 32 7q32 9 32 20q0 4 -4.5 10t-8.5 6q-3 0 -24 -5t-23 -5q-18 0 -101 128q-6 19 -5 40q1 18 2 37q-2 3 -12 15q-6 9 -6 12t4 7q63 -26 116 -26q26 0 46 17q-23 25 -82 56
q-12 4 -28 12l-22 18q-6 7 -6 19q0 16 9 21q22 11 48 18q20 4 39 9l180 52q147 45 147 72zM524 618q0 3 -4 -5q-6 -11 -11 -11q-12 0 -13 14q0 17 14 17q4 0 8 -6q1 -1 5 -9q1 -4 1 0zM450 590q-6 -12 -18 -11q-13 1 -13 17q0 19 18 19q9 0 13 -6q6 -7 0 -19z" />
    <glyph glyph-name="o" unicode="o" horiz-adv-x="1000" 
d="M971 309q0 -5 -12 -33q-12 -31 -20 -35q-11 -6 -23 -6q-22 0 -37 9q-9 5 -9 18q0 6 3 24q3 14 1 19q-45 118 -82 171q-49 -64 -49 -73q0 -3 9 -28q10 -29 13 -42q7 2 13 2q24 0 24 -43q0 -13 -1 -15q-6 -8 -39 -20q-29 -11 -36 -11q-14 0 -23 17q-8 14 -8 29q0 4 5.5 17
t5.5 17q0 5 -4 10q-4 -4 -14.5 -19.5t-23.5 -21.5q14 -67 14 -121q0 -47 -67 -67q-42 -13 -97 -13q-37 0 -98 18q-69 20 -85 44q-10 14 -10 63q0 4 7 53.5t7 53.5q0 3 -29 46q-6 -10 -15 -32q4 -10 7 -31q-4 -17 -20 -51q-5 -9 -20 -9q-8 0 -74 22q-2 16 2.5 43.5t9.5 31.5
q9 6 23 7h21q25 72 25 74q0 4 -21 33q-23 -15 -72 -66q-58 -59 -75 -74q5 -27 4 -39q-1 -9 -23.5 -22t-30.5 -13t-18.5 14t-10.5 21q-13 30 -13 53q0 18 9 27q13 16 35 20q20 38 112.5 131.5t109.5 93.5q10 0 25 -31q8 -17 15 -34q17 28 35 56q30 48 41 48q14 0 84 -126
q4 35 25 117q4 9 23 9q6 0 14.5 -6t8.5 -9q2 -31 14 -106q64 115 79 115q18 0 28 -27q5 -18 10.5 -33.5t17.5 -51.5q10 24 38 65q34 50 46 50q15 0 29 -21l18 -30q27 -27 33.5 -39.5t26.5 -67.5q24 -65 58 -146q3 -7 17 -13t14 -16zM678 496q0 6 -18 57.5t-25 60.5
q-75 -116 -75 -117q0 -3 5.5 -35.5t5.5 -35.5q2 -31 -14 -31q-4 0 -5.5 1t-2.5 1q6 -60 6 -80q3 -4 9 -4t22 13.5t20.5 20.5t4.5 32q0 8 -1 25v26q0 49 15 49q11 0 27 -42q26 62 26 59zM779 286v24q-18 0 -20 1q-8 4 -10 12q-8 21 -19 58q0 -1 -7.5 -10.5t-7.5 -13.5
t3.5 -12.5t3.5 -10.5q0 4 -1 -31q0 -22 9 -35q35 12 49 18zM644 422q-4 0 -13 9q0 -20 -5 -53q3 7 9 22t9 22zM549 418v33q-1 18 -7 25t-21 30q-2 3 4 5.5t9 1.5q0 19 -2 51q-3 37 -4 49q-4 9 -15 9q-17 -71 -23 -111q1 0 4 1t7 1q15 0 9 -9q-8 -4 -16 -9q-13 -12 -13 -47
q0 -16 7 -30q8 0 27.5 -3t22.5 -3q4 0 11 6zM476 391q0 3 -9 17t-10 19q-1 24 -2 65q-1 14 -27 55q-22 34 -44 67q-16 -27 -33 -55t-30 -38q5 -23 24 -47q16 28 25 28q10 0 12 -5q3 -15 7 -42q15 -78 15 -99q0 -11 -2 -16q18 -24 25 -24q3 0 19 8t21 10q0 11 4.5 33t4.5 24z
M942 304q-9 6 -21 17q-10 26 -30 73q-12 20 -29 53q-15 46 -42 107q-15 25 -45 60q-23 -31 -54 -79q-37 -88 -83 -191q-34 -59 -69 -59q-5 0 -17 12t-14 18q-5 19 -12 80h-21l-22 -58q-22 -46 -58 -46q-15 0 -25 16q-16 37 -46 98q-24 42 -84 173q-107 -77 -203 -206
q-3 -5 -27 -25q-16 -13 -16 -27q0 -5 11.5 -22.5t17.5 -20.5q20 6 20 22q0 4 -1.5 12t-1.5 11q0 4 1 5.5t60 64.5q97 104 114 104q11 0 63.5 -80.5t52.5 -102.5q0 -4 -2.5 -8l-2.5 -4q-7 -30 -7 -78q0 -18 7 -50q15 -9 39 -22q12 -4 55 -14q50 -12 64 -12q31 0 96 16
q15 4 20 5q12 6 13.5 15t1.5 23q0 24 -5 67q-4 40 -3 44q1 9 12 18q15 13 17 15q21 32 34 53q72 126 88 126q39 0 91 -145q3 -8 13 -31q8 -18 8 -22q0 -1 -5.5 -13t-5.5 -21q0 -7 4 -12q2 0 10 -1.5t11 -1.5q4 0 8 1q8 13 20 43zM374 423l-9 45q0 -1 -5 -5.5t-5 -8.5t9 -16
t10 -15zM293 391q0 2 -19 21q-3 -23 -7 -45q-5 -25 -16 -34q-7 -6 -42 -3q-1 -14 -6 -50q37 -5 56 -12q0 1 10 22q7 13 7 22q0 5 -3 18t-2 18q3 8 12.5 24t9.5 19zM546 190q-3 -3 -10 -3q-9 0 -12 6q-2 5 0 10q3 10 12 9q6 -1 10 -6q5 -9 0 -16zM481 182q-4 -4 -11 -4
q-10 0 -14 9q-3 7 0 13q5 10 14 9q6 0 11 -6q10 -13 0 -21z" />
    <glyph glyph-name="p" unicode="p" horiz-adv-x="417" 
d="M386 98q0 3 -20 -23q9 -21 2 -32q-23 -39 -80 -39q-30 0 -52 23q-9 -1 -25 1l-19 2q-45 -24 -55 -24q-6 0 -46.5 10.5t-44.5 14.5q-12 15 -12 27q0 3 4.5 12t4.5 12q0 2 -21 23v236q0 2 -2.5 48t-2.5 49q0 87 14 111q26 45 133 63q13 0 40 3v52q-1 35 -4 57q-1 3 -6 9.5
t-5 10.5q0 7 6 23t11 16q13 0 14 -11v-159q43 -8 85 -16q52 -13 58 -33.5t15 -108.5q8 -82 8 -99v-258zM212 760q-2 14 -3 9q-1 -2 -4 -5q-3 -6 -2 -16q2 -11 4 -7l3.5 3t1.5 16zM345 539q-4 15 -13 20.5t-50 16.5q-44 13 -58 13q-5 0 -6 -3l1 -20q1 -11 -9 -15q-8 7 -7 21
t-2 19q-120 -13 -160 -51q46 -35 112 -35q38 0 107 16q75 17 85 18zM359 354q-1 8 -2.5 26t-2.5 27q0 -4 -3 -12.5t-3 -10.5q0 -10 11 -30zM337 404q-2 -1 -9 -4t-9 -4q8 -4 13 -11q0 3 2.5 10t2.5 9zM352 340q0 1 -6 7v-9q2 0 6 2zM326 352q0 19 -13 25q-22 10 -29 3
q-6 -4 -6 -20q0 -35 25 -35q23 0 23 27zM352 436q-1 28 -5 83q-108 -40 -189 -40q-87 0 -114 36q0 -7 -1.5 -21.5t-1.5 -16.5q0 -3 2 -26q3 -26 3.5 -34t46.5 -19q39 -10 48 -10h38q41 0 101 19q48 15 72 29zM264 375l-9 3q0 -4 6 -10q0 3 3 7zM283 312q-5 2 -14 11
q-5 -11 -5 -14q7 0 13 1.5zM254 334q0 11 -11.5 24t-23.5 13q-10 0 -15 -34q0 -8 7 -18q9 -13 20 -13q8 0 15.5 10t7.5 18zM196 370q-3 0 -8 -1t-6 -1q3 -3 5.5 -8t3.5 -6q5 11 5 16zM201 302q-7 8 -13 18q-6 -9 -18 -21q10 3 31 3zM175 332q-6 36 -22 36q-11 0 -21 -8
t-10 -22q0 -7 8.5 -17t18.5 -10q3 0 14.5 6.5t11.5 14.5zM120 373q-9 0 -19 5l8 -24q1 2 5 9t6 10zM55 387q-4 2 -11 5q0 -11 3 -14zM122 307q-15 12 -12 23q-9 -9 -16 -21q9 -2 28 -2zM93 346q0 5 -6 18.5t-15 13.5q-6 0 -14 -10.5t-8 -15.5q8 -29 20 -29q23 0 23 23z
M362 125q0 1 -2.5 25t-2.5 35q0 68 1 104.5t1 28.5q-27 -14 -40 -19q-23 -10 -37 -12q-96 -10 -108 -10q-23 0 -82 10q-15 6 -44 16q0 -162 -2 -198q104 -53 175 -53q26 0 76 18q55 20 64 38q1 2 1 17zM350 50v14q-62 -31 -96 -32q11 -9 31 -9q41 0 65 27zM175 34
q-66 9 -114 39q-8 -16 -8 -14q0 -12 39 -21q30 -8 48 -8q3 0 16.5 2t18.5 2z" />
    <glyph glyph-name="q" unicode="q" horiz-adv-x="844" 
d="M834 585q0 -26 -21 -48q-10 -10 -51 -42q-17 -20 -52 -62q-44 -52 -157 -167l-102 -105q0 -1 5.5 -21.5t4.5 -31.5q0 -1 1.5 -5.5t1.5 -8.5q0 -50 -22 -69t-69 -19q-8 0 -25.5 8t-23.5 17q-13 -8 -27 -16.5t-42 -8.5q-37 0 -57 25q-29 -16 -40 -16q-71 0 -71 50
q0 11 4 24q-1 5 -5 24q-2 15 -2 27q4 4 10 9q86 11 109 11q4 0 36 -3.5t35 -3.5q34 0 40 4q21 14 135 130q68 63 199 194q-213 -138 -468 -248q-15 -7 -55 -12q-33 -5 -44 -5q-61 0 -75 42q-4 12 -4 78q0 40 5 50.5t19.5 18t29.5 14.5q8 1 18 7q6 10 43 56q-4 5 -4 12
q0 14 14 28.5t28 14.5q8 0 14 -9.5t6 -16.5q0 -17 -20 -33q-7 -1 -18 -5q-22 -19 -32 -35l-6 -12q-2 -2 5 -2q35 0 38 7q1 3 60 42q1 9 6 22q19 20 33 20q18 0 19 -32q0 -34 -27 -34q-4 0 -12 4.5t-12 4.5q-5 0 -20 -11.5t-18 -16.5t7 -7.5t13 -5.5q5 -8 6 -46q1 -46 5 -64
q64 46 260 145q47 24 110 69l108 78q5 66 79 66q38 0 58 -27q17 -22 17 -53zM800 587q0 47 -44 47q-33 0 -46 -20q-1 -11 -8 -27q-133 -101 -253 -166q-70 -33 -204 -103q-24 -14 -68 -39q-8 17 -8 20q0 1 1 21q2 17 1 27q-1 20 -6 45q-3 3 -40 3q-21 0 -31 -4
q-2 -1 -5.5 -6.5t-5.5 -5.5q-1 1 -1.5 5.5t-5.5 4.5q-4 0 -17 -5t-17 -5t-8 -24t-4 -43q0 -74 40 -74q38 0 76 14q7 3 22 10q114 54 229 107q118 57 208 120q24 17 58 35.5t40 18.5q15 0 15 -17q0 -11 -40 -47l-46 -40q-30 -34 -83 -89q-57 -60 -113 -119
q-96 -100 -112 -100q5 0 -56 4q-56 3 -85 2q-50 -2 -80 -6v-18q37 15 58 15q15 0 21 -3t19 -22q42 25 62 25q4 0 34.5 -7.5t34.5 -7.5q-2 0 22.5 15.5t47.5 16.5q16 28 95 108q110 112 177 190q12 9 31 26q17 14 51 53q44 51 44 65zM240 471q6 5 5 14q-1 10 -8 10
q-10 1 -15 -10q-4 -8 0 -14q7 -9 18 0zM440 143l-5 1l-4 -8l5 -2zM439 80q0 39 -33 39q-20 0 -44 -17t-24 -40q0 -31 33 -31q68 0 68 49zM310 64q0 15 -15.5 25.5t-37.5 10.5q-34 0 -38 -59q10 -10 36 -10q55 0 55 33zM184 69q0 18 -31 18q-41 0 -41 -20q0 -27 44 -27
q9 0 18.5 9t9.5 20zM128 328q0 -22 -7.5 -27t-14.5 -3q-11 2 0 30q6 14 11 14q11 0 11 -14zM87 310q0 -20 -14 -21q-6 -1 -11.5 6.5t-5.5 11.5q0 19 17 19q14 0 14 -16zM148 498q5 2 7 9q3 12 -6 12q-13 0 -13 -14q0 -11 12 -7z" />
    <glyph glyph-name="r" unicode="r" horiz-adv-x="558" 
d="M539 71q0 -56 -51 -56q-21 0 -47 35q-11 -8 -23 -15q-7 -4 -28 -4q-47 0 -57 27q-4 8 -6 31q-1 17 -7 20q1 -18 -4 -26.5t-29 -18t-36 -9.5q-28 0 -43 19.5t-15 45.5q0 11 7 26.5t17 20.5v206q-7 22 -19 68q-9 37 -38 114q-23 60 -23 82q0 30 40 52q-16 10 -36 10
q-28 0 -82 -39q5 -10 1 -28q-4 -20 -17 -20q-33 0 -33 27q0 31 24 38q5 0 14 1q20 16 41 30.5t48 14.5q28 0 66 -24l202 75q25 1 36 -29l14 -44q3 -6 35 -109q14 -43 14 -88q0 -71 -22 -71q-9 0 -26 19l-24 26l-8 -34q-7 -27 -18 -27q-7 0 -15 8t-17 18q2 -23 13 -123
q30 69 50 69q12 0 17 -18l8 -27q36 45 47 45q16 0 18 -46q-1 -30 -2 -59q8 -1 17 -8q0 -1 -1.5 -9t-1.5 -11t-9.5 -66t-9.5 -66t6 -9t7 -10q6 -15 6 -34zM477 539q-14 -7 -42 -20q9 -12 19 -25t21 -18q0 44 2 63zM407 501q-6 -3 -19 -10.5t-18 -11.5q20 -20 29 -24q2 7 4 23
t4 23zM498 292q0 -4 0 49q-25 -23 -27 -46q15 0 27 -3zM511 244v17q-59 8 -100 16q-29 6 -30 6q-18 6 -20.5 18t-5.5 82q-3 63 -16 110q41 27 129 75q-16 58 -62 178q-70 -26 -141 -52q-103 -39 -103 -56q0 -12 23 -73l24 -60q0 -2 22 -83q14 -49 14 -72q0 -20 -6 -175
q6 0 12 1t8 1q13 0 30 -12.5t25 -32.5h8.5h9.5t8.5 6.5t7.5 6.5q18 8 32 8t36 -14t28 -28q27 44 45 38q3 14 9 43q1 10 4 28q8 31 9 24zM440 299q-3 25 -8 45q-13 -21 -20 -40q6 0 28 -5zM47 649q-3 10 -9 11q-5 0 -7.5 -5.5t-2.5 -12.5q0 -6 3 -8q6 -5 13 0q6 4 3 15z
M511 75q0 44 -24 43q-21 -1 -21 -40q0 -12 7 -23.5t18 -11.5q20 0 20 32zM421 82q0 14 -12 26q-4 3 -11 7q-13 8 -19 8q-14 0 -22 -8.5t-8 -18.5q0 -15 11.5 -26t27.5 -11q33 0 33 23zM290 114q0 32 -33 32t-33 -30q0 -33 27 -33q39 0 39 31zM440 589q0 -19 -15 -19
q-18 0 -18 22q0 20 15 20q18 0 18 -23zM393 561q0 -20 -19 -20q-7 0 -14 11q-5 7 -5 11q0 8 6.5 15.5t12.5 7.5q19 0 19 -25z" />
    <glyph glyph-name="s" unicode="s" horiz-adv-x="435" 
d="M275 -94v0v0v0zM409 494q0 -3 -7.5 -57t-7.5 -57v-129q0 -15 -39 -24q-29 -7 -51 -7v-93q5 1 10 1q36 0 36 -67q0 -24 -15.5 -39t-35.5 -15q-24 0 -39 21q-12 17 -12 36q0 37 31 55v94l-3 2q-50 -6 -85 -3v-35q0 -2 1.5 -15t1.5 -18q9 -4 22 -18q1 -3 13 -23q6 -10 6 -23
q0 -40 -45 -40q-65 0 -65 50q0 46 38 57q3 35 -7 62h-91q-8 0 -24 16t-16 24v327q0 15 26 76q24 55 29 61q23 31 73 48t99 17q55 0 95 -27q45 -30 58 -87l2 -4.5t2 -8.5v-157zM378 631q0 56 -39 87q-35 29 -89 29q-27 0 -69 -11q-51 -14 -68 -32t-38 -76q-19 -54 -19 -62
v-315q10 -10 14 -10q8 -1 73 -1q67 0 98 3q50 6 82 8q14 4 40 10v129q0 3 6.5 47t6.5 47v80q0 4 1 34t1 33zM322 63q0 36 -15 36q-12 0 -21.5 -13t-9.5 -23q0 -8 7 -18t16 -10q23 0 23 28zM202 74q4 6 0 19q-7 24 -29 24q-7 0 -13.5 -10t-6.5 -17q0 -19 19 -19q25 -6 30 3z
M319 451q0 -16 -12 -16q-16 0 -16 20q0 18 13 18q15 0 15 -22zM273 429q0 -20 -15 -20q-13 0 -13 19q0 17 13 17q15 0 15 -16z" />
    <glyph glyph-name="t" unicode="t" horiz-adv-x="547" 
d="M514 365q0 -241 -251 -241q-101 0 -163 58.5t-62 150.5q0 11 11 62q13 61 72 109q51 41 111 53q1 30 3 60q4 48 25 48t21 -53q0 -13 -1.5 -30t-1.5 -15q5 -6 6 -6h53q7 11 7 30q0 10 -2 25t-2 18q0 4 1 4l11 11t13 6q20 0 24 -47q1 -25 2 -51q12 -5 35 -18q15 -8 29 -17
q19 -12 25 -27q34 -76 34 -130zM352 318h-53q1 -45 0 -93h53v93zM225 222q4 38 -3 106q-53 0 -54 -1v-105h57z" />
    <glyph glyph-name="u" unicode="u" horiz-adv-x="524" 
d="M491 535q0 -28 -8.5 -75.5t-8.5 -54.5v-88q0 -81 2.5 -122.5t2.5 -60.5q0 -71 -8 -94q-5 -15 -28.5 -29t-44.5 -18q-2 -1 -22 -1q-24 0 -30 3q-21 10 -75 29q-48 17 -74 32q-9 9 -98 55q-19 9 -39 17q-24 12 -27 20q-7 17 -9 52t-4 68.5t-2 96.5q0 9 3 109q2 74 -1 88
q-3 16 3 73q3 7 5 19t3 24q3 17 9 22q11 9 35 25q34 16 67 33q49 22 69 22q12 0 56 -24q35 -19 49 -29q45 -32 74 -55q52 -42 95 -90q6 -7 6 -47zM444 572q-128 123 -203 157q-1 0 -16 9q-10 7 -16 7q-14 0 -62 -23q-31 -15 -63 -30q48 -21 236 -110q18 -11 35 -20.5
t32 -9.5q17 0 30 7q20 10 27 13zM448 533q-27 -21 -64 -30q-7 -77 -15 -204q-1 -58 -2 -128q9 11 27.5 20.5t30.5 9.5q2 0 6.5 -1t9.5 -1v32q2 22 3 44q2 45 2 69l-2 162q1 10 4 27zM352 461q0 46 -8 57q-21 29 -51 42q-23 8 -45 16q-75 40 -141 66q-17 8 -49 20
q-1 -30 1 -107q3 -35 0 -66q-3 -50 -3 -125q0 -76 10 -206q36 -14 106 -47q43 -25 87 -42q55 -23 69 -30q-3 4 -2 72q1 20 5.5 60.5l4.5 40.5v82q0 3 8 83.5t8 83.5zM446 105q0 54 -4 58.5t-18 4.5q-42 0 -58 -47q-7 -20 -7 -42q0 -1 1.5 -20.5t1.5 -29.5l-3 -4h27
q6 0 30.5 11.5t27 17.5t2.5 51zM437 351q0 -20 -13 -20q-11 0 -11 5q-1 9 0 30q2 5 11 5q13 0 13 -20zM404 346q0 -19 -8 -27q-3 -3 -8 0q-12 8 -12 21q0 9 6.5 17.5t10.5 8.5q11 -1 11 -20z" />
    <glyph glyph-name="v" unicode="v" horiz-adv-x="718" 
d="M660 433q0 -65 -12 -192t-12 -188q0 -18 -22 -29q-58 -6 -127 -6q-62 0 -186.5 6.5t-186.5 6.5q-58 0 -71 17q-11 13 -11 72q0 27 5 80.5t5 79.5q0 47 -2.5 141t-2.5 141q0 33 9 87q11 61 24 81q8 13 40 13q45 0 135.5 -1t135.5 -1q41 0 121.5 -15t113.5 -15q41 0 42 -43
zM615 431q0 -1 -3 235q-24 0 -105 14t-127 14q-191 0 -276 4q-23 -117 -23 -203q0 -27 2 -87q3 -75 4 -123q0 -28 -5 -81q-5 -57 -5 -83q0 -8 1 -23t2 -22q68 0 205.5 -6.5t205.5 -6.5q17 0 50.5 1.5t48.5 1.5q25 238 25 365zM429 361q0 -27 -18 -27q-22 0 -22 34
q0 25 19 25q21 0 21 -32zM285 349q0 -13 -21 -23q-9 5 -16 11q0 15 1 31q3 20 16 20q20 0 20 -39z" />
    <glyph glyph-name="w" unicode="w" horiz-adv-x="700" 
d="M664 434q0 -48 -2 -107q-2 -28 -4.5 -75.5t-8.5 -82.5q-3 -38 -10 -108v-19q0 -12 -7.5 -20.5t-14.5 -9.5q-59 -6 -131 -6q-3 0 -152 8t-152 8t-40 -1.5t-41 -1.5q-60 0 -74 19q-10 13 -10 73q0 -2 5 68.5t5 96.5q0 61 -2.5 173t-2.5 104q0 71 8 97q6 31 26 90
q7 13 42 13q-1 0 35 -2t54 -2q30 0 93.5 1t95.5 1q38 0 144 -14q7 -1 77 -16q14 -1 28 -1q21 -1 30 -13q2 -2 7 -32q7 -46 7 -118q0 -61 -5 -123zM618 431l-3 243q-20 -1 -47 6q-90 22 -192 22h-44h-51q-92 0 -189 5q-10 -43 -20 -85q-4 -17 -4 -68q8 -174 5 -273
q-1 -39 -6 -106q-4 -63 -4 -62q0 -3 1.5 -22.5t1.5 -24.5q184 0 310 -7q23 -1 71 -4q41 -3 43 -3l41 2t61 2l4 37q22 214 22 338zM531 490q0 -49 -32 -49q-15 0 -46 12l-51 21q-38 12 -113 35q-12 4 -49 4q-4 0 -35 -2.5t-35 -2.5q-35 0 -35 65q0 28 18 37q11 5 42 5
q25 0 105 -21q99 -27 123 -31q70 -13 79 -17q29 -14 29 -56zM426 359q0 -28 -19 -28q-22 0 -22 36q0 26 19 26q22 0 22 -34zM278 347q0 -9 -8 -16t-14 -7q-4 0 -16 10v32q3 22 17 22q21 0 21 -41zM534 223q0 -3 -20 -44q-24 -49 -30 -64q-5 -11 -21 -11q-8 0 -35 46
q-16 27 -31 53q-7 -18 -16 -55l-4 -28q-4 -21 -17 -21q-11 0 -45 45q-18 25 -36 49q-5 -28 -17 -78q-3 -9 -15 -9q-10 0 -47 37l-38 38q3 -27 -13 -44h-9q-5 5 -5 14q0 20 5 43q7 32 20 32q8 0 17.5 -13t18.5 -25q14 -18 37 -36q8 28 17 56q11 34 28 34q5 0 36 -41l32 -44
q9 32 19 63q13 40 34 40q8 0 36 -46q14 -24 28 -49q9 21 19 42q17 35 34 35q18 0 18 -19z" />
    <glyph glyph-name="x" unicode="x" horiz-adv-x="645" 
d="M615 561q0 -3 -3.5 -58t-3.5 -58v-85q0 -13 5 -37l-3 -161q-1 -28 -35 -59q-31 -27 -61 -53q-26 -24 -52.5 -47t-51.5 -23q-15 0 -15 11q0 53 -4 82q-4 44 -15 133q-10 -1 -34 -4t-27 -3q1 0 -16.5 1.5t-28.5 0.5h-3q-3 -56 -2 -60q0 -12 3.5 -39t3.5 -29q0 -86 -24 -86
q-19 0 -63 27q-12 8 -30 27q-20 23 -26 28l-60 40q-37 27 -53 58q-1 1 3 59q6 92 2 160q-1 18 -6 63q-5 42 -5 43v119q0 -4 6 53q1 17 37 36q56 30 123 57q93 37 89 37q16 0 19 -12q-1 2 -1 -17v-114q0 -9 -5 -38q5 0 18.5 1t16.5 1q40 0 58 -14q3 44 8 126q-1 21 -1 41
q1 38 18 38q18 0 71 -56q35 -38 57 -67q11 -15 43 -45.5t45 -48.5q3 -5 3 -28zM580 573q-58 39 -109 117q-5 7 -55 57q-4 -94 -10 -157q55 -22 85 -68q33 -1 46.5 -7t20.5 -32q5 -19 9 -39q4 45 13 129zM517 497l-6 6h-8l2 -8zM525 482l-1 7l-13 -3v-4h14zM535 465
q-1 1 -2.5 5.5t-2.5 5.5q-19 -6 -18 -6q0 -3 3 -8q8 2 20 3zM539 444q0 1 -1 5.5t-1 5.5q-8 0 -18 -2q-3 0 0 -5v-4q7 1 20 0zM539 415v14q-11 -4 -20 0l-2 -9q16 0 22 -5zM542 392q-3 6 -3 14q-5 -5 -10 -5q-2 0 -6 1t-9 1v-8q21 0 28 -3zM571 336v32l-2 35l-2 -48z
M544 375q-6 0 -34 2l-1.5 -5.5t-1.5 -9.5h35zM184 679v42q-14 -5 -16 -5v-37h16zM544 331v9q-15 2 -44 7q1 -13 -2 -16h46zM544 300v9q-16 5 -51 10q0 -7 -5 -16q11 2 28 2q20 0 28 -5zM545 278l-1 7l-56 4l-5 -6zM116 649v41q-6 -3 -19 -9q-1 -5 -2 -13v-22q8 3 21 3z
M472 425q0 91 -98 138q-26 12 -60 12q-25 0 -49 -17q-10 -13 -27 -32q-28 -32 -39 -67q-17 -58 -17 -107t46 -82q40 -29 86 -29q95 0 124 57q11 22 22.5 63.5t11.5 63.5zM572 328l-4 -20q1 -9 1 -16q0 -37 -32 -37q-16 0 -50 3q-4 1 -10 4t-9 3q-1 0 -19 -17
q-22 -20 -38 -31q8 -46 18 -194q14 4 29 21q26 28 58 53q61 48 54 63zM170 499q-8 2 -51 13q0 -6 -1 -18.5t-1 -16.5q22 4 46 0q1 3 3.5 11t3.5 11zM156 446q1 7 0 16h-14.5h-24.5v-16q13 3 39 0zM152 426q-23 5 -38 8v-11zM248 601q0 -1 -1 11.5t-1 37.5q-1 36 -1 95
q-15 -5 -43 -17q0 -18 -0.5 -37t-9.5 -26q-5 -4 -18 -4q-17 -1 -18 -1q-8 9 -8 25q0 24 1 22q-6 -3 -15 -8q-3 -25 -5 -51q-4 -16 -35 -16q-14 0 -14 21q0 8 3 23q-12 -6 -32 -17q0 -7 -1.5 -23t-1.5 -18q0 -67 2 -133q2 -36 7 -110l5 -69q0 -51 -9 -140q37 -24 109 -74
q1 -1 34 -32q24 -24 33 -23q-2 46 -1 137q0 9 6 43q-8 4 -26.5 19t-21.5 15t-8.5 -2.5t-8.5 -2.5q-72 0 -76 23q-7 42 -7 148q0 -11 -1 24q-1 26 0 46q2 29 8 44t12 15q2 0 7 -2t9 -2q24 0 65 -18q6 11 34 43t28 34zM147 392v11q-15 0 -30 8l-3 -14q15 0 33 -5zM142 362v11
q-8 2 -23 7v-21q15 3 23 3zM142 329v13q-15 0 -20 3v-16h20zM166 277q-13 32 -45 39v-39h45zM429 327q0 -17 -22 -28q-17 -8 -33 -8t-25 20q-7 16 -7 35q0 17 13 29t27 12q20 0 35 -23q12 -20 12 -37zM523 115q-8 -8 -14 -8q-21 0 -21 18q0 6 6 14t13 8q6 0 16 -10v-22z
M321 329q0 -38 -26 -38q-13 0 -27 6q-18 9 -18 22q0 15 11.5 32t28.5 17q13 0 22 -12.5t9 -26.5zM488 100q0 -23 -25 -23q-7 0 -12 8.5t-5 15.5q0 27 16 27q8 0 17 -11.5t9 -16.5zM401 331q2 8 -3 17t-11 9q-19 0 -19 -24q0 -18 14 -18q15 0 19 16zM514 119q5 7 0 11
q-3 3 -8 -1.5t-5 -8.5q0 -2 2 -3q6 -4 11 2zM295 315q8 7 0 20q-4 6 -9 7q-12 4 -12 -22q0 -8 11 -8q7 0 10 3zM476 104q-5 4 -11 0q-8 -4 -3 -13q1 -1 3 -1q12 0 12 12q0 1 -1 2z" />
    <glyph glyph-name="y" unicode="y" horiz-adv-x="527" 
d="M508 607q0 -29 -7 -39q-13 -18 -56 -21v-20q3 -31 9 -101q4 -62 -2 -172q5 -8 13 -26q3 -13 3 -33v-18q-1 -25 -2 -64q0 -14 -15 -62q-3 -10 -6 -19q-5 -15 -13 -18q-26 -13 -52 -13q-3 0 -81 -1t-81 -1q-178 0 -178 88v70q0 -1 -4 86q28 17 27 17l7 -1.5t22 -1.5
q-1 21 -7 64q-5 40 -5 42v74q0 2 -3 33q-4 38 -7 70q-12 3 -36 10q-17 8 -17 55q0 24 8.5 60.5t15.5 47.5q44 70 165 79q33 2 80 2q192 0 214 -130q0 -2 5 -19q3 -10 3 -38zM470 592q0 100 -55 137q-39 27 -128 27q-30 0 -76 -2q-54 -3 -94 -22q-55 -28 -54 -80
q-4 -18 -9 -41v-26q104 -12 125 -12q92 0 156 3q97 4 135 16zM428 263v22q4 107 -10 169q-6 28 -56 50q-6 2 -41 9q-41 8 -61 8q-33 0 -54 -3q-17 -3 -36 -8q-12 -3 -27 -3h-17.5h-26.5v-10q0 -3 4 -36q5 -38 7 -53q1 28 31 28t48 -14q12 -11 14 -33q0 7 0 -30q0 -28 -5 -38
q-9 -19 -39 -19q-29 0 -43 12q1 -10 7 -56h31q22 3 70 5q-5 5 -5 10q0 10 -2.5 63.5t-2.5 54.5q0 24 1 25q20 46 67 46q20 0 56.5 -22.5t44.5 -42.5q9 -24 10 -54q1 -62 -2 -76q13 0 37 -4zM365 277q-1 34 -1 68q-4 43 -26 69q-6 2 -16 6q-32 14 -43 14q-39 0 -39 -47
q0 -42 6 -112q4 -4 12 -7q27 -3 57 -3q42 0 50 12zM179 367q0 26 -2 30q-6 11 -32 11h-8q-10 -40 -10 -55q0 -25 30 -25q18 0 21 13q1 2 1 26zM440 120q0 -5 -1.5 25t-1.5 72q-6 3 -13 5q-12 5 -30 5h-332v-8q9 -71 10 -106q1 -19 2 -28q3 -18 9 -25q23 -23 64 -24l115 -2
q19 0 66 3q7 0 19 3.5t14 3.5q3 0 11 -1.5t10 -1.5q23 0 27 3q31 23 31 76zM381 618q0 -22 -27 -22q-15 0 -15 15q0 9 5 11q3 1 7 0q5 -2 6 -2q0 -1 -2 -3.5t-2 -4.5q3 -1 6 -3q5 1 8 3.5t2 8.5q-2 6 -1 8q2 0 6 -1q7 -4 7 -10zM172 705q0 -11 -9.5 -17.5t-14.5 -6.5
q-14 0 -14 19t21 19q17 0 17 -14zM285 324q0 -15 -11 -15q-15 0 -15 23q0 13 14 13q12 0 12 -21zM158 362q-4 -8 -11 -8q-13 0 -13 15q0 16 12 16q7 0 12 -8q4 -7 0 -15zM367 104q0 -20 -20 -20q-19 0 -19 22q0 18 22 18q17 0 17 -20zM203 105q0 -12 -15 -19q-11 -5 -17 -5
q-20 0 -20 20q0 25 19 25q8 0 20.5 -7.5t12.5 -13.5zM163 706q-3 3 -7 3q-3 0 -5 -4t0 -7q3 -3 8.5 1t3.5 7zM349 100q6 5 0 9q-1 1 -4 0q-2 -1 -2 -4q0 -4 2 -5q3 -1 4 0zM191 102q-1 12 -13 7q-8 -2 -6 -11q2 -6 11 -4t8 8z" />
    <glyph glyph-name="z" unicode="z" horiz-adv-x="556" 
d="M539 325q0 -3 -2 -15t-2 -17q-9 -207 -138 -256q-48 -19 -57 -21q-26 -8 -61 -8t-64 9q-31 5 -90 21q-68 28 -93 84q-18 38 -18 101q0 88 36 168l28 66q21 40 49 61q53 40 120 40q22 0 34 -2q2 1 2 7q0 10 -8 54q-9 55 -20 84q-1 2 -14.5 8t-13.5 17q0 16 8 35
q10 25 27 25q43 0 43 -49q0 -27 -27 -29q7 -28 21 -90q-1 -23 9 -65q3 -8 38 -20q27 -13 80 -37q14 -6 39 -17q29 -12 51.5 -68.5t22.5 -85.5zM280 735q3 6 0 18q0 6 -8 10.5t-16 2.5q-7 -2 -7 -33q0 -7 8 -11q15 -7 23 13zM488 345q-3 8 -11 5q-5 -1 -5 -8q0 -6 4 -8
q5 -2 9.5 2t2.5 9zM395 272v29q-4 22 -21 22h-15q19 -64 19 -81q0 -11 -3 -34q-2 -13 3 -21h10q7 93 7 85zM495 265q-4 8 -2 28l2 33q-14 -7 -19 -7q-17 0 -17 27q0 5 10 12.5t16 6.5q-2 18 -13.5 42t-20.5 30q-27 17 -81 41q-50 22 -55 22q-4 0 -6.5 -5t-4.5 -5
q-8 0 -12 13.5t-21 13.5q-14 0 -22 -47q-5 -33 -5 -58q0 -38 6 -70.5t6 -37.5q0 -12 -8 -12q-21 25 -21 72q0 119 24 160h-18q-3 0 -35 -12q-62 -22 -98 -98q-8 -17 -42 -124q12 0 35.5 -3t24.5 -3q3 0 19.5 2.5t19.5 2.5q58 0 119 -5q3 -2 5 -8h42q28 -1 33 -8
q0 -3 -1 -6.5t-1 -4.5h-18q-23 6 -62 12q-100 6 -221 5q0 2 0 -52q0 -74 24 -105q30 -38 121 -58q63 -14 76 -14q56 0 128 38q-4 -1 -13 -1q-43 0 -55 6v7q6 4 20 4q3 0 27.5 -5t27.5 -5q9 0 18 9q-47 3 -66 14q14 4 26 4q31 0 54 -8q3 4 3 10q-1 0 -31 3q-20 3 -30 11l4 3
q14 2 38 0q29 -2 26 -2q4 0 8 5t5 6q-6 4 -40 5q-19 0 -26 9l4 4q38 4 71 1l1 3.5t1 7.5q-10 -2 -22 -2q-16 0 -26 6q5 5 5 7q34 5 48 2q4 20 10 58q-24 4 -77 12l-3 -44q-2 -26 -14 -41q-30 -2 -39 9q5 77 6 75q-1 13 -10 39t-9 29q0 14 28 14q43 0 43 -37q0 -11 -2 -26
q47 -4 82 -10zM456 347q0 -16 -18 -16q-21 0 -21 18q0 7 6.5 15t13.5 8q12 0 19 -25zM376 387q0 -4 -8.5 -10.5t-12.5 -6.5q-7 0 -15 6t-8 14q0 7 3 12t24 5q12 0 17 -20zM192 351l-48 3q11 11 20 11q10 0 28 -14zM138 397q-12 0 -23 -2q-3 4 -3 9q2 0 7 1.5t9 1.5
q6 0 10 -10zM136 373h-16h-16q8 7 16 9q11 0 16 -9zM180 329q-24 3 -34 3q13 6 21 6q4 0 13 -9zM351 182q0 -28 -23 -36q-9 -3 -35 -3q-37 0 -47 16q-7 11 -7 48q0 48 34 48q3 0 10 -2t9 -2q59 -8 59 -69zM124 354h-27l3 9q8 -2 24 -9zM131 329h-15q-8 -1 -19 8q28 0 34 -8z
M219 177q0 -34 -55 -34h-7q-38 0 -38 47q0 44 43 38q2 0 7 2.5t9 2.5q20 0 30.5 -17.5t10.5 -38.5zM442 347q-3 14 -10 11q-8 -5 0 -15q7 -7 9 -2q1 2 1 6zM361 388q-2 4 -9 6q-6 -1 -6 -6q1 -7 9 -6q6 1 6 6zM314 182v8q3 14 -14 19l-24 4l-3 -38q2 0 41 7zM187 180
q-7 15 -8 16q-4 5 -14 5h-11v-26q13 1 33 5z" />
    <glyph glyph-name="section" unicode="&#xa7;" horiz-adv-x="835" 
d="M808 384q0 -76 -20 -130q-30 -79 -66 -121q-23 -27 -55 -55q-10 -9 -50 -34q-51 -31 -68 -31q-2 0 -22 -7.5t-33 -7.5q-3 0 -8.5 -1.5t-9.5 -1.5t-11.5 -2t-10.5 -3q-42 -3 -85 0q-14 1 -24 1q-30 0 -86 26q-43 19 -72 39q-40 28 -80 74q-54 62 -72 133q-17 68 -17 121
q0 137 84 245q91 117 243 144q30 6 109 6q4 0 11 -3t10.5 -3t27.5 -6.5t27 -6.5q20 0 100 -44q91 -60 138 -156q40 -84 40 -176zM790 384q0 43 -19 117q-15 56 -68 122q-58 72 -119 97q-55 22 -63 22q-4 0 -37 9t-37 9q-119 0 -200 -37q-98 -47 -163 -158q-48 -82 -48 -181
q0 -66 23 -127q35 -97 115.5 -165t179.5 -82q28 -3 93 -3q4 0 12 1.5t12 1.5t8.5 1.5t8.5 1.5t27.5 7.5t25.5 7.5t44 19q69 32 119 94q25 32 47 76q39 79 39 167zM644 633q0 -8 -16 -45t-22 -37q-5 0 -19 7q0 2 1 6q5 2 17 10q-2 12 -11.5 39t-9.5 30q0 4 4 8q19 -12 19 -40
q3 0 8 -6q6 12 18 37q11 0 11 -9zM577 619q0 -29 -25 -29q-4 0 -15.5 2t-16.5 2v41.5v42.5q15 -8 15 -25q3 -1 8.5 1.5t8.5 2.5q8 0 16.5 -15t8.5 -23zM438 637q-7 -8 -25 -9t-18 -10q0 -5 8 -13q5 0 14 9h11q0 -8 -1 -11q-5 -10 -15 -10h-11q-13 0 -21 16q-6 12 -6 19
q0 38 44 38q4 0 9.5 -10t10.5 -19zM371 594q-40 -10 -47 -10q-17 0 -17 27q0 22 19 35q7 2 23 10q3 10 3 12t5 7q1 0 9 -5q5 -18 5 -17v-59zM297 657q-1 0 -6.5 -1.5t-6.5 -1.5q-7 6 -1 18h14v-15zM495 446q0 -11 -12 -11q-4 0 -18 7v11q10 0 23 6q7 -7 7 -13zM304 637
q0 -2 -6 -9q-1 -11 -1 -53q-1 0 -7.5 -1.5t-9.5 -1.5q0 3 -1.5 8.5t-1.5 9.5q0 24 7 56q4 1 12 5q8 -8 8 -14zM431 448q-8 -5 -26 -16l-1.5 7.5t-1.5 16.5l8 1.5t18 1.5l3 -3v-8zM272 638l-10 -38q-6 -22 -17 -37q-15 5 -32 57q1 0 3.5 2t6.5 2t8.5 -10t7.5 -18
q11 3 16.5 21.5t16.5 20.5zM204 638l-4 -14h-14v9q-1 5 2.5 6t3.5 2q8 0 12 -3zM538 270l-11 5l5 31zM206 555q-5 -9 -20 -16q-1 46 3 73l-3 5h20v-62zM656 336q0 -24 -7 -34q-17 -16 -47 -52q0 -5 -5 -15q-18 -22 -54 -24q-30 -1 -61 -2q-6 -4 -4 -9q-37 -23 -48 -23
q-3 0 -17 7.5t-18 7.5t-40.5 -6t-39.5 -6q-34 0 -73 16.5t-58 16.5q-22 0 -62 -11q6 7 46 23t46 16q8 0 35 -24.5t43 -24.5h39q27 0 59 13q5 2 6 3.5t1 3.5q-2 4 -2 7q54 2 153 7q25 2 38 17q3 3 7 43q0 -5 7 -18q11 15 11 24q0 4 -6 21.5t-6 21.5q0 11 12 23q2 7 -11 7
q-17 0 -45 -25q1 -3 4 -3q-8 -9 -16 -10q-32 -7 -70 -7q4 0 -66 20q31 2 31 19q0 13 -18 24q5 -2 19 -8.5t18 -6.5q10 0 17 12q4 10 8 19v-31h24q11 6 35 15q-8 -8 -15 -22v-17l0.5 -1.5t5.5 -1.5l28 20q6 4 39 18q0 7 -4 17q-54 64 -146 106l-6 -6q-18 -3 -81 -24
q20 17 43 29q10 3 20 5q14 5 19 15h-50q-5 -1 -49 -20q-49 -21 -75 -36q-3 -2 -50 -36q-40 -30 -46 -30h-65q20 12 23 12q4 0 5 -1.5t4 -1.5q29 0 39 6q22 19 73 56q45 29 79 43q63 25 78 25q47 0 95 -31q38 -26 64 -60q13 -13 37 -46q6 -9 -4 -19q3 -6 16 -9t14 -3
q24 -20 24 -34zM179 539q-41 -25 -47 -25q-15 0 -13 26q0 23 23 46q12 2 14.5 8t8.5 23h11q3 -26 3 -78zM571 107q0 -23 -10 -42q-3 -4 -9 -9q-2 0 -8 -3.5t-11 -3.5q-18 0 -29 23q-9 18 -9 38q0 10 2 17q4 12 20.5 23.5t24.5 11.5q17 0 24 -26q5 -15 5 -29zM486 117l-7 -7
q-2 1 -9 16q-5 11 -10 11q-21 0 -21 -44q0 -27 5 -46q-13 -7 -21 -3v79q-1 6 12.5 19.5t18.5 13.5q32 0 32 -23v-16zM407 98q-6 0 -23.5 1.5t-20.5 1.5q-10 0 -10 -9q0 -34 23.5 -34t27.5 -4q-8 -11 -24 -11q-20 0 -31.5 18t-11.5 35q0 29 11 39.5t39 10.5q6 0 13 -11t7 -17
v-20zM325 135q-17 -17 -52 -56q33 -9 37 -9q11 0 15 -4v-10q-35 5 -50 5l-9 -3q-6 0 -20 7v14q12 20 52 54q-3 7 -25.5 10.5t-26.5 10.5v10q29 -6 79 -15v-14zM559 606v29q-7 7 -12 7q-4 0 -12 -7v-26q8 -7 14 -7t10 4zM412 640q3 8 -10 14l-7 -7v-11h14zM517 487l-17 10
l-2 -4l17 -10zM349 618q0 17 -10 18q-14 3 -14 -22q0 -11 4 -18h13q7 8 7 22zM641 324v20q-5 0 -12 1.5t-11 1.5q-10 0 -10 -18q0 -11 7 -31q1 1 13 4q13 11 13 22zM161 558q0 15 -11 20q-16 -19 -16 -30q0 -4 1.5 -9t1.5 -6q1 0 2 1t5 1q17 0 17 23zM465 209q-5 0 -16 2
t-14 2q-12 0 -19 -14q8 -4 19 -4q18 0 30 14zM556 107q0 39 -15 39q-13 0 -21.5 -12t-8.5 -29q4 -38 21 -38q4 0 4 1.5t3 1.5q17 0 17 37zM395 114q-3 6 -10.5 13t-10.5 7q-15 0 -18 -20q40 0 39 0z" />
    <glyph glyph-name="copyright" unicode="&#xa9;" horiz-adv-x="1149" 
d="M1122 506q-2 1 -5 -1q-5 5 -11 22q-2 -5 -8 -14q-7 3 -14 14q-1 -8 -3 -20q-3 0 -6 -1q-2 6 -2 39q7 2 12 -4l10 -12q2 6 9 17q13 -7 18 -40zM1068 542q-4 -4 -13 -1q3 -13 4 -39q-3 1 -6 -1q-4 26 -4 38l-16 -2l-2 8q3 0 10 1t10 1q17 0 16 0q0 -3 1 -5zM1040 489
q0 -32 -17 -53q-4 -5 -15 -5h-16q-2 -51 -11 -69q-13 -30 -52 -30q-14 0 -32 8q-23 11 -33 27q-6 -6 -27 -12.5t-31 -6.5q-12 0 -19 14q-5 -11 -25 -19.5t-34 -8.5q-2 0 -8 2.5t-8 2.5q-3 0 -10 -2.5t-10 -2.5q-5 0 -22 4.5l-17 4.5q-2 0 -16 -5.5t-29 -5.5t-36 5.5
t-23 13.5q-4 14 -7 14q-1 0 -19.5 -14.5t-28.5 -14.5q-13 0 -25 15q-4 -9 -22 -22q-8 -2 -15 -2q-3 0 -8 1t-8 1t-5.5 -7t-3.5 -8q-14 -11 -36 -11q-26 0 -31 12q-10 -14 -40 -29t-49 -15q-3 0 -19.5 4.5t-18.5 4.5q1 0 -24 -9.5t-43 -9.5q-27 0 -37 6q-16 8 -19 60
q-2 49 -12 49q-3 0 -5.5 -1t-5.5 -1q-17 0 -30 37q-9 27 -9 43q0 15 7.5 19.5t69.5 24.5q69 22 86 22q29 0 35 -39q1 -5 13 -41q3 0 46 7q4 8 14 20q14 10 39 22t30 12q19 0 31 -16q5 2 9.5 14.5t7.5 16.5t23.5 13.5t29.5 9.5q12 0 18.5 -9t14.5 -20q8 14 18 21q23 15 70 15
q32 0 58 -26q8 10 14 18t18 8q6 0 19 -3q0 4 -1.5 11t-1.5 9q0 11 13 18q10 7 20 7q3 0 16.5 -4.5t16.5 -4.5t31.5 4.5t31.5 4.5q22 0 51 -4q33 -4 33.5 -10t1.5 -13.5t4 -7.5q1 0 12 4.5t21 4.5q27 0 59.5 -24t32.5 -49zM1007 488q0 13 -23 27t-34 14q-28 0 -28 -46
q0 -3 9.5 -24t9.5 -24q0 -30 -31 -30q-8 0 -18 4q-7 -15 -7 -13q0 -10 18 -19.5t26 -9.5q25 0 25 31q0 7 -1.5 22t-1.5 22q0 33 28 33q-1 0 20 -7q1 3 4.5 10t3.5 10zM875 548q-44 2 -145 9q0 -13 12 -36l39 -3q23 -2 27 -23q-1 -3 -5 -9q5 -41 14 -102q2 0 7 1t6 1v22
q-2 32 -4 94q0 4 8 8.5t13 4.5q2 0 8 -1t15 -1q0 15 5 35zM757 380q-50 128 -67 128q-11 0 -14 -41l-2 -54q-1 -15 -6 -43h23q-1 25 18 25q13 0 23 -26q10 3 25 11zM633 401q0 12 -7 26.5t-21 14.5q-4 0 -14 -4v12q30 19 30 35q0 28 -26 28q-14 0 -58 -17v-8q13 -38 37 -113
q5 0 17 -1.5t15 -1.5q27 0 27 29zM511 394q0 7 -19 46.5t-27 48.5q-27 -15 -30.5 -26t-5.5 -21q-6 -14 -18 -14q-17 0 -30.5 16.5t-14.5 16.5q-5 0 -41 -22q8 -14 20 -38l10 -36q9 -29 16 -29q9 0 9.5 10.5t1.5 19.5q0 13 10 13q3 0 15.5 -6t15.5 -6h9q12 23 12 24
q8 11 22 11q5 0 8 -1q14 -9 24 -20q13 14 13 13zM315 355q0 18 -19 46q-4 6 -31 6q-46 0 -46 -49q0 -50 32 -50q10 0 35 15q29 17 29 32zM195 445q-1 5 -5 16.5t-5 15.5q-19 -4 -58.5 -15t-58.5 -16q4 -22 8 -32q11 0 18 1t8 1q17 0 25 -51q4 -32 8 -63q3 -1 7 -1q11 0 30 5
v11q0 2 -6 44q-1 9 -7 29.5t-6 22.5q0 15 42 32zM715 436q0 -17 -16 -17q-14 0 -14 19q0 16 14 16q16 0 16 -18zM590 466q-8 -7 -12 -7t-8.5 5t-4.5 9q0 14 14 14q6 0 11 -5v-16zM614 405q0 -12 -13 -12q-11 0 -11 14q0 12 11 12q13 0 13 -14zM273 350q0 -16 -17 -16
q-16 0 -16 19q0 16 15 16q7 0 12.5 -7t5.5 -12z" />
  </font>
</defs>
</svg>
